<svg width="30" height="30" viewBox="0 0 30 30" fill="none" xmlns="http://www.w3.org/2000/svg">
<path d="M10.8955 30L10.2985 25.2C9.97513 25.075 9.67065 24.925 9.38508 24.75C9.09851 24.575 8.81841 24.3875 8.54478 24.1875L4.10448 26.0625L0 18.9375L3.84328 16.0125C3.81841 15.8375 3.80597 15.6685 3.80597 15.5055V14.493C3.80597 14.331 3.81841 14.1625 3.84328 13.9875L0 11.0625L4.10448 3.9375L8.54478 5.8125C8.81841 5.6125 9.10448 5.425 9.40299 5.25C9.70149 5.075 10 4.925 10.2985 4.8L10.8955 0H19.1045L19.7015 4.8C20.0249 4.925 20.3299 5.075 20.6164 5.25C20.902 5.425 21.1816 5.6125 21.4552 5.8125L25.8955 3.9375L30 11.0625L26.1567 13.9875C26.1816 14.1625 26.194 14.331 26.194 14.493V15.5055C26.194 15.6685 26.1692 15.8375 26.1194 16.0125L29.9627 18.9375L25.8582 26.0625L21.4552 24.1875C21.1816 24.3875 20.8955 24.575 20.597 24.75C20.2985 24.925 20 25.075 19.7015 25.2L19.1045 30H10.8955ZM15.0746 20.25C16.5174 20.25 17.7488 19.7375 18.7687 18.7125C19.7886 17.6875 20.2985 16.45 20.2985 15C20.2985 13.55 19.7886 12.3125 18.7687 11.2875C17.7488 10.2625 16.5174 9.75 15.0746 9.75C13.607 9.75 12.3692 10.2625 11.3612 11.2875C10.3542 12.3125 9.85075 13.55 9.85075 15C9.85075 16.45 10.3542 17.6875 11.3612 18.7125C12.3692 19.7375 13.607 20.25 15.0746 20.25ZM15.0746 17.25C14.4527 17.25 13.9244 17.031 13.4896 16.593C13.0537 16.156 12.8358 15.625 12.8358 15C12.8358 14.375 13.0537 13.844 13.4896 13.407C13.9244 12.969 14.4527 12.75 15.0746 12.75C15.6965 12.75 16.2254 12.969 16.6612 13.407C17.096 13.844 17.3134 14.375 17.3134 15C17.3134 15.625 17.096 16.156 16.6612 16.593C16.2254 17.031 15.6965 17.25 15.0746 17.25ZM13.5075 27H16.4552L16.9776 23.025C17.7488 22.825 18.4642 22.531 19.1239 22.143C19.7826 21.756 20.3856 21.2875 20.9328 20.7375L24.6269 22.275L26.0821 19.725L22.8731 17.2875C22.9975 16.9375 23.0846 16.5685 23.1343 16.1805C23.1841 15.7935 23.209 15.4 23.209 15C23.209 14.6 23.1841 14.206 23.1343 13.818C23.0846 13.431 22.9975 13.0625 22.8731 12.7125L26.0821 10.275L24.6269 7.725L20.9328 9.3C20.3856 8.725 19.7826 8.2435 19.1239 7.8555C18.4642 7.4685 17.7488 7.175 16.9776 6.975L16.4925 3H13.5448L13.0224 6.975C12.2512 7.175 11.5363 7.4685 10.8776 7.8555C10.2179 8.2435 9.61443 8.7125 9.06716 9.2625L5.37313 7.725L3.91791 10.275L7.12687 12.675C7.00249 13.05 6.91542 13.425 6.86567 13.8C6.81592 14.175 6.79105 14.575 6.79105 15C6.79105 15.4 6.81592 15.7875 6.86567 16.1625C6.91542 16.5375 7.00249 16.9125 7.12687 17.2875L3.91791 19.725L5.37313 22.275L9.06716 20.7C9.61443 21.275 10.2179 21.756 10.8776 22.143C11.5363 22.531 12.2512 22.825 13.0224 23.025L13.5075 27Z" fill="white"/>
</svg>
