<svg width="30" height="27" viewBox="0 0 30 27" fill="none" xmlns="http://www.w3.org/2000/svg">
<path d="M0 27V3H18.15C18.05 3.5 18 4 18 4.5C18 5 18.05 5.5 18.15 6H3L15 13.5L20.475 10.0875C20.825 10.4125 21.2065 10.6935 21.6195 10.9305C22.0315 11.1685 22.4625 11.375 22.9125 11.55L15 16.5L3 9V24H27V11.85C27.575 11.725 28.1125 11.55 28.6125 11.325C29.1125 11.1 29.575 10.825 30 10.5V27H0ZM3 6V24V6ZM25.5 9C24.25 9 23.1875 8.5625 22.3125 7.6875C21.4375 6.8125 21 5.75 21 4.5C21 3.25 21.4375 2.1875 22.3125 1.3125C23.1875 0.4375 24.25 0 25.5 0C26.75 0 27.8125 0.4375 28.6875 1.3125C29.5625 2.1875 30 3.25 30 4.5C30 5.75 29.5625 6.8125 28.6875 7.6875C27.8125 8.5625 26.75 9 25.5 9Z" fill="white"/>
</svg>
