<svg width="34" height="34" viewBox="0 0 34 34" fill="none" xmlns="http://www.w3.org/2000/svg">
<path d="M17 33C25.8368 33 33 25.8368 33 17C33 8.1632 25.8368 1 17 1C8.1632 1 1 8.1632 1 17C1 25.8368 8.1632 33 17 33Z" stroke="white" stroke-width="2" stroke-linejoin="round"/>
<path d="M24.2 10.6L21 13.8L24.2 17M22.6 22.6C22.6 22.6 21 25.8 17 25.8C13 25.8 11.4 22.6 11.4 22.6" stroke="white" stroke-width="2" stroke-linecap="round" stroke-linejoin="round"/>
<path d="M11.4 17C13.1673 17 14.6 15.5673 14.6 13.8C14.6 12.0327 13.1673 10.6 11.4 10.6C9.6327 10.6 8.20001 12.0327 8.20001 13.8C8.20001 15.5673 9.6327 17 11.4 17Z" stroke="white" stroke-width="2" stroke-linecap="round" stroke-linejoin="round"/>
</svg>
