<svg width="32" height="33" viewBox="0 0 32 33" fill="none" xmlns="http://www.w3.org/2000/svg">
<path d="M3.18313 21.3791C3.26053 18.7917 1.84498 17.8175 0.118741 17.1738C-0.454903 19.3875 1.12819 21.2294 3.18313 21.3791ZM3.57386 9.82605C4.67449 7.48275 3.7626 6.02458 2.42869 4.75566C1.02851 6.56493 1.74848 8.87819 3.57386 9.82605ZM4.19469 16.3493C4.11888 13.7635 5.53284 12.7851 7.26013 12.144C7.83166 14.3566 6.24963 16.198 4.19469 16.3493ZM4.19469 20.3374C4.11888 17.7516 5.53284 16.7758 7.26013 16.1332C7.83166 18.3452 6.24963 20.1872 4.19469 20.3374ZM4.19469 12.3628C4.11888 9.77597 5.53284 8.79753 7.26013 8.1549C7.83166 10.3696 6.24963 12.2105 4.19469 12.3628ZM3.18313 17.3916C3.26053 14.8058 1.84498 13.8273 0.118741 13.1863C-0.454903 15.3988 1.12819 17.2408 3.18313 17.3916ZM3.18313 13.4051C3.26053 10.8177 1.84498 9.83976 0.118741 9.19607C-0.454903 11.4118 1.12819 13.2511 3.18313 13.4051ZM22.677 32.9143H8.72765L15.7031 20.8968L22.677 32.9143ZM11.4988 31.3227H19.9063L15.7026 24.082L11.4988 31.3227ZM1.14674 24.7278L30.699 16.7336L30.26 15.1189L0.705639 23.1141L1.14674 24.7278ZM21.9999 0C21.9999 0 22.2162 4.23903 25.9529 3.87949C25.9529 3.87949 26.3744 0.33792 21.9999 0ZM25.9121 13.7873C25.7113 14.0679 25.4458 14.2965 25.1377 14.4539C24.8297 14.6114 24.4882 14.693 24.1418 14.6919C23.5464 14.6919 22.9632 14.4135 22.5699 14.0234C21.7651 13.1504 20.7217 11.1988 20.7217 11.1988C20.1369 10.0185 19.8236 9.1054 19.8236 8.18231C19.8236 6.21594 21.4242 4.51053 23.407 4.51053C24.3441 4.50989 25.2439 4.87528 25.9126 5.52798C26.5808 4.87515 27.4803 4.50971 28.4171 4.51053C30.3994 4.51053 32 6.21594 32 8.18231C32 9.1054 31.6861 10.0185 31.1019 11.1988C31.1019 11.1988 30.0585 13.1499 29.2537 14.0234C28.8603 14.4135 28.2771 14.6919 27.6812 14.6919C27.335 14.693 26.9935 14.6115 26.6855 14.4541C26.3775 14.2966 26.1121 14.0679 25.9115 13.7873H25.9121Z" fill="white"/>
</svg>
