<svg width="49" height="49" viewBox="0 0 49 49" fill="none" xmlns="http://www.w3.org/2000/svg">
<path d="M47.5626 2.56283C47.8443 2.28157 48.0027 1.89994 48.0029 1.5019C48.0032 1.10385 47.8454 0.721995 47.5641 0.440335C47.2828 0.158675 46.9012 0.00028168 46.5032 3.75333e-07C46.1051 -0.000280929 45.7233 0.157572 45.4416 0.438834L36.0006 9.87683V1.50083C36.0006 1.10301 35.8426 0.721479 35.5613 0.440174C35.28 0.15887 34.8984 0.000834364 34.5006 0.000834364C34.1028 0.000834364 33.7212 0.15887 33.4399 0.440174C33.1586 0.721479 33.0006 1.10301 33.0006 1.50083V10.1318C28.2636 7.77383 22.2306 9.11183 19.0806 13.7498L0.819603 40.5878C-0.464397 42.4778 -0.218396 44.9978 1.4076 46.6088C3.0576 48.2408 5.6526 48.4658 7.5666 47.1428L34.3566 28.5908C36.4826 27.1302 38.0101 24.9513 38.6582 22.4546C39.3063 19.9579 39.0317 17.3112 37.8846 15.0008H46.5006C46.8984 15.0008 47.28 14.8428 47.5613 14.5615C47.8426 14.2802 48.0006 13.8987 48.0006 13.5008C48.0006 13.103 47.8426 12.7215 47.5613 12.4402C47.28 12.1589 46.8984 12.0008 46.5006 12.0008H38.1216L47.5596 2.56283H47.5626ZM21.5826 15.4148C24.3486 11.3498 30.1776 10.7918 33.6786 14.2568C34.4905 15.0576 35.1155 16.0278 35.5088 17.0982C35.9021 18.1686 36.054 19.3127 35.9537 20.4486C35.8534 21.5846 35.5033 22.6843 34.9285 23.6692C34.3537 24.6541 33.5683 25.4998 32.6286 26.1458L5.8386 44.6978C5.49258 44.938 5.07351 45.0496 4.65388 45.0135C4.23425 44.9773 3.84045 44.7956 3.5406 44.4998C3.24687 44.2108 3.06403 43.8277 3.024 43.4176C2.98397 43.0074 3.0893 42.5962 3.3216 42.2558L21.5826 15.4148Z" fill="white"/>
</svg>
