<svg width="12" height="15" viewBox="0 0 12 15" fill="none" xmlns="http://www.w3.org/2000/svg">
<path d="M4.95833 9.20833H6.375V7.79167H7.79167V6.375H6.375V4.95833H4.95833V6.375H3.54167V7.79167H4.95833V9.20833ZM0 12.0417V10.625H1.41667V5.66667C1.41667 4.68681 1.71181 3.81603 2.30208 3.05433C2.89236 2.29311 3.65972 1.79444 4.60417 1.55833V1.0625C4.60417 0.767361 4.70758 0.516611 4.91442 0.31025C5.12078 0.103417 5.37153 0 5.66667 0C5.96181 0 6.21256 0.103417 6.41892 0.31025C6.62575 0.516611 6.72917 0.767361 6.72917 1.0625V1.55833C7.67361 1.79444 8.44097 2.29311 9.03125 3.05433C9.62153 3.81603 9.91667 4.68681 9.91667 5.66667V10.625H11.3333V12.0417H0ZM5.66667 14.1667C5.27708 14.1667 4.94369 14.0281 4.6665 13.7509C4.38883 13.4732 4.25 13.1396 4.25 12.75H7.08333C7.08333 13.1396 6.94474 13.4732 6.66754 13.7509C6.38987 14.0281 6.05625 14.1667 5.66667 14.1667Z" fill="#F28705"/>
</svg>
