<svg width="52" height="63" viewBox="0 0 52 63" fill="none" xmlns="http://www.w3.org/2000/svg">
<path d="M33.4652 39.5614L19.0902 33.1552C17.5277 32.3739 16.7464 34.7177 15.9652 36.2802C15.1839 37.8427 9.55895 47.5302 10.0277 49.2489C10.4965 50.6552 11.7464 51.4364 12.9964 51.4364C13.3089 51.4364 13.6215 51.4364 13.934 51.2802L33.1527 45.3427C34.4027 45.0302 35.3402 43.7802 35.3402 42.5302C35.3402 41.2802 34.559 40.0302 33.4652 39.5614Z" fill="#00796B"/>
<path d="M31.1523 15.625C35.4671 15.625 38.9648 12.1272 38.9648 7.8125C38.9648 3.49778 35.4671 0 31.1523 0C26.8376 0 23.3398 3.49778 23.3398 7.8125C23.3398 12.1272 26.8376 15.625 31.1523 15.625Z" fill="#FF9800"/>
<path d="M29.2774 17.5L25.8399 15.9375C23.8087 15 21.3087 15.9375 20.3712 17.9687L1.77744 57.9687C0.996185 59.5312 1.77744 61.4062 3.33994 62.1875C3.80869 62.3437 4.27744 62.5 4.74619 62.5C5.99619 62.5 7.08994 61.875 7.55869 60.7812C7.55869 60.7812 22.5587 40 23.8087 37.5C25.0587 35 31.4649 22.9687 31.4649 22.9687C32.2462 20.9375 31.4649 18.4375 29.2774 17.5Z" fill="#009688"/>
<path d="M50.6836 18.2812C49.5898 17.0312 47.5586 16.7187 46.3086 17.8125L38.4961 24.375L28.4961 18.9063C26.7773 17.9688 24.4336 18.2812 23.3398 20.3125C22.0898 22.3438 22.7148 24.8437 24.5898 25.625L37.5586 30.9375C38.0273 31.0937 38.4961 31.25 38.9648 31.25C39.7461 31.25 40.3711 30.9375 40.9961 30.4688L50.3711 22.6562C51.6211 21.5625 51.7773 19.6875 50.6836 18.2812ZM5.68359 29.8438L10.9961 21.875L18.1836 22.8125L20.5273 17.9688C21.1523 16.5625 22.4023 15.7812 23.8086 15.625H9.43359C8.33984 15.625 7.40234 16.0937 6.77734 17.0312L0.527344 26.4062C-0.410156 27.8125 -0.0976558 29.8438 1.46484 30.7813C1.77734 31.0938 2.40234 31.25 3.02734 31.25C3.96484 31.25 5.05859 30.7813 5.68359 29.8438Z" fill="#FF9800"/>
</svg>
