<svg width="82" height="79" viewBox="0 0 82 79" fill="none" xmlns="http://www.w3.org/2000/svg">
<path d="M8.91948 78.734L13.2279 77.5808L14.3811 75.0783L21.8447 75.2744L29.6098 73.1963L31.3601 70.486L38.6247 70.7845L46.2084 68.7532C51.4768 67.3483 53.2622 60.7335 49.3987 56.87L22.1199 29.5619C18.2563 25.6983 11.6415 27.4545 10.2366 32.7522L7.97409 41.2022L8.29019 48.0629L5.71451 49.6493L3.40225 58.2866L3.7886 64.8663L1.26267 66.2829L0.255815 70.0411C-1.17837 75.3095 3.65104 80.1389 8.91948 78.734Z" fill="#F9C23C"/>
<path d="M16.9686 64.5473C12.6368 60.4993 8.94889 55.6289 5.68831 49.7429L7.96544 41.2432C11.706 49.4327 15.9149 55.5528 20.9639 60.2681C25.8313 64.8136 31.5973 68.162 38.7302 70.7552L29.5748 73.2051C24.8859 70.8723 20.7151 68.042 16.9716 64.5473H16.9686ZM6.68638 72.8392C4.61569 70.8901 2.79223 68.6941 1.25696 66.3005L3.43751 58.1549C5.49513 62.516 7.79861 65.8644 10.6845 68.5659C13.5646 71.2587 17.1472 73.4217 21.918 75.2539L13.1695 77.5954C10.8315 76.2665 8.65589 74.6704 6.68638 72.8392Z" fill="#3F5FFF"/>
<path d="M50.0719 66.4117C54.1696 62.314 49.0768 50.6064 38.7155 40.2451C28.3542 29.8838 16.6758 24.791 12.5781 28.8887C8.48046 32.9864 13.5733 44.694 23.9346 55.0553C34.2958 65.4166 46.0035 70.4801 50.0719 66.4117Z" fill="#6D4534"/>
<path d="M28.12 12.4979C29.9097 15.829 31.0178 19.4832 31.3796 23.2472C31.7415 27.0112 31.3498 30.8096 30.2274 34.4205C28.354 40.6168 24.4195 45.9868 19.0759 49.6405C17.5539 47.738 16.2368 45.8355 15.1245 43.9915C19.2014 41.2114 22.2064 37.1221 23.6419 32.401C25.3687 26.8106 24.8126 20.8982 22.0613 15.7468C21.154 14.0492 21.7979 11.9711 23.4663 11.093C25.1639 10.1857 27.242 10.8296 28.12 12.4979ZM58.9697 40.1368C61.5974 38.0592 64.7171 36.6955 68.0266 36.1776C71.3361 35.6597 74.7232 36.0052 77.86 37.1806C78.2377 37.3213 78.6393 37.3862 79.042 37.3717C79.4448 37.3571 79.8407 37.2634 80.2072 37.0958C80.5737 36.9283 80.9036 36.6902 81.1781 36.3951C81.4526 36.1 81.6663 35.7538 81.807 35.3762C81.9476 34.9985 82.0126 34.5969 81.998 34.1941C81.9835 33.7914 81.8897 33.3955 81.7222 33.029C81.5546 32.6625 81.3165 32.3326 81.0214 32.0581C80.7264 31.7836 80.3802 31.5699 80.0025 31.4292C75.8774 29.8858 71.4238 29.4332 67.0726 30.1151C62.7214 30.7971 58.6198 32.5906 55.1647 35.322C54.8486 35.5719 54.5847 35.8815 54.3883 36.2333C54.1918 36.5851 54.0666 36.9722 54.0197 37.3724C53.9728 37.7726 54.0052 38.1781 54.115 38.5658C54.2249 38.9535 54.41 39.3158 54.6598 39.6319C54.9097 39.948 55.2193 40.2119 55.5711 40.4083C55.9229 40.6048 56.31 40.7301 56.7102 40.777C57.1104 40.8238 57.5159 40.7914 57.9036 40.6816C58.2913 40.5718 58.6536 40.3866 58.9697 40.1368ZM11.7293 19.5811C12.6298 19.5811 13.4934 19.2234 14.1301 18.5866C14.7668 17.9499 15.1245 17.0863 15.1245 16.1859C15.1245 15.2854 14.7668 14.4218 14.1301 13.7851C13.4934 13.1483 12.6298 12.7906 11.7293 12.7906C10.8289 12.7906 9.96527 13.1483 9.32854 13.7851C8.69182 14.4218 8.33411 15.2854 8.33411 16.1859C8.33411 17.0863 8.69182 17.9499 9.32854 18.5866C9.96527 19.2234 10.8289 19.5811 11.7293 19.5811ZM70.6188 16.1859C70.6188 17.0863 70.2611 17.9499 69.6244 18.5866C68.9877 19.2234 68.1241 19.5811 67.2236 19.5811C66.3231 19.5811 65.4596 19.2234 64.8228 18.5866C64.1861 17.9499 63.8284 17.0863 63.8284 16.1859C63.8284 15.2854 64.1861 14.4218 64.8228 13.7851C65.4596 13.1483 66.3231 12.7906 67.2236 12.7906C68.1241 12.7906 68.9877 13.1483 69.6244 13.7851C70.2611 14.4218 70.6188 15.2854 70.6188 16.1859Z" fill="#F70A8D"/>
<path d="M30.6957 2.80984C30.6957 3.55505 30.3997 4.26975 29.8727 4.79669C29.3458 5.32364 28.6311 5.61967 27.8859 5.61967C27.1407 5.61967 26.426 5.32364 25.899 4.79669C25.3721 4.26975 25.076 3.55505 25.076 2.80984C25.076 2.06462 25.3721 1.34993 25.899 0.822982C26.426 0.296036 27.1407 0 27.8859 0C28.6311 0 29.3458 0.296036 29.8727 0.822982C30.3997 1.34993 30.6957 2.06462 30.6957 2.80984ZM68.7163 62.6652C68.7163 63.4182 68.4172 64.1403 67.8848 64.6728C67.3523 65.2052 66.6302 65.5043 65.8772 65.5043C65.1243 65.5043 64.4021 65.2052 63.8697 64.6728C63.3372 64.1403 63.0381 63.4182 63.0381 62.6652C63.0381 61.9122 63.3372 61.1901 63.8697 60.6577C64.4021 60.1252 65.1243 59.8261 65.8772 59.8261C66.6302 59.8261 67.3523 60.1252 67.8848 60.6577C68.4172 61.1901 68.7163 61.9122 68.7163 62.6652Z" fill="#F9C23C"/>
<path d="M57.4476 2.98551C56.9783 2.56478 56.3794 2.31695 55.75 2.28305C54.9908 2.24283 54.2462 2.50259 53.6768 3.00631C53.1074 3.51004 52.7587 4.21738 52.706 4.97581C52.5011 8.19542 50.2767 14.02 49.4279 15.981C49.4279 15.9956 49.4191 16.0103 49.4132 16.0249C49.2526 16.4252 49.0798 16.8205 48.8952 17.2103C47.867 15.9381 46.4833 15.0007 44.9204 14.5176L44.8326 14.4883C40.8813 13.1712 36.5787 15.3078 35.2616 19.2884C34.6177 21.2202 34.764 23.269 35.6714 25.0837C36.5787 26.8984 38.13 28.2448 40.0618 28.8887C40.2666 28.9589 40.4803 29.0028 40.6881 29.0204C42.1691 29.4214 43.6004 29.436 44.976 29.0643C44.8927 29.4674 44.796 29.8676 44.6863 30.2643C44.2765 31.7863 45.1839 33.3669 46.7059 33.7766C47.4394 33.9728 48.2207 33.8705 48.8789 33.492C49.5372 33.1135 50.0187 32.4897 50.2181 31.7571C50.8747 29.3938 51.1639 26.9437 51.0757 24.4925C52.5977 22.5841 53.8153 20.4826 54.7256 18.2055L54.7695 18.1001C55.311 16.7888 58.1589 9.89888 58.4428 5.29778C58.472 4.39043 58.0915 3.54163 57.4476 2.98551ZM43.1643 19.9323C43.9692 20.2016 44.7975 20.6524 45.1487 22.4963C43.7087 23.8339 42.7838 23.6876 41.9643 23.4154C41.8663 23.3828 41.7666 23.3554 41.6657 23.3334C41.2939 23.1552 40.9959 22.853 40.8228 22.4788C40.7078 22.2647 40.6404 22.0284 40.6252 21.7859C40.6101 21.5434 40.6475 21.3005 40.7349 21.0738C41.0569 20.108 42.1106 19.5811 43.0765 19.9031L43.1643 19.9323ZM47.6132 44.3721C57.594 41.5915 68.0431 42.8501 77.0579 47.9429C78.7263 48.9088 79.3117 50.9869 78.4043 52.626C77.4677 54.2943 75.3603 54.8797 73.692 53.9431C70.049 51.8848 66.0352 50.5666 61.8813 50.0643C57.7273 49.562 53.515 49.8855 49.4864 51.0162C42.7253 52.8894 36.93 56.87 32.7445 62.3726C30.9591 61.1433 29.1151 59.7384 27.3004 58.1578C32.364 51.5137 39.4178 46.6551 47.6132 44.3721ZM42.7955 40.933C42.7955 41.8257 42.4409 42.6818 41.8096 43.313C41.1784 43.9443 40.3223 44.2989 39.4295 44.2989C38.5368 44.2989 37.6807 43.9443 37.0495 43.313C36.4182 42.6818 36.0636 41.8257 36.0636 40.933C36.0636 40.0402 36.4182 39.1841 37.0495 38.5529C37.6807 37.9216 38.5368 37.567 39.4295 37.567C40.3223 37.567 41.1784 37.9216 41.8096 38.5529C42.4409 39.1841 42.7955 40.0402 42.7955 40.933Z" fill="#00A6ED"/>
</svg>
