<svg width="51" height="69" viewBox="0 0 51 69" fill="none" xmlns="http://www.w3.org/2000/svg">
<path d="M43.585 0L29.095 21.85H36.34L50.83 0H43.585Z" fill="#428BC1"/>
<path d="M36.3401 0L21.7351 21.85H29.0951L43.5851 0H36.3401Z" fill="#E8E8E8"/>
<path d="M29.0951 0L14.4901 21.85H21.7351L36.3401 0H29.0951Z" fill="#ED4C5C"/>
<path d="M12.0752 17.02C11.3852 17.02 10.8102 17.595 10.8102 18.285V29.21C10.8102 29.9 11.3852 30.475 12.0752 30.475H38.7552C39.4452 30.475 40.0202 29.9 40.0202 29.21V18.285C40.0202 17.595 39.4452 17.02 38.7552 17.02H12.0752ZM37.4902 25.415C37.4902 26.105 36.9152 26.68 36.2252 26.68H14.3752C13.6852 26.68 13.1102 26.105 13.1102 25.415V20.585C13.1102 19.895 13.6852 19.32 14.3752 19.32H36.2252C36.9152 19.32 37.4902 19.895 37.4902 20.585V25.415Z" fill="#FFC200"/>
<path d="M14.49 21.85H21.735L7.245 0H0L14.49 21.85Z" fill="#ED4C5C"/>
<path d="M21.735 21.85H29.095L14.49 0H7.245L21.735 21.85Z" fill="#E8E8E8"/>
<path opacity="0.5" d="M26.68 3.68005L23 9.08505L31.51 21.8501H36.34L37.49 20.0101L26.68 3.68005Z" fill="#3E4347"/>
<path d="M29.0951 21.85H36.3401L21.7351 0H14.4901L29.0951 21.85Z" fill="#428BC1"/>
<path d="M25.4151 69C37.9271 69 48.0701 58.857 48.0701 46.345C48.0701 33.833 37.9271 23.69 25.4151 23.69C12.9031 23.69 2.76013 33.833 2.76013 46.345C2.76013 58.857 12.9031 69 25.4151 69Z" fill="#FFC200"/>
<path d="M25.7602 25.76C14.1452 25.76 4.8302 35.19 4.8302 46.69C4.8302 50.14 5.6352 53.36 7.1302 56.235C6.4402 53.935 5.9802 51.52 5.9802 48.99C5.9802 36.685 15.4102 26.68 27.4852 25.76H25.7602Z" fill="#E68A00"/>
<path d="M41.5151 33.35C47.3801 43.7 44.3901 57.04 34.1551 63.825C32.0851 65.205 29.7851 66.24 27.4851 66.93C30.7051 66.585 33.8101 65.435 36.6851 63.48C46.3451 57.04 48.8751 44.16 42.5501 34.73L41.5151 33.35Z" fill="#FFE394"/>
<path d="M25.4151 37.145V29.785L21.7351 41.285L23.3451 43.355L25.4151 37.145Z" fill="#F2B200"/>
<path d="M27.485 43.355L29.095 41.285L25.415 29.785V37.145L27.485 43.355Z" fill="#E68A00"/>
<path d="M28.6353 47.15L31.3953 48.415L41.1703 41.285L33.9253 43.355L28.6353 47.15Z" fill="#C47500"/>
<path d="M33.9251 43.355L41.1701 41.285H29.0951L27.4851 43.355H33.9251Z" fill="#FFE394"/>
<path d="M23.3452 43.355L21.7352 41.285H9.66016L16.9052 43.355H23.3452Z" fill="#FFD252"/>
<path d="M16.9052 43.355L9.66016 41.285L19.3202 48.415L22.1952 47.15L16.9052 43.355Z" fill="#FFDB75"/>
<path d="M28.6353 47.15L30.7053 53.36L35.1903 59.915L31.3953 48.415L28.6353 47.15Z" fill="#E68A00"/>
<path d="M25.4151 49.565V52.785L35.1901 59.915L30.7051 53.36L25.4151 49.565ZM22.1951 47.15L19.3201 48.415L15.6401 59.915L20.1251 53.36L22.1951 47.15Z" fill="#F2B200"/>
<path d="M20.1251 53.36L15.6401 59.915L25.4151 52.785V49.565L20.1251 53.36Z" fill="#E68A00"/>
<path d="M27.4851 43.355L25.4151 37.145L23.3452 43.355H16.9052L22.1952 47.15L20.1252 53.36L25.4151 49.565L30.7051 53.36L28.6351 47.15L33.9251 43.355H27.4851Z" fill="#FFCE31"/>
</svg>
