<svg width="16" height="20" viewBox="0 0 16 20" fill="none" xmlns="http://www.w3.org/2000/svg">
<path d="M12 7.36842C12 12.9789 4 12.9789 4 7.36842H6C6 10.1789 10 10.1789 10 7.36842M16 16.8421V20H0V16.8421C0 14.0316 5.33 12.6316 8 12.6316C10.67 12.6316 16 14.0316 16 16.8421ZM14.1 16.8421C14.1 16.1684 10.97 14.6316 8 14.6316C5.03 14.6316 1.9 16.1684 1.9 16.8421V18H14.1M8.5 0C8.78 0 9 0.231579 9 0.526316V3.68421H10V1.05263C10.7077 1.39739 11.3006 1.9581 11.7019 2.66198C12.1031 3.36587 12.294 4.18044 12.25 5C12.25 5 12.95 5.14737 13 6.31579H3C3 5.14737 3.75 5 3.75 5C3.70595 4.18044 3.89693 3.36587 4.29814 2.66198C4.69936 1.9581 5.29229 1.39739 6 1.05263V3.68421H7V0.526316C7 0.231579 7.22 0 7.5 0" fill="#D9042B"/>
</svg>
