<svg width="12" height="12" viewBox="0 0 12 12" fill="none" xmlns="http://www.w3.org/2000/svg">
<path d="M8.99902 6C9.64946 5.99981 10.2822 5.78822 10.802 5.39712C11.3217 5.00601 11.7002 4.45659 11.8805 3.83163C12.0609 3.20668 12.0332 2.54005 11.8016 1.9322C11.5701 1.32435 11.1473 0.808208 10.597 0.461555C10.0466 0.114902 9.39845 -0.0434848 8.75022 0.0102622C8.102 0.0640093 7.48881 0.326978 7.00304 0.759543C6.51727 1.19211 6.18525 1.77083 6.05701 2.40851C5.92876 3.04619 6.01124 3.70828 6.29202 4.295L3.95202 5.465C3.5378 5.16947 3.04327 5.00736 2.53449 5.00034C2.0257 4.99333 1.52689 5.14173 1.10468 5.42572C0.682472 5.70972 0.356975 6.11578 0.171672 6.58968C-0.0136316 7.06357 -0.0499183 7.58272 0.0676593 8.07779C0.185237 8.57285 0.45108 9.02025 0.829676 9.36022C1.20827 9.70019 1.68159 9.91653 2.18641 9.98036C2.69122 10.0442 3.2035 9.95245 3.65479 9.71741C4.10609 9.48238 4.47492 9.11522 4.71202 8.665L7.00802 9.813C6.96258 10.2974 7.09525 10.7817 7.3812 11.1753C7.66715 11.5689 8.08676 11.8448 8.56147 11.9513C9.03618 12.0578 9.53343 11.9876 9.96012 11.7539C10.3868 11.5202 10.7137 11.1389 10.8795 10.6815C11.0453 10.2242 11.0388 9.72203 10.861 9.26915C10.6833 8.81627 10.3466 8.4437 9.91393 8.22121C9.48127 7.99872 8.98236 7.94156 8.5106 8.06043C8.03883 8.1793 7.62658 8.46606 7.35102 8.867L4.99202 7.687C5.03125 7.1785 4.91325 6.67022 4.65402 6.231L6.87702 5.121C7.15532 5.40016 7.48607 5.62153 7.85025 5.77239C8.21442 5.92324 8.60483 6.0006 8.99902 6Z" fill="#D9042B"/>
</svg>
