<svg width="21" height="21" viewBox="0 0 21 21" fill="none" xmlns="http://www.w3.org/2000/svg">
<path d="M10.1359 0C4.53529 0 0 4.54544 0 10.1461C0 15.7467 4.53529 20.2921 10.1359 20.2921C15.7467 20.2921 20.2921 15.7467 20.2921 10.1461C20.2921 4.54544 15.7467 0 10.1359 0ZM10.1461 18.2629C5.66151 18.2629 2.02921 14.6306 2.02921 10.1461C2.02921 5.66151 5.66151 2.02921 10.1461 2.02921C14.6306 2.02921 18.2629 5.66151 18.2629 10.1461C18.2629 14.6306 14.6306 18.2629 10.1461 18.2629Z" fill="#D9042B"/>
<path d="M10.8708 5.073H9.42139V11.2509L14.4944 14.4943L15.2191 13.2279L10.8708 10.4787V5.073Z" fill="#D9042B"/>
</svg>
