<svg width="30" height="31" viewBox="0 0 30 31" fill="none" xmlns="http://www.w3.org/2000/svg">
<mask id="mask0_415_308" style="mask-type:alpha" maskUnits="userSpaceOnUse" x="0" y="0" width="30" height="31">
<path d="M25.884 4.15201C23.0379 1.47969 19.279 -0.00539818 15.375 1.47451e-05C6.8835 1.47451e-05 0 6.88351 0 15.375C0 23.8665 6.8835 30.75 15.375 30.75C19.4205 30.7553 23.304 29.1609 26.1787 26.3145L15 15L25.884 4.15201Z" fill="white"/>
<path d="M27 18C27.7956 18 28.5587 17.6839 29.1213 17.1213C29.6839 16.5587 30 15.7956 30 15C30 14.2044 29.6839 13.4413 29.1213 12.8787C28.5587 12.3161 27.7956 12 27 12C26.2044 12 25.4413 12.3161 24.8787 12.8787C24.3161 13.4413 24 14.2044 24 15C24 15.7956 24.3161 16.5587 24.8787 17.1213C25.4413 17.6839 26.2044 18 27 18Z" fill="white"/>
</mask>
<g mask="url(#mask0_415_308)">
<path d="M-3 -3H33V33H-3V-3Z" fill="white"/>
</g>
</svg>
