<svg width="18" height="20" viewBox="0 0 18 20" fill="none" xmlns="http://www.w3.org/2000/svg">
<path d="M13.8803 2.1053L16.0303 4.31583L10.5002 8.94739L9.50018 7.89476L13.8703 2.1053H13.8803ZM13.8803 4.59553e-05C13.5848 -0.00200922 13.2925 0.064892 13.0245 0.195938C12.7565 0.326984 12.5194 0.518919 12.3302 0.757939L6.80013 8.05266L10.3402 11.779L17.2803 5.96845C18.1804 5.16846 18.2504 3.72635 17.4103 2.84214L15.3003 0.621097C14.9003 0.200045 14.3903 4.59553e-05 13.8803 4.59553e-05ZM6.10012 8.80002L5.3901 9.54739C5.20261 9.74819 5.09754 10.0185 5.09754 10.3C5.09754 10.5816 5.20261 10.8519 5.3901 11.0527L7.50014 13.2632C7.71015 13.4737 7.96015 13.5684 8.22016 13.5684C8.48016 13.5684 8.73017 13.4737 8.93017 13.2632L9.63019 12.5263L6.10012 8.80002ZM3.00006 13.6842C2.45005 13.6842 2.00004 14.1579 2.00004 14.7369C2.00004 15.3158 2.45005 15.7895 3.00006 15.7895C3.55007 15.7895 4.00008 15.3158 4.00008 14.7369C4.00008 14.1579 3.55007 13.6842 3.00006 13.6842ZM6.00012 14.7369C5.45011 14.7369 5.0001 15.2105 5.0001 15.7895C5.0001 16.3684 5.45011 16.8421 6.00012 16.8421C6.55013 16.8421 7.00014 16.3684 7.00014 15.7895C7.00014 15.2105 6.55013 14.7369 6.00012 14.7369ZM1.00002 16.8421C0.450009 16.8421 0 17.3158 0 17.8947C0 18.4737 0.450009 18.9474 1.00002 18.9474C1.55003 18.9474 2.00004 18.4737 2.00004 17.8947C2.00004 17.3158 1.55003 16.8421 1.00002 16.8421ZM4.00008 17.8947C3.45007 17.8947 3.00006 18.3684 3.00006 18.9474C3.00006 19.5263 3.45007 20 4.00008 20C4.55009 20 5.0001 19.5263 5.0001 18.9474C5.0001 18.3684 4.55009 17.8947 4.00008 17.8947Z" fill="#D9042B"/>
</svg>
