<?xml version="1.0" standalone="no"?>
<!DOCTYPE svg PUBLIC "-//W3C//DTD SVG 20010904//EN"
 "http://www.w3.org/TR/2001/REC-SVG-20010904/DTD/svg10.dtd">
<svg version="1.0" xmlns="http://www.w3.org/2000/svg"
 width="625.000000pt" height="752.000000pt" viewBox="0 0 625.000000 752.000000"
 preserveAspectRatio="xMidYMid meet">
<metadata>
Created by potrace 1.16, written by Peter Selinger 2001-2019
</metadata>
<g transform="translate(0.000000,752.000000) scale(0.100000,-0.100000)"
fill="#000000" stroke="none">
<path d="M365 7477 c-144 -49 -244 -148 -294 -293 l-21 -61 2 -3284 3 -3284
33 -67 c53 -108 157 -189 289 -223 64 -17 274 -40 455 -50 132 -8 136 -11 113
-78 -21 -63 -3 -69 46 -16 22 24 47 56 55 70 l13 27 238 6 c131 4 437 5 680 2
378 -4 446 -7 466 -21 13 -8 64 -27 113 -41 107 -31 150 -53 199 -98 21 -20
38 -30 40 -23 14 46 20 107 13 136 -5 18 -6 36 -3 40 4 3 265 7 580 8 l574 2
3 -32 3 -32 68 -3 c60 -3 69 -5 77 -26 9 -24 29 -36 59 -36 20 0 73 -24 113
-52 14 -10 29 -18 32 -18 3 0 6 26 6 58 0 65 -24 116 -62 128 -49 16 37 24
239 23 189 0 203 -2 208 -19 3 -11 24 -33 46 -51 52 -41 75 -84 60 -115 -6
-13 -7 -24 -2 -24 5 0 16 17 25 38 9 20 31 55 49 77 17 22 39 52 48 65 l16 25
279 2 c557 5 594 7 657 36 78 35 191 150 239 242 51 98 67 149 73 230 2 39 7
1231 10 2650 3 1419 8 2823 11 3120 6 489 5 546 -10 604 -34 127 -100 220
-197 278 -113 68 -36 64 -1489 68 -1256 4 -2097 9 -3485 20 -513 4 -637 3
-670 -8z m661 -128 c21 -43 39 -77 41 -75 3 2 -11 38 -31 80 -50 109 -21 95
36 -17 32 -62 54 -123 68 -189 12 -54 24 -98 27 -98 3 0 3 10 0 22 -5 19 -3
18 17 -7 l24 -30 28 34 c155 183 336 361 368 361 14 0 15 -3 5 -22 -20 -38
-114 -150 -174 -208 -31 -30 -69 -80 -85 -110 -15 -30 -37 -64 -49 -74 -41
-37 -66 -90 -71 -149 l-5 -58 -40 50 c-22 28 -45 65 -52 83 -11 31 -12 32 -12
7 -1 -17 17 -49 52 -92 28 -36 55 -66 60 -66 4 -1 7 24 7 54 0 58 35 145 64
162 8 4 30 35 49 68 20 33 61 85 92 115 31 30 84 90 116 132 32 42 69 84 81
92 18 13 54 16 186 16 153 0 164 -1 157 -17 -4 -10 -17 -49 -28 -88 -12 -38
-22 -72 -24 -74 -1 -2 -23 11 -50 28 -26 17 -63 35 -83 40 -119 30 -122 30
-164 9 -36 -19 -176 -154 -176 -170 0 -5 18 -8 40 -8 34 0 46 6 72 35 33 39
50 41 24 3 -9 -12 -16 -28 -16 -35 0 -17 61 -17 130 1 30 8 56 13 58 11 2 -2
-1 -12 -7 -23 -10 -19 -8 -20 32 -20 57 1 122 -27 136 -58 6 -14 8 -24 4 -22
-112 56 -126 60 -226 65 -56 2 -117 1 -136 -2 -52 -10 -133 -93 -181 -186 -22
-44 -38 -79 -35 -79 3 0 32 21 65 47 33 25 63 43 67 39 4 -3 1 -12 -5 -18 -25
-25 -11 -30 55 -23 58 6 75 13 117 46 52 42 81 47 131 25 l30 -14 -42 5 c-36
5 -54 -2 -140 -47 -160 -87 -186 -106 -207 -156 -22 -54 -45 -70 -110 -80 -41
-6 -51 -4 -63 12 -7 10 -13 14 -13 8 0 -5 -5 -16 -10 -24 -8 -12 -17 -7 -53
28 -28 27 -47 40 -51 33 -4 -6 -1 -11 6 -11 8 0 29 -16 48 -35 l34 -35 -31
-42 c-37 -53 -63 -103 -62 -120 0 -7 9 6 19 30 11 23 36 64 55 90 34 44 40 47
90 52 l54 5 -42 -44 -42 -45 53 47 c53 46 126 80 198 92 91 15 142 29 197 57
31 15 78 37 105 47 26 11 65 27 87 36 39 17 40 17 23 -2 -23 -25 -151 -93
-176 -93 -10 0 -63 -22 -118 -48 -169 -83 -314 -185 -314 -221 0 -9 -6 -23
-12 -31 -11 -12 -10 -12 5 -1 9 7 17 19 17 25 0 35 163 151 303 216 73 33 150
60 137 47 -12 -12 -145 -99 -250 -164 -63 -39 -124 -81 -135 -92 -91 -96 -203
-184 -227 -178 -10 3 -18 1 -18 -4 0 -16 35 -9 67 14 17 12 55 42 84 67 51 44
51 44 35 12 -12 -23 -14 -37 -7 -50 7 -13 6 -27 -4 -45 -18 -34 -76 -86 -97
-87 -9 0 -20 -4 -23 -10 -3 -5 1 -10 9 -10 19 0 19 1 1 -43 -8 -20 -15 -50
-15 -67 0 -17 -5 -40 -11 -51 -18 -34 -39 -113 -27 -101 17 17 38 80 48 145
10 64 38 129 59 135 11 4 13 -6 8 -54 -3 -37 -2 -50 3 -34 5 15 6 -8 3 -60 -2
-47 -9 -98 -14 -114 -12 -37 -11 -45 2 -26 7 11 8 6 3 -20 -9 -49 -26 -75 -19
-30 4 26 3 30 -4 15 -5 -11 -10 -40 -10 -65 -1 -27 -23 -110 -55 -205 -30 -88
-53 -161 -51 -163 3 -4 56 139 82 224 l18 59 3 -38 c4 -42 -18 -125 -49 -195
-17 -39 -30 -98 -44 -202 -3 -27 -3 -29 3 -10 8 24 8 24 15 -9 13 -64 7 -112
-28 -217 -19 -57 -35 -112 -34 -122 0 -9 8 10 18 43 20 67 40 115 40 100 0 -5
-15 -98 -33 -205 l-34 -195 -4 75 c-2 45 -5 14 -6 -78 -2 -165 -10 -199 -56
-241 -14 -14 -26 -21 -26 -16 0 5 -12 -2 -26 -16 l-25 -24 -19 25 -18 24 5
-27 c3 -15 9 -24 14 -21 5 3 9 -1 9 -9 0 -8 -16 -24 -35 -36 -19 -11 -35 -25
-35 -31 0 -5 -8 -10 -19 -10 -10 0 -24 -7 -31 -15 -7 -8 -23 -15 -35 -15 -12
0 -28 -7 -35 -15 -7 -8 -18 -15 -24 -14 -23 3 -33 -2 -64 -29 -36 -32 -50 -82
-34 -115 6 -12 13 -31 16 -42 3 -11 3 -4 0 15 -12 74 -8 95 21 128 15 18 34
32 42 32 19 0 28 -27 14 -43 -24 -30 55 -207 92 -207 6 0 -1 12 -15 28 -52 55
-83 145 -63 182 7 13 11 29 8 35 -6 16 22 37 44 33 10 -2 26 5 35 14 20 20 48
24 48 8 0 -6 6 -10 13 -9 27 3 37 -2 37 -20 0 -14 5 -18 20 -14 14 4 20 0 20
-11 0 -11 7 -16 18 -14 11 2 17 -3 16 -14 -1 -10 2 -15 7 -12 5 3 9 12 9 19 0
16 43 31 59 21 6 -4 8 -13 5 -21 -4 -10 0 -12 15 -8 12 3 21 1 22 -3 0 -5 2
-23 5 -41 3 -29 0 -34 -31 -49 -19 -9 -35 -20 -35 -24 0 -4 16 0 36 10 37 20
69 17 60 -5 -2 -7 5 -15 16 -18 13 -4 19 -11 15 -21 -3 -8 1 -17 10 -20 13 -5
13 -9 2 -22 -11 -13 -10 -17 4 -25 25 -15 21 -25 -18 -43 -19 -10 -42 -28 -50
-40 -9 -13 -28 -26 -43 -29 -28 -6 -73 -69 -60 -83 4 -3 14 10 22 30 8 20 22
36 31 36 8 0 24 5 34 12 15 9 26 9 48 0 l28 -12 -23 19 c-30 26 -28 34 13 54
44 21 55 21 55 3 0 -11 8 -13 33 -9 38 6 62 -15 54 -47 -4 -15 0 -20 13 -20
28 0 32 -15 10 -43 -11 -14 -20 -27 -20 -30 0 -7 50 -2 76 7 22 7 54 -14 54
-35 0 -5 7 -9 15 -9 20 0 20 -44 -1 -61 -8 -7 -13 -21 -11 -31 3 -10 0 -18 -7
-18 -7 0 -21 -7 -32 -16 -16 -13 -16 -15 -2 -10 11 3 25 -4 38 -21 11 -14 20
-21 20 -16 0 6 -7 16 -15 23 -14 12 -13 15 5 35 27 29 40 125 18 125 -9 0 -23
12 -33 26 -17 26 -24 27 -88 8 -18 -6 -18 -5 -2 20 19 29 14 56 -10 56 -8 0
-15 8 -15 17 0 26 -31 53 -61 53 -35 0 -59 33 -64 86 -2 27 -13 46 -39 70 -28
25 -36 41 -36 66 0 25 -8 41 -31 61 -33 29 -50 33 -78 17 -20 -10 -54 6 -112
52 l-33 26 37 22 c20 12 39 29 42 39 3 10 18 24 33 32 15 7 35 22 45 32 11 10
29 17 40 16 12 -2 32 1 45 5 28 9 53 -9 45 -31 -4 -11 -2 -14 5 -9 21 13 33
-3 20 -27 -10 -20 -10 -21 7 -7 15 13 19 12 36 -9 23 -28 24 -47 3 -59 -10 -6
23 -9 93 -9 59 -1 97 2 83 5 -19 5 -12 8 30 13 30 4 5 5 -57 2 -102 -4 -112
-3 -117 14 -3 10 -20 33 -36 52 -37 40 -34 57 9 54 27 -1 31 2 26 18 -5 14 0
20 22 25 47 10 49 12 16 13 -19 1 -40 -7 -50 -17 -10 -10 -31 -23 -47 -30 -24
-11 -30 -10 -41 4 -8 12 -20 15 -41 11 -34 -7 -33 -20 -15 188 16 171 51 344
73 359 39 24 91 -100 60 -145 -11 -17 -12 -23 -2 -32 10 -9 12 -8 7 5 -3 9 1
22 9 29 21 17 10 83 -22 132 -20 30 -29 37 -46 31 -20 -6 -21 -4 -15 55 11
102 13 106 75 134 62 29 87 22 79 -20 -3 -19 -2 -21 9 -12 16 13 48 4 39 -11
-9 -14 9 -12 24 3 10 10 16 7 30 -12 16 -21 20 -22 39 -10 28 18 34 10 35 -49
2 -55 -14 -82 -49 -82 -31 0 -39 17 -18 41 10 11 12 19 5 19 -16 0 -35 -45
-28 -64 4 -9 17 -16 31 -16 70 0 87 36 78 160 -7 82 -6 94 10 103 12 8 14 15
7 24 -13 15 -3 33 17 33 8 0 14 6 14 13 0 17 96 57 137 57 38 0 48 -12 33 -39
-8 -16 -7 -22 6 -29 14 -8 14 -10 0 -21 -9 -8 -16 -21 -15 -30 0 -11 4 -9 11
7 14 27 49 38 77 22 25 -13 28 -2 4 16 -15 11 -16 16 -5 34 15 25 8 40 -19 40
-48 0 -4 73 61 102 16 7 26 16 24 20 -3 4 1 8 9 8 8 0 26 9 41 21 14 11 26 17
26 12 0 -4 4 -2 9 6 13 20 34 2 28 -25 -5 -30 9 -32 17 -1 4 15 0 27 -12 37
-17 13 -16 17 27 52 71 59 231 179 247 185 10 4 12 0 7 -12 -5 -15 -2 -17 20
-11 28 7 32 -2 28 -69 l-1 -20 9 20 c5 11 10 31 10 44 1 33 12 20 16 -21 3
-18 7 -46 11 -62 8 -32 -10 -174 -31 -251 -8 -27 -15 -62 -17 -76 -2 -14 -11
-38 -21 -52 -29 -45 -19 -42 18 5 40 53 146 128 181 128 42 0 34 -16 -19 -41
-31 -15 -85 -56 -136 -106 -48 -47 -89 -79 -97 -76 -18 7 -124 -85 -124 -106
1 -10 6 -6 16 12 8 15 23 27 34 27 10 0 22 9 25 20 10 31 40 43 59 24 13 -13
16 -13 16 -1 0 8 9 22 20 32 23 21 54 13 48 -13 -4 -15 0 -18 26 -18 17 1 36
5 43 9 18 11 43 -3 49 -29 3 -13 10 -24 15 -24 15 0 10 16 -12 43 -18 23 -25
26 -63 21 -41 -6 -44 -5 -50 20 -4 15 -11 24 -16 21 -25 -15 -7 14 21 34 47
35 95 37 154 7 27 -14 50 -24 52 -22 2 2 -15 16 -37 31 -34 24 -47 27 -90 23
-27 -3 -50 -4 -50 -3 0 8 103 67 130 75 27 8 38 6 61 -11 32 -22 38 -16 12 13
-9 10 -12 18 -6 18 5 0 20 9 33 20 31 27 39 25 55 -12 8 -18 14 -26 15 -17 0
33 60 34 60 1 0 -12 3 -13 12 -4 34 34 71 -10 39 -45 -10 -10 -55 -45 -102
-78 -83 -60 -147 -119 -266 -247 -34 -36 -72 -69 -85 -73 -13 -4 -32 -17 -43
-29 -11 -13 -58 -52 -105 -88 -190 -145 -302 -228 -309 -228 -3 0 -12 9 -19
20 -7 11 -21 20 -31 20 -11 0 -21 9 -24 21 -5 17 -12 20 -41 18 -57 -5 -65 14
-24 55 29 29 32 37 22 51 -14 19 -43 14 -87 -17 -36 -26 -28 -34 12 -14 55 29
65 20 30 -24 -37 -45 -44 -48 -52 -20 -3 11 -14 20 -25 20 -11 0 -25 7 -33 16
-9 11 -22 14 -43 10 -17 -4 -44 -8 -61 -10 -16 -1 -43 -10 -60 -19 -16 -9 -35
-17 -42 -17 -15 0 -33 -32 -33 -60 0 -12 -9 -24 -24 -30 -25 -9 -30 -19 -40
-82 -6 -31 -3 -39 15 -48 11 -7 24 -9 27 -5 3 3 -4 8 -16 12 -27 7 -29 33 -2
33 11 0 20 5 20 10 0 6 -7 10 -15 10 -18 0 -20 31 -3 48 7 7 25 12 40 12 26 0
28 2 18 21 -14 25 11 69 39 69 10 0 24 7 31 15 14 17 46 20 55 5 3 -5 14 -1
25 10 25 25 50 26 57 1 3 -14 13 -19 31 -18 23 2 27 -2 29 -28 0 -16 2 -34 2
-39 1 -4 10 2 21 15 19 23 21 23 34 6 12 -15 17 -16 34 -6 29 18 55 4 50 -26
-6 -27 1 -32 20 -13 8 8 15 8 27 -2 22 -19 19 -32 -17 -63 -32 -28 -32 -28 14
2 26 17 113 81 193 141 81 61 149 110 152 110 3 0 26 16 49 36 24 19 49 32 54
29 6 -4 22 0 35 9 13 9 35 14 47 12 13 -3 27 -5 32 -5 4 -1 6 -7 3 -15 -4 -10
0 -12 14 -9 14 4 19 0 19 -16 0 -11 -4 -21 -10 -21 -5 0 -10 6 -10 14 0 17
-34 14 -56 -5 -8 -6 -14 -8 -14 -4 0 4 -7 2 -15 -5 -8 -7 -12 -17 -9 -22 3 -5
15 -2 25 8 18 16 49 28 49 19 0 -13 -14 -35 -22 -35 -5 0 -6 5 -3 10 3 6 4 10
2 10 -2 0 -17 -19 -32 -42 l-28 -42 49 42 c27 23 51 37 52 32 2 -6 16 -10 30
-10 21 0 24 2 12 10 -9 6 -14 21 -12 39 3 25 -2 33 -27 45 -35 19 -64 20 -93
5 -11 -6 -23 -8 -26 -4 -14 13 33 35 77 36 25 1 36 4 24 6 -43 8 -17 43 32 43
21 0 26 3 16 9 -17 11 -8 39 14 46 45 14 50 17 37 22 -19 7 36 63 62 64 13 0
16 3 8 6 -22 9 55 76 80 70 16 -4 17 -3 7 9 -11 13 -2 19 24 15 4 0 7 6 7 14
0 14 18 27 63 44 22 9 24 7 20 -12 -4 -18 -3 -19 6 -7 6 8 11 22 11 31 0 15
19 29 40 29 5 0 11 -8 13 -17 3 -13 5 -12 6 5 0 13 6 20 11 17 6 -3 10 -1 10
5 0 12 47 3 68 -13 9 -7 11 -6 6 7 -3 9 -10 16 -16 16 -5 0 -6 5 -3 10 3 6 20
10 36 10 24 0 33 -6 45 -32 l14 -33 -2 30 c-3 24 1 31 20 33 13 2 25 -3 28
-13 4 -11 10 -12 18 -6 17 14 97 -40 119 -81 23 -45 22 -60 -10 -82 -16 -9
-20 -15 -10 -12 57 18 64 -41 10 -92 -21 -20 -28 -30 -16 -24 12 7 25 17 28
22 3 6 11 10 18 10 8 0 8 -3 0 -11 -6 -6 -9 -18 -6 -25 3 -8 0 -20 -6 -28 -6
-7 -7 -17 -3 -21 4 -5 1 -5 -5 -1 -17 9 -17 -16 -1 -32 9 -9 7 -19 -11 -42
-12 -17 -19 -35 -16 -41 10 -15 -13 -38 -67 -65 -26 -13 -48 -27 -48 -29 0 -3
22 6 50 20 27 14 54 25 60 25 18 0 11 -43 -11 -66 l-20 -21 25 4 c43 9 34 -31
-14 -63 -51 -34 -53 -43 -2 -13 l37 24 -18 -28 c-18 -28 -18 -28 3 -15 18 11
23 10 36 -7 9 -12 14 -35 12 -57 -3 -28 -1 -34 9 -26 20 16 43 1 44 -29 1 -17
3 -21 6 -10 2 9 9 17 14 17 9 0 16 -23 22 -75 3 -23 4 -20 6 13 1 39 3 42 30
42 25 0 32 -6 45 -42 14 -38 16 -39 11 -10 -6 41 7 41 35 0 12 -18 20 -26 17
-18 -2 8 -7 25 -11 36 -10 34 19 38 45 6 l21 -27 -7 33 c-7 32 -5 33 49 57
137 61 330 60 452 -3 23 -11 87 -30 143 -41 108 -22 127 -29 179 -69 l34 -25
-53 -28 c-29 -16 -59 -29 -67 -29 -9 0 -12 -3 -9 -7 4 -3 -1 -16 -10 -27 -17
-20 -17 -20 7 0 60 52 176 94 259 94 47 0 70 -8 180 -66 69 -36 143 -78 163
-95 20 -16 41 -29 46 -29 5 0 36 -30 68 -67 32 -38 129 -140 215 -228 194
-198 223 -234 278 -342 56 -111 63 -191 25 -294 -9 -24 -17 -51 -17 -59 -5
-41 -63 -86 -100 -76 -15 4 -33 -8 -72 -49 -54 -56 -105 -79 -154 -69 -19 4
-32 0 -45 -15 -36 -40 -35 -21 1 37 37 56 38 59 41 170 2 63 0 118 -4 122 -5
5 -9 -43 -9 -108 0 -128 -1 -132 -75 -222 -81 -99 -77 -96 -98 -83 -15 9 -30
9 -57 2 -39 -11 -65 0 -65 27 0 8 -5 14 -10 14 -7 0 -8 -13 -4 -36 9 -51 -12
-64 -103 -61 -67 2 -74 0 -102 -27 -27 -26 -32 -27 -62 -17 -39 14 -53 6 -15
-9 42 -16 60 -12 85 16 22 25 27 26 90 21 60 -5 69 -3 101 21 44 33 52 36 123
34 56 -1 58 0 82 38 26 41 39 52 29 25 -9 -21 3 -19 40 10 20 15 47 25 67 25
60 1 112 27 153 75 31 37 44 45 72 45 42 0 118 63 111 92 -3 10 4 42 15 70 28
71 27 156 -1 230 -43 112 -116 205 -334 427 -195 198 -209 215 -192 227 18 13
17 14 -7 14 -42 0 -42 18 -1 27 51 11 256 6 318 -7 28 -6 68 -13 90 -16 73 -9
371 -112 467 -160 109 -55 242 -141 283 -184 16 -16 33 -30 39 -30 35 0 -127
125 -244 189 -53 29 -68 40 -54 44 10 2 8 3 -5 2 -21 -3 -106 29 -121 45 -3 3
-39 15 -80 27 -118 34 -137 43 -120 54 10 6 5 7 -17 3 -17 -3 -39 -1 -50 5
-13 8 14 10 110 11 73 0 126 4 123 9 -3 5 1 11 9 15 8 3 15 1 15 -4 0 -6 24
-10 53 -11 82 -1 41 -9 -99 -19 l-129 -9 149 4 c107 2 151 7 156 16 5 8 40 14
94 17 77 4 86 3 80 -12 -6 -15 0 -16 52 -10 33 4 62 12 67 18 16 24 27 -22 26
-109 l-1 -90 -79 2 c-47 2 -79 -1 -79 -7 0 -6 34 -10 80 -10 l81 0 -3 -591 -3
-591 -32 -13 c-27 -12 -33 -12 -33 -1 0 8 14 16 32 20 17 3 29 9 25 12 -3 3
-34 -2 -69 -11 -182 -47 -217 -55 -257 -55 -25 0 -52 -6 -60 -14 -16 -13 -162
-34 -149 -21 3 3 37 10 75 15 66 8 66 9 8 5 -33 -3 -85 -7 -116 -11 -53 -6
-56 -5 -62 17 -3 13 -3 28 2 33 10 14 35 145 29 152 -3 2 -11 -24 -18 -58 -17
-88 -20 -98 -30 -98 -17 0 -16 36 2 72 12 26 18 57 16 100 -1 36 -3 48 -5 28
-7 -68 -25 -140 -34 -140 -9 0 -10 3 -14 55 -2 17 -15 53 -29 80 -20 38 -25
43 -20 20 4 -16 11 -35 16 -41 5 -7 11 -36 15 -65 3 -30 16 -75 29 -101 13
-26 24 -56 24 -67 0 -11 6 -22 13 -24 6 -3 -68 -6 -165 -6 -98 -1 -178 -4
-178 -9 0 -7 -237 -8 -286 -1 -12 2 -20 8 -18 14 2 5 -10 21 -26 35 -17 14
-42 35 -55 47 -14 12 -27 18 -30 13 -3 -5 13 -23 35 -41 22 -18 38 -35 35 -37
-3 -3 3 -11 13 -18 16 -12 15 -13 -8 -15 -218 -10 -524 -17 -715 -17 -132 1
-254 0 -271 0 -37 -2 -70 29 -113 108 -35 63 -42 61 -10 -3 12 -23 35 -56 51
-73 l30 -32 -47 -6 c-26 -4 -64 -4 -86 -1 -55 9 -68 40 -80 189 -11 121 -10
124 16 197 38 102 35 163 -9 249 -19 37 -36 88 -39 118 -5 47 -4 52 13 52 42
0 17 17 -42 29 -35 7 -79 24 -99 37 -36 24 -175 172 -168 178 45 33 76 46 138
55 87 14 129 32 162 69 17 19 18 22 4 10 -31 -26 -91 -49 -155 -59 -93 -15
-224 -82 -283 -145 -82 -89 -104 -67 -37 37 22 34 40 68 40 75 0 6 14 17 31
23 43 15 44 15 25 -14 -9 -13 -16 -29 -16 -35 0 -23 28 -7 85 49 33 33 87 76
119 95 89 53 53 44 -65 -17 -57 -30 -158 -74 -224 -98 -105 -38 -130 -44 -202
-44 -127 0 -125 25 6 59 40 10 70 21 67 23 -2 3 -39 -5 -83 -17 -110 -31 -127
-48 -73 -70 45 -19 161 -7 244 24 38 15 71 25 73 22 2 -2 -15 -31 -37 -65 -22
-33 -43 -74 -46 -91 -6 -27 -4 -30 21 -30 19 0 36 11 58 37 55 65 88 93 109
93 11 0 38 -19 60 -42 135 -145 159 -164 239 -191 11 -4 19 -23 23 -58 4 -28
20 -80 35 -114 41 -89 48 -152 23 -201 -28 -56 -45 -139 -39 -190 4 -43 4 -44
-32 -51 l-36 -7 40 -6 40 -5 6 -60 c3 -33 9 -70 13 -82 4 -13 6 -23 3 -23 -17
0 -107 33 -107 39 0 5 14 14 30 21 17 7 29 15 26 17 -8 9 -67 -28 -63 -40 2
-7 21 -19 43 -27 46 -18 84 -42 84 -52 0 -14 -23 -9 -42 9 -10 9 -18 11 -18 6
0 -16 22 -30 57 -36 27 -5 32 -3 35 16 4 27 47 37 60 13 5 -9 19 -16 31 -17
21 0 21 -1 2 -8 -24 -9 81 -22 164 -19 l56 1 -55 7 c-30 4 17 5 105 3 88 -3
166 -6 173 -9 6 -2 12 1 12 6 0 6 15 10 34 10 25 0 35 5 39 20 6 24 47 28 47
5 0 -8 7 -15 15 -15 8 0 15 7 15 15 0 11 11 15 48 14 26 -1 39 -3 30 -6 -9 -2
-16 -13 -15 -24 1 -14 9 -19 28 -19 22 0 26 4 25 27 -1 24 4 28 36 34 30 5 37
2 41 -13 4 -15 17 -18 79 -20 l73 -2 -67 -3 c-38 -2 -68 -8 -68 -13 0 -12 214
-3 261 10 18 6 49 10 68 10 25 0 32 3 27 15 -3 9 0 15 10 15 8 0 12 -5 9 -10
-8 -13 56 -13 90 0 20 7 32 6 49 -6 21 -13 39 -13 126 -4 56 5 125 10 154 10
28 0 76 7 106 16 30 9 67 16 82 17 16 0 25 4 22 12 -4 9 23 14 100 20 58 4
108 11 111 15 3 5 31 9 63 9 31 0 93 7 137 16 98 18 95 18 95 0 0 -11 -13 -15
-52 -17 l-53 -2 48 -3 47 -4 0 -65 0 -65 -37 28 -38 28 40 -54 39 -54 -40 7
c-21 4 -59 16 -84 27 l-45 20 30 -31 c16 -17 46 -36 67 -42 40 -12 51 -28 20
-28 -10 0 -49 -11 -88 -25 l-69 -24 55 5 c55 5 55 5 25 -10 -16 -9 -61 -45
-98 -81 -56 -53 -65 -65 -47 -65 13 0 37 9 55 20 29 18 142 50 175 49 8 0 0
-6 -18 -14 -18 -8 -31 -18 -30 -23 2 -4 -22 -28 -52 -53 -52 -43 -119 -133
-108 -145 3 -3 38 15 77 40 39 25 74 46 78 46 4 0 -9 -17 -29 -37 -43 -46 -64
-83 -47 -83 6 0 33 15 59 34 62 45 110 69 110 56 0 -5 -4 -10 -9 -10 -11 0
-57 -67 -70 -102 l-10 -27 37 20 c20 12 41 25 47 30 5 5 13 9 18 9 5 0 -8 -19
-27 -42 -24 -27 -45 -69 -60 -118 -27 -84 -40 -140 -33 -140 2 0 23 28 47 63
49 71 93 120 132 148 l28 20 -2 -72 c-1 -63 -4 -76 -27 -100 -14 -15 -37 -31
-51 -34 -21 -6 -18 0 23 42 63 65 60 75 -4 12 -28 -27 -67 -58 -87 -68 -85
-44 -104 -97 -72 -205 12 -39 12 -50 2 -54 -6 -2 -10 -8 -7 -13 9 -13 -22 -73
-53 -101 -19 -18 -43 -27 -79 -31 -54 -6 -57 -4 -54 33 5 52 11 59 54 63 38 4
37 4 -8 3 -49 -1 -50 -2 -53 -33 l-3 -32 -36 25 c-20 13 -61 32 -91 40 -47 14
-66 14 -128 4 -108 -17 -149 13 -84 62 17 12 44 49 60 82 17 32 31 55 31 50 1
-5 7 13 13 40 10 41 17 51 38 57 27 7 56 -10 41 -24 -7 -8 15 -37 28 -37 15 0
10 15 -15 53 -18 26 -22 38 -13 45 22 18 56 23 77 12 13 -7 20 -7 20 -1 0 6
-14 18 -31 26 -28 15 -34 15 -69 1 -39 -15 -39 -15 -72 17 -18 17 -31 35 -30
40 3 10 -6 9 -29 -3 -10 -6 -19 -8 -19 -6 0 3 14 13 31 22 19 9 28 11 24 4 -6
-9 -1 -10 16 -4 13 4 35 8 49 9 14 1 23 6 20 11 -9 16 -82 7 -124 -15 -32 -18
-46 -21 -66 -13 -23 9 -26 16 -28 64 -3 67 15 94 101 149 92 59 173 62 253 7
33 -22 48 -53 20 -42 -19 7 -71 -39 -100 -91 -13 -25 -21 -45 -17 -45 4 0 35
24 68 54 33 30 71 57 84 61 54 13 129 -67 129 -137 0 -74 -16 -85 -60 -38 -33
35 -62 38 -107 10 -62 -38 -35 -65 54 -54 73 9 110 -7 124 -55 14 -47 -5 -89
-80 -174 -57 -65 -77 -97 -61 -97 5 0 10 4 10 10 0 5 24 38 53 72 29 35 63 77
75 95 25 36 29 98 8 129 -9 13 -12 35 -9 67 5 42 8 47 32 48 24 2 24 2 3 6
-15 3 -31 21 -47 52 -24 49 -52 73 -95 84 -14 4 -42 22 -63 42 -78 72 -149 80
-244 28 -117 -65 -148 -103 -148 -183 0 -50 -2 -55 -27 -64 -15 -5 -30 -7 -34
-3 -3 3 4 30 16 60 20 48 21 57 9 83 -29 60 -103 57 -201 -9 -45 -30 -75 -60
-103 -104 -30 -46 -46 -62 -65 -64 -24 -2 -24 -2 -2 -6 25 -5 25 -4 12 -37 -7
-19 -17 -26 -37 -27 -26 -1 -26 -1 -5 -7 26 -8 27 -9 18 -57 -8 -41 -15 -44
-141 -48 -70 -3 -65 -3 22 -3 102 1 112 -1 107 -16 -7 -22 20 -62 52 -76 33
-16 34 -16 34 11 0 56 10 67 59 69 l46 1 -42 4 c-24 2 -43 7 -43 11 1 21 55
62 82 62 43 0 68 -69 26 -71 l-23 -2 23 -4 c18 -4 22 -9 16 -26 -4 -12 -12
-25 -19 -29 -27 -16 9 -66 73 -104 2 -1 -4 -19 -14 -40 -9 -22 -22 -59 -30
-84 -14 -45 -14 -45 -11 42 2 49 2 88 0 88 -2 0 -17 -29 -34 -63 -42 -91 -62
-195 -56 -294 3 -46 3 -83 1 -83 -6 0 -44 131 -46 161 -1 16 -5 29 -9 29 -11
0 -19 -42 -19 -108 l0 -63 -28 33 c-16 18 -52 64 -80 101 -29 38 -52 66 -52
64 0 -2 11 -37 25 -77 14 -40 25 -77 25 -82 0 -4 -14 -8 -30 -8 -22 0 -48 14
-91 50 -66 55 -112 70 -67 23 14 -16 33 -40 43 -55 l17 -28 -88 -2 -89 -2 94
-5 c61 -4 96 -10 98 -18 3 -9 -29 -13 -129 -16 l-133 -3 143 -2 c78 -1 142 -4
142 -6 0 -2 3 -11 6 -19 4 -12 -3 -17 -28 -20 l-33 -4 37 -1 c31 -2 40 -7 53
-32 22 -42 19 -57 -8 -33 -40 36 -51 37 -24 1 40 -51 33 -55 -20 -10 -27 21
-58 44 -71 51 -13 7 -20 17 -16 24 4 7 4 9 0 5 -4 -3 -26 0 -48 8 -54 19 -67
7 -24 -22 33 -22 110 -113 103 -120 -2 -2 -27 6 -57 17 -29 11 -62 19 -74 17
-17 -2 -12 -9 31 -41 59 -43 74 -67 40 -67 -13 1 -32 14 -48 35 -34 45 -109
107 -162 133 -57 28 -152 52 -202 51 -34 -1 -31 -3 20 -9 125 -17 230 -73 315
-168 58 -65 65 -84 17 -48 -38 29 -98 56 -124 56 -10 -1 -2 -7 19 -14 60 -22
125 -64 157 -103 36 -44 39 -38 10 18 -18 37 -19 39 -2 31 42 -23 67 -72 50
-99 -5 -9 -2 -13 8 -13 11 0 15 -5 11 -15 -3 -9 0 -15 9 -15 8 0 15 -4 15 -9
0 -5 -9 -7 -20 -4 -11 3 -20 9 -20 14 0 5 -20 9 -44 9 -39 0 -44 3 -41 19 3
14 -3 20 -23 22 -26 4 -117 -6 -97 -10 6 -1 1 -6 -10 -11 -19 -8 -19 -9 3 -9
12 -1 22 -6 22 -11 0 -19 -73 -7 -78 12 -2 9 -13 20 -24 24 -32 10 -7 22 52
25 97 5 148 0 164 -17 9 -8 22 -14 29 -11 6 2 -4 12 -23 22 -52 27 -186 24
-342 -9 -70 -14 -157 -26 -193 -26 -57 0 -69 3 -90 25 -43 42 -27 99 37 135
50 28 121 22 139 -13 16 -30 30 -37 50 -26 26 14 50 11 71 -8 10 -9 21 -13 24
-10 4 3 -8 15 -26 25 l-31 20 32 11 c36 12 82 2 129 -28 13 -9 21 -11 17 -5
-4 6 -23 19 -42 28 -20 10 -33 22 -29 27 7 12 -36 3 -86 -18 -54 -23 -78 -24
-73 -3 6 22 -22 50 -49 50 -26 0 -58 27 -58 50 0 17 30 49 65 68 11 6 14 12 7
12 -7 0 -24 -7 -38 -16 -32 -21 -43 -11 -18 18 l19 23 -23 -19 c-12 -11 -20
-26 -17 -34 13 -35 -44 -95 -140 -145 -27 -14 -46 -26 -42 -27 16 -1 108 51
141 80 33 29 35 30 41 10 4 -13 21 -24 50 -31 24 -6 46 -17 48 -24 4 -9 -3 -9
-31 1 -91 33 -176 -2 -203 -84 -10 -30 -9 -38 11 -65 l23 -30 -74 5 c-53 4
-65 3 -44 -3 17 -5 67 -12 112 -16 45 -3 80 -10 77 -14 -3 -5 -58 -9 -122 -9
-76 -1 -131 -6 -157 -15 -22 -8 -51 -15 -65 -16 -17 -1 -19 -3 -7 -6 38 -10
14 -23 -40 -22 -56 2 -56 2 -18 9 l40 7 -42 2 c-50 1 -57 18 -10 24 29 3 28 4
-9 5 -29 2 -46 9 -62 27 l-22 25 30 32 c51 53 17 108 -72 116 -65 5 -104 -20
-114 -73 -6 -34 -8 -35 -50 -35 -24 0 -44 3 -44 8 1 17 74 104 103 122 23 14
27 20 14 20 -24 0 -56 -17 -89 -48 -23 -21 -34 -24 -73 -20 l-46 6 -37 -59
c-20 -33 -40 -59 -43 -59 -12 0 -31 94 -20 98 7 2 4 10 -5 20 -19 18 -14 76
12 155 l16 47 86 2 87 2 -82 3 c-76 4 -99 12 -73 28 6 3 10 14 10 23 0 12 -3
13 -12 4 -7 -7 -26 -13 -42 -13 l-31 -2 28 -4 c37 -6 30 -25 -14 -40 -33 -11
-33 -12 -6 -12 15 -1 27 -3 27 -6 0 -3 -12 -29 -27 -58 -15 -29 -27 -54 -28
-57 -16 -84 -12 -80 -67 -80 -49 0 -50 1 -44 26 24 94 19 108 -15 41 -12 -23
-30 -52 -41 -64 -23 -25 -34 -19 -61 34 -16 29 -15 32 5 58 27 34 113 115 144
136 31 20 21 29 -30 28 -29 -1 -35 -3 -20 -7 18 -6 8 -13 -52 -42 -41 -20 -74
-33 -74 -30 0 3 9 19 19 36 15 24 25 30 47 29 18 -1 20 -1 7 2 -42 8 -24 23
30 25 43 1 45 2 15 5 -21 2 -38 7 -38 11 1 13 85 70 140 96 52 24 53 26 23 26
-44 0 -187 -53 -229 -85 -19 -14 -34 -23 -34 -20 0 8 16 24 54 53 46 35 13 26
-44 -13 -29 -20 -54 -34 -56 -32 -6 6 56 100 89 134 17 18 28 33 23 33 -13 0
-71 -32 -118 -67 l-47 -34 -20 38 c-10 21 -33 55 -50 77 -17 21 -31 44 -31 51
0 16 88 91 138 117 35 19 36 20 7 14 -25 -5 -28 -4 -14 6 73 60 93 79 72 73
-27 -8 -29 2 -7 35 l16 25 -21 -24 c-12 -13 -21 -29 -21 -37 0 -8 -9 -14 -20
-14 -11 0 -20 -4 -20 -10 0 -5 -5 -10 -10 -10 -6 0 -54 -25 -107 -56 l-96 -55
-34 18 c-19 10 -37 21 -39 25 -2 3 17 25 42 47 44 38 51 41 113 43 65 2 65 2
12 5 l-53 4 48 32 c30 19 69 34 99 38 48 6 47 6 -25 9 l-75 2 55 18 c46 16 50
19 25 19 -16 1 -59 -8 -95 -19 -85 -26 -95 -25 -40 5 l45 24 -35 -6 c-56 -10
-127 -50 -175 -99 -25 -25 -45 -49 -45 -54 0 -11 -40 -34 -46 -27 -3 2 37 49
88 103 159 172 157 169 128 154 -14 -7 -50 -30 -80 -50 -93 -62 -201 -113
-250 -116 -42 -3 -50 -9 -127 -90 -46 -48 -83 -84 -83 -80 0 3 18 42 39 85 30
58 48 82 72 93 l32 16 -32 7 c-30 6 -37 2 -105 -67 -40 -40 -88 -99 -106 -131
-17 -31 -33 -57 -35 -57 -5 0 32 112 60 183 18 44 35 72 49 77 12 5 15 9 8 9
-26 2 8 41 36 42 17 1 20 3 10 6 -25 6 -22 18 8 42 42 33 84 23 138 -32 10 -9
22 -15 27 -11 5 3 1 13 -9 22 -10 9 -42 47 -70 84 l-51 67 47 4 47 3 -56 2
c-30 1 -60 7 -66 13 -13 13 -64 -53 -107 -138 -32 -61 -62 -73 -52 -21 3 18
24 93 46 167 23 73 39 136 36 138 -9 9 -85 -163 -109 -247 -23 -77 -27 -86
-53 -91 l-29 -7 29 -1 c23 -1 27 -4 21 -18 -8 -20 -11 -40 -21 -125 -4 -32
-10 -58 -13 -58 -3 0 -22 44 -41 97 -19 54 -36 101 -38 105 -2 5 5 8 15 9 13
1 11 3 -6 8 -14 4 -33 22 -44 41 -11 19 -30 48 -43 63 -13 16 -24 33 -24 37 0
5 46 11 103 13 l102 3 -110 2 -110 2 -29 46 c-16 25 -43 62 -60 83 -17 20 -39
48 -49 62 -13 17 -13 14 2 -11 35 -60 158 -304 165 -327 7 -23 7 -23 -126 -25
l-133 -2 139 -6 c105 -4 140 -8 144 -19 3 -10 -7 -12 -49 -7 -37 3 -46 2 -29
-3 14 -5 39 -9 56 -10 24 -1 33 -7 38 -24 18 -57 75 -292 72 -294 -2 -2 -15
14 -29 34 -15 21 -43 56 -62 78 -38 42 -34 26 11 -46 27 -43 77 -159 71 -165
-2 -2 -22 22 -45 54 -60 86 -99 113 -52 36 17 -27 70 -166 70 -183 0 -2 -24
35 -52 84 -99 168 -274 321 -415 365 -36 11 -68 18 -71 16 -2 -3 23 -18 57
-35 116 -59 175 -129 271 -322 l63 -124 -49 45 c-85 78 -137 117 -209 153 -99
51 -120 72 -128 131 -17 122 -86 206 -169 206 -40 0 -50 -5 -77 -35 -19 -22
-31 -47 -31 -64 0 -25 -3 -27 -29 -23 -39 5 -99 -24 -116 -59 -18 -33 -18 -39
-5 -39 6 0 10 8 10 18 0 39 81 79 125 62 26 -10 75 -79 75 -107 0 -15 1 -15
13 -1 6 9 23 19 37 21 22 4 21 4 -6 6 -24 1 -30 5 -30 22 1 12 -5 24 -12 26
-8 3 -10 -1 -5 -13 4 -12 3 -15 -6 -10 -7 5 -10 14 -7 22 3 8 -3 23 -14 34
-24 24 -25 43 -3 81 37 62 128 58 183 -9 41 -50 60 -119 60 -222 0 -55 5 -93
13 -105 8 -11 19 -34 25 -52 l10 -31 -35 24 c-20 13 -53 29 -74 34 -22 6 -39
16 -39 23 0 9 -2 9 -8 -1 -7 -10 -26 -10 -98 2 -49 8 -100 19 -114 24 -35 14
-69 53 -85 99 -9 22 -14 30 -15 18 0 -11 9 -37 20 -58 15 -28 18 -42 10 -57
-14 -26 -13 -30 6 -23 12 4 15 2 11 -8 -3 -8 -11 -33 -18 -56 -6 -24 -16 -43
-21 -43 -6 0 -7 10 -4 23 3 12 8 33 11 47 5 22 4 21 -9 -5 -8 -16 -15 -28 -15
-25 -1 3 -10 56 -21 119 -14 83 -25 120 -40 136 l-21 22 32 27 c28 24 31 31
26 64 -10 69 -24 92 -56 92 -22 0 -38 -10 -64 -40 -28 -33 -36 -38 -46 -27
-12 15 -2 28 31 40 9 3 24 17 33 31 15 22 15 30 3 62 -7 20 -21 39 -30 42 -13
3 -16 11 -11 33 5 25 2 29 -16 29 -14 0 -21 6 -21 18 0 29 37 62 71 62 30 0
49 -15 97 -79 22 -29 22 -32 8 -53 -23 -32 -20 -45 4 -17 14 17 19 20 20 9 0
-13 1 -13 10 0 7 12 11 10 19 -10 5 -14 10 -19 10 -12 1 13 -69 108 -116 156
l-28 29 34 -19 c18 -10 38 -29 44 -41 5 -12 14 -20 18 -17 5 3 9 -2 9 -11 0
-9 4 -14 9 -10 9 5 -28 74 -39 72 -3 -1 -18 7 -33 17 -22 15 -33 17 -50 9 -12
-6 -34 -16 -50 -22 -15 -6 -32 -23 -38 -38 -45 -112 -76 -173 -104 -203 -39
-42 -73 -107 -91 -175 -15 -56 -18 -153 -5 -174 6 -9 -3 -24 -32 -50 -26 -23
-42 -32 -44 -23 -6 17 -23 15 -23 -2 0 -8 -6 -16 -12 -19 -10 -3 -10 -9 -2
-24 9 -15 9 -32 -3 -74 -11 -40 -13 -81 -8 -159 4 -58 7 -115 7 -127 0 -13 5
-23 11 -23 6 0 8 -2 5 -5 -3 -3 -12 -3 -20 0 -11 5 -14 39 -17 175 -2 117 1
170 8 170 6 0 11 8 11 18 0 12 -3 13 -8 5 -5 -8 -8 1 -8 22 0 18 4 31 8 29 4
-3 8 -1 8 5 0 5 -5 13 -10 16 -6 4 -10 87 -10 216 l0 209 33 2 32 1 -32 4 -32
4 -1 230 c0 211 1 229 17 230 17 1 17 2 1 6 -16 4 -18 17 -18 101 l0 97 102
-1 c75 0 81 0 23 3 -44 2 -90 5 -102 8 l-23 5 0 380 0 380 78 2 77 2 -77 3
c-75 4 -78 5 -78 28 0 19 6 24 32 28 l33 4 -37 1 c-35 2 -36 3 -35 37 l1 36
45 -6 46 -5 -44 13 c-70 19 -63 35 16 32 37 -1 52 -1 33 1 -78 9 -100 15 -100
29 0 12 18 14 100 11 55 -2 100 0 100 5 0 5 -7 9 -15 9 -8 0 -12 6 -9 15 4 9
16 13 35 11 16 -2 29 1 29 7 0 7 4 7 12 -1 17 -17 28 -15 28 6 1 16 1 16 14
-1 11 -15 13 -6 14 65 0 71 -1 76 -8 38 -4 -25 -5 -49 -2 -55 3 -5 -1 -5 -8 2
-7 7 -13 33 -13 58 0 28 -4 41 -9 33 -12 -20 -10 39 3 65 9 21 9 21 -5 3 -14
-17 -15 -15 -19 20 -4 34 -5 33 -5 -11 -1 -90 0 -89 -17 -75 -8 7 -23 38 -32
69 l-18 56 -5 -148 c-6 -162 -10 -172 -65 -162 -16 4 -42 8 -57 9 -16 2 -33 4
-38 5 -7 1 -9 111 -8 323 l3 323 29 3 c16 2 33 -1 39 -7 17 -17 24 -13 23 11
-1 15 7 24 24 29 14 4 19 7 13 8 -7 1 -13 12 -13 25 0 27 33 56 62 56 10 0 18
4 18 9 0 18 33 21 51 5 15 -13 22 -14 33 -5 18 15 36 6 36 -16 0 -13 3 -13 16
-2 13 10 17 10 25 -2 7 -12 10 -12 18 0 5 8 16 11 31 6 16 -5 20 -4 15 5 -4 7
-19 10 -35 6 -39 -7 -63 20 -35 40 10 8 27 11 38 8 17 -5 17 -3 7 16 -9 18 -8
25 6 41 18 20 49 25 59 9 3 -5 11 -10 16 -10 6 0 7 4 4 10 -12 20 15 51 43 48
18 -2 27 2 28 12 0 8 2 23 2 32 2 22 47 34 67 18 12 -10 15 -10 15 3 0 23 41
33 55 13 8 -10 19 -14 29 -10 9 3 24 0 33 -7 14 -12 16 -12 11 1 -2 8 -15 17
-29 18 -13 2 -28 8 -34 13 -13 13 -51 11 -63 -3 -6 -7 -31 -13 -56 -12 -46 1
-46 0 -46 -33 0 -28 -3 -33 -24 -33 -16 0 -27 -7 -31 -20 -8 -24 -21 -26 -29
-4 -3 8 -2 12 4 9 6 -4 7 1 3 11 -4 12 -3 15 5 10 8 -5 10 -1 5 10 -4 12 -3
15 5 10 12 -7 17 8 27 77 3 24 1 36 -5 32 -13 -8 -13 25 0 45 8 12 10 10 11
-10 0 -22 2 -20 12 10 14 42 35 71 62 86 10 6 21 17 24 25 4 12 2 12 -13 0
-15 -12 -16 -12 -9 5 3 10 10 21 15 24 4 3 4 26 -1 50 l-9 45 -1 -43 c-1 -51
-20 -100 -50 -126 -26 -23 -26 -24 0 59 11 37 19 69 16 71 -2 2 -16 -37 -31
-88 -16 -50 -35 -103 -44 -116 -9 -15 -15 -40 -13 -63 3 -45 -13 -79 -38 -79
-27 0 -42 24 -47 72 -3 41 -3 41 4 8 10 -45 19 -60 37 -60 18 0 35 31 35 65 0
21 -4 26 -16 21 -24 -9 -74 22 -89 57 -9 20 -14 25 -15 14 0 -14 -4 -16 -19
-7 -11 5 -29 10 -41 10 -17 0 -20 4 -15 21 6 19 5 20 -7 8 -8 -7 -13 -22 -10
-33 4 -13 1 -17 -9 -14 -8 3 -19 -2 -26 -11 -20 -25 -15 -36 7 -16 11 10 20
14 20 10 0 -4 9 0 19 10 18 15 24 16 50 4 33 -15 41 -29 17 -29 -20 0 -30 -19
-28 -51 2 -27 -2 -29 -70 -30 -20 0 -42 -6 -48 -14 -8 -10 -18 -11 -35 -5 -18
7 -30 4 -48 -11 -14 -10 -34 -19 -45 -19 -11 0 -26 -8 -33 -17 -13 -16 -12
-17 3 -4 10 7 25 10 34 7 11 -4 22 1 31 14 17 25 58 26 72 3 10 -17 10 -17 11
-1 0 20 35 42 51 33 5 -4 -3 -22 -21 -42 -44 -50 -57 -80 -40 -96 10 -10 12
-8 7 11 -3 14 1 29 12 40 10 9 21 25 24 35 4 11 16 21 27 24 11 3 20 12 20 19
0 14 17 18 52 15 14 -2 17 5 15 36 -2 34 1 38 24 41 24 3 26 0 32 -49 7 -60
20 -79 53 -79 13 0 24 -3 24 -6 0 -12 -22 -45 -45 -68 -14 -14 -25 -32 -25
-39 0 -8 -7 -18 -16 -21 -12 -5 -15 -2 -12 12 8 29 -24 87 -50 90 -42 6 -90
-17 -101 -49 -5 -16 -16 -29 -23 -29 -6 0 -29 -17 -50 -37 -37 -36 -49 -75
-28 -88 27 -17 -12 -83 -42 -72 -7 2 -23 0 -35 -4 l-23 -8 -1 227 c-1 233 -1
263 2 285 1 6 -1 32 -5 57 -3 27 -2 39 3 31 7 -10 11 -8 17 10 4 13 7 29 6 36
-5 25 49 113 114 187 36 42 71 76 76 76 6 0 3 -10 -6 -23 -25 -35 -37 -57 -31
-57 3 0 20 24 39 53 18 28 49 66 68 83 30 27 352 204 371 204 27 0 -12 -24
-135 -85 -124 -61 -153 -80 -226 -150 -46 -44 -95 -100 -110 -125 -14 -25 -35
-56 -48 -70 -36 -41 -115 -170 -109 -180 3 -5 1 -11 -5 -15 -5 -3 -10 -12 -10
-18 1 -15 35 29 55 70 29 59 142 223 191 275 44 47 130 105 141 95 2 -3 -15
-19 -39 -38 -62 -47 -117 -100 -140 -134 -11 -16 -3 -10 18 14 41 47 180 161
197 161 6 0 -2 -13 -18 -30 -16 -17 -23 -30 -16 -30 7 0 -6 -19 -29 -42 -95
-95 -140 -193 -124 -271 l6 -29 26 36 c29 41 51 47 53 14 1 -13 5 -4 10 20 13
68 46 110 122 160 78 50 147 109 147 125 0 5 -9 -2 -20 -16 -12 -15 -58 -51
-103 -80 -45 -30 -91 -64 -101 -76 -31 -34 -42 -26 -42 30 0 49 2 52 59 105
32 30 87 68 120 85 34 17 74 42 88 56 l26 24 -1 -33 c-1 -18 -7 -39 -13 -46
-7 -7 -13 -19 -12 -25 0 -7 3 -7 6 2 4 10 7 10 13 1 4 -7 13 17 19 56 7 38 19
96 28 129 9 33 16 80 15 105 -3 62 44 267 51 225 5 -28 5 -27 4 5 -1 19 2 40
5 45 3 6 5 28 5 50 0 57 14 165 22 161 4 -3 8 25 9 61 2 36 8 76 13 90 11 30
11 55 -1 28 -8 -19 -9 -19 -9 1 -1 12 6 59 15 105 13 70 15 126 9 337 -5 155
-4 252 2 252 6 0 6 20 1 53 -5 28 -10 63 -12 77 -3 14 -9 45 -15 70 -13 56
-13 69 -1 50 6 -9 10 -10 10 -3 0 6 -4 15 -10 18 -5 3 -10 11 -10 17 0 7 6 6
15 -2 24 -20 18 -5 -7 16 -14 12 -18 14 -13 4 4 -8 4 -12 0 -7 -17 15 -17 95
0 126 8 17 17 31 20 31 9 0 92 -60 112 -82 12 -12 23 -34 26 -48 l4 -25 2 26
c1 19 -13 39 -52 76 -67 64 -89 72 -114 39 l-20 -25 -17 80 c-9 43 -21 79 -26
79 -12 0 -26 27 -35 69 -6 29 -5 33 9 28 16 -6 16 -4 0 23 -10 16 -21 27 -25
25 -4 -3 -9 1 -12 8 -4 11 20 14 113 14 l118 1 38 -79z m1532 66 c5 -5 -71
-46 -117 -64 -25 -10 -77 -39 -116 -65 -54 -36 -76 -45 -96 -41 -21 5 -31 0
-48 -21 -11 -15 -21 -32 -21 -38 0 -6 11 2 23 18 17 21 29 27 42 22 13 -5 46
11 112 55 51 34 96 60 99 57 2 -3 -8 -14 -24 -24 -39 -25 -167 -144 -167 -156
0 -11 -81 -76 -107 -84 -11 -3 -17 -8 -15 -11 7 -6 47 15 75 40 12 11 22 16
22 10 0 -9 -23 -32 -89 -85 -10 -8 -15 -7 -21 3 -5 7 -7 16 -4 20 2 4 -2 9 -8
12 -8 2 0 19 25 45 36 41 48 72 27 72 -23 0 82 164 139 218 l36 33 115 -7 c63
-4 116 -8 118 -9z m272 -2 c0 -2 -7 -18 -17 -36 -9 -18 -18 -47 -20 -66 -7
-60 -22 -71 -18 -13 2 30 11 65 20 79 9 13 14 27 11 30 -14 14 -44 -80 -50
-157 -4 -47 -10 -96 -13 -109 l-6 -24 -13 24 c-7 13 -14 44 -14 69 0 26 -13
74 -30 115 -17 38 -30 75 -30 83 0 10 21 13 90 11 50 -1 90 -4 90 -6z m276
-20 c-14 -66 -27 -231 -21 -268 4 -25 0 -65 -12 -109 l-18 -69 -61 -28 c-33
-15 -82 -44 -108 -63 -25 -20 -47 -36 -49 -36 -1 0 -1 18 1 39 4 37 1 41 -37
66 -66 41 -77 95 -36 173 17 32 25 63 25 97 0 60 25 171 46 202 14 22 21 23
145 23 l131 0 -6 -27z m114 11 c6 -6 17 -35 25 -63 12 -46 12 -52 -1 -47 -12
5 -12 2 0 -17 10 -15 15 -48 14 -103 0 -45 3 -91 6 -102 4 -11 3 -23 -2 -26
-6 -3 -13 14 -16 38 -4 23 -9 55 -12 70 -2 15 -1 25 4 22 14 -8 -36 134 -59
165 -28 39 -51 34 -55 -11 -2 -19 -4 -39 -5 -45 0 -5 2 -32 6 -60 5 -37 4 -46
-4 -35 -6 8 -11 10 -11 5 0 -6 5 -16 11 -22 20 -20 -14 -213 -37 -213 -17 0
-17 -2 2 51 9 24 15 67 14 94 -5 92 11 282 25 305 7 12 82 7 95 -6z m229 10
c45 -5 61 -11 61 -22 0 -8 -19 -65 -42 -125 -42 -107 -44 -110 -105 -156 -35
-25 -69 -46 -75 -46 -10 0 -15 37 -19 135 -4 74 -12 151 -18 170 -6 19 -11 38
-11 42 0 10 125 10 209 2z m624 -22 c19 -20 71 -142 64 -148 -2 -3 -16 0 -30
5 -47 18 -190 32 -237 23 l-45 -8 71 -17 c77 -18 127 -35 105 -36 -39 -2 -203
-92 -252 -140 -29 -28 -50 -53 -47 -56 3 -4 25 7 49 24 45 31 99 50 99 35 0
-5 -23 -36 -50 -68 -27 -33 -48 -62 -45 -64 2 -2 20 6 39 18 20 12 36 17 36
11 0 -13 -10 -21 -79 -69 -30 -20 -79 -66 -109 -101 -55 -65 -57 -90 -5 -53
52 36 54 34 24 -20 -16 -29 -39 -84 -49 -123 -11 -38 -23 -78 -27 -87 -11 -26
12 -22 26 5 16 28 128 146 153 159 20 11 19 7 -14 -42 -21 -32 -75 -156 -84
-192 -4 -17 -2 -28 4 -28 5 0 10 6 10 13 0 6 9 23 20 37 18 22 17 18 -4 -35
-27 -67 -52 -184 -32 -151 43 73 133 199 171 241 l46 50 -29 -45 c-52 -80
-111 -190 -102 -190 5 0 25 19 44 42 39 46 41 46 25 0 -7 -21 -7 -37 0 -49 9
-17 10 -17 16 2 10 33 49 105 56 105 7 0 -36 -107 -86 -213 -31 -66 -28 -86 3
-32 34 56 41 41 16 -32 -23 -68 -31 -133 -16 -133 4 0 22 28 39 63 34 70 133
227 133 212 0 -5 -4 -27 -9 -47 -11 -49 3 -49 28 0 10 20 38 57 61 82 23 25
38 38 32 30 -5 -8 -12 -31 -15 -50 -4 -19 -10 -57 -16 -85 -5 -27 -14 -81 -20
-119 -6 -37 -13 -72 -16 -76 -2 -4 -7 -45 -10 -91 -5 -79 -35 -257 -55 -324
-5 -16 -14 -50 -21 -75 -11 -42 -12 -43 -22 -22 -15 33 -27 26 -16 -10 5 -18
9 -43 9 -56 0 -20 -2 -21 -22 -10 -13 7 -24 13 -25 13 -1 0 3 21 8 45 20 88
26 130 19 130 -4 0 -12 -12 -18 -26 -9 -19 -9 -24 0 -18 7 5 9 2 6 -8 -4 -8
-16 -67 -29 -129 -29 -152 -28 -148 -41 -126 -5 11 -8 40 -5 65 3 26 3 38 0
27 -3 -11 -8 -24 -13 -28 -10 -12 -40 68 -47 126 -6 45 -7 48 -20 32 -7 -11
-13 -24 -13 -29 0 -6 4 -5 9 2 6 10 10 2 15 -25 4 -21 23 -79 43 -130 l36 -91
26 51 c18 36 33 53 49 55 18 3 22 -1 22 -23 0 -14 -6 -40 -14 -58 -7 -18 -16
-54 -20 -81 -4 -27 -10 -55 -13 -62 -7 -20 -53 51 -54 84 0 15 -3 21 -6 14 -3
-7 -18 14 -33 46 -15 33 -33 63 -39 66 -6 4 -12 19 -12 34 -1 17 -3 21 -6 10
-5 -21 -8 -22 -36 -6 -22 12 -217 28 -217 17 0 -3 31 -15 69 -27 48 -16 82
-35 113 -63 36 -33 39 -40 20 -35 -28 6 -28 5 22 -29 l38 -26 -23 38 c-35 59
-57 80 -112 105 -52 23 -52 23 -20 26 46 5 107 -15 143 -45 17 -14 44 -52 59
-84 l28 -59 -24 6 c-24 6 -69 -10 -88 -33 -5 -6 -27 -13 -48 -15 -37 -4 -39
-3 -35 24 3 15 1 28 -4 28 -4 0 -8 -7 -8 -16 0 -30 -20 -2 -21 29 l-1 32 -10
-35 c-10 -33 -11 -34 -19 -12 -5 12 -13 22 -19 22 -6 0 -8 -4 -5 -10 3 -5 1
-10 -5 -10 -6 0 -9 22 -6 63 3 58 3 60 -10 32 -15 -35 -19 -19 -4 22 9 26 9
26 -5 9 -8 -10 -19 -44 -25 -75 -16 -80 -20 -85 -15 -16 l5 60 -17 -32 c-25
-50 -36 -41 -28 23 5 40 3 54 -4 50 -7 -5 -11 5 -11 28 0 63 -17 38 -25 -36
l-8 -73 -7 45 c-4 25 -6 48 -3 53 2 4 0 7 -6 7 -5 0 -18 -24 -27 -52 -14 -39
-19 -47 -22 -31 -2 12 6 43 17 69 27 61 26 65 -5 23 -23 -29 -25 -31 -19 -9
10 34 58 120 68 120 4 0 7 4 7 10 0 6 -9 5 -24 -2 -15 -6 -40 -39 -61 -77 -30
-55 -35 -60 -29 -31 4 19 8 48 9 65 1 16 7 31 13 33 6 2 9 9 6 16 -3 7 2 19
11 26 21 18 19 30 -7 30 -13 0 -30 5 -38 10 -11 7 -5 10 25 10 31 0 37 3 25
11 -12 9 -10 10 8 6 34 -8 22 15 -19 35 l-34 17 45 1 45 1 -29 23 c-20 16 -24
25 -15 28 10 3 5 13 -16 31 -17 15 -22 24 -12 21 9 -3 17 -1 17 5 0 6 -12 13
-27 17 -46 10 -49 12 -26 19 43 13 12 26 -44 19 -41 -5 -54 -4 -49 5 19 31
-82 -12 -111 -47 -24 -28 -31 -16 -12 20 22 41 -15 13 -46 -35 -16 -25 -34
-46 -40 -46 -5 -1 -21 -35 -34 -76 -14 -41 -28 -75 -32 -75 -4 0 -9 -8 -12
-17 -2 -10 -8 1 -12 25 -9 48 -22 55 -28 15 -3 -16 -4 -3 -3 27 1 49 4 56 29
68 15 7 25 17 22 22 -5 9 -64 -8 -104 -30 -32 -17 -25 2 17 42 42 42 78 58
128 58 40 0 45 17 8 26 -37 9 -92 -2 -147 -31 l-49 -25 42 50 c24 28 40 53 37
56 -8 9 -62 -32 -92 -69 l-26 -32 6 35 c4 19 20 75 37 123 16 49 27 91 25 94
-9 8 -59 -86 -98 -185 -21 -53 -38 -92 -38 -86 -1 6 -18 47 -38 90 -43 92 -56
78 -22 -24 12 -37 24 -74 27 -82 3 -8 -18 17 -45 55 -52 72 -89 112 -98 103
-3 -2 8 -24 23 -49 15 -24 45 -75 66 -113 l39 -69 -30 21 c-17 12 -38 33 -47
47 -9 14 -21 25 -26 25 -19 0 20 -75 53 -103 l32 -28 -42 7 c-41 6 -44 5 -88
-42 l-46 -49 6 40 c17 120 18 137 4 146 -11 6 -11 11 -1 21 14 14 16 62 3 86
-16 29 0 71 45 122 47 51 145 119 204 139 19 6 53 23 75 38 21 14 41 21 42 16
9 -27 34 -48 72 -59 38 -11 44 -10 77 12 25 18 40 22 48 15 7 -6 45 -14 84
-17 75 -7 84 -15 57 -50 -8 -10 -15 -26 -15 -35 0 -26 84 -95 133 -108 60 -17
100 -7 148 38 42 41 50 73 24 107 -28 37 -19 68 39 120 86 80 129 183 145 356
12 129 -5 236 -55 335 -36 72 -37 74 -31 165 5 89 12 118 71 286 14 41 23 78
20 83 -3 5 100 9 249 9 233 0 255 -1 270 -18z m-1409 -116 c39 -118 42 -139
25 -216 -14 -66 -8 -89 42 -146 44 -51 43 -42 19 -174 -21 -119 -33 -170 -40
-170 -4 0 -7 -6 -7 -13 0 -8 -16 -41 -36 -74 -20 -33 -37 -65 -37 -71 0 -6
-16 -34 -35 -63 -22 -34 -35 -66 -35 -86 0 -38 -43 -91 -123 -150 l-47 -35
-42 38 c-38 34 -35 40 12 20 13 -5 15 6 15 71 0 86 -5 97 -72 185 -23 31 -43
62 -43 69 0 8 -7 5 -20 -6 -11 -10 -20 -15 -20 -10 0 4 -7 1 -17 -6 -15 -13
-15 -12 -4 9 7 12 16 20 20 18 15 -10 37 28 37 62 -1 37 1 38 32 16 13 -9 30
-13 38 -10 8 3 13 2 9 -3 -6 -10 91 -58 127 -63 26 -3 27 6 15 97 l-6 50 18
-35 c10 -19 24 -59 31 -88 11 -48 31 -74 46 -59 4 3 -2 50 -12 104 -16 89 -20
101 -53 132 -69 65 -208 106 -323 95 -34 -3 -38 -2 -18 5 14 5 40 9 58 10 25
1 32 5 32 21 0 11 7 37 16 58 l16 37 15 -43 c11 -33 19 -42 31 -37 9 3 49 11
90 17 l74 12 -4 53 c-5 63 11 57 19 -6 3 -23 9 -44 14 -46 4 -3 26 -3 48 1 33
5 41 11 41 28 -1 28 -33 98 -53 115 -10 7 -17 23 -17 34 0 30 -45 101 -73 116
-33 18 -85 8 -179 -33 l-76 -33 28 46 c16 26 40 57 54 70 20 19 328 202 333
197 0 0 17 -50 37 -110z m526 23 c10 -20 25 -76 31 -125 20 -148 22 -141 -43
-177 -31 -18 -59 -29 -62 -26 -3 3 2 32 11 65 18 63 18 72 12 209 -4 92 5 130
23 104 5 -8 17 -30 28 -50z m2724 15 c13 -5 7 -16 -27 -54 -24 -26 -49 -67
-56 -91 -21 -71 -33 -99 -41 -99 -3 0 -34 -25 -67 -55 -57 -51 -61 -53 -67
-32 -11 42 -6 102 12 134 29 54 92 123 112 123 10 0 20 6 23 13 3 8 10 6 21
-8 16 -20 16 -20 31 -1 8 11 15 26 15 33 0 7 7 13 16 13 10 0 14 6 10 15 -6
17 -4 18 18 9z m-4769 -67 c11 -45 13 -50 14 -67 1 -8 5 -21 10 -29 14 -21 41
4 41 38 0 35 15 59 23 37 10 -26 25 -18 37 19 10 30 14 33 34 24 12 -6 26 -20
32 -32 8 -19 1 -32 -54 -97 -35 -41 -68 -75 -75 -75 -6 0 -19 14 -30 32 -24
41 -68 207 -52 193 7 -6 16 -25 20 -43z m4860 -39 l-21 -81 -54 -24 c-29 -13
-55 -21 -58 -19 -6 6 34 111 54 142 14 21 75 62 95 64 3 0 -4 -37 -16 -82z
m85 22 c11 -27 11 -32 -6 -44 -17 -13 -17 -14 7 -9 18 3 28 0 32 -11 4 -9 1
-16 -6 -16 -7 0 -30 -12 -52 -26 l-40 -26 58 6 c33 4 57 2 57 -3 0 -13 -27
-20 -112 -30 -78 -9 -102 -18 -156 -58 -18 -14 -39 -26 -46 -27 -7 -1 -33 -19
-59 -40 -42 -34 -46 -42 -52 -94 -8 -72 -14 -92 -26 -92 -5 0 -9 28 -9 63 0
68 9 82 88 137 27 18 32 27 28 46 -5 19 0 26 24 39 16 9 30 13 30 10 0 -3 12
2 28 12 21 13 16 5 -18 -32 l-45 -49 45 39 c25 22 80 62 122 90 42 27 72 52
67 56 -9 5 -6 35 7 77 6 21 21 13 34 -18z m-5794 -113 c4 -24 0 -55 -10 -88
-11 -31 -15 -63 -10 -81 4 -21 3 -28 -5 -24 -15 10 -15 7 19 -57 16 -31 27
-65 24 -74 -5 -17 -5 -17 6 -1 8 13 8 23 0 38 -11 21 3 29 15 9 5 -7 14 -4 26
7 24 22 24 20 -6 -60 -14 -37 -25 -72 -25 -79 1 -6 15 26 33 73 18 47 42 99
53 115 29 41 36 55 30 55 -3 0 -17 -17 -31 -37 -14 -21 -25 -31 -25 -22 0 16
45 89 77 124 10 11 24 31 30 45 13 25 51 94 67 119 11 17 36 -49 36 -96 0 -20
8 -41 21 -54 16 -16 20 -29 16 -55 -4 -24 -1 -39 10 -50 15 -15 18 -15 30 2 7
10 14 38 14 63 1 25 4 37 6 26 13 -50 53 -62 53 -16 0 34 15 49 24 25 10 -27
26 -4 27 39 0 23 3 36 6 30 2 -7 11 -13 19 -13 8 0 14 -2 14 -5 0 -18 -45 -88
-83 -131 -54 -61 -60 -72 -93 -176 -14 -45 -33 -95 -40 -110 -8 -16 -12 -28
-10 -28 9 0 26 39 66 152 32 90 48 120 81 154 22 23 52 59 65 80 17 29 23 34
24 19 0 -11 -21 -47 -46 -80 -53 -70 -60 -85 -85 -184 -22 -85 -21 -81 -11
-81 4 0 14 28 21 63 13 63 63 169 104 221 l23 28 16 -58 c27 -95 35 -191 27
-319 -3 -66 -3 -130 2 -143 16 -41 11 -188 -6 -202 -8 -7 -15 -20 -15 -28 0
-13 3 -12 15 4 14 18 14 17 15 -16 1 -63 -43 -389 -52 -384 -4 3 -6 17 -3 32
3 15 2 21 -1 15 -12 -27 -24 -11 -25 35 -2 45 -2 46 -8 12 l-7 -35 -8 48 c-12
70 -26 67 -22 -5 2 -35 2 -48 -1 -30 -7 53 -23 36 -24 -25 0 -32 -4 -80 -9
-108 l-7 -50 -2 53 c0 28 -5 52 -9 52 -4 0 -16 -23 -26 -51 -15 -40 -21 -48
-28 -35 -5 10 -5 23 2 35 18 35 11 35 -26 0 l-35 -34 47 90 c27 50 57 98 69
107 11 10 15 17 10 18 -28 1 -127 -138 -200 -280 -29 -55 -28 -20 0 44 30 68
27 84 -7 32 -13 -20 -26 -36 -30 -36 -8 0 30 99 44 115 14 16 9 28 -8 14 -9
-7 -29 -39 -45 -71 -16 -32 -31 -58 -33 -58 -7 0 31 117 57 174 14 31 23 56
19 56 -27 0 -137 -218 -157 -308 -4 -18 -9 -32 -11 -29 -2 2 5 53 16 112 21
118 20 148 -1 64 l-14 -52 -7 34 c-3 19 -5 56 -3 84 2 27 1 39 -2 25 -3 -14
-8 -27 -13 -30 -9 -6 -17 -102 -26 -305 -6 -133 -4 -162 16 -255 13 -61 34
-127 51 -157 l28 -52 -47 -34 c-33 -25 -49 -32 -55 -24 -6 8 -7 6 -4 -5 3 -9
0 -21 -7 -27 -11 -9 -16 5 -26 71 -7 46 -23 117 -36 158 -34 105 -40 205 -19
315 10 50 18 110 20 135 1 25 7 58 14 73 6 16 11 36 10 45 0 9 -5 1 -11 -18
-19 -68 -30 -59 -23 20 4 41 12 78 17 81 5 3 2 12 -7 19 -9 7 -13 20 -10 28 3
7 -3 26 -13 40 -11 15 -36 62 -57 104 -22 42 -43 74 -47 72 -4 -3 -8 4 -8 15
0 11 5 23 12 27 7 4 8 3 4 -5 -5 -7 6 -28 26 -50 18 -21 44 -57 58 -80 27 -45
45 -52 55 -20 9 27 -4 260 -16 302 -11 38 -12 137 -1 120 4 -6 7 35 7 90 0
103 1 108 53 210 2 4 -2 6 -9 5 -17 -4 -44 131 -42 207 1 33 6 83 12 110 7 34
8 68 2 100 -5 27 -6 54 -3 60 4 5 10 -12 14 -40 4 -27 10 -67 14 -88z m2480
38 c-4 -18 -15 -40 -25 -49 -23 -21 -27 -105 -7 -145 9 -16 32 -38 52 -50 34
-20 36 -24 31 -61 -6 -47 0 -56 25 -33 10 9 21 14 23 11 3 -3 -20 -31 -52 -62
-32 -31 -59 -52 -61 -46 -2 6 2 18 10 27 11 14 11 16 -1 8 -11 -6 -13 -3 -7
16 25 78 19 115 -24 161 -28 28 -32 36 -29 54 0 4 -4 10 -9 13 -6 4 -6 26 0
64 8 46 13 56 23 47 17 -14 35 15 35 57 0 15 4 39 8 53 l7 25 3 -29 c2 -16 1
-44 -2 -61z m-2466 44 c0 -12 8 -23 19 -26 16 -4 19 -13 16 -61 -3 -69 9 -99
32 -81 10 9 13 25 10 48 -5 45 12 99 24 79 5 -7 9 -23 9 -34 0 -12 6 -27 14
-33 19 -16 32 3 41 56 8 48 23 64 37 39 5 -9 13 -14 19 -11 11 8 12 -15 0 -34
-7 -11 -11 -10 -19 4 -5 10 -14 15 -21 11 -16 -10 -14 -36 4 -42 19 -8 5 -35
-61 -123 -36 -48 -48 -73 -48 -99 0 -19 -2 -30 -4 -23 -3 9 -10 7 -24 -6 -19
-17 -21 -17 -44 10 -21 25 -30 59 -27 107 1 14 22 96 38 148 5 16 3 22 -8 22
-8 0 -18 7 -21 16 -9 24 -7 54 4 54 6 0 10 -9 10 -21z m4622 -13 c4 -6 5 -20
1 -31 -13 -40 -3 -183 18 -247 23 -70 38 -238 21 -238 -5 0 -12 15 -15 33 -3
17 -22 93 -41 167 -39 150 -43 185 -22 206 13 12 13 20 1 62 -21 66 -19 75 8
66 12 -4 25 -12 29 -18z m-222 -77 c5 -34 16 -69 25 -78 15 -15 17 -14 29 2 7
9 18 17 23 17 14 0 46 67 38 79 -6 10 13 26 21 18 3 -3 12 -49 20 -103 16
-112 37 -209 66 -304 13 -45 21 -103 23 -185 2 -66 9 -145 16 -175 16 -71 18
-372 3 -391 -11 -13 -15 -41 -14 -86 0 -10 1 -38 1 -62 0 -27 7 -57 19 -76 12
-20 20 -50 20 -76 l0 -44 -26 43 c-25 42 -42 57 -29 25 15 -35 53 -163 49
-163 -2 0 -25 44 -50 98 -48 99 -72 108 -34 12 11 -29 19 -54 18 -55 -2 -2
-32 39 -67 91 -65 96 -100 126 -42 35 30 -46 95 -210 87 -218 -2 -2 -20 21
-41 52 -21 30 -40 53 -43 50 -2 -2 16 -33 42 -69 64 -90 65 -92 14 -89 l-43 3
35 -17 c19 -10 37 -18 38 -19 2 -1 -15 -26 -39 -56 -23 -29 -53 -78 -67 -108
l-25 -55 -17 85 c-10 47 -18 73 -19 59 0 -15 -3 -42 -6 -60 -4 -24 -3 -28 3
-14 8 16 10 15 15 -14 4 -19 7 -54 7 -80 l1 -46 30 74 c16 41 50 102 73 135
48 66 106 126 106 109 0 -6 -7 -16 -15 -23 -22 -18 -18 -40 12 -72 32 -33 25
-44 -16 -30 -38 13 -41 -1 -6 -24 14 -9 24 -22 23 -29 -2 -7 8 -22 22 -33 18
-15 21 -21 10 -22 -9 0 -21 5 -28 12 -7 7 -12 8 -12 2 0 -6 -14 -10 -32 -9
-17 1 -43 -4 -57 -11 -16 -8 -27 -10 -29 -4 -2 6 17 48 42 95 25 47 40 83 35
79 -6 -3 -32 -51 -59 -105 -51 -104 -81 -149 -99 -149 -6 0 -11 -7 -11 -17 0
-11 14 -2 45 29 40 41 99 77 110 67 2 -3 -30 -40 -71 -83 -40 -43 -74 -81 -74
-86 0 -4 11 -5 25 -2 36 7 109 -7 131 -24 18 -14 18 -14 -4 -4 -42 20 -33 4
10 -18 22 -13 43 -20 46 -18 2 3 -9 21 -27 41 -17 20 -31 42 -31 50 0 16 29
34 46 28 6 -2 14 5 17 17 4 14 12 19 31 18 28 -3 34 -18 38 -108 l2 -55 -37
-3 c-24 -2 -42 -10 -50 -23 -6 -10 -20 -19 -30 -19 -10 0 -25 -13 -35 -29 -14
-24 -25 -30 -67 -36 -56 -7 -94 -30 -96 -60 -4 -38 1 -65 12 -65 5 0 7 5 4 10
-3 6 0 10 7 11 10 0 10 2 1 6 -7 2 -13 15 -13 28 0 26 43 60 66 51 8 -3 14 -1
14 4 0 6 5 10 11 10 12 0 2 -38 -16 -60 -7 -8 -13 -27 -13 -43 0 -16 -10 -38
-23 -51 -30 -30 -44 -45 -75 -75 -13 -13 -24 -36 -24 -50 0 -15 -5 -32 -11
-38 -14 -14 -5 -43 13 -42 10 0 10 2 1 6 -17 6 -16 32 1 39 8 3 11 15 8 30 -5
27 30 74 55 74 7 0 13 6 13 13 0 47 93 57 148 17 29 -22 30 -24 15 -46 -8 -13
-13 -31 -10 -41 4 -15 5 -14 6 4 1 23 53 73 76 73 14 0 128 100 122 107 -2 2
-22 -13 -43 -33 -21 -20 -49 -43 -62 -51 -21 -15 -25 -14 -45 4 -49 45 -74 55
-97 41 -19 -12 -24 -10 -42 12 -19 24 -19 25 -1 40 10 8 18 24 18 35 0 13 8
21 23 23 13 2 22 10 22 21 0 20 37 58 46 48 4 -4 15 4 25 17 15 20 27 24 62
22 23 -1 48 2 55 7 14 11 14 11 16 -26 2 -21 -3 -29 -20 -33 -13 -3 -25 -12
-28 -19 -2 -7 -22 -22 -43 -32 -32 -15 -35 -18 -16 -21 12 -2 26 -15 33 -33 7
-16 17 -32 22 -35 5 -3 0 13 -12 36 -24 46 -23 47 4 52 14 2 22 -5 27 -22 6
-17 7 -12 3 16 -5 35 -2 42 15 47 22 5 31 -9 31 -53 0 -16 4 -31 9 -34 4 -3 7
16 5 43 -3 40 0 51 20 70 15 14 38 23 60 24 22 1 36 6 36 14 0 18 44 45 64 37
9 -3 16 -10 16 -16 0 -5 7 -2 16 6 8 9 19 16 23 16 16 0 43 -39 35 -51 -5 -8
-3 -10 6 -4 9 6 11 -1 6 -26 l-6 -34 16 38 c11 26 21 36 33 33 9 -2 28 -7 44
-10 15 -4 27 -13 27 -21 0 -19 16 -20 23 -1 9 22 65 25 84 4 9 -10 12 -18 6
-18 -14 0 -63 -76 -63 -98 0 -10 6 -27 14 -37 12 -16 11 -24 -4 -54 -10 -20
-20 -43 -23 -51 -3 -8 -6 1 -8 20 -1 28 -3 24 -9 -20 -4 -34 -18 -73 -35 -100
-16 -25 -29 -53 -30 -62 -1 -10 -4 -21 -8 -24 -3 -3 -4 10 -3 30 4 48 -10 36
-19 -15 -5 -29 -10 -38 -16 -28 -14 22 -10 147 6 219 25 113 25 116 4 55 -15
-42 -23 -96 -26 -178 -3 -65 -10 -120 -14 -123 -5 -3 -9 12 -10 33 -1 21 -4
49 -9 63 -10 34 -11 30 -44 -135 -2 -11 -5 -2 -6 20 -1 22 -3 47 -4 55 -2 8
-3 27 -4 42 -3 39 -45 49 -75 19 -12 -12 -30 -27 -40 -34 -9 -7 -19 -28 -21
-47 -2 -19 -1 -27 1 -18 2 10 14 24 25 32 11 8 17 19 13 25 -3 7 2 11 14 11
12 0 21 6 21 14 0 19 14 28 34 20 17 -7 22 -81 7 -119 -7 -16 -9 -14 -14 14
-4 19 -7 45 -7 59 0 58 -12 7 -19 -80 l-7 -93 -9 53 c-4 28 -11 52 -15 52 -4
0 -15 -28 -25 -62 l-18 -63 -26 57 c-14 32 -31 58 -37 58 -14 0 -46 -35 -38
-43 3 -3 -14 0 -38 7 -66 20 -108 26 -108 17 0 -5 21 -11 48 -15 56 -7 140
-45 166 -75 l19 -21 -67 0 c-60 0 -68 2 -76 23 l-9 22 0 -22 c-1 -24 -21 -33
-21 -10 0 9 -2 9 -8 0 -4 -7 -33 -15 -63 -19 -53 -6 -57 -5 -131 42 -156 100
-184 115 -249 135 -54 16 -73 18 -112 10 -46 -11 -88 -3 -101 18 -11 17 -161
70 -232 81 -38 6 -105 27 -148 47 l-79 36 -116 -5 c-123 -6 -209 -28 -265 -69
-28 -21 -68 -25 -153 -16 -36 4 -93 49 -109 86 -7 14 -21 36 -33 48 -18 19
-20 27 -11 43 6 12 8 30 4 42 -11 36 -12 101 -3 141 8 32 14 37 38 37 20 0 30
-6 34 -20 4 -14 10 -18 22 -14 14 6 16 3 11 -13 -5 -14 -1 -23 10 -27 10 -4
14 -13 11 -26 -3 -13 0 -20 9 -20 8 0 14 -9 14 -20 0 -11 -4 -20 -10 -20 -5 0
-10 -6 -10 -12 0 -7 14 3 30 21 26 28 36 32 62 27 17 -3 39 -6 50 -6 14 0 18
-5 14 -15 -4 -11 0 -15 12 -13 11 2 16 -3 14 -14 -2 -11 3 -18 13 -18 17 0 20
-16 5 -25 -13 -8 -13 -25 1 -25 5 0 8 4 5 9 -8 13 14 27 52 34 25 5 37 2 52
-13 15 -15 20 -16 20 -5 0 8 -9 19 -20 25 -19 10 -28 40 -12 40 4 0 14 4 22
10 12 7 11 12 -5 30 -15 17 -16 23 -6 29 9 6 10 11 2 15 -8 5 -8 13 -1 26 8
15 21 19 61 18 45 -1 52 -4 61 -27 l10 -26 9 23 c5 13 13 20 19 17 5 -3 10 0
10 8 0 18 42 30 51 15 6 -9 12 -8 24 2 25 20 65 -21 59 -63 -3 -23 -1 -28 8
-19 16 16 19 44 6 59 -17 21 -1 46 27 41 21 -4 25 -1 25 19 0 29 -24 40 -105
52 l-60 9 76 1 c63 1 81 -3 103 -20 14 -11 24 -24 21 -29 -3 -4 16 -20 42 -35
l48 -26 -42 41 c-24 22 -43 47 -43 56 0 20 46 37 69 24 12 -6 22 -5 29 2 7 7
16 4 28 -11 10 -11 26 -21 36 -21 11 0 19 -8 20 -20 0 -11 1 -24 2 -29 1 -5
-18 -24 -41 -43 -44 -35 -93 -99 -93 -123 0 -8 -5 -17 -11 -20 -5 -4 -9 -17
-8 -28 2 -37 -1 -47 -14 -47 -8 0 -22 -9 -31 -19 -20 -22 -34 -101 -18 -101 5
0 8 8 5 18 -6 26 24 95 39 90 7 -3 21 5 30 18 24 30 94 42 116 21 14 -14 12
-19 -16 -45 -32 -30 -40 -56 -22 -67 5 -3 7 0 4 9 -7 18 12 56 29 56 7 0 18 9
25 20 7 11 18 20 26 20 7 0 19 7 26 15 9 11 17 12 30 5 13 -7 21 -7 25 0 6 10
92 4 104 -6 2 -2 -4 -13 -14 -24 -12 -13 -15 -27 -11 -45 9 -35 24 -32 18 4
-3 22 1 32 18 41 13 7 19 17 16 27 -4 9 1 17 14 20 13 3 19 13 17 27 -1 15 4
22 20 24 12 2 27 10 33 18 16 18 39 18 46 0 3 -7 16 -12 30 -10 14 1 28 -5 34
-14 9 -16 9 -16 10 0 0 9 -4 20 -10 23 -5 3 -10 12 -10 20 0 11 14 13 60 12
56 -2 73 4 50 18 -33 20 46 69 98 61 55 -9 71 5 41 38 -24 26 -26 26 -112 17
-68 -7 -96 -14 -128 -35 -31 -21 -38 -23 -30 -9 20 35 38 53 67 68 20 10 24
15 11 15 -10 0 -16 4 -12 10 8 13 -5 60 -16 60 -6 0 -5 -8 1 -19 18 -35 11
-33 -25 5 -33 35 -35 41 -35 104 0 37 3 83 7 101 7 33 7 33 14 9 4 -14 8 -50
8 -80 1 -30 8 -68 15 -85 l14 -30 -5 41 c-7 59 13 66 37 12 14 -30 20 -36 20
-21 0 45 -57 111 -61 71 -1 -7 -5 18 -10 56 -10 90 -23 102 -38 34 -7 -29 -15
-64 -18 -78 -3 -14 -8 -19 -10 -12 -3 6 -9 10 -14 6 -5 -3 -9 3 -9 13 -1 17
-2 16 -17 -2 -13 -16 -15 -17 -10 -2 8 22 -1 22 -25 0 -18 -16 -19 -16 -8 12
6 17 23 50 36 75 l25 45 -28 -31 c-15 -17 -38 -44 -50 -60 l-22 -29 0 44 c-1
38 -3 42 -17 31 -13 -12 -14 -8 -9 41 5 39 4 50 -4 39 -6 -8 -11 -34 -11 -57
0 -23 -4 -45 -10 -48 -5 -3 -10 -15 -10 -26 0 -10 -5 -19 -11 -19 -15 0 -6
171 10 213 6 16 7 26 2 22 -14 -8 -52 -127 -66 -208 -13 -72 -18 -73 -30 -5
-5 36 -16 41 -44 24 -11 -7 -13 -5 -8 8 4 10 10 30 13 44 7 27 6 27 -30 -8
-21 -20 -45 -34 -56 -32 -10 2 -21 -2 -25 -8 -3 -5 -11 -10 -18 -10 -6 0 13
25 43 55 30 30 51 55 47 55 -9 0 -70 -32 -107 -56 -14 -9 -1 7 28 36 l53 52
-37 -6 -36 -7 22 31 c12 17 44 48 71 68 27 20 47 37 45 39 -7 7 -116 -46 -151
-73 -47 -36 -44 -17 5 31 43 42 47 64 4 24 l-26 -24 6 55 c9 95 35 293 45 350
27 158 34 201 40 267 9 105 23 102 19 -5 -3 -89 3 -116 16 -69 3 12 6 32 6 45
0 12 5 22 10 22 6 0 10 19 10 42 0 27 3 39 10 32 16 -16 -33 -235 -68 -298
-17 -31 -26 -56 -21 -56 5 0 9 5 9 11 0 5 4 8 9 5 14 -9 101 139 137 233 37
97 43 84 15 -34 -11 -44 -18 -81 -16 -83 2 -2 13 13 24 35 11 21 29 54 41 73
25 42 72 140 94 194 38 92 21 1 -28 -154 -34 -109 -41 -147 -15 -90 11 25 27
52 35 61 8 9 31 45 50 80 33 61 35 62 30 27 -19 -122 -19 -118 5 -63 11 28 31
84 44 125 l24 75 0 -56 c1 -30 -6 -79 -15 -108 -8 -29 -14 -55 -12 -57 4 -4
68 145 93 215 8 24 15 61 15 82 0 21 4 40 9 43 13 9 21 -46 21 -153 l1 -96 21
40 c16 33 21 65 26 175 5 134 5 135 20 92 20 -62 27 -44 8 21 -25 87 -20 98
19 43 19 -27 35 -57 35 -67 0 -10 5 -21 11 -25 8 -4 9 1 5 17 -4 18 -2 16 9
-6 9 -20 14 -24 15 -12 0 20 -28 90 -89 219 -23 48 -41 94 -41 103 0 27 -58
131 -82 147 -13 9 -40 31 -59 49 -20 19 -58 50 -85 69 -44 32 -47 35 -25 38
34 5 71 -6 71 -23 0 -21 19 -28 37 -13 12 9 15 9 9 1 -4 -9 -2 -11 7 -7 8 3
20 16 27 30 7 13 15 22 17 20 2 -2 8 -32 13 -67z m729 6 c-11 -34 -17 -71 -14
-86 4 -15 -3 -66 -14 -114 -26 -106 -26 -111 -1 -160 l20 -38 -23 -16 c-71
-50 -89 -113 -34 -119 43 -5 26 -27 -19 -26 -34 1 -36 0 -20 -11 10 -8 25 -11
34 -7 16 6 -10 -46 -65 -126 -13 -20 -23 -45 -22 -57 1 -11 -8 -40 -19 -65
-12 -25 -22 -52 -22 -61 0 -9 -3 -19 -7 -23 -4 -4 -6 -26 -5 -49 2 -38 1 -40
-9 -17 -27 62 -6 168 50 259 31 52 56 119 47 128 -3 4 -6 0 -6 -8 0 -9 -21
-55 -47 -104 -25 -49 -52 -110 -59 -135 -7 -25 -13 -38 -13 -29 -1 9 -8 22
-16 29 -19 16 -19 11 0 -33 25 -61 36 -128 29 -188 -6 -50 -10 -58 -30 -63
-34 -9 -30 -23 10 -36 32 -10 36 -16 46 -65 6 -30 10 -60 9 -67 -1 -7 0 -24 4
-38 3 -14 8 -60 11 -102 l6 -78 -48 6 -47 6 46 -32 c55 -36 64 -65 54 -169 -8
-85 -46 -271 -56 -271 -4 0 -10 16 -14 36 -3 20 -9 34 -11 31 -3 -3 0 -25 7
-48 6 -24 12 -51 12 -59 0 -8 7 -26 15 -40 l14 -25 -6 25 c-6 27 25 200 36
200 4 0 10 -21 13 -47 4 -27 7 -52 8 -58 1 -5 -7 -22 -17 -37 -10 -15 -15 -35
-12 -46 4 -11 2 -30 -3 -43 -5 -13 -10 -18 -10 -10 -1 8 -4 11 -7 8 -4 -4 0
-17 9 -31 15 -22 15 -25 1 -37 -32 -27 -51 -20 -78 26 -15 24 -29 58 -33 75
-4 23 -8 28 -15 18 -5 -8 -7 2 -4 27 4 29 3 33 -3 15 -9 -29 -12 -15 -30 173
-6 59 -15 116 -21 125 -9 14 -10 13 -5 -8 3 -14 10 -79 16 -145 11 -137 18
-169 59 -260 21 -46 34 -64 42 -59 14 7 10 3 -32 -33 l-25 -22 -2 33 c-2 18
-12 61 -24 97 -20 59 -34 190 -44 401 -1 36 -8 81 -14 100 -11 35 -31 244 -30
318 0 40 1 42 10 20 l10 -25 14 25 c7 14 26 30 42 37 24 11 25 12 6 13 -12 0
-30 -11 -41 -25 -25 -31 -32 -17 -32 64 0 73 25 167 54 206 13 16 22 38 20 48
-1 10 3 16 9 14 7 -2 11 -14 10 -26 -2 -11 2 -21 9 -21 15 0 48 -30 48 -43 0
-6 -8 -3 -17 5 -31 26 -39 27 -40 5 -2 -14 1 -17 6 -9 5 9 16 6 41 -13 19 -14
37 -31 42 -37 5 -9 8 -9 8 -2 0 7 -18 35 -39 64 -22 29 -37 59 -34 66 3 8 -1
14 -10 14 -9 0 -21 8 -26 18 -8 13 -10 14 -11 2 0 -13 -1 -13 -11 0 -8 11 -9
7 -6 -20 3 -23 -1 -43 -13 -60 -10 -14 -23 -45 -30 -69 -6 -23 -13 -41 -14
-40 -2 2 -1 36 2 74 4 52 7 63 13 45 l7 -25 1 28 c1 15 -3 27 -8 27 -6 0 -6
13 -1 33 4 17 10 79 12 137 3 58 2 92 -2 75 -4 -16 -8 -64 -9 -105 -1 -41 -5
-81 -10 -88 -13 -21 -36 159 -36 275 1 56 -3 99 -7 97 -4 -3 -8 2 -8 10 0 10
6 13 15 10 12 -5 15 3 16 37 1 24 2 51 3 59 1 8 -5 42 -12 74 -8 38 -9 62 -3
65 6 4 5 27 -4 61 l-14 55 5 -55 c4 -44 3 -51 -7 -37 -6 11 -13 47 -15 80 -2
40 -1 53 4 37 l8 -25 7 28 c7 26 3 74 -10 120 -2 9 0 17 6 17 5 0 13 -21 16
-47 3 -27 13 -69 21 -95 7 -25 18 -78 24 -116 5 -38 14 -81 19 -96 12 -30 29
-151 41 -292 9 -105 40 -194 68 -194 7 0 10 -4 7 -10 -3 -5 -1 -10 4 -10 15 0
14 23 -1 38 -10 10 -7 16 12 30 14 9 27 16 30 15 3 -1 15 24 27 55 11 31 24
66 28 77 4 11 9 36 10 55 1 19 11 57 24 83 12 26 27 73 32 105 6 31 15 62 21
69 5 6 9 20 8 30 -6 51 1 153 10 153 6 0 11 -35 12 -82 1 -69 2 -73 5 -25 2
32 9 57 15 57 7 0 8 19 4 60 -9 79 19 176 37 128 3 -9 7 -7 12 5 17 40 13 8
-6 -48z m-2023 -1 c-7 -27 -36 -55 -115 -111 -25 -18 -46 -41 -47 -50 0 -10
-1 -26 -2 -35 -1 -10 -18 -37 -38 -60 l-37 -43 42 42 c31 32 43 39 47 28 3 -7
4 -65 2 -127 -3 -110 -4 -117 -44 -198 -23 -47 -45 -96 -49 -110 -7 -22 -6
-23 9 -8 9 10 15 21 14 25 -1 4 2 18 6 31 6 17 11 20 20 13 10 -8 12 -4 9 17
-3 15 3 36 11 47 15 19 15 18 15 -15 0 -43 -48 -169 -80 -208 -13 -16 -36 -50
-51 -76 -28 -47 -78 -82 -85 -60 -3 8 -15 8 -41 -2 -49 -17 -67 -17 -102 1
-44 23 -36 35 12 18 28 -9 55 -12 82 -7 23 4 45 7 50 5 13 -3 65 49 83 83 20
38 46 113 35 101 -5 -6 -17 -30 -26 -55 -21 -55 -50 -88 -93 -106 -42 -18
-124 -18 -149 1 -18 13 -18 15 -1 45 18 33 24 100 8 100 -4 0 -6 -11 -3 -25 4
-24 3 -25 -22 -15 -14 5 -26 7 -26 5 0 -3 11 -10 25 -15 22 -8 24 -13 15 -30
-14 -27 -37 -35 -54 -21 -21 18 -25 47 -10 75 7 14 8 26 3 26 -5 0 -14 -11
-21 -25 l-11 -24 -37 21 -37 22 12 45 c7 25 30 84 52 131 22 47 48 106 58 133
27 71 129 153 154 123 8 -10 6 -18 -10 -32 -28 -25 -89 -136 -89 -160 1 -10 9
1 19 26 26 66 66 125 102 151 18 12 27 25 21 27 -7 2 -10 7 -8 11 3 4 -1 8 -9
8 -11 0 -12 -4 -4 -14 7 -8 8 -13 1 -13 -5 0 -15 6 -21 14 -10 12 -20 10 -63
-17 -28 -18 -60 -44 -71 -59 -11 -15 -24 -25 -28 -22 -5 3 -6 -2 -3 -10 3 -8
-13 -57 -36 -108 -24 -51 -49 -106 -56 -123 -17 -39 -34 -117 -28 -127 3 -4
11 -8 19 -8 18 0 27 -16 36 -60 l7 -35 1 32 c1 24 5 31 16 27 8 -4 15 -10 15
-15 0 -6 18 -34 40 -64 46 -62 73 -74 138 -56 26 7 49 8 59 2 14 -7 12 -11
-13 -24 -16 -9 -24 -16 -18 -17 6 0 23 9 38 21 25 20 34 16 18 -7 -10 -16 -83
-49 -107 -49 -11 1 -26 4 -33 9 -7 4 -26 -1 -46 -13 -44 -28 -48 -27 -44 12 3
35 3 35 113 23 51 -5 47 -4 -42 16 -37 8 -56 8 -65 0 -15 -12 -37 1 -57 33
-12 19 -12 19 -6 -2 3 -12 1 -32 -5 -43 -7 -12 -9 -25 -5 -28 3 -3 8 4 12 16
7 27 19 28 33 3 17 -32 12 -43 -17 -39 -18 2 -35 14 -48 35 -19 31 -45 44 -45
23 0 -5 -18 -19 -40 -30 -26 -13 -40 -16 -40 -9 0 8 -6 7 -17 -3 -10 -9 -41
-27 -70 -42 -28 -14 -72 -43 -98 -66 -25 -22 -51 -40 -57 -40 -16 0 0 73 19
85 8 6 44 38 80 73 74 71 108 92 155 92 28 1 30 2 15 11 -15 9 -16 13 -5 27 7
9 1 7 -13 -5 -14 -13 -32 -23 -41 -23 -44 0 -21 76 41 138 20 19 30 32 24 28
-15 -9 -18 10 -3 19 6 4 8 11 4 16 -3 5 6 25 20 44 14 18 26 38 26 43 0 5 7
22 15 39 8 17 19 52 24 79 8 40 19 57 63 100 29 28 70 70 90 93 33 36 119 85
168 96 8 2 17 4 20 5 3 1 8 2 12 1 4 0 24 10 43 24 20 13 46 27 58 31 12 3 31
14 41 23 12 10 16 11 12 3 -10 -16 125 80 144 103 18 22 23 19 16 -11z m2157
-23 c15 -12 37 -112 37 -167 0 -20 -15 -48 -50 -90 -27 -34 -46 -65 -42 -68 3
-4 -1 -4 -9 -1 -9 3 -22 -1 -29 -10 -7 -8 -21 -15 -31 -15 -39 0 -51 95 -24
184 8 27 15 73 15 102 0 79 3 82 65 80 29 -1 60 -8 68 -15z m581 -42 c8 -41 8
-187 -1 -377 -6 -146 -15 -186 -27 -122 -3 17 -9 44 -12 61 -4 20 -9 27 -14
19 -11 -17 -16 -5 -34 80 -8 41 -21 92 -29 113 -12 36 -13 31 -10 -72 2 -66
-1 -112 -7 -116 -5 -3 -10 -12 -10 -20 0 -8 -5 -26 -12 -42 -12 -28 -12 -27
-18 22 -4 41 -2 54 14 73 28 32 0 30 -49 -4 -38 -26 -39 -26 -23 -2 8 12 25
24 36 26 23 4 48 29 38 39 -3 3 -18 1 -32 -6 -15 -6 -29 -9 -33 -6 -3 3 5 43
17 88 13 45 30 109 38 141 23 88 40 116 72 117 15 0 36 4 47 9 34 15 42 11 49
-21z m-2730 -75 c3 -52 10 -103 15 -112 5 -9 23 -57 41 -105 28 -79 31 -96 27
-175 -7 -143 -65 -302 -147 -402 -58 -71 -62 -82 -39 -119 25 -41 24 -53 -6
-85 -42 -45 -134 -30 -165 29 -12 23 -12 30 4 59 25 48 18 70 -24 76 -26 4
-36 10 -37 25 -3 21 35 92 101 190 65 97 80 158 85 344 1 19 4 31 8 28 3 -4
12 1 19 11 13 16 13 16 14 -1 0 -10 -6 -28 -14 -40 -8 -12 -17 -33 -20 -47 -4
-14 4 -6 18 20 14 25 25 61 26 82 0 33 -21 153 -35 204 -5 17 5 30 52 67 32
26 61 47 64 47 3 0 9 -43 13 -96z m-3246 41 c12 -25 22 -52 22 -61 0 -8 8 -31
18 -52 10 -20 24 -62 31 -93 11 -51 10 -63 -9 -118 -25 -75 -27 -232 -5 -370
15 -93 12 -149 -6 -120 -7 12 -9 11 -9 -2 0 -8 7 -24 15 -35 19 -26 20 -100 0
-107 -8 -4 -17 -1 -21 5 -4 7 -3 8 4 4 23 -14 12 14 -20 49 -24 28 -35 54 -45
107 -7 39 -12 73 -10 75 3 3 43 -94 61 -149 3 -10 10 -18 15 -18 6 0 6 11 -1
30 -5 17 -7 37 -4 46 8 20 -3 64 -16 64 -5 0 -7 -14 -3 -32 4 -22 -6 -9 -29
40 -19 39 -38 72 -42 72 -6 0 -4 -15 15 -109 l9 -45 -19 25 c-17 22 -19 47
-19 393 0 307 2 367 13 357 21 -16 26 -4 16 35 -10 33 -6 54 10 54 4 0 17 -20
29 -45z m5780 13 c-24 -91 -74 -228 -82 -228 -16 0 -119 -106 -146 -150 l-22
-35 6 41 c3 22 24 96 46 165 l40 124 73 48 c75 49 91 55 85 35z m-887 -75 c14
-43 35 -42 49 3 7 19 13 34 15 32 2 -2 8 -39 14 -83 6 -44 16 -81 21 -83 6 -2
10 -12 10 -22 0 -24 10 -50 20 -50 16 0 32 95 21 124 -14 36 -14 46 3 46 18 0
28 27 20 53 -4 12 -2 17 4 13 5 -3 13 -22 17 -42 6 -34 7 -35 25 -19 18 16 19
15 25 -17 10 -55 9 -69 -14 -152 -41 -148 -120 -344 -147 -367 -23 -19 -45 11
-51 67 -14 152 -36 309 -54 384 -14 55 -19 100 -15 128 7 54 20 76 24 42 2
-14 8 -40 13 -57z m713 34 c-3 -7 -24 -24 -48 -38 -51 -31 -107 -102 -169
-214 -64 -116 -135 -164 -202 -139 -14 6 -11 9 13 20 54 22 140 82 153 106 9
16 -1 11 -33 -17 -56 -50 -131 -89 -137 -73 -2 7 10 24 27 38 38 31 147 91
155 84 2 -3 8 7 12 23 13 54 127 185 189 217 32 16 48 13 40 -7z m-3729 -7 c3
-6 -1 -13 -9 -16 -9 -3 -16 -12 -16 -20 0 -7 -18 -24 -41 -36 -22 -13 -53 -30
-68 -38 -15 -8 -45 -22 -66 -30 -22 -8 -78 -33 -125 -56 -83 -40 -140 -57
-230 -69 -43 -6 -44 -5 -25 11 11 9 58 35 105 58 47 24 107 57 134 74 52 33
122 59 171 63 17 2 44 15 60 30 43 38 96 52 110 29z m3443 -417 c20 -70 25
-106 14 -99 -6 3 -13 -2 -15 -11 -3 -14 -8 -10 -18 15 -18 43 -31 41 -23 -5
l6 -38 -30 35 c-37 41 -39 38 -12 -15 22 -43 25 -65 10 -65 -5 0 -12 16 -16
36 -6 31 -8 34 -17 19 -9 -16 -11 -15 -21 11 -11 26 -9 32 38 91 28 35 55 63
61 63 7 0 17 -17 23 -37z m-4080 -100 c-9 -10 -25 -37 -37 -60 -31 -63 -29
-246 3 -194 3 4 25 14 49 20 l44 13 -5 78 c-3 46 0 85 6 96 9 15 11 4 12 -53
0 -40 3 -73 8 -73 4 0 16 7 26 15 37 28 35 15 -7 -45 -48 -70 -54 -79 -61
-102 -3 -9 -23 -22 -44 -28 -22 -5 -45 -17 -52 -25 -7 -8 -18 -15 -25 -15 -7
0 -17 -6 -23 -13 -11 -13 9 -67 37 -101 13 -15 12 -18 -5 -22 -28 -7 -60 -60
-78 -127 -8 -33 -18 -62 -22 -65 -3 -4 -4 2 -1 13 20 67 37 215 37 324 0 120
1 129 25 161 18 24 25 47 25 79 0 50 18 83 65 124 33 28 47 28 23 0z m552 -38
c-17 -20 -1 -19 21 1 21 19 62 3 53 -21 -7 -18 -6 -18 36 -4 24 9 34 9 39 0 5
-8 16 -5 37 11 l29 23 -20 -28 c-17 -23 -26 -27 -52 -23 -18 3 -35 0 -39 -5
-3 -5 -9 -7 -12 -5 -4 2 -19 -4 -32 -15 -14 -10 -20 -19 -14 -19 6 0 17 6 24
14 14 17 40 10 40 -11 0 -8 5 -11 10 -8 6 3 10 -3 10 -14 0 -14 -5 -19 -20
-16 -11 2 -22 0 -25 -5 -3 -5 3 -7 13 -5 25 4 38 -5 47 -34 5 -18 4 -22 -5
-16 -9 5 -11 4 -6 -3 4 -7 2 -20 -3 -29 -6 -10 -11 -12 -11 -5 0 14 -40 17
-40 3 0 -8 -45 -42 -97 -74 -20 -13 -8 67 16 108 13 23 16 35 8 36 -7 0 -2 4
11 9 12 5 22 15 22 22 0 11 -2 11 -8 0 -5 -7 -16 -10 -26 -6 -16 6 -16 8 0 33
14 21 15 24 2 13 -13 -10 -17 -10 -22 4 -3 9 -1 24 6 32 7 9 8 13 3 10 -6 -4
-17 -3 -24 1 -10 7 -7 14 11 32 24 25 39 19 18 -6z m3814 -138 c-2 -17 36 -20
47 -4 14 20 31 -6 25 -36 -5 -25 -4 -29 6 -19 12 12 58 17 58 6 0 -3 -5 -14
-10 -24 -8 -16 -7 -18 4 -14 28 11 29 -19 1 -44 -21 -18 -25 -26 -15 -32 19
-12 5 -41 -17 -33 -16 6 -16 5 -4 -10 18 -22 -3 -50 -30 -42 -11 4 -19 2 -19
-4 0 -17 -28 -13 -39 7 -9 15 -10 15 -11 -4 0 -11 -9 -29 -20 -39 -29 -26 -26
-63 5 -71 33 -8 35 -44 3 -44 -51 0 -98 -21 -104 -45 -9 -36 3 -75 24 -75 16
1 16 1 0 11 -37 21 -13 98 26 83 9 -3 16 -1 16 5 0 19 40 13 40 -6 1 -16 2
-16 13 -3 7 9 21 14 32 12 17 -4 18 -2 6 12 -16 20 -6 50 14 42 10 -3 15 1 15
14 0 10 9 22 21 25 23 8 22 8 37 -20 11 -19 11 -18 12 7 0 32 36 59 46 34 3
-8 1 -24 -6 -35 -11 -22 -1 -28 17 -10 17 17 35 1 27 -23 -5 -17 -3 -20 11
-14 16 6 17 1 12 -41 -4 -35 -3 -42 3 -25 7 17 15 22 29 17 15 -4 18 -2 15 12
-2 10 0 25 6 33 9 13 13 12 30 -9 11 -13 20 -18 20 -12 0 6 5 11 10 11 6 0 10
-110 10 -310 l0 -310 -24 -11 c-13 -6 -32 -29 -42 -51 -16 -36 -16 -42 -2 -66
10 -18 13 -36 7 -54 -4 -16 -3 -28 1 -28 5 0 10 11 12 24 3 20 6 22 26 15 21
-8 22 -14 22 -109 0 -95 -1 -100 -19 -91 -10 6 -21 7 -25 4 -3 -3 -15 2 -27
13 -19 17 -19 19 -3 31 10 7 13 13 7 13 -7 0 -14 -4 -18 -10 -3 -5 -12 -7 -19
-4 -19 7 -31 -15 -16 -29 10 -9 11 -9 5 2 -5 9 -3 12 6 9 8 -3 13 -11 11 -17
-1 -7 2 -10 8 -6 6 3 10 -4 10 -17 0 -17 6 -24 19 -24 11 0 17 5 14 13 -8 20
24 15 32 -4 22 -50 17 -54 -74 -70 -28 -5 -61 22 -61 51 0 17 -2 18 -10 6 -13
-21 39 -72 74 -72 31 0 33 -9 6 -33 -22 -20 -26 -50 -9 -61 7 -4 9 0 5 13 -4
13 1 26 14 38 11 10 20 26 20 35 0 19 26 34 41 24 5 -3 9 -112 9 -246 0 -217
-2 -239 -16 -227 -8 7 -13 20 -11 30 3 13 0 16 -11 12 -13 -6 -14 1 -9 48 4
36 3 49 -3 39 -5 -8 -10 -35 -10 -60 -1 -36 -3 -41 -11 -27 -6 10 -7 31 -4 47
4 18 2 30 -4 30 -5 0 -11 -14 -13 -32 -2 -17 -8 -33 -15 -35 -8 -3 -9 6 -2 34
11 49 11 62 -1 43 -5 -8 -10 -25 -10 -37 0 -12 -4 -24 -9 -27 -5 -3 -7 36 -5
87 3 66 2 86 -6 70 -5 -13 -16 -23 -25 -23 -13 0 -15 10 -11 63 l5 62 -12 -66
c-10 -55 -19 -74 -52 -110 -23 -24 -45 -45 -50 -46 -5 -1 -12 -11 -17 -22 -14
-38 -25 -22 -23 33 3 70 38 135 85 158 19 10 28 18 20 18 -34 0 -77 -40 -106
-96 -16 -33 -30 -68 -31 -79 -1 -11 -6 -33 -11 -50 -7 -24 -9 -16 -10 43 -1
63 16 155 42 227 4 11 0 7 -10 -10 -21 -36 -44 -120 -44 -161 0 -16 -7 -39
-16 -50 -10 -12 -14 -14 -11 -4 2 8 7 26 11 40 l7 25 -15 -25 c-9 -14 -16 -20
-16 -15 -1 6 -10 -7 -21 -27 -11 -21 -21 -38 -24 -38 -6 0 5 70 21 129 9 29
13 55 11 58 -3 2 -12 -27 -22 -64 -9 -37 -23 -88 -31 -113 l-13 -45 4 60 c2
33 1 49 -2 36 -3 -18 -7 -21 -13 -11 -9 15 -23 -10 -35 -64 -11 -54 -14 -20
-4 48 8 48 8 71 0 79 -7 7 -13 3 -20 -14 -8 -19 -10 -10 -10 44 l-1 67 28 -17
27 -17 -22 25 c-60 66 16 198 105 185 22 -3 32 -1 32 8 0 8 7 19 16 27 13 10
20 10 36 0 17 -11 19 -10 14 7 -9 26 35 66 63 57 16 -5 19 -3 15 8 -3 8 8 25
26 41 34 28 76 36 67 12 -4 -9 2 -13 17 -12 39 2 23 29 -19 33 -28 3 -47 -2
-66 -16 -24 -18 -29 -19 -40 -5 -8 10 -21 13 -37 9 -23 -6 -23 -6 -5 19 10 14
21 26 25 26 3 0 9 15 13 33 11 55 28 90 62 131 18 22 31 41 28 44 -2 2 -16
-10 -31 -27 -19 -23 -30 -29 -37 -22 -17 17 41 73 67 65 20 -6 20 -5 3 12 -17
18 -18 17 -50 -17 l-32 -36 -34 33 c-35 35 -55 42 -66 24 -9 -15 -25 -12 -25
5 0 8 -4 15 -10 15 -5 0 -7 -6 -4 -14 3 -8 -6 -25 -20 -39 -14 -15 -26 -34
-25 -44 0 -14 2 -15 6 -3 9 25 35 50 69 66 36 17 54 12 54 -13 0 -9 3 -13 7
-10 11 12 31 -13 26 -34 -4 -15 -2 -18 12 -13 19 8 19 8 -3 -94 -10 -47 -55
-102 -83 -102 -10 0 -21 -5 -25 -11 -3 -6 -19 -9 -35 -5 -15 3 -31 1 -34 -4
-16 -25 -71 9 -61 37 4 10 1 13 -13 8 -22 -7 -46 26 -37 50 2 7 -4 15 -15 18
-26 7 -25 47 1 54 20 5 20 6 3 25 -14 16 -15 23 -5 38 6 11 9 26 6 34 -3 8 0
25 7 38 7 13 12 30 11 39 -2 8 7 24 18 34 11 10 20 26 20 37 0 10 6 18 14 18
8 0 14 11 14 27 0 14 7 32 17 39 9 7 15 16 12 21 -14 24 46 83 85 83 14 0 9
-37 -7 -50 -16 -13 -21 -40 -7 -40 11 0 89 75 101 98 18 34 12 39 -8 7 -10
-16 -31 -41 -46 -55 -25 -22 -27 -23 -22 -5 11 39 18 101 8 80 -8 -19 -9 -19
-13 5 l-5 25 -2 -25 c-1 -18 -12 -31 -38 -45 -21 -11 -43 -31 -49 -45 -46 -96
-77 -158 -89 -180 -21 -39 -37 -104 -39 -153 0 -25 -4 -49 -8 -53 -13 -12 -9
-41 6 -53 7 -6 16 -24 19 -40 4 -18 15 -32 27 -36 25 -8 19 -17 -13 -22 -35
-5 -40 -5 -86 7 -31 8 -47 8 -56 0 -10 -8 -15 -6 -20 9 -8 28 -39 43 -69 35
-13 -3 -27 -1 -30 4 -3 6 -15 8 -26 5 -16 -4 -20 0 -20 20 0 13 7 30 15 37 8
7 15 16 15 21 0 5 -7 6 -15 3 -9 -4 -15 0 -15 8 0 16 36 58 50 58 6 0 10 4 10
10 0 5 -7 7 -15 4 -8 -4 -15 -1 -15 5 0 6 8 11 18 12 14 0 14 2 2 7 -18 9 -20
44 -2 50 10 3 10 8 -2 21 -26 29 -34 107 -22 211 9 77 14 95 29 98 9 2 17 8
17 13 0 5 11 9 25 9 30 0 34 -27 9 -66 -9 -13 -14 -27 -12 -30 3 -2 13 7 22
21 18 27 54 33 74 13 8 -8 12 -8 12 -1 0 17 -28 36 -45 29 -10 -3 -15 1 -15
12 0 40 -54 57 -84 27 -13 -13 -16 -13 -30 0 -10 10 -13 26 -10 43 3 15 1 63
-4 107 -13 110 -4 189 23 193 11 2 27 10 35 18 13 11 101 14 120 4 3 -2 14 -3
25 -4 33 -2 31 -42 -4 -76 -16 -17 -36 -30 -45 -30 -17 0 -46 -37 -46 -60 0
-8 9 0 20 18 11 18 26 32 34 30 7 -2 23 8 34 22 18 21 24 23 40 13 17 -10 21
-9 26 4 4 10 15 14 32 10 15 -3 23 0 21 7 -2 6 -13 12 -25 14 -26 4 -29 26 -4
44 9 7 17 22 17 33 0 11 10 24 23 30 12 5 22 13 22 17 0 3 7 14 16 22 8 9 11
16 5 16 -6 0 -20 -9 -32 -21 -26 -26 -51 -11 -32 20 10 15 9 22 -2 31 -22 18
-18 40 7 40 20 0 20 1 5 18 -15 16 -15 21 -3 37 12 17 17 18 42 6 28 -13 28
-13 10 8 -13 14 -16 28 -12 46 6 25 29 34 41 15 10 -16 22 -12 28 10 6 22 47
28 47 8 0 -7 5 -5 11 5 12 21 35 17 33 -6z m-4007 -104 c-18 -43 -48 -118 -66
-168 -44 -125 -44 -125 -76 -92 -24 23 -48 32 -114 40 -24 3 -18 21 14 37 17
8 49 30 72 49 l42 33 0 72 c0 39 4 82 10 96 8 20 10 11 10 -47 1 -48 5 -73 13
-73 16 0 95 88 109 123 7 17 15 25 17 19 2 -6 -12 -46 -31 -89z m-1615 -127
c15 -29 18 -49 14 -78 -5 -33 -2 -42 19 -64 22 -21 25 -33 24 -87 -1 -81 -17
-124 -19 -52 l-2 50 -13 -45 -13 -45 -2 35 c-1 30 -3 32 -11 15 -7 -15 -8 -9
-5 24 3 32 2 41 -7 32 -6 -6 -12 -42 -14 -79 -3 -93 -4 -101 -13 -67 -4 17 -8
122 -8 235 -1 223 -1 224 50 126z m1917 47 c6 -10 11 -14 11 -10 0 4 12 -4 27
-18 33 -30 62 -32 94 -6 13 10 31 16 39 14 34 -10 59 -27 53 -36 -3 -5 0 -13
7 -17 8 -5 1 -14 -23 -29 -19 -11 -38 -21 -42 -21 -4 0 -33 -21 -63 -47 -54
-46 -80 -66 -156 -120 -37 -26 -39 -27 -52 -8 -19 26 -18 36 6 42 29 8 25 25
-10 45 -17 9 -30 25 -30 35 0 10 -9 31 -19 47 -24 36 -18 52 26 72 18 9 46 30
61 45 31 33 56 37 71 12z m238 -189 c10 -26 -26 -84 -52 -84 -13 0 -28 -6 -34
-14 -15 -17 -108 -59 -217 -97 -68 -24 -100 -29 -155 -27 -38 1 -69 4 -69 8 0
20 74 220 81 220 13 0 25 -55 28 -122 1 -46 21 -51 22 -5 l1 32 14 -32 c18
-43 41 -42 99 3 26 20 65 42 85 49 21 7 69 30 106 49 76 41 82 42 91 20z
m-258 -215 c-24 -34 -127 -114 -159 -124 -11 -4 -18 -10 -15 -14 2 -5 -7 -13
-21 -20 -17 -8 -23 -8 -19 0 4 6 -7 4 -23 -5 -17 -9 -36 -16 -42 -16 -7 0 -46
-14 -88 -31 -94 -38 -189 -66 -263 -78 -69 -11 -195 -64 -235 -97 l-29 -25 40
25 c64 39 132 63 252 90 62 14 152 41 200 60 48 20 104 39 123 42 33 6 34 5
15 -9 -11 -8 -48 -25 -82 -37 -35 -12 -60 -26 -58 -31 5 -8 -104 -53 -112 -46
-2 3 19 13 46 23 75 27 53 30 -26 3 -93 -31 -170 -65 -179 -81 -6 -10 -4 -10
9 0 9 8 21 12 28 10 6 -2 -35 -26 -92 -52 -57 -27 -117 -56 -134 -64 -16 -8
-27 -11 -23 -7 4 5 4 13 -1 19 -5 6 -11 32 -15 57 -9 58 2 69 122 113 23 9 46
15 50 14 4 -1 18 5 32 14 14 9 89 33 168 52 104 25 162 45 210 73 37 21 72 40
77 42 6 2 38 17 73 33 34 17 80 32 102 35 22 3 45 12 52 21 11 13 10 14 -7 5
-11 -6 -35 -13 -54 -17 -44 -8 -181 -69 -251 -112 -68 -42 -371 -123 -343 -92
9 10 29 18 44 18 34 0 49 19 20 27 -12 3 -21 11 -21 18 0 18 52 26 70 10 23
-21 71 -30 68 -14 -2 9 8 14 32 14 85 2 90 4 90 30 0 20 -5 25 -27 26 -24 1
-20 4 27 26 73 34 145 53 201 53 26 0 75 11 110 25 82 31 85 31 58 -6z m-1834
-36 c-2 -21 -6 -63 -11 -93 -17 -105 -11 -259 12 -320 12 -30 24 -73 28 -95 4
-22 9 -49 12 -60 4 -17 3 -18 -6 -5 -10 12 -11 12 -5 -5 14 -36 18 -125 7
-125 -6 0 -13 17 -15 38 -3 30 -4 27 -6 -18 -3 -69 -19 -41 -20 35 -1 28 -8
82 -15 120 -18 84 -24 130 -32 250 -6 80 -4 101 20 183 15 51 24 97 21 102 -5
9 1 30 9 30 1 0 2 -17 1 -37z m2296 -68 c52 -27 57 -45 12 -45 -21 0 -24 2
-13 15 10 13 9 15 -9 15 -12 0 -20 -4 -17 -9 3 -4 -3 -16 -14 -26 -25 -23 -25
-31 0 -38 30 -8 24 -24 -8 -19 -26 3 -41 -10 -90 -83 -4 -5 -20 -21 -36 -35
l-29 -25 7 30 c16 67 48 115 104 155 60 44 60 56 -1 15 -20 -14 -37 -22 -37
-17 0 9 69 92 76 92 3 0 27 -11 55 -25z m1273 -384 c16 -11 35 -30 42 -43 25
-44 13 -118 -19 -118 -4 0 -15 16 -23 36 -17 41 -10 104 9 85 6 -6 16 -11 22
-11 14 1 -34 40 -49 40 -7 0 -21 -6 -32 -14 -19 -14 -19 -15 2 -38 12 -13 27
-40 33 -60 7 -21 17 -40 22 -43 21 -14 6 -20 -41 -17 -58 4 -67 -1 -121 -74
-21 -29 -58 -63 -84 -77 l-46 -26 20 27 c10 15 29 36 41 47 12 11 36 40 53 65
44 64 55 71 105 65 51 -6 54 7 7 37 -36 24 -42 33 -25 43 6 3 10 11 10 17 0 6
-9 -1 -21 -16 -18 -23 -49 -36 -49 -21 0 30 76 115 103 115 7 0 25 -9 41 -19z
m526 -240 c0 -5 10 -11 23 -13 14 -2 23 -11 25 -24 2 -12 13 -24 24 -27 19 -5
20 -8 7 -23 -12 -15 -12 -16 9 -10 30 10 76 -36 66 -66 -8 -25 -40 -58 -49
-50 -12 12 -150 10 -165 -3 -26 -21 -48 -24 -60 -9 -14 16 -48 18 -84 4 -32
-12 -44 4 -22 29 10 11 14 25 10 35 -5 12 0 19 14 23 13 3 22 15 24 32 2 18
10 27 26 29 12 2 22 10 22 17 0 15 53 48 62 39 3 -2 11 2 18 11 14 16 50 21
50 6z m1524 -37 c25 -10 19 -32 -13 -49 -17 -8 -36 -23 -43 -33 -7 -9 -25 -23
-40 -29 -16 -7 -28 -17 -28 -23 0 -5 -12 -10 -27 -10 -16 0 -43 -9 -60 -20
-27 -16 -33 -17 -33 -5 0 8 -4 15 -10 15 -18 0 -10 39 9 45 13 4 18 12 14 21
-9 24 27 56 55 49 15 -4 21 -2 17 5 -3 5 -3 10 2 11 4 0 17 3 28 6 11 3 37 7
58 8 21 1 40 5 44 9 8 7 8 7 27 0z m-5415 -573 c12 -8 12 -12 2 -25 -11 -14
-11 -16 3 -16 14 0 16 -7 12 -42 -3 -24 -5 -44 -5 -44 -3 -5 -79 3 -89 10 -7
4 -23 1 -37 -8 -13 -9 -31 -16 -38 -16 -8 0 -22 -9 -32 -20 -24 -26 -35 -25
-35 4 0 28 24 51 41 40 7 -4 9 -3 5 4 -8 13 43 54 61 48 10 -4 12 1 7 18 -6
24 8 41 41 49 33 8 49 7 64 -2z m4832 -2233 c14 -22 10 -67 -10 -107 -25 -47
-14 -61 46 -61 51 0 54 -8 14 -38 -40 -29 -69 -121 -31 -97 6 4 8 15 5 24 -7
22 24 63 51 69 65 14 90 13 116 -7 26 -21 26 -22 11 -60 -12 -32 -19 -37 -39
-33 -37 7 -97 -59 -118 -130 -9 -31 -16 -63 -16 -72 0 -32 -114 -13 -164 28
l-26 21 23 62 22 62 -21 28 c-12 15 -30 29 -42 31 -51 8 -111 -53 -120 -123
-5 -40 -7 -41 -38 -20 -24 16 -26 21 -21 66 9 75 43 179 76 231 31 48 115 118
166 136 37 14 105 8 116 -10z m879 -253 c0 -33 -2 -35 -37 -37 l-38 -1 38 -4
c36 -4 37 -6 37 -42 0 -33 -4 -40 -28 -50 -16 -7 -52 -39 -81 -72 -51 -58 -74
-72 -53 -32 8 13 4 33 -14 77 -23 54 -24 60 -9 82 10 16 25 24 43 24 20 0 23
3 12 10 -12 7 -10 11 10 18 66 25 98 41 104 51 12 19 16 12 16 -24z m-5616
-91 c9 -8 16 -17 16 -19 0 -18 -19 -39 -49 -54 -72 -38 -98 -92 -60 -127 20
-18 27 -6 7 14 -9 9 -9 12 1 12 7 0 36 25 66 56 45 47 58 56 78 50 35 -8 55
-87 32 -122 -24 -36 -113 -91 -180 -110 -41 -12 -71 -28 -95 -53 -19 -19 -38
-34 -42 -33 -4 1 -5 -5 -2 -13 10 -26 -12 -16 -24 10 -32 70 8 236 78 325 31
39 99 79 137 80 12 0 29 -7 37 -16z m4916 1 c20 -24 1 -72 -53 -131 -48 -52
-50 -58 -40 -85 11 -28 10 -30 -22 -43 -18 -8 -36 -19 -39 -25 -10 -16 -26
-14 -26 3 0 34 -20 22 -36 -21 -22 -59 -64 -115 -64 -86 0 33 32 117 57 151
16 21 32 32 49 32 13 0 26 6 28 13 3 6 12 43 22 80 13 50 23 71 38 77 12 5 17
9 12 9 -5 1 -1 10 9 21 21 24 48 26 65 5z m519 -166 c-21 -40 13 -26 69 30 61
60 99 87 109 77 12 -12 -8 -36 -40 -50 -23 -9 -55 -41 -93 -92 -91 -119 -117
-145 -133 -135 -12 7 -9 16 16 48 45 58 57 95 49 156 -18 132 -17 135 8 58 18
-53 22 -80 15 -92z m180 -79 c1 -135 0 -140 -20 -140 -11 0 -33 -7 -49 -15
-20 -10 -30 -12 -30 -4 0 14 61 99 72 99 4 0 8 5 8 10 0 18 -78 -29 -106 -64
l-27 -34 -36 21 c-20 11 -38 22 -40 24 -3 2 4 13 15 26 11 12 32 41 47 65 26
40 30 42 80 44 l52 1 -43 6 -43 6 28 33 c25 29 65 58 85 61 3 1 7 -62 7 -139z
m-3735 -23 c125 -58 230 -201 302 -412 42 -125 112 -239 246 -399 l33 -40 -54
30 c-30 16 -102 74 -160 130 -129 122 -157 142 -224 160 -70 19 -347 66 -360
61 -6 -2 38 -11 98 -21 154 -24 268 -52 316 -76 22 -12 91 -69 152 -128 67
-64 136 -120 172 -139 33 -18 52 -33 42 -33 -45 0 -133 36 -257 106 -151 86
-181 98 -375 161 -77 25 -166 58 -197 74 -152 77 -265 269 -229 389 17 57 61
90 120 90 71 0 101 -27 101 -89 0 -59 32 -112 75 -125 68 -21 115 -39 115 -45
0 -3 -10 -11 -22 -16 -12 -6 -31 -25 -42 -44 -19 -32 -19 -33 0 -29 11 2 19
12 19 23 0 11 14 28 32 40 18 11 32 23 33 27 0 5 -15 15 -32 23 l-33 15 30 -7
c34 -8 62 -8 125 1 38 5 40 4 11 -3 -38 -10 -76 -41 -51 -41 19 0 124 -49 119
-55 -3 -2 -35 7 -72 20 -83 30 -108 31 -138 4 -26 -22 -21 -22 24 1 25 12 35
11 95 -8 93 -31 100 -36 79 -60 -9 -10 -17 -27 -16 -38 0 -18 1 -18 9 1 17 44
35 48 89 21 27 -14 66 -43 86 -63 40 -41 95 -116 95 -130 0 -5 7 -18 15 -29
14 -17 14 -14 0 21 -34 86 -99 160 -181 207 -49 27 -55 34 -36 36 13 2 39 -6
59 -18 19 -11 37 -19 39 -17 10 10 -80 49 -106 45 -19 -3 -31 1 -34 9 -3 8
-31 26 -63 40 -47 22 -54 28 -38 34 11 4 37 8 58 8 38 1 49 14 21 25 -24 9
-93 7 -114 -4 -12 -7 -34 -5 -70 6 -45 13 -50 17 -35 28 42 30 -9 90 -84 98
-30 4 -37 9 -50 46 -14 39 -14 43 5 69 32 43 62 54 134 51 44 -3 84 -12 124
-31z m3088 -7 c28 -22 58 -77 58 -108 0 -10 -13 -36 -29 -56 -16 -20 -33 -50
-36 -67 -9 -41 -40 -59 -100 -59 -30 0 -59 -6 -71 -15 -17 -13 -14 -14 39 -9
31 4 57 3 57 -2 0 -5 -22 -28 -49 -51 -39 -33 -58 -43 -86 -43 -39 0 -98 -21
-110 -40 -12 -19 0 -21 31 -5 31 16 84 20 84 7 0 -4 -16 -22 -35 -40 -19 -18
-42 -45 -51 -60 -9 -15 -34 -36 -57 -47 -23 -11 -42 -26 -43 -33 -2 -7 0 -8 3
-2 5 10 56 40 68 40 4 0 4 -9 1 -20 -18 -61 -17 -65 4 -32 11 19 26 32 32 30
16 -6 29 -57 23 -88 -5 -22 -4 -23 6 -7 15 25 4 79 -24 113 -12 15 -17 25 -11
21 6 -3 24 11 40 33 28 37 71 70 93 70 18 0 43 -60 36 -88 -6 -26 -6 -26 14
-8 30 28 26 65 -11 103 -18 18 -36 33 -42 33 -5 0 -6 -3 -3 -6 7 -7 -36 -44
-50 -44 -4 0 3 9 17 20 27 20 22 25 -35 34 -17 2 -11 4 16 3 43 -1 52 4 103
50 31 28 56 55 56 59 0 8 32 33 43 34 16 0 -36 -58 -84 -95 -27 -20 -49 -42
-49 -47 0 -5 21 9 46 31 26 23 51 41 56 41 15 0 47 -43 48 -63 0 -10 4 -16 9
-12 13 7 2 76 -15 96 -18 21 0 39 39 39 44 0 87 48 87 98 0 99 156 152 297
100 85 -31 163 -141 163 -229 0 -47 -47 -122 -92 -145 -25 -13 -27 -13 -33 15
-3 16 -18 42 -31 57 -14 14 -29 37 -34 50 -12 29 -49 54 -100 65 -49 11 -80
-2 -80 -34 0 -34 19 -47 67 -47 84 0 163 -64 163 -132 0 -50 -38 -105 -95
-138 -29 -16 -66 -33 -84 -36 l-31 -6 16 45 c29 87 -16 167 -96 167 -26 0 -43
-7 -60 -25 l-23 -24 33 -28 c37 -30 60 -78 60 -122 0 -21 -11 -38 -39 -64 -51
-46 -85 -63 -143 -71 l-47 -7 11 31 c23 69 -18 170 -59 144 -14 -9 -18 -27
-18 -85 -2 -137 -45 -177 -255 -238 -56 -16 -110 -37 -121 -47 -18 -16 -19
-16 -19 7 0 13 7 48 15 78 7 30 19 106 25 170 13 133 34 264 49 303 14 36 44
54 118 69 55 11 67 11 98 -4 30 -14 35 -15 35 -2 0 8 -9 24 -21 36 -20 20 -66
23 -119 8 -39 -11 -12 154 34 208 25 29 35 29 121 -1 11 -4 1 5 -22 19 l-43
27 16 30 c32 61 172 91 226 48z m-4908 -58 c8 -26 20 -75 25 -109 5 -34 15
-71 20 -82 29 -53 -13 -56 -59 -4 -43 48 -70 112 -77 176 -5 49 -3 53 23 69
36 21 48 12 68 -50z m-134 -39 c16 -73 28 -96 85 -166 45 -56 46 -57 30 -86
-32 -63 -16 -94 83 -160 41 -28 62 -48 62 -61 0 -29 15 -25 94 23 l71 42 -34
3 c-28 3 -40 -3 -72 -34 -22 -21 -39 -32 -39 -25 0 7 -11 26 -25 43 -29 34
-33 82 -9 116 9 13 14 26 11 29 -10 9 -37 -55 -37 -87 0 -28 -2 -31 -22 -24
-64 20 -99 75 -76 120 37 76 137 92 244 39 111 -56 153 -159 138 -335 -11
-129 -7 -253 9 -243 4 2 7 17 7 32 0 32 33 66 72 76 14 4 51 2 82 -5 92 -19
151 -71 163 -145 l6 -40 -24 18 c-79 57 -212 83 -281 54 l-36 -15 -51 49 c-28
27 -51 55 -52 62 0 8 -2 9 -5 0 -4 -8 -17 -6 -48 8 -35 15 -64 18 -151 17 -96
-2 -109 0 -122 18 -9 12 -11 28 -7 44 4 14 12 66 18 115 12 90 12 90 41 90 23
0 32 -8 52 -44 27 -52 27 -51 8 -51 -20 0 -65 -45 -65 -65 0 -24 13 -18 63 25
25 22 52 40 61 40 27 0 18 18 -11 22 -21 2 -32 13 -46 41 -20 44 -55 61 -92
47 -21 -8 -24 -14 -19 -34 17 -68 -37 -248 -90 -301 -14 -14 -26 -29 -26 -33
-1 -11 -42 -2 -68 15 -16 10 -42 14 -82 11 -53 -3 -57 -1 -49 15 5 9 21 17 34
17 30 0 31 6 4 45 -111 161 -140 376 -71 517 17 35 45 74 63 87 29 21 35 22
72 11 47 -14 134 -97 161 -153 10 -21 20 -36 23 -34 20 20 -135 197 -173 197
-19 0 -18 6 6 44 20 33 62 60 101 65 3 1 12 -25 19 -56z m364 -83 c22 -5 82
-16 131 -25 116 -21 149 -31 170 -55 18 -20 17 -20 -32 -20 -54 0 -113 -16
-113 -31 0 -5 24 -9 53 -9 36 0 69 -8 107 -27 l55 -27 -100 -7 c-55 -3 -112
-9 -126 -13 -23 -7 -33 -1 -72 38 -43 43 -117 76 -170 76 -16 0 -18 5 -12 33
12 53 34 89 52 83 9 -4 34 -10 57 -16z m985 -179 c64 -64 91 -176 68 -286
l-13 -60 -51 -3 c-44 -3 -53 0 -63 17 -9 18 -7 21 14 27 13 3 33 1 44 -5 26
-14 31 -14 28 2 -4 31 -19 39 -58 34 -27 -4 -41 -1 -44 8 -8 20 33 93 57 100
11 4 18 9 15 12 -9 10 -66 -19 -77 -39 -15 -27 -31 -12 -17 16 9 20 6 30 -16
59 -14 18 -26 42 -26 51 0 23 27 73 42 79 30 12 79 6 97 -12z m-717 -67 l37
-6 -60 -39 c-33 -22 -64 -39 -69 -39 -6 0 -10 -4 -10 -10 0 -13 6 -13 64 5 27
8 65 15 85 15 l36 0 -50 -29 c-55 -32 -112 -87 -102 -97 6 -7 -21 -33 -34 -34
-4 0 -9 42 -12 93 -3 50 -9 102 -12 114 -5 16 -2 22 12 26 28 7 74 7 115 1z
m532 -15 c24 -19 26 -26 21 -63 -7 -48 4 -68 36 -70 24 -1 47 -47 48 -97 1
-14 6 -30 13 -37 9 -9 7 -12 -10 -12 -19 0 -21 4 -17 38 l4 37 -25 -41 c-23
-39 -28 -42 -81 -48 -45 -5 -60 -3 -74 10 -35 32 -61 102 -66 182 -5 77 -5 79
22 100 36 29 93 29 129 1z m4516 -87 c0 -4 -30 -15 -68 -24 -48 -11 -77 -25
-101 -47 -32 -30 -32 -32 -10 -27 13 4 57 7 98 9 56 1 75 -1 79 -12 4 -12 -6
-13 -57 -8 -59 6 -61 6 -51 -12 16 -31 12 -36 -12 -14 -13 11 -38 23 -56 25
-30 4 -40 -1 -89 -48 -52 -51 -66 -58 -157 -79 -16 -3 -48 -26 -70 -50 -47
-51 -122 -82 -276 -113 -186 -39 -222 -60 -323 -190 -45 -59 -67 -75 -67 -51
0 33 143 196 195 222 17 9 60 21 95 27 36 7 110 23 165 36 82 20 105 30 128
54 15 17 27 37 27 45 0 8 4 15 9 15 4 0 6 -12 3 -27 -4 -27 -3 -27 40 15 33
32 60 47 103 58 66 18 122 52 154 94 24 34 86 75 140 95 40 15 101 19 101 7z
m-4006 -36 c3 -11 7 -41 11 -65 9 -67 91 -253 123 -279 10 -7 32 -20 51 -28
18 -8 31 -17 29 -19 -6 -6 -180 43 -191 54 -6 6 -18 11 -26 11 -8 0 -32 12
-53 26 -26 19 -45 25 -62 20 -23 -6 -24 -7 -10 -35 10 -20 24 -31 47 -35 34
-6 93 -57 81 -69 -4 -4 -23 7 -42 24 -32 29 -40 31 -93 27 -39 -3 -68 -12 -92
-28 -32 -22 -67 -67 -67 -85 0 -4 18 -24 40 -44 35 -32 41 -44 43 -81 2 -36
-1 -45 -17 -48 -11 -2 -16 0 -12 7 7 11 -25 81 -56 120 -14 18 -17 33 -12 60
10 52 32 80 80 103 62 29 69 41 48 78 -10 16 -21 30 -25 30 -3 0 -18 11 -34
24 -23 20 -43 25 -117 31 -111 9 -161 -4 -216 -55 -56 -50 -54 -72 8 -129 29
-27 50 -55 50 -67 0 -33 19 -44 68 -37 l45 6 -16 -24 c-9 -13 -17 -31 -17 -39
0 -15 56 -72 96 -97 18 -11 17 -12 -7 -12 -36 -1 -107 52 -115 86 -3 16 -7 33
-9 39 -2 6 -18 14 -37 16 -25 4 -40 0 -63 -19 -40 -34 -44 -12 -6 34 17 21 31
45 31 54 0 9 -24 32 -52 50 -62 40 -73 74 -39 120 18 24 19 29 6 29 -9 0 -33
10 -54 22 l-37 21 -70 -26 c-68 -26 -87 -30 -111 -28 -19 2 -16 21 3 21 8 0
46 13 84 29 68 29 69 29 127 14 52 -13 64 -13 128 1 38 9 99 19 133 21 35 2
66 6 70 9 10 11 79 6 118 -8 22 -7 56 -25 77 -39 21 -14 59 -33 85 -42 26 -9
64 -25 85 -35 35 -18 38 -18 31 -2 -4 9 -22 67 -40 127 -37 122 -44 198 -19
189 8 -4 17 -16 19 -28z m1418 -58 c32 -16 33 -56 4 -83 -14 -13 -26 -29 -26
-36 0 -6 16 -29 35 -50 40 -45 44 -75 14 -113 -30 -38 -9 -32 31 9 26 27 42
35 70 35 26 0 43 7 60 25 40 43 112 33 173 -23 25 -24 34 -26 120 -25 l92 1
-91 -7 c-49 -4 -96 -11 -102 -15 -7 -4 -15 -1 -18 8 -3 8 -24 23 -47 34 -73
34 -82 35 -113 9 -16 -13 -50 -31 -75 -40 -25 -10 -56 -28 -68 -41 -21 -22
-22 -28 -10 -59 17 -49 5 -85 -36 -103 -40 -16 -44 -22 -53 -75 -4 -23 -15
-47 -24 -53 -21 -13 -35 -1 -20 17 6 7 16 36 22 65 9 39 19 57 46 77 26 20 34
33 34 59 0 30 -15 56 -32 56 -4 0 -37 -29 -74 -65 -36 -36 -78 -72 -93 -80
-17 -8 -37 -36 -55 -74 -15 -34 -31 -61 -35 -61 -17 0 -19 14 -6 34 8 11 15
30 15 42 0 16 20 37 69 73 64 47 88 81 74 104 -3 5 -17 -2 -32 -16 -47 -43
-89 -67 -116 -67 -15 0 -52 -14 -82 -31 -51 -30 -60 -31 -133 -27 -52 3 -87
11 -106 22 -20 14 -36 17 -68 11 -22 -4 -59 -7 -81 -6 l-40 1 61 -29 c89 -41
167 -98 147 -105 -8 -4 -30 2 -48 11 -18 10 -74 39 -123 65 -50 26 -93 52 -97
58 -3 5 -11 10 -17 10 -7 0 0 -12 14 -27 14 -16 40 -56 58 -89 28 -54 32 -72
33 -147 1 -47 -1 -88 -5 -92 -4 -4 -22 4 -40 18 -51 38 -96 58 -184 83 -105
29 -121 38 -139 80 -18 43 -37 51 -77 31 -33 -16 -58 -13 -58 8 0 7 -14 15
-31 19 -29 5 -31 8 -25 38 9 51 -3 62 -54 48 -35 -9 -45 -9 -57 3 -13 12 -13
19 -2 38 7 13 12 35 10 49 -1 17 7 34 23 49 23 21 32 23 87 18 40 -3 72 -13
90 -26 16 -12 33 -21 39 -21 17 0 11 -18 -7 -23 -12 -3 -8 -5 9 -6 42 -2 42
-18 -1 -40 -22 -12 -42 -25 -46 -30 -3 -6 14 1 37 14 24 14 54 25 68 25 14 0
34 8 45 16 19 15 19 15 -7 9 -21 -6 -28 -4 -28 8 0 31 14 50 58 78 25 16 41
29 35 29 -22 0 -93 -61 -99 -85 -8 -32 -17 -32 -35 3 -7 15 -26 42 -41 60 -16
18 -28 38 -28 45 0 22 61 87 101 107 43 22 109 26 127 8 7 -7 12 -20 12 -30 0
-10 21 -38 46 -63 49 -46 50 -52 29 -135 -4 -16 0 -32 10 -45 9 -11 13 -14 9
-6 -5 11 -1 12 21 7 16 -4 56 -2 89 4 53 11 71 10 141 -8 44 -11 83 -17 87
-14 3 4 16 39 27 77 33 110 68 148 184 201 54 24 105 44 113 44 24 0 52 36 59
79 5 30 14 45 33 55 27 14 92 11 124 -6z m-2395 -39 c31 -27 40 -30 77 -24 22
4 49 11 59 17 24 12 21 -5 -5 -30 -27 -25 -93 -41 -165 -42 -70 0 -100 -13
-124 -55 -29 -49 -42 -44 -33 13 8 58 37 108 78 133 44 27 73 24 113 -12z
m4934 -69 c54 -29 -14 -83 -246 -195 -177 -86 -237 -107 -248 -88 -4 6 13 30
36 54 73 77 237 178 347 215 76 26 85 27 111 14z m-1825 -30 c43 -21 65 -47
96 -110 9 -19 17 -29 17 -22 2 28 -51 114 -82 132 l-32 20 30 0 c17 0 49 -9
73 -20 54 -24 70 -61 73 -164 2 -69 4 -76 20 -71 11 4 19 2 19 -4 0 -6 -16
-11 -35 -11 -19 0 -35 5 -35 10 0 6 5 10 12 10 21 0 -26 42 -67 60 -22 9 -83
27 -135 39 -103 25 -126 34 -152 64 -13 14 -15 24 -8 38 14 25 24 30 78 39 73
12 83 11 128 -10z m-2489 -42 c7 -6 13 -16 13 -23 0 -7 9 -23 20 -36 22 -28
27 -14 5 15 -22 29 -18 46 10 46 29 0 41 -31 32 -87 -8 -47 -15 -52 -35 -27
-22 28 -47 40 -100 49 -40 6 -102 46 -102 65 0 5 8 10 18 13 29 7 125 -3 139
-15z m-952 -31 c63 -32 80 -48 130 -124 22 -33 49 -64 59 -69 11 -5 29 -22 40
-37 30 -41 30 -164 -1 -227 -22 -44 -82 -124 -89 -118 -1 2 1 23 7 47 9 40 6
49 -35 134 -52 110 -86 156 -128 178 l-32 16 24 13 c13 7 43 10 72 8 58 -6 91
-33 114 -94 8 -21 13 -28 11 -14 -3 14 -8 33 -12 43 -6 14 -2 17 20 17 15 0
24 4 20 10 -4 6 -14 8 -24 5 -9 -3 -40 10 -71 30 -73 47 -100 45 -212 -12
-120 -61 -189 -70 -231 -27 -22 22 -27 35 -25 63 4 51 50 74 133 68 38 -3 51
-2 35 3 -14 4 -38 8 -54 9 -26 1 -28 4 -22 29 7 30 48 68 81 76 49 11 142 -2
190 -27z m3005 -39 c0 -5 11 -8 24 -8 13 0 29 -7 36 -15 11 -13 6 -15 -31 -17
l-44 -1 43 -4 c44 -4 49 -23 6 -23 -13 0 -24 -4 -24 -10 0 -5 7 -10 16 -10 12
0 14 -5 9 -17 -4 -10 -7 -26 -7 -35 1 -14 -7 -18 -37 -18 -22 0 -44 -6 -51
-15 -7 -8 -19 -15 -27 -15 -9 0 -1 14 21 36 36 36 43 60 9 33 -11 -9 -14 -10
-9 -1 5 8 -1 12 -19 12 -15 0 -24 4 -20 10 3 6 -5 10 -18 10 -18 0 -26 6 -29
25 -4 20 0 26 25 35 16 5 39 10 50 10 11 0 17 3 14 7 -4 3 0 14 9 24 13 15 20
16 35 6 10 -6 19 -15 19 -19z m1096 -12 c32 -32 33 -37 35 -112 1 -44 2 -110
3 -147 1 -56 -2 -70 -17 -78 -12 -7 -15 -17 -11 -35 7 -26 -15 -65 -76 -134
-21 -24 -30 -29 -30 -17 0 9 -22 42 -50 72 -27 30 -50 64 -50 75 0 21 -37 51
-122 99 -70 39 -98 73 -98 118 0 62 43 119 112 148 54 22 91 19 118 -10 22
-23 23 -29 12 -58 -16 -46 -15 -60 8 -86 18 -21 18 -25 4 -50 -15 -25 -15 -25
1 -6 16 20 16 20 31 1 9 -13 11 -23 4 -30 -5 -5 -10 -17 -9 -26 0 -10 3 -9 9
5 l8 20 7 -20 c4 -11 11 -29 16 -40 6 -15 7 -13 2 9 -6 30 -3 30 38 2 8 -6 3
1 -12 16 -37 36 -54 68 -37 68 8 0 24 -7 36 -16 12 -8 22 -11 22 -6 0 4 -18
18 -39 30 -44 25 -57 51 -42 81 18 32 13 55 -19 88 -48 49 -30 70 64 72 42 1
52 -3 82 -33z m-751 -49 c-12 -29 -12 -38 0 -60 l14 -27 -52 1 c-49 2 -50 2
-17 9 30 6 26 8 -27 9 -56 1 -90 14 -62 23 8 3 6 9 -5 20 -9 9 -16 19 -16 22
0 3 30 7 68 8 l67 2 -65 3 c-106 6 -96 23 12 23 l97 0 -14 -33z m1448 4 c3
-12 -4 -28 -19 -42 -29 -27 -30 -45 -4 -59 14 -7 26 -8 39 0 28 14 28 15 41
-38 12 -54 5 -86 -28 -116 -37 -33 -250 -44 -414 -20 -50 7 -139 33 -151 44
-25 23 55 86 204 162 156 78 320 112 332 69z m-1624 -35 c11 -38 18 -46 44
-51 55 -12 127 -49 133 -69 9 -27 -15 -42 -90 -56 -50 -9 -69 -9 -87 0 l-22
13 29 12 c41 19 11 18 -32 0 -35 -14 -36 -14 -62 17 -40 47 -44 57 -38 93 10
51 42 85 80 85 29 0 33 -4 45 -44z m-2830 14 c65 -9 147 -52 136 -70 -4 -6 -1
-10 4 -10 6 0 11 15 11 34 0 40 15 49 65 35 76 -21 123 -89 138 -201 l5 -36
-46 29 c-53 32 -87 36 -232 25 -118 -9 -134 -2 -178 82 -44 82 -37 115 23 121
6 0 39 -4 74 -9z m-856 -42 c9 -5 17 -6 17 -3 0 3 14 -1 30 -10 36 -19 37 -22
5 -51 -14 -13 -25 -31 -25 -41 0 -14 3 -12 13 7 7 14 23 30 35 35 15 6 21 16
18 28 -7 27 18 20 42 -13 43 -58 84 -67 184 -44 22 5 29 1 43 -26 20 -38 16
-99 -6 -113 -12 -8 -30 -5 -65 10 -33 14 -91 25 -174 32 -82 8 -133 17 -149
28 -43 28 -81 76 -87 112 -12 60 48 85 119 49z m3582 -132 c41 -14 54 -29 36
-41 -6 -3 -11 -16 -11 -28 1 -18 3 -16 15 10 13 30 15 31 47 23 18 -6 34 -10
36 -10 1 0 -4 -13 -13 -30 -9 -16 -21 -30 -28 -30 -7 0 -28 -11 -47 -25 -36
-27 -56 -24 -40 5 13 24 -2 34 -36 26 -19 -5 -24 -3 -18 5 5 9 1 10 -15 6 -12
-3 -37 -1 -56 4 -75 21 -19 94 75 98 8 0 33 -6 55 -13z m172 -78 c15 -14 23
-33 23 -53 0 -17 7 -40 15 -51 18 -23 19 -14 3 21 -10 22 -9 28 3 36 24 15 68
10 78 -9 5 -10 28 -27 51 -37 52 -24 80 -68 80 -130 l0 -48 -22 20 c-27 24
-78 48 -128 61 -25 6 -36 15 -38 30 -3 18 -12 22 -73 28 -78 7 -91 19 -65 59
9 14 16 31 14 38 -3 20 12 57 25 57 6 0 21 -10 34 -22z"/>
<path d="M2062 5633 c-59 -88 -66 -104 -51 -113 7 -5 26 -6 44 -3 21 3 35 0
44 -10 11 -14 7 -17 -31 -27 -87 -22 -113 -33 -125 -48 -22 -27 -14 -31 26
-14 29 12 35 19 23 23 -16 6 99 39 136 39 10 0 35 -18 57 -40 28 -29 41 -36
47 -27 12 18 -1 84 -28 146 -14 30 -22 62 -19 72 4 12 -1 22 -15 29 -20 11
-21 10 -15 -9 12 -38 15 -111 5 -111 -6 0 -10 7 -10 16 0 8 -4 12 -10 9 -5 -3
-10 -15 -10 -26 0 -14 -5 -19 -17 -17 -10 2 -16 11 -15 19 2 8 5 21 7 29 2 8
7 24 11 34 10 25 -13 13 -40 -22 -10 -12 -21 -21 -23 -18 -5 4 11 35 55 104 9
13 10 22 4 22 -6 0 -29 -26 -50 -57z"/>
<path d="M2040 5449 c-22 -8 -20 -8 10 -5 19 2 44 0 54 -4 16 -5 11 -9 -25
-18 -50 -13 -149 -67 -149 -82 0 -15 20 -12 85 15 70 29 105 32 55 5 -19 -10
-53 -37 -75 -61 l-40 -42 47 28 c44 25 148 59 155 51 2 -2 -14 -11 -37 -20
-40 -16 -130 -90 -130 -107 0 -17 25 -8 64 21 51 38 88 46 121 24 14 -9 28
-14 31 -11 3 3 -6 13 -20 22 -32 22 -76 15 -128 -20 -48 -32 -49 -19 -2 19 39
31 122 66 141 59 6 -2 14 0 17 6 17 27 -98 18 -178 -15 -36 -14 -7 15 36 37
29 15 55 20 89 17 27 -1 49 0 49 5 0 4 -15 8 -32 8 -18 1 -48 3 -67 5 -19 1
-63 -8 -98 -22 -70 -26 -76 -16 -10 17 60 31 95 39 123 29 22 -9 24 -8 14 10
-20 37 -52 46 -100 29z"/>
<path d="M2955 5210 c8 -13 -32 -22 -64 -15 -16 3 -47 2 -68 -4 -39 -11 -128
-69 -170 -111 -12 -12 -27 -19 -32 -15 -6 3 -9 0 -6 -7 3 -8 -19 -37 -49 -67
-41 -38 -57 -62 -62 -89 -4 -20 -14 -46 -23 -56 -15 -18 -15 -18 5 -8 24 13
34 32 34 67 0 12 6 28 14 34 11 10 16 8 21 -8 7 -22 39 -35 71 -29 24 4 23
-17 -6 -97 -12 -33 -30 -91 -40 -130 -17 -64 -19 -68 -29 -45 -13 33 -4 -52
14 -130 7 -30 16 -78 20 -105 5 -41 11 -52 33 -63 14 -6 28 -9 31 -4 3 4 17 7
31 7 17 -1 32 9 48 32 12 18 27 33 32 33 14 0 13 -4 -15 -36 l-25 -29 22 -8
c19 -7 68 14 68 29 0 4 -12 -1 -26 -11 -30 -20 -44 -12 -22 12 9 10 21 29 28
42 10 19 10 22 -1 15 -20 -12 -59 -14 -59 -3 0 5 11 15 25 21 14 6 25 16 25
21 0 11 -19 -2 -69 -47 l-34 -31 7 28 c4 19 3 26 -4 22 -5 -3 -10 2 -10 11 0
10 -3 14 -7 10 -7 -7 -14 -38 -15 -73 0 -12 -6 -24 -14 -27 -18 -7 -18 3 1 47
8 19 12 37 10 39 -3 3 6 38 20 78 14 40 23 75 21 77 -4 4 -46 -60 -46 -71 0
-4 4 -5 9 -2 5 3 -2 -29 -15 -72 -32 -102 -35 -106 -28 -47 3 28 7 64 8 80 7
71 94 325 131 382 13 19 13 23 1 23 -7 0 -19 7 -26 15 -9 10 -17 12 -30 5 -13
-7 -20 -6 -22 2 -2 6 -26 14 -54 17 -73 9 -71 33 9 112 151 152 259 187 347
112 30 -25 32 -30 26 -70 -3 -25 -13 -54 -21 -66 -8 -12 -15 -35 -15 -51 0
-16 -9 -43 -20 -61 -25 -41 -39 -103 -51 -230 -5 -55 -13 -118 -19 -141 -6
-25 -6 -53 0 -73 5 -17 10 -59 12 -91 1 -33 7 -60 13 -60 6 0 17 -20 26 -44
l16 -45 -26 -4 c-17 -3 -14 -4 9 -3 29 1 38 -5 55 -31 11 -18 33 -37 49 -42
16 -6 40 -22 53 -35 l24 -24 -43 -25 c-24 -14 -56 -32 -73 -41 -16 -8 -26 -15
-21 -16 5 0 43 18 84 41 56 31 80 39 100 34 39 -10 50 -22 45 -49 -6 -28 -83
-67 -179 -90 -32 -8 -50 -15 -38 -15 28 -1 120 27 167 50 29 15 37 16 37 6 0
-27 -68 -69 -175 -109 -27 -10 -36 -16 -20 -13 41 8 141 55 210 99 50 33 55
39 43 54 -12 16 -11 16 6 2 17 -13 21 -11 48 19 26 30 71 51 106 51 25 0 61
-46 55 -70 -4 -16 -3 -21 5 -16 36 22 -15 96 -66 96 -17 0 -32 6 -36 15 -3 9
0 15 10 15 8 0 12 5 9 10 -4 6 8 11 27 11 32 2 33 2 4 6 -40 6 -75 -14 -68
-39 8 -31 -16 -39 -98 -32 -87 8 -131 24 -158 59 -11 14 -29 25 -40 25 -12 0
-28 10 -37 22 -14 21 -14 23 2 30 17 6 17 7 1 7 -10 1 -18 6 -18 11 0 6 -6 10
-14 10 -20 0 -46 28 -46 50 0 11 11 22 28 28 l27 10 -27 1 c-54 2 -97 80 -45
82 17 1 18 2 4 6 -10 3 -16 10 -14 16 2 7 -2 18 -10 25 -7 7 -13 24 -13 37 0
19 4 23 18 18 15 -5 15 -4 -2 9 -17 13 -17 16 -2 30 10 11 12 18 4 20 -17 6
-1 76 20 81 15 4 15 5 -2 6 -15 1 -16 4 -6 16 9 10 9 15 1 15 -14 0 -15 66 -1
75 6 3 10 19 10 34 0 35 19 91 31 91 5 0 9 3 8 8 -3 21 16 52 32 52 10 0 21 5
25 12 5 8 2 9 -11 4 -11 -4 -22 -2 -26 5 -12 21 1 36 27 31 14 -2 24 0 24 7 0
6 -8 11 -19 11 -26 0 -16 49 13 60 17 7 18 9 4 9 -17 1 -27 31 -10 31 5 0 17
7 28 15 18 14 17 14 -16 9 l-35 -6 31 20 c18 11 35 26 40 34 4 7 3 10 -1 5 -5
-4 -16 0 -26 9 -18 16 -93 29 -84 14z m-236 -334 c9 -11 2 -39 -33 -127 -53
-136 -84 -240 -88 -294 -3 -36 -5 -33 -17 33 -16 88 -11 128 35 273 27 86 40
112 57 119 30 12 33 12 46 -4z"/>
<path d="M1401 4167 c-7 -18 -15 -24 -29 -20 -28 7 -35 -31 -12 -60 20 -25 50
-103 79 -203 17 -57 67 -154 136 -261 17 -26 35 -54 40 -64 13 -21 61 -94 88
-133 19 -28 19 -30 2 -43 -11 -7 -26 -13 -35 -13 -9 0 -25 -6 -35 -14 -27 -19
-7 -42 44 -50 54 -8 67 -26 47 -65 -21 -40 -20 -81 4 -111 19 -25 19 -25 -5
-65 -12 -22 -26 -62 -30 -88 -4 -26 -11 -47 -16 -47 -5 0 -9 -7 -9 -15 0 -12
15 -15 71 -15 50 0 68 -3 63 -12 -5 -7 -3 -8 7 -2 15 9 67 6 84 -4 6 -4 -6
-10 -25 -14 -19 -4 7 -5 59 -3 52 3 118 5 148 5 40 0 53 4 53 15 0 8 7 15 15
15 8 0 15 -6 15 -14 0 -12 22 -14 143 -9 171 8 190 8 242 -2 32 -5 44 -3 54 9
12 14 10 16 -13 16 -15 0 -44 9 -66 20 -22 11 -51 20 -65 20 -22 0 -25 4 -25
33 0 17 -5 39 -10 47 -7 11 -10 1 -10 -35 0 -27 -4 -55 -8 -61 -11 -16 -41
-24 -47 -14 -4 6 -20 10 -36 10 -17 0 -28 4 -24 10 3 5 28 8 55 6 29 -2 47 0
44 6 -3 5 -13 8 -22 7 -10 -1 -25 1 -34 5 -9 4 -26 1 -40 -7 -34 -22 -64 -6
-90 47 l-21 44 26 32 c28 33 35 74 15 86 -8 5 -9 0 -5 -16 6 -22 -16 -80 -31
-80 -4 0 -18 -9 -32 -20 -22 -17 -23 -19 -4 -14 18 5 23 -1 33 -38 7 -24 14
-48 17 -54 8 -19 -120 -22 -142 -3 -11 9 -14 8 -14 -5 0 -23 -62 -21 -84 3
-10 10 -33 43 -51 73 -19 29 -35 49 -35 45 0 -14 64 -117 72 -117 5 0 8 -3 8
-7 0 -5 -55 -9 -123 -9 l-123 -2 -3 43 c-1 24 6 61 15 82 l16 38 12 -48 c7
-26 17 -51 21 -55 5 -4 5 2 0 13 -4 11 -10 40 -12 65 -6 47 -3 47 35 -4 27
-36 28 -27 2 21 -11 21 -23 52 -26 70 -3 18 -10 36 -14 38 -5 3 -5 -9 0 -27
l9 -33 -24 30 c-14 17 -25 38 -25 47 0 27 11 48 26 48 8 0 11 6 7 16 -5 14 -3
15 18 5 l24 -12 -23 20 c-13 11 -21 25 -18 30 3 5 -18 12 -46 16 -75 10 -91
21 -53 35 22 9 35 9 48 0 48 -30 198 -28 280 2 37 14 37 15 17 33 -11 10 -20
13 -20 7 0 -16 -49 -15 -99 3 -23 8 -39 10 -36 5 3 -6 13 -10 21 -10 32 0 6
-35 -31 -41 -22 -4 -95 35 -95 50 0 5 6 12 13 14 6 3 0 6 -14 6 -27 1 -51 31
-24 31 7 0 16 4 19 9 3 4 -5 6 -18 4 -16 -3 -27 3 -40 21 -9 15 -14 32 -10 38
4 7 3 8 -4 4 -7 -4 -14 3 -18 19 -3 14 -10 25 -15 25 -5 0 -9 7 -9 15 0 8 -4
15 -10 15 -5 0 -10 4 -10 9 0 6 -11 22 -25 37 -14 15 -24 32 -22 38 2 6 -7 22
-20 36 -13 14 -37 54 -54 89 l-30 64 20 21 c14 13 21 16 21 7 0 -11 3 -11 15
-1 20 17 38 1 55 -50 7 -22 17 -37 23 -33 6 4 8 0 4 -10 -4 -11 -2 -14 8 -11
8 3 25 -5 39 -19 14 -14 26 -21 28 -16 6 19 67 -31 77 -63 5 -18 10 -25 10
-14 1 16 3 17 18 5 9 -8 22 -27 29 -44 10 -23 13 -25 14 -10 1 19 1 19 15 2 7
-11 11 -26 8 -35 -3 -12 1 -10 14 5 16 19 23 21 56 13 22 -4 50 -18 63 -30 13
-13 40 -24 61 -27 85 -8 141 -43 194 -120 34 -49 37 -64 9 -38 -21 19 -28 7
-8 -13 8 -8 40 -11 88 -10 68 2 70 2 18 5 l-57 4 -45 68 c-49 75 -79 95 -174
114 -32 7 -70 22 -86 34 -15 12 -55 28 -87 34 -51 10 -67 19 -112 64 -29 29
-79 66 -112 83 -54 27 -65 37 -103 104 -23 41 -42 78 -42 84 0 5 -14 29 -30
54 -31 47 -41 110 -17 110 9 0 8 3 -2 9 -7 5 -10 14 -7 20 4 6 3 11 -3 11 -5
0 -16 3 -25 6 -11 4 -19 -2 -25 -19z"/>
<path d="M439 3739 c-17 -17 -20 -29 -15 -58 3 -20 12 -41 20 -46 11 -8 11
-20 3 -62 -9 -41 -8 -58 3 -78 7 -14 11 -26 9 -27 -36 -22 -56 -28 -96 -29
-39 -1 -43 -2 -23 -9 14 -4 19 -8 11 -9 -8 -1 -12 -3 -9 -6 9 -10 193 -14 223
-6 26 7 21 9 -40 16 -50 6 -64 10 -50 16 29 11 83 11 90 -1 3 -5 50 -11 103
-12 l97 -2 -70 -6 c-62 -6 -56 -6 45 -7 86 0 104 2 70 8 -33 5 -22 6 40 4 90
-5 163 3 155 15 -3 4 27 11 65 14 45 5 77 14 93 27 29 22 70 25 86 5 10 -11 8
-15 -6 -19 -16 -4 -16 -5 -1 -6 24 -1 34 20 14 31 -9 5 -16 15 -16 23 0 7 -6
16 -12 18 -7 3 23 6 67 7 44 1 94 5 110 9 29 7 29 7 7 15 -14 4 -28 3 -36 -3
-8 -6 -20 -9 -27 -7 -8 2 -27 7 -44 10 -22 5 -26 4 -15 -4 11 -7 3 -10 -32
-10 -49 0 -57 -6 -35 -29 10 -11 6 -12 -20 -6 -26 5 -33 3 -33 -9 0 -22 -28
-32 -151 -50 -124 -19 -388 -21 -370 -3 6 6 11 18 11 27 0 12 -2 13 -9 1 -7
-11 -10 -9 -14 10 -3 16 -5 12 -6 -15 -1 -35 -3 -38 -23 -32 -13 3 -29 6 -35
6 -7 0 -13 8 -14 18 0 10 -3 12 -6 5 -2 -7 -22 -13 -44 -13 -30 0 -37 3 -33
15 4 8 12 15 20 15 10 0 14 12 13 38 l-1 37 -14 -35 -14 -35 6 38 c6 47 -10
42 -21 -5 -4 -18 -9 -27 -12 -21 -5 13 9 92 22 126 6 13 2 17 -15 17 -18 0
-21 4 -16 30 2 17 0 28 -5 24 -17 -10 -9 13 11 31 10 9 26 15 35 11 9 -3 13
-2 10 4 -10 16 -34 11 -56 -11z"/>
<path d="M4121 3539 c-1 -15 10 -66 24 -113 14 -47 25 -96 25 -108 0 -38 -23
-89 -38 -83 -10 3 -12 -3 -10 -27 3 -30 1 -32 -67 -57 -65 -24 -81 -26 -234
-25 l-164 1 29 -24 c16 -13 37 -31 47 -40 10 -10 17 -12 17 -5 0 7 12 10 33 7
22 -3 18 -1 -13 8 -41 12 -90 34 -90 40 0 1 51 1 112 -2 112 -3 217 9 291 35
45 16 50 0 7 -24 -24 -14 -30 -24 -30 -50 l0 -34 -52 3 c-41 3 -68 -3 -121
-25 -37 -16 -65 -31 -63 -33 2 -2 21 3 41 11 21 9 49 16 64 16 20 0 23 2 11
10 -11 7 4 10 50 10 40 0 60 -4 51 -9 -9 -6 -10 -11 -3 -15 15 -9 32 26 32 63
0 21 7 34 22 42 19 10 20 9 14 -7 -11 -28 -26 -132 -26 -185 0 -37 -4 -48 -22
-58 -23 -11 -23 -11 -1 -6 17 5 33 -5 71 -44 26 -28 57 -51 68 -51 11 0 31 14
43 31 23 31 25 32 85 26 71 -6 82 -3 97 26 11 20 11 20 -16 -1 -21 -17 -31
-19 -46 -11 -11 5 -28 7 -39 4 -12 -4 -23 2 -34 17 -11 15 -16 18 -16 8 -1 -8
-16 -33 -34 -54 l-34 -39 -33 21 c-19 11 -42 34 -51 50 -38 64 3 326 73 466
16 33 27 61 25 63 -2 3 -10 -6 -17 -19 -12 -22 -13 -21 -25 27 -33 126 -53
188 -53 164z"/>
<path d="M3706 2535 c9 -21 46 -29 115 -22 32 3 61 1 64 -4 3 -4 -36 -10 -87
-11 -51 -2 27 -4 174 -4 147 0 265 3 262 8 -3 4 -20 8 -37 9 -30 1 -29 2 11
11 23 5 42 14 42 20 0 6 -16 8 -42 5 -80 -11 -284 -17 -258 -8 17 6 -21 9
-112 10 -119 1 -137 -1 -132 -14z"/>
<path d="M5802 5820 c-38 -9 -61 -34 -62 -70 -1 -29 -19 -57 -40 -61 -8 -2
-26 4 -41 14 -14 9 -39 20 -56 23 -27 5 -33 2 -46 -22 -8 -16 -24 -38 -36 -48
-12 -11 -21 -27 -21 -38 0 -10 -5 -18 -11 -18 -6 0 -9 -16 -8 -38 4 -48 -4
-60 -36 -54 -49 9 -136 -82 -105 -111 10 -10 12 -8 7 6 -10 26 7 51 49 76 37
22 67 22 63 -1 -1 -7 1 -20 4 -28 3 -8 7 -28 9 -45 3 -29 5 -30 53 -32 48 -2
85 15 85 40 0 6 -9 1 -20 -11 -22 -23 -50 -30 -50 -12 0 7 -7 7 -20 0 -30 -16
-43 -3 -37 36 3 18 1 34 -4 36 -13 4 7 58 21 58 7 0 7 6 0 21 -14 25 -6 49 15
49 17 0 20 17 4 22 -20 7 9 48 32 48 14 0 19 5 16 14 -3 8 1 22 8 33 10 14 16
15 26 6 6 -6 17 -9 24 -7 16 6 54 -45 48 -66 -2 -8 2 -5 8 8 7 12 20 22 31 22
10 0 18 6 18 14 0 7 7 19 15 26 9 8 13 21 9 32 -7 25 22 70 44 66 9 -1 23 1
30 6 7 4 19 3 27 -4 12 -10 18 -10 31 1 14 11 18 10 30 -6 8 -10 14 -14 14 -8
0 28 -57 38 -128 23z"/>
<path d="M3438 863 c-9 -10 -28 -42 -42 -71 -28 -55 -47 -68 -159 -108 -109
-39 -176 -108 -177 -181 0 -33 11 -28 42 17 30 43 82 80 140 99 38 12 83 10
190 -11 79 -15 118 1 118 46 0 23 -9 41 -30 61 -34 33 -36 44 -14 87 22 43 12
78 -25 78 -15 0 -35 -8 -43 -17z"/>
<path d="M3237 580 c-74 -23 -100 -41 -127 -85 -42 -69 -2 -85 87 -35 32 18
67 30 89 30 30 0 44 7 73 39 20 21 46 42 59 45 41 13 12 26 -56 25 -37 0 -93
-8 -125 -19z"/>
</g>
</svg>
