<?xml version="1.0" standalone="no"?>
<!DOCTYPE svg PUBLIC "-//W3C//DTD SVG 20010904//EN"
 "http://www.w3.org/TR/2001/REC-SVG-20010904/DTD/svg10.dtd">
<svg version="1.0" xmlns="http://www.w3.org/2000/svg"
 width="1700.000000pt" height="2338.000000pt" viewBox="0 0 1700.000000 2338.000000"
 preserveAspectRatio="xMidYMid meet">

<g transform="translate(0.000000,2338.000000) scale(0.100000,-0.100000)"
fill="#000000" stroke="none">
<path d="M1585 22500 c-3 -5 -1 -10 4 -10 6 0 11 5 11 10 0 6 -2 10 -4 10 -3
0 -8 -4 -11 -10z"/>
<path d="M1840 22395 l0 -105 60 0 c36 0 60 4 60 11 0 5 -4 8 -9 4 -6 -3 -28
-3 -50 1 l-41 7 0 93 c0 56 -4 94 -10 94 -6 0 -10 -42 -10 -105z"/>
<path d="M2070 22429 c0 -62 2 -70 15 -59 9 7 25 10 40 6 22 -6 26 -11 23 -39
-3 -28 -7 -32 -32 -32 -21 0 -30 5 -32 18 -4 27 -14 34 -14 10 0 -13 -8 -23
-22 -27 -46 -12 -52 -7 -25 22 38 40 36 64 -5 60 -25 -2 -35 -9 -42 -31 -16
-45 1 -61 70 -67 82 -7 103 -2 110 26 3 13 10 21 15 18 17 -10 9 7 -15 33 -13
14 -35 26 -47 27 -22 1 -24 4 -21 54 3 33 0 52 -7 52 -7 0 -11 -26 -11 -71z
m-40 -62 c0 -17 -36 -51 -43 -40 -2 4 -1 18 4 31 9 24 39 31 39 9z"/>
<path d="M1580 22460 c0 -5 5 -10 11 -10 5 0 7 5 4 10 -3 6 -8 10 -11 10 -2 0
-4 -4 -4 -10z"/>
<path d="M1580 22420 c0 -5 5 -10 11 -10 5 0 7 5 4 10 -3 6 -8 10 -11 10 -2 0
-4 -4 -4 -10z"/>
<path d="M5184 22416 c-8 -22 3 -33 18 -18 9 9 9 15 0 24 -9 9 -13 7 -18 -6z"/>
<path d="M4990 22336 c0 -58 -4 -86 -12 -89 -7 -3 4 -6 26 -6 30 -1 36 2 28
12 -6 7 -10 28 -10 46 1 31 3 33 30 27 19 -4 28 -1 28 7 0 9 -11 12 -35 9 -35
-4 -35 -4 -25 23 15 39 12 55 -10 55 -18 0 -20 -7 -20 -84z"/>
<path d="M5096 22413 c5 -5 12 -12 16 -18 4 -6 8 -2 8 8 0 9 -7 17 -17 17 -9
0 -12 -3 -7 -7z"/>
<path d="M5620 22404 c0 -9 7 -14 17 -12 25 5 28 28 4 28 -12 0 -21 -6 -21
-16z"/>
<path d="M5820 22405 c0 -8 7 -15 15 -15 8 0 15 7 15 15 0 8 -7 15 -15 15 -8
0 -15 -7 -15 -15z"/>
<path d="M7160 22401 c0 -12 6 -21 16 -21 9 0 14 7 12 17 -5 25 -28 28 -28 4z"/>
<path d="M7615 22320 c0 -76 3 -90 16 -90 13 0 16 14 15 90 -1 73 -4 90 -16
90 -12 0 -15 -17 -15 -90z"/>
<path d="M8028 22320 c-3 -78 -1 -90 13 -90 15 0 17 13 16 90 0 66 -4 90 -13
90 -9 0 -13 -26 -16 -90z"/>
<path d="M8418 22320 c2 -63 7 -90 16 -90 8 0 13 17 15 47 1 25 2 49 3 52 0 3
0 23 -1 44 -1 28 -5 37 -18 37 -16 0 -18 -10 -15 -90z"/>
<path d="M8924 22399 c-10 -17 13 -36 27 -22 12 12 4 33 -11 33 -5 0 -12 -5
-16 -11z"/>
<path d="M9133 22398 c-24 -38 -30 -56 -22 -71 5 -8 7 -35 5 -59 -4 -37 -1
-44 14 -45 12 -1 17 4 14 15 -14 68 -12 94 10 102 17 7 17 9 4 9 -21 1 -24 31
-6 49 9 9 9 12 1 12 -7 0 -15 -6 -20 -12z"/>
<path d="M9170 22391 c0 -12 5 -21 10 -21 6 0 10 6 10 14 0 8 -4 18 -10 21 -5
3 -10 -3 -10 -14z"/>
<path d="M9460 22390 c0 -13 5 -20 13 -17 6 2 12 10 12 17 0 7 -6 15 -12 18
-8 2 -13 -5 -13 -18z"/>
<path d="M1580 22384 c0 -8 5 -12 10 -9 6 4 8 11 5 16 -9 14 -15 11 -15 -7z"/>
<path d="M7080 22377 c-22 -32 -12 -140 13 -145 9 -2 17 1 17 7 0 6 -5 11 -11
11 -9 0 -10 22 -6 75 4 41 6 75 4 75 -1 0 -9 -11 -17 -23z"/>
<path d="M10340 22310 c0 -69 3 -88 13 -84 7 2 13 22 14 47 0 23 2 47 3 52 7
31 -1 75 -15 75 -12 0 -15 -17 -15 -90z"/>
<path d="M10755 22310 c0 -73 3 -90 15 -90 12 0 15 17 15 90 0 73 -3 90 -15
90 -12 0 -15 -17 -15 -90z"/>
<path d="M2186 22375 c-5 -13 -2 -14 15 -4 30 15 54 -9 45 -45 -7 -28 -33 -35
-54 -14 -9 9 -12 9 -12 0 0 -6 9 -16 20 -22 45 -24 77 29 50 81 -13 23 -55 25
-64 4z"/>
<path d="M2270 22377 c0 -22 11 -27 27 -11 22 21 43 0 43 -42 0 -18 5 -36 10
-39 13 -8 2 74 -13 93 -13 16 -67 16 -67 -1z"/>
<path d="M13719 22373 c-13 -15 -12 -15 5 -6 46 26 78 -21 34 -51 l-21 -15 26
-10 c30 -11 37 -46 15 -71 -7 -8 -3 -6 10 4 25 21 29 59 8 78 -10 9 -11 19 -3
35 20 44 -43 74 -74 36z"/>
<path d="M13877 22383 c-15 -14 -6 -19 28 -15 19 2 35 8 35 13 0 10 -53 12
-63 2z"/>
<path d="M1580 22351 c0 -5 5 -13 10 -16 6 -3 10 -2 10 4 0 5 -4 13 -10 16 -5
3 -10 2 -10 -4z"/>
<path d="M5180 22273 c0 -69 3 -84 12 -75 18 18 18 162 1 162 -10 0 -13 -24
-13 -87z"/>
<path d="M5262 22348 c-7 -7 -12 -28 -12 -48 0 -43 15 -60 50 -59 l25 0 -23
11 c-26 13 -37 46 -28 83 7 28 5 30 -12 13z"/>
<path d="M5320 22336 c0 -14 5 -26 10 -26 6 0 10 9 10 19 0 11 -4 23 -10 26
-6 4 -10 -5 -10 -19z"/>
<path d="M5385 22300 c0 -47 3 -60 15 -60 21 0 21 114 -1 118 -11 2 -14 -11
-14 -58z"/>
<path d="M5430 22351 c0 -5 9 -11 20 -14 13 -3 20 0 20 9 0 8 -9 14 -20 14
-11 0 -20 -4 -20 -9z"/>
<path d="M5506 22338 c-32 -45 -6 -99 47 -97 30 1 30 1 7 8 -30 8 -53 66 -39
94 14 24 3 21 -15 -5z"/>
<path d="M5570 22340 c0 -19 3 -21 12 -12 9 9 9 15 0 24 -9 9 -12 7 -12 -12z"/>
<path d="M5621 22300 c2 -47 6 -60 18 -60 13 0 15 10 13 60 -3 44 -8 60 -18
60 -12 0 -15 -13 -13 -60z"/>
<path d="M5702 22348 c-7 -7 -12 -29 -12 -50 0 -41 24 -63 63 -55 22 4 22 4
-1 6 -30 1 -48 45 -34 84 11 29 4 35 -16 15z"/>
<path d="M5760 22345 c0 -8 5 -15 10 -15 6 0 10 7 10 15 0 8 -4 15 -10 15 -5
0 -10 -7 -10 -15z"/>
<path d="M5815 22300 c0 -50 3 -60 18 -60 20 0 23 16 5 23 -10 4 -10 6 0 6 8
1 12 17 12 46 0 36 -3 45 -17 45 -15 0 -18 -10 -18 -60z"/>
<path d="M5906 22347 c-20 -15 -19 -88 1 -94 8 -3 10 6 6 30 -3 19 0 44 6 56
14 24 11 26 -13 8z"/>
<path d="M5965 22301 c0 -56 1 -59 18 -44 19 18 22 55 7 84 -18 33 -25 21 -25
-40z"/>
<path d="M6037 22353 c-15 -14 -6 -52 12 -58 33 -10 46 -32 30 -52 -13 -15
-12 -15 9 -4 32 17 27 47 -11 73 -19 13 -32 29 -30 36 5 13 0 16 -10 5z"/>
<path d="M6215 22270 c0 -80 2 -90 18 -90 14 0 16 4 8 18 -5 9 -7 31 -6 47 10
89 9 110 -5 113 -12 2 -15 -14 -15 -88z"/>
<path d="M6283 22349 c24 -14 24 -84 0 -98 -25 -13 -9 -25 15 -12 45 24 34
121 -12 121 -19 -1 -19 -2 -3 -11z"/>
<path d="M6429 22333 c-7 -47 4 -98 21 -98 8 0 13 7 12 15 -2 8 -4 32 -4 52 1
46 -24 72 -29 31z"/>
<path d="M6508 22295 c-2 -54 0 -65 12 -63 22 4 28 128 6 128 -11 0 -15 -16
-18 -65z"/>
<path d="M6560 22351 c0 -10 30 -24 37 -17 3 3 2 9 -2 15 -8 13 -35 15 -35 2z"/>
<path d="M6631 22347 c-6 -8 -8 -17 -4 -20 12 -12 19 -7 19 13 0 24 0 24 -15
7z"/>
<path d="M6688 22304 c2 -53 1 -55 -20 -52 -16 2 -22 9 -20 22 2 11 -1 17 -10
14 -7 -3 -13 -16 -13 -29 0 -22 4 -24 50 -24 l49 1 -3 49 c-3 46 -14 75 -30
75 -4 0 -5 -25 -3 -56z"/>
<path d="M6898 22343 c17 -31 16 -33 -17 -33 -25 0 -29 4 -26 21 4 17 2 19
-10 9 -20 -16 -19 -75 1 -94 17 -18 54 -22 54 -6 0 6 -8 10 -18 10 -25 0 -31
7 -25 31 4 14 14 19 38 19 28 0 32 3 28 20 -3 10 -12 25 -21 32 -13 11 -14 10
-4 -9z"/>
<path d="M6960 22345 c-11 -13 -11 -20 0 -39 7 -14 20 -27 29 -30 9 -3 22 -9
29 -12 25 -12 11 22 -18 41 -20 13 -29 26 -26 38 5 21 2 21 -14 2z"/>
<path d="M7158 22296 c-3 -64 -2 -66 21 -66 19 0 21 3 11 14 -6 9 -10 36 -9
62 2 29 -1 49 -8 51 -7 3 -12 -19 -15 -61z"/>
<path d="M7240 22296 c0 -46 4 -66 13 -66 8 0 12 19 12 62 0 40 -4 63 -12 65
-10 4 -13 -13 -13 -61z"/>
<path d="M7295 22351 c-3 -6 1 -11 11 -11 14 0 16 -8 12 -55 -4 -45 -2 -55 11
-55 24 0 13 123 -11 128 -9 2 -19 -2 -23 -7z"/>
<path d="M7380 22350 c0 -5 4 -10 9 -10 6 0 8 -25 6 -55 -2 -46 0 -55 14 -55
13 0 15 9 12 57 -3 53 -12 72 -33 73 -5 0 -8 -4 -8 -10z"/>
<path d="M7467 22308 c6 -72 9 -78 35 -78 19 0 20 1 5 13 -10 7 -17 30 -19 61
-2 27 -8 51 -14 53 -8 3 -10 -13 -7 -49z"/>
<path d="M6365 22340 c-8 -13 -1 -24 14 -19 6 3 7 10 2 18 -6 10 -10 10 -16 1z"/>
<path d="M7545 22338 c-2 -7 -5 -32 -7 -55 -3 -38 5 -53 28 -53 2 0 4 27 4 60
0 35 -4 60 -10 60 -6 0 -12 -6 -15 -12z"/>
<path d="M7761 22301 c3 -30 0 -51 -6 -51 -13 0 17 -20 30 -20 16 0 3 113 -14
118 -10 3 -12 -7 -10 -47z"/>
<path d="M7838 22291 c-3 -56 -1 -61 17 -61 18 0 20 6 19 57 -1 43 -6 59 -17
61 -12 2 -16 -10 -19 -57z"/>
<path d="M7900 22335 c7 -8 16 -12 21 -9 13 8 1 24 -18 24 -13 0 -13 -3 -3
-15z"/>
<path d="M8105 22318 c-11 -28 -11 -37 1 -60 20 -38 25 -35 18 11 -4 22 -1 47
5 60 8 15 8 21 1 21 -6 0 -17 -15 -25 -32z"/>
<path d="M8175 22290 c0 -60 0 -61 18 -39 9 11 17 29 17 39 0 10 -8 28 -17 39
-18 22 -18 21 -18 -39z"/>
<path d="M8247 22343 c-17 -16 -6 -53 21 -65 15 -8 26 -21 26 -31 -2 -21 12
-22 20 -1 8 21 -7 47 -38 64 -20 10 -23 16 -15 27 11 13 -2 19 -14 6z"/>
<path d="M8296 22343 c5 -5 12 -12 16 -18 4 -6 8 -2 8 8 0 9 -7 17 -17 17 -9
0 -12 -3 -7 -7z"/>
<path d="M8484 22338 c14 -11 18 -24 15 -61 -3 -39 -1 -47 12 -47 11 0 16 6
13 18 -2 9 -5 35 -7 57 -2 34 -6 40 -27 43 -24 3 -24 3 -6 -10z"/>
<path d="M8575 22327 c-8 -13 -13 -34 -10 -47 6 -35 65 -80 65 -51 0 5 -10 11
-21 14 -17 5 -20 11 -17 31 3 14 1 26 -5 26 -5 0 -2 11 7 25 9 14 12 25 6 25
-5 0 -16 -10 -25 -23z"/>
<path d="M8635 22320 c0 -16 4 -29 9 -27 16 5 17 22 4 40 -12 15 -13 14 -13
-13z"/>
<path d="M8698 22285 c-3 -66 -2 -71 18 -57 15 10 14 122 -2 122 -8 0 -13 -22
-16 -65z"/>
<path d="M8763 22339 c15 -9 18 -21 16 -62 -2 -29 0 -51 4 -49 4 1 10 2 15 2
9 0 8 93 -2 108 -4 7 -17 12 -29 12 -20 -1 -21 -1 -4 -11z"/>
<path d="M8838 22342 c8 -5 13 -31 13 -65 1 -43 4 -54 15 -50 9 3 13 20 13 47
-1 61 -8 76 -32 76 -15 0 -18 -3 -9 -8z"/>
<path d="M8925 22286 c0 -56 2 -64 18 -63 10 1 15 7 12 15 -3 7 -5 36 -5 63 0
33 -4 49 -12 49 -9 0 -13 -20 -13 -64z"/>
<path d="M9000 22329 c-9 -16 -8 -25 6 -40 9 -10 25 -21 35 -24 24 -8 25 -32
2 -38 -17 -4 -17 -5 -1 -6 10 0 23 9 29 21 10 19 8 24 -12 40 -46 35 -50 40
-45 54 8 21 -2 17 -14 -7z"/>
<path d="M9217 22332 c-20 -22 -22 -71 -4 -97 11 -14 20 -16 43 -10 l29 8 -29
6 c-20 4 -30 13 -32 29 -3 19 0 22 31 22 28 0 35 4 35 19 0 11 -4 23 -10 26
-5 3 -10 -3 -10 -14 0 -15 -6 -21 -23 -21 -33 0 -40 10 -20 32 9 10 14 18 11
18 -3 0 -12 -8 -21 -18z"/>
<path d="M9335 22285 c0 -56 3 -65 18 -65 14 0 16 4 9 16 -5 9 -6 35 -1 57 8
45 5 57 -14 57 -8 0 -12 -21 -12 -65z"/>
<path d="M9392 22338 c5 -15 28 -18 29 -3 0 6 -7 12 -17 13 -10 3 -15 -1 -12
-10z"/>
<path d="M9455 22285 c0 -57 2 -65 18 -65 13 0 17 5 13 16 -3 9 -6 38 -6 65 0
33 -4 49 -12 49 -9 0 -13 -20 -13 -65z"/>
<path d="M9554 22342 c-38 -25 -40 -92 -4 -112 18 -9 18 -8 6 15 -19 36 -7 89
21 93 18 3 23 -3 29 -33 4 -21 2 -47 -4 -60 -9 -19 -8 -23 3 -19 16 7 27 32
19 45 -3 5 -1 9 5 9 13 0 -5 51 -22 62 -15 10 -39 10 -53 0z"/>
<path d="M9670 22331 c-14 -26 -6 -43 31 -64 27 -15 29 -19 18 -34 -12 -14
-12 -16 1 -11 8 2 16 16 18 31 3 20 -3 29 -27 42 -34 17 -41 41 -13 48 16 4
16 5 0 6 -10 0 -22 -8 -28 -18z"/>
<path d="M9893 22343 c9 -2 17 -11 17 -19 0 -8 5 -14 10 -14 6 0 10 4 10 8 0
14 -23 32 -39 31 -12 -1 -12 -2 2 -6z"/>
<path d="M9978 22333 c-38 -42 -19 -113 30 -113 26 1 26 1 8 15 -11 8 -23 15
-26 15 -5 0 -6 55 -1 83 0 4 11 7 22 7 17 0 20 -5 17 -25 -4 -17 -1 -25 8 -25
17 0 18 14 4 41 -13 24 -42 25 -62 2z"/>
<path d="M10095 22285 c0 -52 3 -65 15 -65 12 0 15 12 15 53 -1 51 -9 77 -23
77 -4 0 -7 -29 -7 -65z"/>
<path d="M10156 22343 c-11 -11 -6 -23 9 -23 8 0 15 4 15 9 0 13 -16 22 -24
14z"/>
<path d="M10228 22333 c-42 -48 -24 -114 30 -112 26 0 26 1 5 9 -13 5 -23 15
-24 22 0 7 -3 25 -5 40 -3 16 2 32 11 42 9 9 12 16 7 16 -5 0 -16 -8 -24 -17z"/>
<path d="M10400 22340 c0 -5 4 -10 9 -10 15 0 23 -68 10 -91 -8 -17 -8 -20 2
-17 18 6 32 54 25 83 -6 25 -46 55 -46 35z"/>
<path d="M10556 22341 c-7 -10 18 -34 27 -25 7 8 -3 34 -13 34 -5 0 -11 -4
-14 -9z"/>
<path d="M13856 22343 c-11 -11 -6 -23 8 -23 8 0 28 -11 43 -24 28 -25 28 -25
10 -56 -11 -21 -13 -30 -5 -28 7 3 19 17 26 31 11 22 11 32 0 54 -13 26 -70
58 -82 46z"/>
<path d="M7690 22325 c0 -9 5 -15 11 -13 6 2 11 8 11 13 0 5 -5 11 -11 13 -6
2 -11 -4 -11 -13z"/>
<path d="M9851 22322 c-25 -48 -3 -102 42 -102 l21 0 -22 16 c-12 8 -22 22
-22 30 0 8 -4 14 -10 14 -6 0 -6 9 1 26 12 33 5 43 -10 16z"/>
<path d="M10280 22318 c0 -16 5 -28 10 -28 13 0 13 20 0 40 -8 12 -10 9 -10
-12z"/>
<path d="M10500 22281 c0 -48 3 -61 15 -61 13 0 15 11 13 57 -4 81 -28 85 -28
4z"/>
<path d="M10615 22327 c-4 -10 -5 -21 -1 -24 10 -10 18 4 13 24 -4 17 -4 17
-12 0z"/>
<path d="M10680 22316 c0 -14 -6 -26 -12 -26 -10 0 -10 -2 0 -9 8 -4 12 -19
10 -32 -2 -19 2 -25 22 -27 20 -3 22 -1 12 10 -6 8 -9 31 -7 50 3 24 0 40 -10
48 -13 10 -15 8 -15 -14z"/>
<path d="M10843 22332 c-18 -11 -25 -55 -14 -84 10 -27 41 -41 62 -27 10 6 8
9 -8 9 -26 0 -38 32 -31 80 3 17 4 30 4 30 -1 0 -6 -4 -13 -8z"/>
<path d="M10894 22309 c-1 -18 4 -29 12 -29 17 0 18 34 2 48 -10 8 -13 3 -14
-19z"/>
<path d="M10952 22323 c-13 -25 -5 -41 29 -58 16 -9 29 -23 29 -33 1 -16 1
-16 10 0 14 23 5 40 -31 61 -20 11 -29 22 -25 32 8 21 -1 19 -12 -2z"/>
<path d="M1581 22304 c0 -11 3 -14 6 -6 3 7 2 16 -1 19 -3 4 -6 -2 -5 -13z"/>
<path d="M6378 22289 c-19 -11 -24 -44 -9 -53 5 -4 16 -3 25 0 15 6 15 8 -1
20 -17 13 -17 15 1 29 22 17 10 20 -16 4z"/>
<path d="M7700 22275 c-15 -18 -6 -45 15 -45 18 0 20 17 3 23 -10 3 -10 7 1
20 7 10 9 17 3 17 -5 0 -15 -7 -22 -15z"/>
<path d="M10616 22265 c-21 -21 -9 -45 22 -45 25 0 25 1 7 14 -16 12 -17 16
-6 30 17 21 -2 21 -23 1z"/>
<path d="M5105 22261 c-6 -5 -19 -11 -30 -14 -13 -3 -9 -5 13 -6 22 -1 32 4
32 14 0 17 -2 18 -15 6z"/>
<path d="M9660 22230 c0 -6 7 -10 15 -10 8 0 15 2 15 4 0 2 -7 6 -15 10 -8 3
-15 1 -15 -4z"/>
<path d="M13713 22217 c2 -7 14 -14 26 -15 28 -4 20 13 -9 21 -14 3 -20 1 -17
-6z"/>
<path d="M13842 22218 c3 -7 15 -14 29 -16 23 -2 23 -2 5 13 -24 18 -39 20
-34 3z"/>
<path d="M5130 22211 c0 -6 5 -13 10 -16 6 -3 10 1 10 9 0 9 -4 16 -10 16 -5
0 -10 -4 -10 -9z"/>
<path d="M4875 21750 c-3 -5 -1 -10 4 -10 6 0 11 5 11 10 0 6 -2 10 -4 10 -3
0 -8 -4 -11 -10z"/>
<path d="M1866 21726 c-51 -19 -100 -68 -125 -125 -19 -44 -20 -71 -22 -491
-2 -432 -2 -446 19 -485 25 -50 66 -90 112 -109 54 -22 529 -26 4795 -41 798
-3 1857 -7 2355 -10 498 -3 1760 -8 2806 -11 l1901 -7 56 26 c44 20 63 37 87
73 16 26 32 61 34 78 10 63 14 820 5 874 -12 78 -51 130 -119 163 l-55 27
-1750 6 c-962 3 -2141 8 -2620 11 -478 3 -1529 7 -2335 10 -1724 6 -3368 13
-4380 20 -606 4 -731 2 -764 -9z m3239 -61 c440 -3 1459 -7 2265 -10 806 -3
1868 -7 2360 -10 492 -3 1590 -8 2440 -11 1507 -6 1546 -7 1580 -26 20 -10 47
-35 60 -55 l25 -37 0 -430 c0 -237 -3 -443 -7 -458 -11 -36 -53 -85 -92 -105
-28 -15 -144 -17 -1386 -15 -745 1 -1542 4 -1770 7 -228 3 -1364 7 -2525 10
-1160 4 -2308 8 -2550 10 -242 2 -1131 7 -1975 10 -844 3 -1561 8 -1592 11
-72 7 -116 35 -146 94 l-24 45 7 429 c7 498 5 489 100 541 31 17 468 17 3230
0z"/>
<path d="M6625 21287 c-29 -50 -30 -57 -11 -57 15 0 86 76 86 92 0 4 -11 8
-25 8 -18 0 -31 -11 -50 -43z"/>
<path d="M7490 21100 l0 -230 25 0 25 0 0 109 0 109 31 26 c34 29 66 33 95 12
17 -13 19 -29 22 -135 l4 -121 25 0 25 0 -4 129 c-3 121 -5 131 -27 155 -35
37 -82 43 -126 17 -20 -12 -38 -21 -41 -21 -2 0 -4 41 -4 90 0 89 0 90 -25 90
l-25 0 0 -230z"/>
<path d="M2933 21300 c-33 -20 -42 -43 -23 -55 6 -4 22 0 35 9 59 38 135 7
135 -55 0 -48 -25 -89 -110 -183 -44 -47 -80 -90 -80 -94 0 -25 30 -32 141
-32 84 0 118 3 121 13 12 31 -4 37 -100 37 l-96 0 56 58 c79 81 116 137 123
187 8 48 -10 94 -47 119 -32 23 -115 21 -155 -4z"/>
<path d="M3478 21283 c-37 -23 -58 -43 -58 -54 0 -24 2 -24 50 1 22 11 42 20
45 20 3 0 4 -71 3 -157 l-3 -158 -47 -3 c-40 -3 -48 -6 -48 -23 0 -18 8 -19
120 -19 112 0 120 1 120 19 0 16 -8 20 -42 23 l-43 3 0 190 c0 222 1 221 -97
158z"/>
<path d="M3807 21310 c-38 -12 -57 -29 -57 -51 0 -23 18 -24 44 -4 49 37 126
4 126 -53 0 -39 -32 -65 -88 -72 -39 -4 -48 -9 -50 -27 -3 -21 1 -23 43 -23
51 0 99 -20 109 -45 11 -31 6 -61 -14 -83 -25 -27 -99 -30 -144 -7 -37 20 -46
19 -46 -5 0 -48 108 -75 186 -45 55 21 77 52 78 111 1 38 -4 50 -26 69 -15 12
-33 25 -40 27 -9 3 -4 12 15 29 50 43 46 130 -7 164 -31 20 -91 27 -129 15z"/>
<path d="M5284 21306 c-11 -29 0 -51 26 -51 21 0 25 5 25 30 0 24 -5 31 -23
33 -13 2 -24 -3 -28 -12z"/>
<path d="M9161 21301 c-12 -12 -23 -41 -27 -70 -5 -41 -10 -50 -28 -53 -29 -4
-29 -42 1 -46 22 -3 23 -8 25 -135 3 -128 4 -132 26 -135 22 -3 22 -3 22 132
l0 136 40 0 c36 0 40 3 40 25 0 23 -4 25 -41 25 l-42 0 6 36 c9 52 23 66 64
58 32 -6 34 -5 31 17 -3 21 -9 24 -50 27 -36 2 -51 -1 -67 -17z"/>
<path d="M9448 21276 c-33 -51 -34 -56 -9 -56 18 0 81 72 81 92 0 4 -10 8 -22
8 -16 0 -31 -13 -50 -44z"/>
<path d="M4495 21293 c-44 -109 -143 -398 -139 -404 3 -5 14 -9 24 -9 14 0 25
16 41 60 l22 60 88 0 87 0 19 -57 c17 -50 23 -58 46 -61 15 -2 27 1 27 6 0 9
-88 264 -127 367 -16 44 -22 50 -49 53 -23 2 -33 -2 -39 -15z m70 -140 c17
-49 31 -94 33 -100 3 -10 -16 -13 -67 -13 -43 0 -71 4 -71 10 0 19 62 190 69
190 4 0 20 -39 36 -87z"/>
<path d="M6337 21296 c-11 -28 4 -47 32 -44 20 2 26 8 26 28 0 20 -6 26 -26
28 -17 2 -29 -3 -32 -12z"/>
<path d="M11016 21295 c-17 -17 -28 -53 -31 -94 -1 -18 -8 -27 -25 -31 -34 -8
-36 -26 -3 -43 l28 -15 -4 -126 -3 -126 26 0 c26 0 26 0 28 93 1 50 1 109 1
130 -2 37 -1 37 38 37 35 0 39 3 39 25 0 22 -4 25 -39 25 l-39 0 5 38 c7 49
20 64 57 60 25 -2 31 1 31 17 0 17 -8 20 -46 23 -33 2 -51 -2 -63 -13z"/>
<path d="M8707 21293 c-4 -3 -7 -17 -7 -30 0 -19 5 -23 30 -23 27 0 30 3 30
30 0 25 -4 30 -23 30 -13 0 -27 -3 -30 -7z"/>
<path d="M9891 21281 c-15 -27 -3 -53 23 -49 16 2 21 10 21 33 0 36 -28 46
-44 16z"/>
<path d="M11177 21283 c-4 -3 -7 -17 -7 -30 0 -19 5 -23 30 -23 27 0 30 3 30
30 0 25 -4 30 -23 30 -13 0 -27 -3 -30 -7z"/>
<path d="M5079 21263 c0 -4 -2 -21 -2 -38 -2 -22 -8 -30 -27 -35 -34 -8 -40
-40 -7 -40 24 0 25 -1 29 -116 4 -108 6 -118 28 -136 16 -13 36 -18 64 -16 34
3 42 7 44 26 3 21 1 23 -25 18 -50 -11 -56 2 -58 118 l-2 106 44 0 c36 0 43 3
43 19 0 16 -8 20 -42 23 -41 3 -42 4 -43 38 0 29 -4 36 -22 38 -13 2 -23 0
-24 -5z"/>
<path d="M4830 21183 c-48 -24 -70 -73 -70 -151 0 -107 38 -152 127 -152 59 0
112 33 100 63 -6 16 -9 15 -39 -3 -43 -26 -71 -25 -105 4 -25 22 -28 31 -28
88 0 85 20 118 73 118 21 0 47 -7 58 -15 10 -8 22 -15 27 -15 13 0 7 47 -8 60
-26 21 -96 23 -135 3z"/>
<path d="M5786 21187 c-39 -12 -67 -40 -53 -53 4 -5 22 -2 40 4 76 27 127 10
127 -43 0 -35 0 -35 -45 -35 -55 0 -110 -21 -124 -48 -6 -12 -11 -37 -11 -56
0 -69 77 -103 150 -66 33 17 40 18 40 5 0 -8 9 -15 20 -15 18 0 20 7 21 88 3
190 -1 203 -70 222 -43 12 -45 12 -95 -3z m114 -202 c0 -29 -6 -39 -32 -55
-50 -31 -97 -14 -98 34 0 36 29 56 82 56 l48 0 0 -35z"/>
<path d="M5281 21035 l-2 -155 26 0 25 0 0 155 0 155 -24 0 -24 0 -1 -155z"/>
<path d="M5403 21173 c3 -10 27 -80 54 -155 48 -137 48 -138 79 -138 31 0 31
1 82 143 29 78 52 148 52 155 0 6 -11 12 -23 12 -21 0 -28 -12 -62 -120 -22
-66 -42 -120 -46 -120 -4 0 -25 53 -46 118 -36 111 -39 117 -67 120 -24 3 -28
1 -23 -15z"/>
<path d="M6091 21165 c-39 -34 -54 -82 -49 -161 3 -56 8 -69 35 -95 22 -23 42
-32 74 -36 55 -5 113 22 117 55 4 26 -14 29 -42 7 -11 -8 -37 -15 -58 -15 -32
0 -41 5 -59 33 -16 26 -19 43 -15 90 7 95 55 129 128 91 32 -17 53 -8 43 18
-17 44 -127 52 -174 13z"/>
<path d="M6340 21035 l0 -155 25 0 25 0 0 155 0 155 -25 0 -25 0 0 -155z"/>
<path d="M6543 21170 c-46 -28 -67 -74 -67 -145 0 -71 21 -118 64 -140 38 -20
103 -19 146 1 64 30 94 147 60 229 -29 69 -133 98 -203 55z m111 -30 c77 -29
72 -192 -7 -219 -71 -25 -121 22 -119 115 1 84 57 131 126 104z"/>
<path d="M6848 21178 c-2 -7 -4 -78 -4 -158 1 -138 2 -145 21 -145 18 0 20 8
25 108 5 105 6 110 34 133 37 33 85 30 103 -6 8 -15 13 -66 13 -133 0 -107 0
-108 23 -105 21 3 22 7 25 116 2 86 -1 120 -13 146 -27 56 -85 71 -143 36 -40
-24 -38 -24 -45 0 -6 22 -32 27 -39 8z"/>
<path d="M7916 21180 c-83 -25 -121 -138 -80 -239 12 -30 26 -45 58 -61 49
-23 57 -24 126 -9 39 8 50 15 50 30 0 17 -6 18 -59 13 -78 -9 -107 0 -126 36
-30 57 -26 60 89 60 96 0 105 2 111 20 17 55 -27 134 -83 150 -42 11 -47 11
-86 0z m97 -58 c9 -10 18 -29 19 -43 3 -23 1 -24 -71 -27 -41 -2 -78 1 -83 6
-11 11 15 67 34 75 30 12 86 6 101 -11z"/>
<path d="M8170 21025 l0 -155 25 0 25 0 0 103 c0 92 2 105 23 129 33 38 70 45
96 19 19 -19 21 -33 21 -136 0 -96 3 -115 15 -115 8 0 18 -1 23 -2 4 -2 9 45
12 104 5 101 6 108 34 137 35 36 58 39 86 11 18 -18 20 -33 20 -133 0 -63 3
-116 6 -119 3 -3 14 -4 25 -1 17 5 19 15 19 128 0 118 -1 125 -26 154 -20 24
-34 31 -63 31 -33 0 -77 -20 -92 -43 -4 -5 -18 3 -32 17 -32 32 -88 35 -134 6
-33 -20 -33 -20 -33 0 0 15 -7 20 -25 20 l-25 0 0 -155z"/>
<path d="M8710 21168 c0 -7 -3 -74 -6 -148 -6 -119 -4 -137 10 -149 10 -9 20
-11 26 -5 5 5 11 77 12 159 3 149 3 150 -19 153 -14 2 -23 -2 -23 -10z"/>
<path d="M8869 21151 c-16 -17 -29 -40 -29 -54 0 -26 44 -87 62 -87 20 0 77
-32 82 -46 18 -46 -48 -75 -109 -49 -43 17 -50 15 -40 -15 20 -62 167 -49 194
18 21 51 4 82 -64 117 -67 35 -85 57 -69 83 12 18 73 23 107 8 13 -6 17 -4 17
13 0 26 -28 41 -80 41 -33 0 -48 -6 -71 -29z"/>
<path d="M9373 21160 c-45 -27 -66 -73 -66 -145 0 -108 44 -155 147 -155 71 0
106 13 106 41 0 18 -3 20 -27 13 -16 -5 -52 -9 -81 -9 -45 0 -57 4 -73 24 -10
13 -19 36 -19 52 l0 29 105 0 105 0 0 35 c0 56 -23 99 -63 118 -46 22 -95 21
-134 -3z m122 -45 c14 -13 25 -33 25 -45 0 -18 -6 -20 -80 -20 -71 0 -80 2
-80 19 0 10 11 30 25 45 32 34 77 35 110 1z"/>
<path d="M9658 21030 c-2 -82 -1 -155 0 -160 5 -13 42 -13 43 0 1 6 3 15 4 20
1 6 3 50 4 99 1 82 3 90 28 115 21 21 34 26 54 22 31 -6 42 9 27 37 -13 25
-52 21 -87 -8 l-30 -26 -3 23 c-2 13 -11 24 -20 26 -15 3 -17 -12 -20 -148z"/>
<path d="M9903 21173 c-10 -4 -13 -45 -13 -160 l0 -154 23 3 c22 3 22 6 25
154 3 154 -1 169 -35 157z"/>
<path d="M10101 21163 c-54 -28 -74 -64 -79 -137 -7 -108 37 -169 121 -169 55
0 101 22 105 51 4 26 -5 27 -44 7 -59 -30 -107 -9 -124 55 -12 46 0 112 26
141 20 23 68 24 104 4 34 -19 40 -18 40 5 0 45 -93 72 -149 43z"/>
<path d="M10395 21173 c-49 -11 -75 -26 -75 -45 0 -17 4 -19 23 -13 12 4 43
10 68 12 54 6 79 -13 79 -57 0 -27 -2 -28 -60 -32 -100 -7 -146 -60 -116 -131
11 -28 23 -38 53 -47 38 -12 57 -7 126 28 4 2 7 -3 7 -12 0 -9 8 -16 20 -16
19 0 20 7 20 128 0 145 -7 165 -68 182 -38 10 -44 11 -77 3z m95 -208 c0 -37
-21 -58 -71 -70 -32 -8 -59 16 -59 52 0 35 26 52 83 53 l47 0 0 -35z"/>
<path d="M11177 21123 c-3 -26 -6 -96 -6 -154 -2 -83 1 -108 12 -112 29 -11
34 10 38 158 4 146 3 150 -17 153 -18 3 -22 -3 -27 -45z"/>
<path d="M11363 21158 c-22 -11 -53 -64 -53 -92 0 -8 5 -27 12 -41 9 -19 9
-28 0 -37 -15 -15 -15 -71 0 -86 9 -9 8 -16 -4 -29 -30 -33 -32 -68 -5 -98 20
-24 33 -29 86 -33 70 -5 112 9 141 46 26 33 25 65 -3 97 -20 24 -33 28 -102
34 -74 6 -80 8 -83 29 -3 22 -1 23 40 17 53 -8 111 12 128 46 7 12 10 41 7 65
-4 37 -2 44 13 44 20 0 30 17 22 38 -5 15 -167 16 -199 0z m101 -44 c9 -8 16
-31 16 -49 0 -56 -62 -85 -102 -48 -22 20 -23 70 -1 95 20 22 66 24 87 2z m35
-258 c33 -34 -14 -76 -85 -76 -69 0 -91 31 -58 79 15 21 22 23 73 17 31 -4 62
-13 70 -20z"/>
<path d="M11638 21088 c-3 -149 1 -180 30 -210 32 -35 96 -39 135 -8 32 25 37
25 37 -1 0 -15 5 -20 23 -17 22 3 22 5 22 158 0 153 0 155 -22 158 -23 3 -23
2 -23 -103 0 -104 -1 -107 -29 -136 -32 -31 -92 -41 -108 -16 -4 6 -10 66 -13
132 -5 115 -6 120 -27 123 -22 3 -23 0 -25 -80z"/>
<path d="M11997 21163 c-4 -3 -7 -75 -7 -160 l0 -153 25 0 25 0 0 106 c0 104
0 106 30 136 25 25 36 29 60 24 27 -5 30 -3 30 19 0 36 -39 43 -83 16 -42 -26
-43 -26 -50 -1 -5 20 -18 26 -30 13z"/>
<path d="M12258 21154 c-25 -11 -38 -23 -38 -35 0 -20 24 -26 35 -9 3 6 28 10
54 10 54 0 81 -20 81 -62 0 -25 -3 -26 -66 -30 -60 -4 -69 -7 -96 -37 -25 -28
-29 -40 -25 -68 8 -46 21 -61 67 -74 34 -10 44 -9 80 10 48 25 50 25 50 6 0
-8 9 -15 20 -15 19 0 20 7 20 119 0 129 -8 164 -39 181 -36 19 -104 21 -143 4z
m132 -194 c0 -37 -41 -70 -87 -70 -27 0 -35 5 -44 26 -19 52 26 86 104 75 22
-3 27 -8 27 -31z"/>
<path d="M12593 21162 c-32 -10 -62 -38 -68 -65 -11 -43 11 -75 75 -107 67
-34 77 -48 60 -80 -10 -19 -18 -21 -58 -18 -26 3 -55 8 -64 12 -15 7 -18 3
-18 -18 0 -21 7 -27 40 -36 97 -26 173 28 155 111 -6 25 -18 36 -71 62 -66 32
-85 57 -64 82 14 17 72 20 100 5 13 -7 19 -6 24 5 6 16 -18 45 -37 45 -7 0
-21 2 -32 4 -11 3 -30 1 -42 -2z"/>
<path d="M10660 21140 c-11 -21 2 -60 20 -60 25 0 40 15 40 40 0 25 -15 40
-40 40 -5 0 -14 -9 -20 -20z"/>
<path d="M3250 20925 c0 -32 2 -35 30 -35 28 0 30 3 30 35 0 32 -2 35 -30 35
-28 0 -30 -3 -30 -35z"/>
<path d="M10654 20905 c-8 -32 6 -48 37 -43 19 2 24 9 24 33 0 25 -4 31 -27
33 -22 3 -29 -2 -34 -23z"/>
<path d="M2278 19243 c-19 -32 -137 -227 -263 -433 -310 -510 -435 -720 -442
-736 -4 -12 99 -14 666 -14 369 0 703 -3 741 -6 42 -4 70 -3 70 3 0 9 -28 58
-220 385 -41 70 -81 128 -88 128 -7 0 -10 4 -7 10 7 11 -50 119 -71 136 -8 6
-14 16 -14 22 0 18 -72 132 -83 132 -6 0 -7 3 -4 6 6 7 -6 30 -103 194 -31 52
-74 125 -96 162 -21 37 -42 68 -45 68 -4 0 -22 -26 -41 -57z"/>
<path d="M10634 19242 c-11 -20 -99 -165 -194 -322 -383 -630 -530 -875 -530
-882 0 -4 335 -8 744 -8 l744 0 -67 117 c-37 65 -105 181 -151 258 -163 275
-416 705 -499 847 -9 16 -18 28 -21 28 -3 0 -14 -17 -26 -38z"/>
<path d="M13328 19235 c-15 -27 -75 -127 -153 -255 -29 -47 -61 -100 -71 -119
-24 -43 -32 -56 -71 -117 -18 -28 -33 -56 -33 -62 0 -7 -4 -12 -9 -12 -5 0
-16 -12 -24 -27 -28 -56 -71 -130 -124 -212 -29 -47 -53 -88 -53 -92 0 -4 -31
-56 -69 -116 -58 -92 -111 -185 -111 -195 0 -6 119 0 129 7 6 3 16 3 22 -1 6
-3 307 -8 670 -9 l659 -3 -27 46 c-15 26 -34 58 -42 72 -35 55 -150 251 -184
312 -11 20 -29 39 -41 42 -15 4 -17 8 -9 14 9 6 3 24 -23 67 -20 33 -41 63
-46 66 -5 3 -9 9 -9 13 1 3 -11 28 -27 56 -18 34 -33 50 -47 50 -14 0 -16 3
-7 8 17 12 4 45 -15 37 -11 -4 -13 -1 -9 11 6 16 -13 52 -116 217 -26 43 -48
81 -48 84 0 3 -10 20 -23 37 -12 17 -31 48 -42 69 -23 44 -29 45 -47 12z m-98
-239 c9 -12 8 -15 -9 -13 -21 1 -26 8 -14 20 9 9 9 9 23 -7z m5 -193 c-11 -3
-25 -9 -32 -15 -7 -6 -14 -5 -19 3 -4 8 -3 9 4 5 7 -4 12 -2 12 3 0 6 12 10
28 10 20 -1 22 -2 7 -6z m100 -32 c-3 -6 -11 -11 -17 -11 -6 0 -6 6 2 15 14
17 26 13 15 -4z m-52 -36 c-3 -9 -8 -14 -10 -11 -3 3 -2 9 2 15 9 16 15 13 8
-4z m-168 -235 c8 -13 -5 -13 -25 0 -13 8 -13 10 2 10 9 0 20 -4 23 -10z m47
-12 c-9 -9 -15 -9 -24 0 -9 9 -7 12 12 12 19 0 21 -3 12 -12z m10 -85 c-6 -2
-9 -10 -6 -15 4 -7 2 -8 -5 -4 -13 9 -5 26 12 25 9 0 8 -2 -1 -6z m-99 -40
c-7 -2 -19 -2 -25 0 -7 3 -2 5 12 5 14 0 19 -2 13 -5z m72 -93 c3 -5 1 -10 -4
-10 -6 0 -11 5 -11 10 0 6 2 10 4 10 3 0 8 -4 11 -10z m-395 -115 c-7 -9 -15
-13 -19 -10 -3 3 1 10 9 15 21 14 24 12 10 -5z m160 -39 c0 -2 -7 -7 -16 -10
-8 -3 -12 -2 -9 4 6 10 25 14 25 6z m-126 -41 c-4 -8 -11 -12 -16 -9 -6 4 -5
10 3 15 19 12 19 11 13 -6z"/>
<path d="M4523 19173 c-9 -7 -13 -144 -15 -571 l-3 -562 465 -1 c256 0 536 -1
623 -2 l157 -2 0 95 c0 52 3 308 7 568 l6 472 -509 0 c-280 1 -556 3 -614 6
-58 3 -110 1 -117 -3z"/>
<path d="M7336 19138 c-3 -13 -6 -270 -6 -572 l0 -548 66 4 c42 3 69 9 75 19
8 12 11 12 19 -3 9 -15 55 -17 544 -18 l535 -1 1 566 0 565 -297 1 c-164 1
-440 3 -614 5 l-317 4 -6 -22z"/>
<path d="M10630 17676 l0 -56 45 0 c39 0 45 3 51 24 3 13 4 37 2 52 -3 27 -6
29 -50 32 l-48 3 0 -55z"/>
<path d="M13357 17683 c-4 -3 -7 -69 -7 -145 0 -76 -3 -138 -6 -138 -3 0 -15
12 -27 26 -42 54 -135 77 -218 54 -53 -15 -113 -72 -140 -132 -31 -70 -34
-216 -5 -297 58 -166 251 -226 369 -114 l27 27 0 -32 c0 -31 1 -32 43 -32 l44
0 6 173 c4 94 7 272 7 395 l0 222 -43 0 c-24 0 -47 -3 -50 -7z m-89 -303 c66
-40 99 -185 68 -292 -50 -174 -259 -165 -297 12 -25 117 6 245 68 282 39 24
119 23 161 -2z"/>
<path d="M5229 17585 c-1 -38 -2 -103 -2 -142 0 -40 -3 -73 -7 -73 -3 0 -17
12 -31 26 -105 113 -300 62 -360 -94 -30 -79 -30 -204 1 -285 42 -112 116
-166 223 -167 66 0 118 20 146 56 25 32 31 30 31 -11 0 -35 0 -35 45 -35 l45
0 0 400 0 399 -45 -2 -45 -2 -1 -70z m-85 -239 c46 -29 69 -91 74 -191 3 -79
1 -95 -20 -134 -29 -57 -64 -82 -120 -88 -93 -11 -152 47 -170 164 -18 118 18
229 85 259 40 18 117 13 151 -10z"/>
<path d="M2220 17565 l0 -55 44 0 44 0 4 51 c1 28 1 53 -1 55 -2 2 -24 4 -48
4 l-43 0 0 -55z"/>
<path d="M7970 17515 l0 -55 50 0 50 0 0 55 0 55 -50 0 -50 0 0 -55z"/>
<path d="M10628 17170 c-2 -223 -7 -353 -13 -359 -6 -6 -26 -12 -45 -14 -33
-4 -35 -6 -38 -46 l-3 -41 46 0 c64 0 114 26 131 66 11 26 14 110 14 389 l0
355 -45 0 -44 0 -3 -350z"/>
<path d="M2216 17173 c-4 -128 -5 -237 -1 -243 3 -5 26 -10 51 -10 l44 0 0
239 0 239 -44 3 -43 4 -7 -232z"/>
<path d="M7970 17120 l0 -240 45 0 45 0 1 93 c1 50 2 157 2 237 l2 145 -47 2
-48 2 0 -239z"/>
<path d="M2435 16410 c-3 -5 1 -10 10 -10 9 0 13 5 10 10 -3 6 -8 10 -10 10
-2 0 -7 -4 -10 -10z"/>
<path d="M5016 16048 c-8 -13 -65 -106 -126 -208 -62 -102 -160 -263 -219
-357 -58 -95 -115 -190 -126 -210 -11 -21 -23 -40 -26 -43 -3 -3 -46 -71 -95
-152 -117 -193 -134 -222 -134 -230 0 -14 138 -9 144 5 5 10 7 10 12 0 4 -9
34 -13 100 -13 70 0 93 3 88 12 -5 8 -2 9 12 2 11 -5 262 -10 573 -11 524 -2
553 -2 540 15 -8 9 -20 28 -28 42 -8 14 -29 50 -47 80 -17 30 -52 91 -78 135
-25 43 -56 85 -68 93 -15 8 -16 11 -5 8 17 -6 17 -5 0 24 -9 17 -23 30 -30 30
-7 0 -10 6 -7 13 4 12 -115 222 -134 237 -4 3 -8 11 -10 18 -1 6 -39 74 -85
150 -45 75 -84 141 -86 146 -2 5 -26 45 -54 90 -27 44 -59 96 -69 114 -11 17
-22 32 -24 32 -2 0 -10 -10 -18 -22z m324 -788 c0 -5 -2 -10 -4 -10 -3 0 -8 5
-11 10 -3 6 -1 10 4 10 6 0 11 -4 11 -10z m197 -76 c-3 -3 -12 -4 -19 -1 -8 3
-5 6 6 6 11 1 17 -2 13 -5z"/>
<path d="M10320 15998 c0 -4 -7 -8 -15 -8 -13 0 -15 -23 -15 -145 0 -129 -2
-146 -17 -152 -21 -8 -51 -8 -190 1 -57 4 -103 4 -103 -1 0 -4 -3 -144 -7
-310 l-6 -302 159 -3 159 -3 -3 -157 -4 -157 311 0 c186 0 311 4 311 10 0 5
-6 9 -12 9 -10 0 -10 2 0 9 10 6 14 43 15 145 2 113 5 136 17 137 8 0 79 0
158 0 l142 -1 0 309 0 310 -87 -1 c-49 0 -118 0 -155 1 l-68 1 0 153 0 153
-167 3 c-93 2 -179 4 -193 5 -14 1 -33 -1 -42 -6 -9 -4 -19 -4 -22 1 -7 11
-166 10 -166 -1z m10 -888 c0 -5 -2 -10 -4 -10 -3 0 -8 5 -11 10 -3 6 -1 10 4
10 6 0 11 -4 11 -10z m160 -60 c0 -5 -8 -10 -17 -10 -15 0 -16 2 -3 10 19 12
20 12 20 0z m-70 -64 c0 -3 -4 -8 -10 -11 -5 -3 -10 -1 -10 4 0 6 5 11 10 11
6 0 10 -2 10 -4z"/>
<path d="M13305 15933 c-15 -27 -44 -75 -65 -108 -20 -33 -70 -114 -110 -180
-41 -66 -107 -173 -147 -238 -40 -65 -73 -119 -73 -122 0 -2 -27 -47 -60 -100
-33 -53 -60 -98 -60 -99 0 -2 -45 -77 -100 -167 l-100 -164 733 -5 c402 -3
737 -3 744 -2 8 3 4 16 -12 40 -14 21 -41 66 -61 102 -21 36 -73 123 -116 193
-43 71 -78 131 -78 133 0 3 -66 115 -90 154 -5 8 -28 44 -50 80 -22 36 -45 72
-50 80 -9 15 -96 165 -130 225 -9 17 -37 62 -61 100 -25 39 -51 82 -59 98 -7
15 -17 27 -21 27 -4 0 -19 -21 -34 -47z m575 -883 c0 -5 -5 -10 -11 -10 -5 0
-7 5 -4 10 3 6 8 10 11 10 2 0 4 -4 4 -10z"/>
<path d="M13420 14445 l0 -55 45 0 45 0 0 55 0 55 -45 0 -45 0 0 -55z"/>
<path d="M2170 14379 l0 -60 48 3 47 3 0 55 0 54 -47 3 -48 2 0 -60z"/>
<path d="M7930 14190 c0 -77 -4 -140 -8 -140 -5 0 -19 12 -33 26 -34 37 -84
56 -145 55 -157 -1 -244 -123 -232 -324 7 -106 36 -174 95 -227 87 -77 208
-78 286 -2 l37 36 0 -37 0 -37 45 0 45 0 0 395 0 395 -45 0 -45 0 0 -140z
m-81 -167 c50 -38 65 -79 69 -190 4 -97 3 -105 -23 -149 -31 -53 -71 -74 -139
-74 -57 0 -107 40 -132 105 -24 65 -16 216 15 267 40 66 148 87 210 41z"/>
<path d="M5007 14303 c-4 -3 -7 -28 -7 -55 l0 -48 50 0 50 0 0 55 0 55 -43 0
c-24 0 -47 -3 -50 -7z"/>
<path d="M10622 14229 l3 -51 43 -3 42 -3 0 54 0 54 -46 0 -45 0 3 -51z"/>
<path d="M13418 14168 c-3 -62 -6 -219 -7 -348 -1 -147 -6 -239 -13 -247 -6
-7 -26 -13 -44 -13 -34 0 -34 0 -34 -46 l0 -47 56 6 c30 3 67 13 81 22 50 33
53 56 53 435 l0 350 -44 0 -44 0 -4 -112z"/>
<path d="M2169 13923 c-1 -442 2 -421 -59 -426 -33 -2 -35 -4 -38 -45 l-3 -42
46 0 c25 0 61 6 80 14 63 27 64 35 65 423 0 191 0 354 0 361 0 8 -16 12 -45
12 l-45 0 -1 -297z"/>
<path d="M5000 13850 l0 -240 50 0 50 0 0 240 0 240 -50 0 -50 0 0 -240z"/>
<path d="M10617 13834 c-4 -130 -4 -240 -1 -245 3 -5 25 -9 50 -9 l44 0 0 245
0 245 -43 0 -44 0 -6 -236z"/>
<path d="M4728 12548 l-3 -153 -157 -3 -157 -3 -1 -307 0 -308 152 -2 c83 -1
153 -4 155 -6 2 -2 4 -72 4 -155 -1 -83 0 -151 2 -151 1 -1 140 -4 310 -7
l307 -6 0 157 0 156 118 1 c64 1 134 0 154 -1 l36 -1 0 115 c0 82 -3 116 -11
116 -9 0 -9 2 0 8 17 11 21 201 4 211 -11 7 -11 9 0 13 17 6 22 100 6 110 -7
5 -8 8 -2 8 6 0 11 9 12 20 2 19 -4 20 -153 20 l-154 0 -1 43 c0 23 0 93 1
155 l1 112 -295 0 c-162 0 -301 3 -310 6 -13 5 -16 -14 -18 -148z"/>
<path d="M1538 12526 c-2 -50 -4 -303 -6 -563 l-3 -472 338 -2 c186 0 466 -2
623 -3 l285 -1 3 563 2 562 -547 1 c-302 0 -580 2 -620 3 l-72 3 -3 -91z"/>
<path d="M7139 12245 c0 -192 -3 -446 -5 -563 l-5 -213 228 1 c125 1 407 -2
626 -6 l397 -7 0 89 c0 49 3 304 7 567 l6 477 -534 1 c-294 1 -576 2 -626 3
l-93 1 -1 -350z"/>
<path d="M12790 12313 c0 -142 -3 -396 -7 -565 l-6 -308 626 0 626 0 1 478 c0
262 3 513 6 558 l5 81 -93 6 c-51 3 -333 6 -625 6 l-533 1 0 -257z"/>
<path d="M16606 11871 c-3 -5 5 -11 19 -13 20 -4 23 -3 14 8 -13 16 -25 18
-33 5z"/>
<path d="M13520 10986 c0 -81 -3 -146 -6 -146 -3 0 -21 15 -40 33 -86 80 -206
75 -294 -13 -63 -63 -84 -131 -78 -254 10 -187 94 -285 246 -286 70 0 92 8
140 53 l32 31 0 -37 0 -37 45 0 45 0 1 370 c1 204 2 382 3 398 1 25 -2 27 -46
30 l-48 3 0 -145z m-95 -163 c26 -12 43 -31 61 -70 24 -47 26 -61 22 -151 -3
-91 -5 -102 -32 -136 -55 -73 -158 -87 -217 -30 -47 45 -62 99 -57 206 4 104
26 155 76 183 37 19 104 19 147 -2z"/>
<path d="M2200 10963 l0 -147 -32 32 c-87 84 -226 82 -312 -4 -47 -47 -69
-109 -74 -205 -5 -100 11 -169 58 -242 38 -60 109 -97 187 -97 64 0 91 10 137
50 l36 32 0 -36 c0 -36 0 -36 43 -36 l44 0 6 302 c4 166 7 346 7 400 l0 98
-50 0 -50 0 0 -147z m-82 -163 c88 -54 106 -279 30 -365 -57 -66 -157 -70
-214 -10 -42 45 -57 106 -52 208 5 93 28 146 76 172 40 21 121 19 160 -5z"/>
<path d="M4984 11087 c-3 -8 -4 -34 -2 -58 l3 -44 45 0 45 0 0 55 0 55 -43 3
c-30 2 -44 -1 -48 -11z"/>
<path d="M7700 11035 l0 -55 50 0 50 0 0 55 0 55 -50 0 -50 0 0 -55z"/>
<path d="M10570 11015 l0 -55 50 0 50 0 0 55 0 55 -50 0 -50 0 0 -55z"/>
<path d="M4980 10640 l0 -240 45 0 45 0 0 98 c0 53 3 161 7 240 l6 142 -52 0
-51 0 0 -240z"/>
<path d="M7705 10872 c-3 -3 -5 -160 -5 -348 0 -376 0 -374 -60 -374 -28 0
-41 -14 -33 -37 3 -9 28 -13 79 -13 65 0 75 2 88 23 21 33 35 746 15 748 -63
5 -79 5 -84 1z"/>
<path d="M10577 10854 c-4 -4 -7 -115 -7 -246 l0 -238 45 0 45 0 1 78 c1 42 2
151 2 242 l2 164 -40 4 c-22 2 -44 0 -48 -4z"/>
<path d="M4957 8820 c-48 -78 -87 -145 -87 -150 0 -4 -3 -10 -7 -12 -8 -3 -73
-106 -73 -115 0 -3 -9 -18 -21 -34 -14 -21 -17 -29 -7 -30 7 0 4 -4 -7 -8 -17
-7 -82 -108 -170 -262 -5 -10 -47 -77 -92 -149 -46 -71 -83 -132 -83 -135 0
-2 -18 -32 -40 -66 -22 -34 -38 -64 -36 -66 2 -3 -4 -13 -15 -24 -10 -10 -19
-24 -19 -29 0 -16 557 -13 564 3 3 9 5 9 5 0 1 -8 54 -12 199 -13 108 -1 313
-3 454 -4 l258 -3 -22 36 c-12 20 -24 38 -27 41 -4 3 -15 23 -27 45 -11 22
-45 81 -74 130 -59 101 -88 151 -104 180 -67 120 -110 185 -122 185 -7 0 -11
6 -8 14 5 13 -37 87 -165 294 -28 46 -51 87 -51 91 0 5 -11 20 -25 35 -14 15
-23 31 -20 36 3 5 1 11 -4 14 -5 4 -26 35 -46 71 -20 36 -37 65 -39 65 -1 0
-41 -63 -89 -140z m189 -77 c-10 -10 -19 5 -10 18 6 11 8 11 12 0 2 -7 1 -15
-2 -18z m-459 -999 c-3 -3 -12 -4 -19 -1 -8 3 -5 6 6 6 11 1 17 -2 13 -5z
m810 0 c-3 -3 -12 -4 -19 -1 -8 3 -5 6 6 6 11 1 17 -2 13 -5z"/>
<path d="M7695 8950 c-104 -17 -190 -55 -276 -122 -158 -122 -242 -292 -243
-488 0 -109 16 -174 67 -280 52 -106 162 -223 247 -262 158 -73 186 -80 318
-77 209 5 371 90 498 261 45 61 93 174 98 230 2 18 6 41 11 51 12 29 -1 196
-20 252 -68 201 -205 342 -398 409 -84 29 -217 41 -302 26z"/>
<path d="M1990 8783 c-318 -516 -399 -648 -519 -846 -73 -120 -131 -220 -129
-222 8 -7 1490 -16 1486 -8 -10 16 -122 209 -161 276 -21 37 -44 67 -50 67 -6
0 -7 3 -4 7 6 6 -43 101 -68 133 -7 8 -24 35 -37 60 -34 60 -207 353 -276 465
-30 50 -66 110 -80 135 -14 25 -33 57 -42 73 l-17 27 -103 -167z"/>
<path d="M10363 8893 c-7 -3 -12 -52 -12 -151 -1 -80 -3 -148 -5 -149 -2 -2
-73 -5 -157 -6 l-154 -2 -2 -307 -2 -308 119 1 c66 0 120 4 120 8 0 5 17 3 38
-4 35 -13 37 -16 34 -50 -2 -20 2 -42 8 -50 9 -11 9 -15 1 -15 -7 0 -11 -34
-11 -105 l0 -106 310 2 310 1 0 154 0 154 38 1 c20 0 86 0 145 -1 80 -1 107 2
102 10 -6 9 -2 9 14 1 20 -11 20 -11 20 158 0 151 -2 170 -17 174 -16 4 -15 5
1 6 13 1 17 10 17 46 0 35 -3 43 -15 39 -8 -4 -15 -1 -15 5 0 6 7 11 15 11 12
0 15 16 15 84 l0 84 -122 2 c-68 1 -134 3 -148 4 -14 2 -29 4 -35 5 -6 1 -9
56 -7 151 l2 150 -267 0 c-148 1 -282 2 -298 4 -17 1 -36 1 -42 -1z m347 -317
c0 -3 -4 -8 -10 -11 -5 -3 -10 -1 -10 4 0 6 5 11 10 11 6 0 10 -2 10 -4z"/>
<path d="M12759 8828 c0 -2 -3 -256 -6 -564 l-6 -562 624 2 624 1 3 563 2 562
-620 0 c-341 0 -620 -1 -621 -2z"/>
<path d="M14647 8754 c-8 -8 1 -24 14 -24 5 0 9 7 9 15 0 15 -12 20 -23 9z"/>
<path d="M13360 7335 l0 -55 50 0 50 0 0 55 0 55 -50 0 -50 0 0 -55z"/>
<path d="M4990 7300 l0 -61 48 3 47 3 0 55 0 55 -47 3 -48 3 0 -61z"/>
<path d="M2070 7275 l0 -55 50 0 50 0 0 55 0 55 -50 0 -50 0 0 -55z"/>
<path d="M7850 7154 l0 -146 -41 36 c-50 46 -76 56 -142 56 -95 -1 -165 -50
-209 -145 -19 -42 -23 -66 -22 -150 1 -153 44 -243 137 -290 85 -42 184 -31
244 27 l33 32 0 -37 c0 -37 0 -37 43 -37 l44 0 6 293 c4 160 7 340 7 400 l0
107 -50 0 -50 0 0 -146z m-82 -164 c43 -26 70 -87 78 -176 8 -83 -6 -141 -43
-185 -72 -85 -185 -76 -241 20 -24 42 -27 55 -27 146 0 115 18 165 69 196 42
26 121 25 164 -1z"/>
<path d="M10662 7248 l3 -53 48 -3 47 -3 0 55 0 56 -51 0 -50 0 3 -52z"/>
<path d="M13358 6820 c-3 -386 0 -370 -65 -370 -32 0 -33 -1 -33 -46 l0 -46
58 4 c67 5 107 29 121 73 5 17 11 189 14 383 l4 352 -48 0 -48 0 -3 -350z"/>
<path d="M4990 6832 c0 -356 -4 -400 -34 -412 -15 -6 -1 -9 46 -9 37 -1 69 3
72 7 3 5 6 168 7 363 l1 354 -46 3 -46 3 0 -309z"/>
<path d="M2103 7112 l-33 -3 0 -240 0 -239 43 0 44 0 6 158 c4 86 7 194 7 238
0 90 -2 92 -67 86z"/>
<path d="M10667 7084 c-4 -4 -7 -115 -7 -246 l0 -238 50 0 50 0 -2 243 -3 242
-40 3 c-23 2 -44 0 -48 -4z"/>
<path d="M13112 5508 c-100 -101 -265 -264 -367 -363 -102 -99 -184 -183 -182
-187 2 -7 426 -435 640 -645 92 -91 98 -95 112 -77 8 10 15 22 15 27 0 4 5 7
12 7 6 0 135 123 286 273 344 341 323 318 317 338 -4 13 -1 16 12 13 12 -3 30
8 52 30 l35 36 -135 135 c-74 74 -140 135 -147 135 -7 0 -10 5 -7 10 3 6 -3
10 -14 10 -12 0 -18 5 -16 13 5 12 -405 427 -422 427 -5 0 -91 -82 -191 -182z
m522 -693 c-4 -8 -10 -15 -15 -15 -4 0 -6 7 -3 15 4 8 10 15 15 15 4 0 6 -7 3
-15z m21 -103 c-3 -3 -11 0 -18 7 -9 10 -8 11 6 5 10 -3 15 -9 12 -12z m10
-32 c3 -6 -1 -7 -9 -4 -18 7 -21 14 -7 14 6 0 13 -4 16 -10z m5 -60 c0 -5 -4
-10 -10 -10 -5 0 -10 5 -10 10 0 6 5 10 10 10 6 0 10 -4 10 -10z m-709 -13
c-6 -8 -7 -18 -3 -22 4 -5 1 -5 -6 -1 -10 6 -10 11 -1 22 6 8 14 14 16 14 3 0
0 -6 -6 -13z"/>
<path d="M7749 5472 c-27 -45 -314 -510 -371 -601 -29 -46 -78 -126 -108 -178
-30 -51 -97 -161 -148 -243 -51 -82 -95 -156 -98 -164 -5 -13 33 -15 298 -15
679 0 974 0 993 -1 31 -1 148 -2 168 -1 18 1 18 3 -1 34 -11 17 -29 48 -40 67
-48 86 -154 256 -165 265 -7 6 -17 25 -24 43 -6 18 -48 94 -93 170 -45 75 -98
164 -117 197 -20 33 -46 76 -58 95 -12 19 -48 80 -80 135 -32 55 -73 124 -91
152 -19 29 -34 57 -34 63 0 18 -15 10 -31 -18z"/>
<path d="M2000 5435 c-243 -66 -422 -267 -461 -515 -39 -251 99 -522 321 -635
104 -53 178 -70 295 -69 198 2 346 68 475 211 109 123 167 324 142 487 -38
244 -179 418 -410 504 -86 32 -274 41 -362 17z"/>
<path d="M10010 5231 c0 -97 -3 -350 -7 -563 l-6 -388 544 -1 c299 -1 579 -2
622 -3 49 -2 80 2 82 8 2 6 5 260 7 564 l3 552 -465 2 c-256 1 -536 2 -622 4
l-158 2 0 -177z"/>
<path d="M4317 5364 c-4 -4 -7 -258 -7 -565 l0 -559 347 -1 c192 -1 472 -2
623 -3 l275 -1 3 562 3 562 -483 1 c-266 0 -544 3 -619 5 -74 3 -138 2 -142
-1z"/>
<path d="M7677 3803 c-4 -3 -7 -28 -7 -55 l0 -48 50 0 50 0 0 55 0 55 -43 0
c-24 0 -47 -3 -50 -7z"/>
<path d="M2178 3713 c-2 -5 -3 -70 -3 -145 0 -76 -2 -138 -3 -138 -2 0 -22 15
-44 34 -111 95 -272 58 -338 -78 -84 -173 -22 -410 122 -470 77 -32 207 -9
240 43 19 31 28 26 28 -15 l0 -35 43 3 42 3 3 403 2 402 -44 0 c-25 0 -46 -3
-48 -7z m-85 -310 c41 -21 69 -91 75 -183 8 -132 -31 -206 -118 -230 -125 -34
-213 82 -197 257 6 61 32 128 59 150 39 33 124 36 181 6z"/>
<path d="M10770 3555 c0 -90 -4 -145 -10 -145 -5 0 -10 4 -10 9 0 21 -69 61
-120 71 -100 19 -196 -30 -243 -125 -25 -51 -39 -139 -31 -207 19 -175 108
-277 242 -278 62 0 108 17 142 55 l25 27 5 -34 c5 -31 8 -33 46 -36 l41 -3 6
98 c3 54 6 236 6 406 l2 307 -51 0 -50 0 0 -145z m-73 -174 c30 -22 44 -48 59
-106 40 -148 -6 -276 -110 -305 -121 -34 -208 78 -193 249 6 71 26 130 51 150
48 40 146 46 193 12z"/>
<path d="M13362 3603 l3 -58 48 -3 48 -3 -3 58 -3 58 -48 3 -48 3 3 -58z"/>
<path d="M4880 3584 l0 -55 48 3 47 3 3 53 3 52 -50 0 -51 0 0 -56z"/>
<path d="M7668 3235 c-3 -387 -1 -375 -60 -375 -27 0 -28 -2 -28 -46 l0 -47
51 6 c57 7 91 25 115 62 14 21 17 77 21 390 l6 365 -51 0 -51 0 -3 -355z"/>
<path d="M13360 3195 l0 -245 44 0 44 0 4 78 c3 42 6 152 7 245 l2 167 -51 0
-50 0 0 -245z"/>
<path d="M4880 3175 l0 -245 45 0 45 0 0 245 0 245 -45 0 -45 0 0 -245z"/>
<path d="M11565 770 c-3 -5 1 -10 9 -10 8 0 18 5 21 10 3 6 -1 10 -9 10 -8 0
-18 -4 -21 -10z"/>
<path d="M12810 520 c0 -5 5 -10 10 -10 6 0 10 5 10 10 0 6 -4 10 -10 10 -5 0
-10 -4 -10 -10z"/>
</g>
</svg>
