<?xml version="1.0" standalone="no"?>
<!DOCTYPE svg PUBLIC "-//W3C//DTD SVG 20010904//EN"
 "http://www.w3.org/TR/2001/REC-SVG-20010904/DTD/svg10.dtd">
<svg version="1.0" xmlns="http://www.w3.org/2000/svg"
 width="640.000000pt" height="426.000000pt" viewBox="0 0 640.000000 426.000000"
 preserveAspectRatio="xMidYMid meet">
<metadata>
Created by potrace 1.16, written by Peter Selinger 2001-2019
</metadata>
<g transform="translate(0.000000,426.000000) scale(0.100000,-0.100000)"
fill="#000000" stroke="none">
<path d="M4255 4250 c-3 -5 -3 -16 2 -22 4 -7 6 -21 5 -30 -2 -10 1 -18 7 -18
6 0 9 -15 7 -34 -1 -19 1 -33 5 -30 8 4 12 -8 23 -61 5 -22 4 -26 -4 -15 -14
22 -12 9 10 -72 15 -56 17 -74 7 -80 -9 -6 -9 -8 2 -8 8 0 11 -7 8 -20 -3 -10
-1 -20 4 -22 10 -3 22 -81 20 -133 0 -18 3 -25 7 -17 5 6 9 -24 10 -68 1 -62
-1 -79 -11 -74 -8 5 -7 2 2 -9 7 -9 15 -31 16 -47 2 -25 0 -28 -11 -19 -8 7
-17 9 -20 6 -3 -3 -35 10 -70 28 -35 18 -64 32 -64 30 0 -1 26 -29 58 -60 l57
-57 -60 44 c-87 64 -96 67 -42 15 26 -26 47 -52 47 -57 0 -9 14 -14 32 -12 3
1 9 -5 12 -13 3 -8 4 -15 3 -15 -11 0 -87 42 -87 48 0 4 -25 25 -55 47 -30 22
-55 43 -55 47 0 4 -7 8 -15 8 -9 0 -12 -6 -9 -15 6 -16 -11 -21 -20 -6 -3 4
-27 16 -53 26 -26 10 -57 27 -69 39 -40 40 -74 66 -74 56 0 -16 -29 1 -35 21
-5 14 -12 18 -31 13 -14 -4 -24 -2 -24 5 0 6 -6 8 -14 5 -8 -3 -25 2 -39 10
-21 14 -57 13 -57 -1 0 -17 23 -42 33 -36 7 4 7 0 -2 -10 -12 -16 -15 -15 -41
3 -16 11 -32 20 -37 20 -4 0 -19 10 -33 21 -14 11 -18 17 -10 13 13 -7 13 -5
2 8 -7 9 -21 14 -31 11 -11 -3 -30 6 -46 21 -19 18 -35 24 -48 20 -11 -3 -17
-2 -14 2 3 5 -6 10 -19 10 -13 1 -24 -2 -24 -6 0 -11 60 -54 60 -43 1 4 8 -4
16 -19 8 -16 19 -28 25 -28 6 0 7 -5 3 -12 -5 -8 -2 -9 9 -5 10 3 17 2 17 -3
0 -6 6 -10 13 -10 18 -1 48 -46 41 -64 -9 -24 -18 -19 -31 14 -12 33 -41 50
-53 31 -4 -7 -11 -12 -16 -11 -18 3 -34 22 -27 33 3 6 1 7 -5 3 -7 -4 -12 -4
-12 1 0 11 -58 43 -79 43 -9 0 -22 5 -29 12 -9 9 -12 9 -12 0 0 -9 -9 -8 -31
4 -18 9 -45 14 -60 12 -21 -3 -29 0 -30 11 0 11 -2 12 -6 3 -2 -6 -8 -10 -13
-7 -23 14 -68 11 -80 -5 -10 -14 -19 -16 -43 -9 -19 5 -35 5 -42 -1 -7 -5 -14
-7 -18 -4 -3 3 -47 8 -99 10 -138 7 -170 7 -177 -3 -3 -4 -17 -9 -31 -10 -112
-9 -155 -15 -158 -24 -2 -5 -8 -7 -13 -4 -5 3 -17 1 -28 -5 -11 -5 -48 -13
-83 -16 -35 -3 -79 -7 -98 -9 -19 -2 -74 -5 -122 -7 -66 -3 -91 -8 -107 -22
-11 -10 -25 -15 -31 -11 -7 4 -16 1 -21 -6 -4 -8 -25 -14 -48 -14 -23 0 -41
-2 -41 -6 0 -3 -21 -4 -47 -2 -25 3 -56 0 -67 -6 -31 -16 -78 -34 -100 -38
-11 -2 -25 -8 -31 -13 -7 -5 -15 -7 -18 -3 -4 3 -7 1 -7 -5 0 -10 -56 -28 -74
-24 -4 2 -14 -3 -22 -9 -9 -7 -14 -8 -14 -1 0 6 -16 9 -40 7 -22 -2 -40 0 -40
5 0 7 -11 7 -65 0 -5 -1 -1 -6 10 -11 14 -6 8 -7 -21 -3 -43 6 -124 -12 -124
-28 0 -4 -9 -8 -21 -8 -11 0 -17 -4 -14 -10 3 -5 1 -10 -4 -10 -6 0 -11 -7
-11 -16 0 -8 -4 -13 -9 -9 -14 8 -41 -35 -41 -64 0 -14 -12 -38 -27 -53 -26
-27 -26 -28 -5 -28 12 0 22 -4 22 -10 0 -5 -5 -10 -11 -10 -5 0 -7 -4 -4 -10
3 -5 1 -10 -4 -10 -14 0 -14 -47 0 -55 5 -4 20 1 32 12 l21 18 -17 -27 c-20
-31 -13 -60 11 -51 9 4 28 18 42 33 24 25 68 31 54 8 -14 -22 65 1 151 45 11
6 38 12 61 14 38 3 42 1 37 -17 -3 -11 -9 -17 -14 -14 -5 3 -9 0 -9 -5 0 -6 5
-11 11 -11 6 0 8 -7 5 -16 -3 -8 -2 -12 4 -9 6 3 10 2 10 -3 0 -5 -9 -12 -21
-15 -12 -3 -18 -10 -14 -16 3 -6 10 -9 14 -7 4 3 20 7 35 10 16 3 36 12 45 19
24 22 103 60 131 64 14 2 39 5 55 8 17 2 39 5 50 7 11 2 26 9 34 16 11 11 19
8 43 -17 17 -17 36 -31 44 -31 23 0 94 32 94 42 0 5 10 6 21 3 12 -4 19 -3 16
1 -3 5 6 10 19 10 13 1 21 -2 18 -7 -8 -13 7 -10 36 6 25 14 59 21 47 9 -13
-14 18 -32 40 -23 13 5 23 6 23 3 0 -4 6 -2 13 4 18 15 87 32 87 22 0 -5 -16
-12 -35 -16 -65 -12 -53 -27 16 -20 45 5 69 13 79 26 12 15 28 19 80 18 39 0
79 6 100 15 19 9 28 16 21 17 -27 0 2 17 57 33 28 8 52 12 52 8 0 -4 13 -6 30
-3 16 2 27 9 24 14 -4 6 1 8 14 4 11 -4 23 -2 27 4 3 6 11 8 16 4 5 -3 15 -1
22 4 7 5 46 13 87 16 164 15 164 15 187 41 24 27 51 33 59 12 6 -16 73 -10 76
7 0 6 1 18 2 26 2 27 102 32 155 9 26 -11 48 -16 53 -11 5 5 -4 15 -21 22 -17
7 -31 16 -31 21 0 9 28 1 48 -14 8 -7 18 -5 30 6 15 14 23 15 51 4 25 -9 34
-9 39 0 15 24 82 20 82 -4 0 -11 3 -14 8 -8 20 29 112 -15 112 -53 0 -22 3
-24 29 -19 21 5 37 0 57 -16 16 -12 30 -21 31 -19 9 7 33 0 28 -8 -6 -10 -5
-11 34 -15 13 -1 27 -8 32 -16 4 -7 11 -11 14 -7 4 4 32 -7 63 -23 31 -16 61
-29 67 -29 19 0 33 -21 28 -41 -4 -15 -9 -16 -24 -8 -13 6 -19 6 -19 0 0 -6
-8 -7 -17 -4 -16 6 -16 5 -4 -11 8 -10 23 -15 33 -13 10 3 16 2 14 -2 -3 -4
17 -16 44 -26 32 -12 45 -22 37 -27 -8 -5 -6 -8 7 -8 11 0 17 -3 13 -6 -7 -7
12 -28 33 -37 8 -3 1 -6 -17 -6 -17 -1 -35 4 -38 9 -3 6 -11 10 -18 10 -6 0 8
-14 31 -31 44 -32 54 -46 26 -35 -14 5 -15 4 -4 -9 8 -10 9 -15 1 -15 -24 0
-9 -32 20 -42 20 -7 27 -13 19 -18 -7 -4 -9 -13 -6 -19 4 -6 1 -11 -6 -11 -8
0 -6 -5 5 -11 9 -6 15 -14 12 -19 -3 -4 4 -27 14 -50 14 -31 17 -50 10 -72 -5
-19 -4 -39 4 -55 10 -21 8 -27 -8 -39 -16 -12 -17 -17 -7 -23 11 -7 10 -11 -3
-24 -9 -9 -13 -21 -10 -27 3 -5 3 -16 -2 -22 -4 -7 -8 -15 -8 -18 -2 -18 -44
-127 -72 -190 -19 -41 -44 -100 -55 -130 -29 -81 -39 -99 -60 -106 -10 -3 -18
-12 -18 -21 0 -10 -6 -13 -16 -9 -8 3 -12 2 -9 -4 17 -28 -94 15 -117 45 -11
14 -24 25 -30 25 -5 0 -18 10 -29 23 -10 12 -18 18 -19 12 0 -5 15 -27 34 -47
19 -20 37 -51 41 -68 4 -16 10 -30 15 -30 5 0 12 -10 15 -22 4 -13 17 -43 29
-68 25 -48 34 -120 16 -120 -6 0 -9 -4 -6 -9 11 -18 -18 -17 -77 2 -37 12 -55
22 -47 27 8 5 -5 10 -31 15 -67 10 -79 15 -79 32 0 9 -3 13 -7 10 -7 -8 -33
11 -33 25 0 6 7 8 15 4 8 -3 15 -2 15 3 0 4 -30 14 -66 21 -49 10 -70 20 -81
37 -9 13 -23 23 -33 23 -10 0 -23 7 -30 15 -7 8 -16 13 -20 10 -4 -3 -13 2
-20 10 -8 9 -8 15 -2 15 6 0 13 -6 15 -12 4 -10 6 -9 6 1 1 11 4 11 16 1 13
-11 14 -10 10 2 -4 9 -24 23 -47 31 -33 13 -39 20 -35 37 4 15 0 20 -17 20
-12 0 -38 9 -58 19 -19 11 -38 18 -41 15 -3 -3 -16 0 -29 6 -22 11 -22 11 2
-9 14 -11 20 -21 13 -21 -6 0 -20 10 -30 23 -22 29 -49 47 -39 26 4 -8 1 -6
-8 5 -8 10 -27 20 -43 21 -46 5 -93 26 -93 42 0 11 -7 14 -25 11 -14 -3 -28
-1 -31 4 -3 5 -11 5 -18 -1 -10 -8 -22 0 -49 30 -36 39 -38 40 -72 29 -19 -6
-35 -16 -35 -22 0 -5 -16 4 -35 20 -29 26 -40 30 -70 25 -21 -3 -35 -2 -35 5
0 5 -11 9 -25 8 -14 0 -25 -5 -25 -11 0 -5 -7 1 -16 14 -13 18 -23 22 -46 17
-16 -3 -27 -2 -24 3 3 4 -4 18 -15 30 -21 23 -22 58 0 53 15 -3 46 26 37 36
-4 3 -11 0 -16 -7 -7 -12 -11 -11 -25 3 -12 11 -14 20 -7 29 9 11 12 18 12 32
0 3 12 -2 28 -12 25 -17 26 -17 13 0 -12 15 -11 17 10 18 13 1 32 1 42 0 9 -1
17 3 17 9 0 6 6 10 13 9 6 -1 19 1 27 4 43 17 89 24 92 15 2 -6 16 -12 31 -14
18 -2 25 1 21 8 -5 7 -2 8 6 3 18 -11 60 -13 60 -3 0 4 5 8 11 8 5 0 8 -4 5
-8 -3 -5 7 -9 22 -9 36 -1 54 -6 69 -20 7 -6 24 -10 37 -9 14 2 27 -3 30 -11
3 -8 11 -11 16 -8 6 4 17 1 25 -5 8 -7 15 -9 15 -5 0 5 9 0 20 -10 20 -18 21
-18 14 1 -6 16 -5 17 7 7 8 -6 39 -21 69 -33 78 -31 182 -80 199 -93 8 -7 27
-12 44 -13 22 -1 26 1 16 8 -10 7 -5 8 14 3 47 -10 23 9 -67 53 -121 60 -138
65 -148 50 -6 -10 -8 -10 -8 0 0 6 -9 12 -19 12 -11 0 -23 5 -27 12 -5 8 -2 9
9 5 10 -3 17 -3 17 2 0 4 -35 18 -77 31 -43 12 -106 31 -141 42 -34 11 -69 17
-77 15 -7 -3 -15 -1 -18 6 -2 6 -22 11 -45 11 -23 1 -42 4 -42 8 0 7 -88 24
-103 20 -5 -1 -26 2 -48 8 -73 20 -450 32 -554 18 -151 -20 -263 -52 -357
-100 -32 -16 -63 -26 -69 -22 -7 4 -9 3 -6 -3 7 -11 -49 -47 -61 -39 -5 3 -16
-4 -25 -15 -9 -10 -23 -19 -30 -19 -14 0 -46 -23 -85 -62 -12 -12 -22 -18 -22
-12 0 5 6 16 13 23 10 10 9 11 -5 6 -10 -4 -18 -11 -18 -17 0 -5 -5 -6 -11 -2
-8 4 -8 0 0 -15 9 -16 9 -19 -2 -15 -15 5 -69 -40 -59 -50 3 -4 -2 -4 -12 0
-12 5 -17 4 -13 -3 7 -10 -33 -33 -58 -33 -8 0 -15 -7 -15 -16 0 -11 -5 -14
-17 -9 -14 5 -15 3 -6 -6 9 -9 9 -14 0 -23 -17 -17 -47 -27 -47 -15 0 5 -11 2
-25 -7 -13 -8 -28 -13 -34 -10 -14 9 -7 -19 9 -39 14 -16 13 -17 -9 -10 -16 5
-21 4 -17 -4 8 -12 -18 -44 -27 -34 -3 3 -9 -6 -13 -21 -3 -14 -9 -24 -13 -22
-3 2 -13 -3 -21 -12 -13 -14 -12 -15 3 -9 11 4 17 1 17 -9 0 -8 -7 -17 -16
-21 -13 -5 -13 -7 -2 -14 7 -5 9 -9 3 -9 -5 0 -11 -12 -11 -26 -2 -32 -12 -43
-24 -24 -13 21 -24 4 -22 -34 2 -20 -4 -40 -13 -49 -18 -18 -20 -41 -3 -31 8
5 9 2 5 -10 -4 -10 -7 -20 -7 -22 0 -3 -4 -2 -10 1 -6 4 -7 -1 -3 -11 4 -11 3
-15 -5 -10 -6 3 -14 1 -18 -5 -4 -7 -3 -9 3 -6 7 5 10 -7 9 -33 -1 -27 -6 -40
-15 -40 -12 0 -12 -3 -3 -12 19 -19 14 -32 -5 -17 -10 7 -15 9 -11 5 4 -5 2
-16 -5 -24 -9 -13 -9 -14 0 -8 9 5 13 0 13 -14 0 -12 5 -18 10 -15 16 10 12
-6 -7 -29 -10 -12 -14 -18 -9 -14 5 4 16 3 23 -4 11 -9 16 -9 22 1 5 7 14 13
22 14 42 7 53 42 17 57 -19 7 -13 9 27 10 29 0 45 4 37 8 -9 6 -6 12 12 22 14
7 23 17 20 22 -3 4 5 12 18 17 30 12 82 64 86 86 1 6 7 11 12 11 6 1 20 3 33
4 21 2 21 2 -3 9 -25 7 -24 8 8 15 18 4 30 12 26 17 -3 5 -2 9 3 9 4 0 23 14
42 30 35 31 51 37 51 20 0 -5 5 -10 10 -10 6 0 10 7 10 16 0 11 6 14 21 9 19
-6 20 -5 9 15 -9 16 -9 20 -1 15 7 -4 19 -1 27 6 12 9 19 8 36 -7 21 -19 21
-19 9 3 -10 20 -9 22 5 16 11 -4 15 -2 11 4 -3 5 0 10 8 10 8 0 12 -4 9 -8 -2
-4 -1 -10 4 -13 4 -2 9 7 10 21 2 20 -1 24 -16 18 -14 -5 -15 -4 -4 7 11 11
16 10 26 -4 11 -15 13 -15 24 0 7 9 10 11 6 3 -5 -9 -3 -12 4 -7 7 4 12 15 13
24 0 11 2 13 6 4 3 -7 16 -17 30 -23 13 -5 21 -14 18 -19 -4 -7 2 -9 19 -4 16
4 26 2 26 -5 0 -6 -8 -11 -17 -11 -15 0 -16 -2 -3 -10 13 -8 12 -10 -2 -10
-10 0 -18 5 -18 10 0 24 -19 7 -34 -30 -9 -22 -18 -40 -21 -40 -2 0 0 11 5 25
7 18 6 23 -3 19 -7 -2 -14 -14 -14 -26 -2 -21 -41 -60 -53 -53 -3 2 -30 -19
-60 -45 -29 -27 -66 -52 -81 -55 -14 -3 -37 -17 -49 -31 -25 -25 -21 -31 10
-14 16 8 18 7 14 -4 -3 -8 -16 -17 -30 -20 -13 -4 -24 -11 -24 -17 0 -6 7 -8
16 -5 15 6 15 4 0 -18 -19 -30 -20 -37 -4 -33 7 1 14 -8 16 -21 2 -12 8 -22
13 -22 5 0 9 -7 9 -16 0 -12 -5 -14 -17 -9 -17 7 -48 8 -84 2 -9 -2 -35 -19
-58 -39 -26 -22 -50 -35 -59 -31 -11 3 -13 2 -6 -4 6 -4 10 -19 9 -33 -4 -42
5 -53 25 -35 12 11 20 13 25 6 3 -6 1 -11 -5 -11 -6 0 -8 -4 -5 -10 3 -5 -2
-24 -11 -41 -12 -25 -18 -29 -25 -18 -6 9 -9 10 -9 2 0 -6 5 -15 10 -18 8 -5
8 -11 1 -19 -8 -9 -3 -12 19 -10 17 1 30 -3 30 -9 0 -7 5 -4 11 6 8 14 14 16
24 7 10 -8 19 -9 32 -1 10 6 12 11 6 11 -16 0 -17 20 -2 20 7 0 17 -6 23 -13
6 -7 10 -10 9 -8 -4 7 50 32 56 26 3 -4 1 -9 -5 -13 -14 -9 -27 -45 -14 -37
15 9 0 -57 -19 -80 -11 -14 -9 -14 11 4 17 15 24 29 20 40 -5 14 -4 14 12 2
16 -13 17 -12 10 14 -5 22 -4 26 7 20 11 -6 12 -5 2 6 -18 18 -17 69 1 69 15
0 17 -31 2 -41 -4 -4 -3 -10 3 -13 6 -4 11 -2 11 4 0 6 4 9 10 5 5 -3 17 6 26
20 21 32 36 33 21 1 -7 -13 -15 -22 -18 -20 -8 4 -49 -75 -49 -94 0 -23 18
-20 31 6 15 28 39 58 39 47 0 -3 -10 -25 -21 -48 -15 -28 -17 -38 -7 -29 22
17 49 -15 37 -43 -9 -19 -9 -19 -5 2 2 12 -2 24 -10 27 -24 9 -42 -4 -39 -29
1 -13 -4 -26 -11 -29 -8 -3 -14 -1 -14 4 0 6 -4 10 -8 10 -4 0 -8 -8 -8 -19 0
-11 5 -17 13 -14 10 4 11 -1 3 -21 -11 -30 -4 -57 14 -50 18 7 16 -27 -2 -49
-13 -14 -13 -21 -2 -41 7 -15 18 -22 27 -19 15 6 8 18 -10 18 -7 0 -12 7 -12
15 0 8 6 14 13 12 8 -1 11 2 8 7 -3 5 -2 20 3 33 l10 23 1 -25 c0 -14 4 -20 8
-14 12 17 50 11 55 -8 3 -10 1 -21 -4 -24 -12 -7 -12 -44 1 -44 5 0 7 6 4 14
-3 8 -1 17 5 21 7 3 8 0 5 -9 -3 -9 -1 -16 5 -16 6 0 11 7 11 15 0 9 6 12 15
9 12 -5 12 -8 0 -20 -7 -8 -19 -14 -25 -14 -6 0 -8 -5 -5 -10 5 -8 11 -8 19
-1 7 6 16 8 20 4 4 -4 9 3 13 15 3 12 9 22 13 22 12 0 18 -59 6 -64 -6 -3 -5
-5 2 -5 7 -1 10 -6 6 -13 -4 -7 -3 -8 5 -4 6 4 9 12 6 17 -4 5 -1 9 4 9 6 0
11 8 12 18 0 14 2 14 8 -3 5 -11 6 -26 4 -33 -3 -7 3 -12 16 -12 14 0 19 5 15
15 -4 8 -10 15 -15 15 -5 0 -9 4 -9 8 0 4 9 8 20 8 11 0 20 -7 20 -16 0 -13 1
-13 10 0 9 13 10 13 10 0 0 -8 13 -21 30 -28 26 -12 29 -16 19 -35 -10 -22
-10 -22 10 1 26 30 34 28 29 -7 -2 -17 -1 -28 4 -25 4 3 8 14 8 24 0 14 5 18
18 13 14 -5 15 -3 5 8 -18 18 -16 34 1 20 11 -9 15 -9 19 1 3 7 6 1 6 -14 1
-16 6 -28 12 -28 5 0 7 6 3 13 -6 9 -4 9 8 -1 10 -8 19 -9 22 -3 3 5 2 11 -2
13 -5 1 -12 23 -15 48 -5 38 -5 41 5 20 10 -23 12 -30 16 -54 1 -5 9 -3 17 4
13 11 14 10 10 -1 -4 -10 2 -15 17 -16 17 -2 19 0 8 7 -12 7 -12 13 0 37 7 15
13 31 12 35 -1 5 4 8 11 8 7 0 13 9 13 20 0 27 -10 25 -26 -4 -7 -14 -18 -22
-26 -19 -8 3 -14 -1 -14 -7 0 -7 -11 -1 -24 15 -13 15 -26 23 -28 19 -3 -5 -3
-3 -1 4 3 15 -21 44 -30 36 -3 -3 -3 4 0 15 3 12 9 24 14 27 5 3 6 -1 4 -9 -3
-7 5 -25 17 -39 13 -14 28 -34 35 -44 10 -16 11 -16 7 -1 -4 9 -1 17 5 17 6 0
11 -4 11 -10 0 -5 5 -10 11 -10 8 0 8 4 -1 15 -15 18 -18 84 -3 93 5 4 9 15 7
25 -2 18 11 23 21 7 3 -5 1 -10 -5 -10 -6 0 -9 -4 -5 -9 3 -5 1 -12 -5 -16
-16 -10 -12 -41 8 -56 14 -11 15 -11 5 1 -7 8 -13 19 -13 26 0 15 44 11 65 -6
10 -8 15 -9 15 -1 0 6 -4 11 -10 11 -5 0 -10 5 -10 11 0 5 4 8 9 5 5 -3 12 1
15 9 5 13 2 14 -15 4 -11 -6 -21 -9 -22 -7 -23 45 -36 62 -46 60 -16 -3 -39
15 -53 42 -10 19 -9 19 15 -3 14 -12 30 -20 35 -17 6 3 13 -1 16 -10 4 -11 13
-14 31 -10 14 4 25 2 25 -4 0 -5 4 -10 9 -10 5 0 9 6 8 13 0 6 1 27 1 45 2 30
4 32 17 18 17 -17 20 -30 5 -21 -11 7 -13 -24 -4 -49 3 -9 13 -16 20 -16 8 0
17 -7 20 -15 4 -8 10 -12 15 -9 5 3 0 13 -12 23 -29 24 -19 68 19 84 19 8 26
18 24 30 -2 10 -1 30 2 43 5 20 9 22 20 12 8 -7 12 -17 9 -23 -2 -5 5 1 17 14
24 28 21 47 -7 43 -12 -2 -23 4 -27 13 -3 9 -2 13 4 10 6 -3 10 -1 10 5 0 21
-28 40 -60 40 -29 0 -30 1 -15 16 16 16 64 16 148 -1 15 -3 45 -7 66 -8 22 -1
37 -5 35 -8 -4 -7 10 -8 169 -13 l119 -4 88 44 c49 23 92 49 97 57 4 8 22 21
38 30 84 43 171 196 195 343 9 53 -2 182 -17 193 -12 9 -16 51 -4 51 5 0 21
-4 35 -10 38 -14 34 11 -5 33 -18 10 -29 20 -26 23 10 10 42 -14 137 -106 52
-51 107 -96 122 -102 14 -5 32 -22 38 -38 13 -32 40 -60 40 -42 0 6 -4 14 -10
17 -5 3 -10 14 -9 23 0 13 4 11 17 -8 32 -46 74 -90 82 -85 4 3 14 -5 23 -18
8 -12 29 -37 48 -54 29 -29 30 -33 12 -33 -11 0 -28 -12 -38 -26 -21 -32 -52
-64 -63 -64 -10 0 -42 -33 -42 -42 0 -3 17 0 38 8 46 16 85 19 62 4 -8 -5 -10
-10 -4 -10 6 0 21 12 35 26 18 20 30 24 52 20 17 -3 26 -2 22 4 -4 6 1 7 11 3
11 -4 15 -2 11 4 -10 15 14 22 41 12 21 -8 22 -11 8 -24 -8 -8 -27 -15 -41
-15 -17 0 -25 -5 -23 -12 3 -8 27 -14 64 -16 81 -3 107 -10 101 -27 -3 -7 1
-16 10 -19 9 -4 13 -9 10 -13 -4 -3 -12 -1 -19 4 -7 6 -35 14 -62 18 -27 3
-55 9 -62 12 -8 3 -14 0 -14 -6 0 -6 11 -13 25 -17 14 -3 25 -11 25 -16 0 -6
7 -8 15 -4 8 3 15 2 15 -2 0 -5 15 -14 34 -20 37 -14 126 -97 126 -118 0 -8 5
-14 11 -14 6 0 8 7 5 16 -3 8 -2 12 4 9 14 -9 12 -32 -2 -38 -7 -3 -4 -6 7 -6
14 -1 16 -4 8 -12 -9 -9 -6 -17 8 -33 16 -16 19 -29 13 -60 -4 -27 -3 -36 5
-32 7 4 11 -1 11 -13 0 -12 4 -21 10 -21 5 0 12 -11 16 -25 3 -14 9 -25 13
-25 8 0 35 -48 36 -65 0 -5 5 -16 10 -24 4 -8 22 -40 38 -70 16 -31 36 -63 43
-72 8 -8 14 -19 14 -23 0 -7 17 -31 61 -84 5 -7 7 -17 4 -22 -3 -6 -1 -10 4
-10 6 0 11 -7 11 -15 0 -8 4 -15 8 -15 4 0 13 -15 20 -32 6 -18 25 -48 42 -66
16 -18 30 -40 30 -48 0 -8 5 -14 10 -14 6 0 10 -9 10 -20 0 -11 5 -20 10 -20
6 0 18 -17 28 -37 9 -21 21 -41 26 -44 5 -4 6 -14 3 -24 -4 -10 -3 -14 4 -10
6 4 13 -2 16 -14 3 -12 9 -21 14 -21 5 0 9 -11 9 -25 0 -14 5 -25 10 -25 6 0
10 -9 10 -19 0 -11 5 -23 11 -26 6 -4 8 -13 5 -20 -3 -8 -2 -15 2 -17 7 -3 52
-121 57 -148 1 -8 5 -22 8 -30 3 -8 7 -26 9 -40 l3 -25 828 -3 827 -2 0 2130
0 2130 -1069 0 c-703 0 -1072 -3 -1076 -10z m-1469 -2050 c8 0 14 -4 14 -9 0
-5 14 -9 32 -8 26 2 32 -2 33 -20 2 -32 12 -38 32 -22 17 13 17 12 2 -6 -9
-11 -19 -29 -23 -39 -5 -15 -4 -17 7 -8 8 7 17 9 20 5 4 -3 7 -2 7 4 0 6 6 13
13 16 10 4 13 -1 10 -17 -3 -12 -22 -31 -46 -44 -23 -13 -36 -17 -29 -11 17
18 15 30 -4 22 -10 -4 -17 1 -21 16 -4 17 -23 31 -23 17 0 -2 -3 -11 -6 -19
-3 -10 0 -14 12 -14 11 1 18 -6 19 -20 2 -27 -18 -20 -35 13 -8 13 -16 20 -19
15 -3 -4 -21 -6 -38 -4 -18 3 -31 9 -28 13 3 5 -2 15 -10 23 -9 10 -15 34 -15
63 0 26 3 45 6 41 3 -3 20 1 37 8 27 12 32 11 35 -1 2 -8 10 -14 18 -14z
m-122 11 c4 -5 8 -33 11 -63 3 -29 8 -62 11 -73 3 -11 2 -15 -3 -9 -4 6 -15
13 -24 16 -11 4 -15 0 -15 -16 1 -14 -5 -21 -17 -19 -10 0 -16 -4 -14 -10 10
-26 -12 -57 -40 -57 -21 0 -24 -3 -13 -9 8 -6 17 -8 20 -6 3 2 5 -8 5 -21 0
-13 -3 -24 -6 -24 -4 0 -9 -7 -12 -14 -4 -10 -1 -13 7 -10 14 5 40 -42 31 -57
-4 -5 -1 -9 6 -9 7 0 5 -8 -6 -20 -10 -11 -13 -20 -7 -20 15 0 31 31 24 49 -3
8 7 3 22 -10 22 -21 26 -32 23 -62 -2 -21 0 -40 4 -43 5 -3 9 0 9 6 0 6 4 9 9
5 5 -3 13 0 17 6 4 8 3 9 -4 5 -7 -4 -12 -4 -13 1 -6 60 -5 60 26 58 27 -2 30
-6 27 -34 -2 -17 2 -39 8 -48 10 -16 10 -15 5 5 -5 16 -2 22 10 22 13 0 16 6
12 25 l-4 26 19 -21 c19 -21 34 -27 23 -11 -3 5 4 12 14 16 13 4 18 12 14 21
-3 10 1 17 13 20 12 3 27 26 39 57 12 32 29 56 43 62 23 10 30 25 11 25 -18 0
-39 28 -39 52 0 15 9 27 26 35 30 14 55 7 47 -13 -9 -23 15 -16 28 9 15 27 30
38 47 32 6 -2 12 -1 12 3 0 5 7 17 16 28 15 18 15 18 11 -8 -2 -17 0 -25 6
-21 7 4 8 -7 4 -31 -3 -22 -2 -34 4 -31 5 4 9 14 9 24 0 10 7 18 16 18 12 0
15 -8 12 -28 -3 -18 0 -25 8 -22 14 5 8 -34 -7 -43 -5 -3 -9 -11 -9 -17 0 -7
5 -4 11 6 6 9 14 15 20 12 14 -9 11 -45 -3 -45 -10 0 -10 -2 0 -8 12 -8 10
-112 -5 -170 -9 -40 -43 -102 -55 -102 -6 0 -6 6 1 14 10 12 8 17 -6 25 -16 8
-24 4 -48 -25 -33 -40 -70 -47 -60 -11 5 19 4 20 -5 4 -6 -9 -8 -22 -4 -28 3
-6 0 -15 -7 -20 -23 -14 -32 -10 -18 9 12 15 12 16 -2 5 -9 -7 -20 -9 -25 -5
-5 4 -2 -2 7 -13 17 -21 22 -55 7 -55 -4 0 -8 7 -8 15 0 9 -6 12 -15 9 -8 -4
-15 -13 -15 -21 0 -8 -4 -12 -9 -8 -6 3 -15 -4 -21 -15 -9 -16 -13 -18 -24 -8
-10 9 -11 17 -4 26 6 6 8 12 4 12 -3 0 -9 0 -13 0 -5 0 -9 -9 -9 -20 -3 -47
-4 -51 -14 -45 -5 3 -10 1 -10 -4 0 -6 -5 -11 -10 -11 -6 0 -8 11 -4 26 7 28
-19 56 -44 46 -11 -4 -11 -6 0 -13 8 -5 8 -9 2 -9 -6 0 -11 -11 -11 -25 0 -44
-22 -49 -26 -6 -1 24 -41 30 -51 9 -4 -7 -4 4 -2 25 5 39 -8 51 -19 16 -4 -11
-9 -18 -13 -15 -3 3 -15 0 -27 -8 -21 -14 -65 -12 -65 3 0 4 -7 8 -15 9 -8 1
-22 3 -30 4 -8 1 -15 8 -15 16 0 9 -7 13 -19 9 -12 -3 -18 1 -17 12 0 9 -5 15
-11 13 -15 -2 -17 14 -3 23 6 4 6 15 0 31 -6 14 -8 30 -4 35 3 5 3 9 0 9 -3 0
-10 -10 -17 -21 -9 -17 -8 -20 3 -14 7 5 9 4 5 0 -16 -18 -35 -13 -29 8 4 16
2 19 -13 13 -15 -5 -16 -4 -6 8 9 10 9 16 1 21 -6 4 -8 15 -5 26 4 11 2 19 -5
19 -6 0 -8 5 -4 12 5 7 2 9 -8 6 -11 -5 -15 0 -15 20 0 50 -3 63 -13 57 -14
-9 -1 48 14 57 5 4 24 5 41 3 24 -4 22 -2 -8 6 -35 10 -36 12 -20 25 17 13 17
13 -2 14 -21 0 -45 17 -45 31 0 4 8 5 18 2 17 -4 21 4 25 59 1 9 5 14 9 12 4
-3 8 1 8 9 0 20 57 40 67 24 11 -18 12 -37 2 -37 -5 0 -9 7 -9 16 0 14 -3 14
-15 4 -11 -9 -15 -9 -15 -1 0 7 -5 9 -10 6 -16 -10 8 -35 31 -35 11 0 19 -4
19 -8 0 -5 17 -14 37 -20 32 -10 41 -9 68 8 16 11 25 20 18 20 -6 0 -15 10
-18 21 -5 16 -9 18 -15 9 -6 -10 -13 -8 -31 9 -12 11 -30 21 -40 21 -20 0 -34
29 -20 43 5 5 15 0 25 -14 9 -13 16 -18 16 -12 0 7 -4 15 -10 18 -5 3 -10 13
-10 22 0 14 3 14 21 -3 16 -15 22 -16 28 -5 5 8 14 10 20 7 6 -4 11 -3 11 2 0
5 12 14 27 21 24 11 25 10 13 -4 -11 -13 -10 -15 3 -9 12 4 20 -2 26 -19 13
-34 28 -41 34 -17 3 13 1 18 -6 13 -7 -4 -8 0 -4 11 4 11 3 15 -4 10 -8 -4 -9
1 -4 17 11 34 37 50 49 30z m-444 -141 c12 0 12 -3 -2 -14 -10 -7 -15 -16 -11
-19 3 -4 0 -14 -7 -23 -11 -13 -11 -17 0 -24 11 -7 10 -13 -4 -34 -12 -19 -13
-26 -4 -26 9 0 14 -19 16 -58 5 -115 7 -122 22 -122 13 0 13 -1 0 -10 -13 -8
-12 -10 3 -10 10 0 15 -4 12 -10 -3 -5 -1 -10 5 -10 6 0 9 -4 5 -9 -3 -5 2
-16 10 -24 8 -9 15 -21 15 -27 0 -7 7 -9 16 -6 12 4 15 2 10 -9 -3 -10 1 -15
12 -15 14 0 15 -2 2 -10 -12 -7 -9 -14 15 -39 61 -61 66 -71 35 -71 -11 0 -20
5 -20 11 0 7 -9 9 -24 5 -24 -6 -53 15 -43 31 3 4 -2 14 -10 22 -13 12 -14 11
-8 -9 5 -15 4 -20 -4 -16 -6 4 -11 14 -11 22 0 8 -4 13 -9 9 -5 -3 -16 3 -23
13 -7 10 -21 21 -31 25 -10 4 -15 11 -12 17 4 6 -6 10 -24 10 -17 0 -31 5 -31
11 0 6 7 9 15 5 21 -8 19 7 -4 24 -11 7 -18 17 -15 22 3 4 0 8 -5 8 -6 0 -11
4 -11 10 0 5 7 7 15 4 12 -5 13 -2 8 12 -13 34 -33 69 -33 58 0 -6 -7 -11 -15
-11 -24 0 -18 17 10 27 14 5 25 12 25 15 0 4 -4 4 -9 1 -5 -3 -11 3 -14 14 -3
11 -9 19 -14 18 -13 -5 -16 6 -9 30 4 12 15 22 24 22 13 0 13 -2 -3 -14 -17
-12 -17 -13 9 -18 21 -4 25 -2 21 11 -6 22 10 45 28 38 11 -4 13 0 9 15 -3 12
-7 16 -12 8 -5 -8 -10 -7 -19 4 -8 10 -9 16 -1 21 14 9 13 25 -3 19 -8 -3 -13
3 -13 16 0 23 1 23 26 10 13 -7 21 -7 25 0 4 6 16 8 28 4 l22 -6 -22 21 c-13
12 -23 26 -23 31 0 6 10 8 23 6 12 -3 29 -5 37 -6z"/>
<path d="M2442 1372 c26 -17 26 -18 8 -30 -17 -10 -18 -9 -13 6 4 14 2 13 -10
-3 -20 -24 -22 -38 -4 -32 6 2 18 -5 25 -17 12 -20 13 -20 7 7 -4 21 -2 27 11
27 10 0 14 -3 11 -7 -7 -7 11 -33 23 -33 4 0 10 9 13 19 6 24 38 18 83 -16 17
-12 34 -20 39 -15 5 4 5 2 1 -5 -3 -6 -2 -14 4 -18 5 -3 10 -16 10 -28 1 -19
2 -19 10 -6 12 21 15 68 6 96 -6 18 -4 21 14 16 17 -4 19 -8 8 -15 -8 -5 -2
-6 16 -2 22 5 27 4 21 -6 -5 -8 -4 -11 3 -6 6 4 9 13 5 21 -12 32 83 12 123
-26 14 -13 24 -17 29 -10 3 6 1 11 -4 11 -6 0 -11 7 -11 15 0 8 -5 15 -11 15
-5 0 -7 5 -4 10 8 13 -2 14 -172 11 -29 -1 -72 6 -95 14 -24 8 -54 14 -68 14
-24 -1 -24 -1 4 -9 30 -9 96 -51 96 -61 0 -4 -15 1 -34 10 -18 9 -32 19 -30
23 2 3 -6 4 -18 1 -13 -3 -20 -2 -16 2 10 10 -56 45 -84 45 -22 0 -22 -1 4
-18z"/>
</g>
</svg>
