<svg width="36" height="32" viewBox="0 0 36 32" fill="none" xmlns="http://www.w3.org/2000/svg">
<path d="M25.1401 21.5578L27.1398 19.5581C27.4522 19.2456 27.9959 19.4643 27.9959 19.9143V29.0004C27.9959 30.6564 26.6523 32 24.9963 32H2.99956C1.34355 32 0 30.6564 0 29.0004V7.00366C0 5.34765 1.34355 4.0041 2.99956 4.0041H20.0908C20.5345 4.0041 20.7595 4.54152 20.447 4.86022L18.4473 6.85993C18.3536 6.95367 18.2286 7.00366 18.0911 7.00366H2.99956V29.0004H24.9963V21.9077C24.9963 21.7765 25.0463 21.6515 25.1401 21.5578ZM34.9261 8.94713L18.516 25.3572L12.8669 25.9821C11.2296 26.1634 9.83606 24.7823 10.0173 23.1325L10.6422 17.4834L27.0523 1.07328C28.4833 -0.35776 30.7955 -0.35776 32.2203 1.07328L34.9199 3.77288C36.3509 5.20393 36.3509 7.52234 34.9261 8.94713ZM28.752 10.8781L25.1213 7.24738L13.5105 18.8644L13.0543 22.9451L17.135 22.4889L28.752 10.8781ZM32.8014 5.89757L30.1018 3.19797C29.8456 2.94176 29.4269 2.94176 29.177 3.19797L27.246 5.12894L30.8767 8.75965L32.8077 6.82869C33.0577 6.56623 33.0577 6.15379 32.8014 5.89757Z" fill="#F0C02E"/>
</svg>
