<svg width="35" height="29" viewBox="0 0 35 29" fill="none" xmlns="http://www.w3.org/2000/svg">
<path d="M17.5 28.7179L16.7045 12.7635L11.1364 11.1681H0V7.97721H9.54545L20.6818 0L22.75 2.43305L16.1477 7.17949H20.6818L33.0909 0L35 2.23362L21.4773 12.7635L20.6818 28.7179H17.5ZM7.95455 6.38177C7.07955 6.38177 6.33076 6.06906 5.70818 5.44365C5.08455 4.8193 4.77273 4.06838 4.77273 3.19088C4.77273 2.31339 5.08455 1.56247 5.70818 0.938119C6.33076 0.312706 7.07955 0 7.95455 0C8.82955 0 9.57833 0.312706 10.2009 0.938119C10.8245 1.56247 11.1364 2.31339 11.1364 3.19088C11.1364 4.06838 10.8245 4.8193 10.2009 5.44365C9.57833 6.06906 8.82955 6.38177 7.95455 6.38177Z" fill="white"/>
</svg>
