<svg width="49" height="49" viewBox="0 0 49 49" fill="none" xmlns="http://www.w3.org/2000/svg">
<path d="M48.4821 2.56283C48.7677 2.28157 48.9283 1.89994 48.9286 1.5019C48.9288 1.10385 48.7688 0.721995 48.4836 0.440335C48.1985 0.158675 47.8116 0.00028168 47.408 3.75333e-07C47.0044 -0.000280929 46.6173 0.157572 46.3317 0.438834L36.7599 9.87683V1.50083C36.7599 1.10301 36.5997 0.721479 36.3145 0.440174C36.0293 0.15887 35.6424 0.000834364 35.2391 0.000834364C34.8358 0.000834364 34.4489 0.15887 34.1637 0.440174C33.8785 0.721479 33.7183 1.10301 33.7183 1.50083V10.1318C28.9157 7.77383 22.7991 9.11183 19.6054 13.7498L1.09134 40.5878C-0.210456 42.4778 0.0389531 44.9978 1.68749 46.6088C3.36035 48.2408 5.99132 48.4658 7.93184 47.1428L35.0931 28.5908C37.2486 27.1302 38.7972 24.9513 39.4543 22.4546C40.1115 19.9579 39.833 17.3112 38.67 15.0008H47.4054C47.8087 15.0008 48.1956 14.8428 48.4808 14.5615C48.766 14.2802 48.9262 13.8987 48.9262 13.5008C48.9262 13.103 48.766 12.7215 48.4808 12.4402C48.1956 12.1589 47.8087 12.0008 47.4054 12.0008H38.9103L48.4791 2.56283H48.4821ZM22.1421 15.4148C24.9464 11.3498 30.8562 10.7918 34.4057 14.2568C35.2289 15.0576 35.8625 16.0278 36.2613 17.0982C36.66 18.1686 36.8141 19.3127 36.7124 20.4486C36.6106 21.5846 36.2557 22.6843 35.6729 23.6692C35.0901 24.6541 34.2939 25.4998 33.3412 26.1458L6.17989 44.6978C5.82908 44.938 5.4042 45.0496 4.97875 45.0135C4.5533 44.9773 4.15405 44.7956 3.85005 44.4998C3.55225 44.2108 3.36686 43.8277 3.32628 43.4176C3.2857 43.0074 3.39249 42.5962 3.62801 42.2558L22.1421 15.4148Z" fill="white"/>
</svg>
