<svg width="56" height="39" viewBox="0 0 56 39" fill="none" xmlns="http://www.w3.org/2000/svg">
<path d="M32.8997 11.9375C32.8997 11.5625 33.0355 11.1767 33.3072 10.78C33.5772 10.385 33.8789 10.125 34.2122 10C35.4205 9.58333 36.6289 9.27083 37.8372 9.0625C39.0455 8.85417 40.3164 8.75 41.6497 8.75C42.483 8.75 43.3064 8.80167 44.1197 8.905C44.9314 9.01 45.733 9.14583 46.5247 9.3125C46.8997 9.39583 47.2222 9.60417 47.4922 9.9375C47.7639 10.2708 47.8997 10.6458 47.8997 11.0625C47.8997 11.7708 47.6705 12.2917 47.2122 12.625C46.7539 12.9583 46.1705 13.0417 45.4622 12.875C44.8789 12.75 44.2647 12.6558 43.6197 12.5925C42.973 12.5308 42.3164 12.5 41.6497 12.5C40.5664 12.5 39.5039 12.6042 38.4622 12.8125C37.4205 13.0208 36.4205 13.2917 35.4622 13.625C34.7122 13.9167 34.098 13.8958 33.6197 13.5625C33.1397 13.2292 32.8997 12.6875 32.8997 11.9375ZM32.8997 25.6875C32.8997 25.3125 33.0355 24.9267 33.3072 24.53C33.5772 24.135 33.8789 23.875 34.2122 23.75C35.4205 23.3333 36.6289 23.0208 37.8372 22.8125C39.0455 22.6042 40.3164 22.5 41.6497 22.5C42.483 22.5 43.3064 22.5517 44.1197 22.655C44.9314 22.76 45.733 22.8958 46.5247 23.0625C46.8997 23.1458 47.2222 23.3542 47.4922 23.6875C47.7639 24.0208 47.8997 24.3958 47.8997 24.8125C47.8997 25.5208 47.6705 26.0417 47.2122 26.375C46.7539 26.7083 46.1705 26.7917 45.4622 26.625C44.8789 26.5 44.2647 26.4058 43.6197 26.3425C42.973 26.2808 42.3164 26.25 41.6497 26.25C40.5664 26.25 39.5039 26.3442 38.4622 26.5325C37.4205 26.7192 36.4205 26.9792 35.4622 27.3125C34.7122 27.6042 34.098 27.5933 33.6197 27.28C33.1397 26.9683 32.8997 26.4375 32.8997 25.6875ZM32.8997 18.8125C32.8997 18.4375 33.0355 18.0517 33.3072 17.655C33.5772 17.26 33.8789 17 34.2122 16.875C35.4205 16.4583 36.6289 16.1458 37.8372 15.9375C39.0455 15.7292 40.3164 15.625 41.6497 15.625C42.483 15.625 43.3064 15.6767 44.1197 15.78C44.9314 15.885 45.733 16.0208 46.5247 16.1875C46.8997 16.2708 47.2222 16.4792 47.4922 16.8125C47.7639 17.1458 47.8997 17.5208 47.8997 17.9375C47.8997 18.6458 47.6705 19.1667 47.2122 19.5C46.7539 19.8333 46.1705 19.9167 45.4622 19.75C44.8789 19.625 44.2647 19.5308 43.6197 19.4675C42.973 19.4058 42.3164 19.375 41.6497 19.375C40.5664 19.375 39.5039 19.4792 38.4622 19.6875C37.4205 19.8958 36.4205 20.1667 35.4622 20.5C34.7122 20.7917 34.098 20.7708 33.6197 20.4375C33.1397 20.1042 32.8997 19.5625 32.8997 18.8125ZM14.1497 30C16.108 30 18.0147 30.2183 19.8697 30.655C21.723 31.0933 23.5664 31.75 25.3997 32.625V8C23.6914 7 21.8789 6.25 19.9622 5.75C18.0455 5.25 16.108 5 14.1497 5C12.6497 5 11.1605 5.14583 9.68221 5.4375C8.20221 5.72917 6.77471 6.16667 5.39971 6.75V31.5C6.85804 31 8.30638 30.625 9.74471 30.375C11.1814 30.125 12.6497 30 14.1497 30ZM30.3997 32.625C32.233 31.75 34.0772 31.0933 35.9322 30.655C37.7855 30.2183 39.6914 30 41.6497 30C43.1497 30 44.6189 30.125 46.0572 30.375C47.4939 30.625 48.9414 31 50.3997 31.5V6.75C49.0247 6.16667 47.598 5.72917 46.1197 5.4375C44.6397 5.14583 43.1497 5 41.6497 5C39.6914 5 37.7539 5.25 35.8372 5.75C33.9205 6.25 32.108 7 30.3997 8V32.625ZM27.8997 38.6875C27.3164 38.6875 26.7647 38.615 26.2447 38.47C25.723 38.3233 25.233 38.125 24.7747 37.875C23.1497 36.9167 21.4414 36.1983 19.6497 35.72C17.858 35.24 16.0247 35 14.1497 35C12.3997 35 10.6814 35.2292 8.99471 35.6875C7.30638 36.1458 5.69138 36.7917 4.14971 37.625C3.27471 38.0833 2.43138 38.0625 1.61971 37.5625C0.806378 37.0625 0.399712 36.3333 0.399712 35.375V5.25C0.399712 4.79167 0.514712 4.35417 0.744712 3.9375C0.973045 3.52083 1.31638 3.20833 1.77471 3C3.69138 2 5.69138 1.25 7.77471 0.75C9.85804 0.25 11.983 0 14.1497 0C16.5664 0 18.9314 0.3125 21.2447 0.9375C23.5564 1.5625 25.7747 2.5 27.8997 3.75C30.0247 2.5 32.2439 1.5625 34.5572 0.9375C36.8689 0.3125 39.233 0 41.6497 0C43.8164 0 45.9414 0.25 48.0247 0.75C50.108 1.25 52.108 2 54.0247 3C54.483 3.20833 54.8272 3.52083 55.0572 3.9375C55.2855 4.35417 55.3997 4.79167 55.3997 5.25V35.375C55.3997 36.3333 54.9939 37.0625 54.1822 37.5625C53.3689 38.0625 52.5247 38.0833 51.6497 37.625C50.108 36.7917 48.493 36.1458 46.8047 35.6875C45.118 35.2292 43.3997 35 41.6497 35C39.7747 35 37.9414 35.24 36.1497 35.72C34.358 36.1983 32.6497 36.9167 31.0247 37.875C30.5664 38.125 30.0772 38.3233 29.5572 38.47C29.0355 38.615 28.483 38.6875 27.8997 38.6875Z" fill="white"/>
</svg>
