<svg width="120" height="120" xmlns="http://www.w3.org/2000/svg" xmlns:xlink="http://www.w3.org/1999/xlink"><defs><path id="a" d="M7.998.24L.232 44.927h61.15L53.615.241"/><path id="c" d="M7.998.24L.232 44.927h61.15L53.615.241"/><path id="e" d="M7.998.24L.232 44.927h61.15L53.615.241"/><path id="g" d="M7.998.24L.232 44.927h61.15L53.615.241"/><path id="i" d="M7.998.24L.232 44.927h61.15L53.615.241"/><path id="k" d="M7.998.24L.232 44.927h61.15L53.615.241"/><path id="m" d="M7.998.24L.232 44.927h61.15L53.615.241"/><path id="o" d="M7.998.24L.232 44.927h61.15L53.615.241"/><path id="q" d="M7.998.24L.232 44.927h61.15L53.615.241"/><path id="s" d="M7.998.24L.232 44.927h61.15L53.615.241"/><path id="u" d="M7.998.24L.232 44.927h61.15L53.615.241"/><path id="w" d="M7.998.24L.232 44.927h61.15L53.615.241"/><path id="y" d="M7.998.24L.232 44.927h61.15L53.615.241"/><path id="A" d="M7.998.24L.232 44.927h61.15L53.615.241"/><path id="C" d="M7.998.24L.232 44.927h61.15L53.615.241"/><path id="E" d="M7.998.24L.232 44.927h61.15L53.615.241"/><path id="G" d="M7.998.24L.232 44.927h61.15L53.615.241"/><path id="I" d="M6.603 0L0 44.686h52L45.396 0"/><path id="K" d="M.183.38h6.19V41.76H.182z"/><path id="M" d="M0 0h6.045v41.378H0z"/><path id="O" d="M.032.38h6.036V41.76H.032z"/></defs><g fill="none" fill-rule="evenodd"><path fill="#FF003E" d="M0 0h120v120H0z"/><g fill="#FFF"><path d="M47.73 69.029h.61c.785 0 .982-.476 1.014-.724.036-.26-.079-.71-.822-.71h-.61l-.193 1.434zm-.653-2.248h1.579c.591 0 .945.101 1.208.318.264.215.525.597.453 1.137a1.817 1.817 0 01-.646 1.124c-.341.266-.642.331-.906.388l1.164 1.734h-1.155l-1.12-1.798h-.013l-.241 1.798h-.953l.63-4.7zM52.29 65.853l1.677-.845.286.667-1.688.763-.274-.585zm-.68.928h2.765l-.11.813h-1.811l-.155 1.15h1.736l-.109.813H52.19l-.149 1.112h1.814l-.11.814H50.98l.632-4.702zM57.33 69.087h3.354l-.014.1c-.18 1.342-1.604 2.39-3.041 2.39-1.473 0-2.625-1.036-2.436-2.446.186-1.385 1.613-2.445 3.064-2.445 1.291 0 2.122.8 2.296 1.474h-1.14c-.18-.312-.604-.661-1.286-.661-1.16 0-1.886.902-1.985 1.638-.095.719.374 1.627 1.596 1.627.633 0 1.265-.317 1.637-.864H57.22l.11-.813zM62.175 66.781h.951l-.63 4.702h-.95zM66.524 70.764c.98 0 1.84-.756 1.957-1.627.12-.902-.552-1.638-1.518-1.638s-1.834.736-1.957 1.638c-.116.871.538 1.627 1.518 1.627m.55-4.078c1.458 0 2.544 1.066 2.357 2.458-.18 1.347-1.536 2.433-3.016 2.433-1.478 0-2.542-1.086-2.362-2.433.188-1.392 1.56-2.458 3.02-2.458M70.69 66.766h1.065l1.64 3.363h.015l.452-3.363h.935l-.62 4.624h-1.046l-1.66-3.362h-.015l-.45 3.362h-.937zM24.948 72.326h2.457l3.78 8.431h.033l1.04-8.431h2.16l-1.433 11.597h-2.41l-3.828-8.43h-.031l-1.04 8.43h-2.159zM42.487 79.53c.198-1.61-.902-2.803-2.232-2.803-1.104 0-2.724.94-2.951 2.787-.206 1.671.924 2.754 2.267 2.754 1.553 0 2.742-1.338 2.916-2.738m-7.313-.016c.33-2.675 2.777-4.729 5.321-4.729 2.512 0 4.46 1.99 4.125 4.697-.357 2.896-2.823 4.727-5.288 4.727-2.64 0-4.47-2.165-4.158-4.695M54.429 75.087l-1.09 8.836h-1.952l.11-.892h-.033c-.41.477-1.074 1.178-2.434 1.178-1.616 0-2.431-.796-2.804-1.401-.54-.94-.363-2.372-.273-3.103l.57-4.618h2.128l-.555 4.505c-.09.717-.33 2.675 1.526 2.675 1.344 0 1.947-1.259 2.12-2.658l.559-4.522h2.128zM55.531 75.087h2.304l1.42 5.859h.048l2.738-5.859h2.338l-4.691 8.836h-1.663zM71.42 78.748c-.066-1.416-1.09-2.068-2.146-2.068-.785 0-2.165.429-2.768 2.068h4.914zm-5.06 1.705c.026.573.706 1.814 2.225 1.814.944 0 1.697-.398 2.188-1.131h2.24c-.708 1.592-2.587 3.073-4.67 3.073-2.64 0-4.427-2.102-4.11-4.679.31-2.5 2.528-4.793 5.265-4.793 2.816 0 4.295 2.42 4.02 4.65-.05.414-.161.78-.259 1.066H66.36zM75.916 72.141h2.128l-1.453 11.782h-2.13zM79.917 72.141h2.127l-1.453 11.782h-2.128zM89.824 78.748c-.065-1.416-1.09-2.068-2.146-2.068-.784 0-2.166.429-2.768 2.068h4.914zm-5.06 1.705c.027.573.705 1.814 2.225 1.814.944 0 1.697-.398 2.19-1.131h2.239c-.71 1.592-2.588 3.073-4.67 3.073-2.639 0-4.428-2.102-4.111-4.679.31-2.5 2.529-4.793 5.267-4.793 2.815 0 4.293 2.42 4.019 4.65-.053.414-.162.78-.261 1.066h-6.899zM93.4 79.484a.953.953 0 01.922-.81h2.586c.45 0 .776.364.72.81l-.02.163a.954.954 0 01-.922.81h-2.585a.709.709 0 01-.722-.81l.021-.163zM77.53 88.105c-.085.703-.728 1.271-1.433 1.271-.706 0-1.208-.568-1.121-1.271.086-.7.729-1.27 1.434-1.27s1.207.57 1.12 1.27M27.967 94.323h2.61l-.826-3.755h-.03l-1.754 3.755zm1.349-6.947h1.643l3.252 12.238h-2.32l-.822-3.157h-4.072l-1.605 3.157h-2.319l6.243-12.238zM39.725 97.895c1.443 0 2.629-1.39 2.81-2.86.178-1.44-.608-2.895-2.115-2.895-1.46 0-2.656 1.339-2.842 2.845-.228 1.852.87 2.91 2.147 2.91zm5.314-7.46L43.342 104H41.3l.673-5.261c-1.145 1.174-2.496 1.174-2.743 1.174-2.582 0-4-2.448-3.688-4.977.325-2.63 2.576-4.813 4.912-4.813 1.737 0 2.303 1.008 2.539 1.473h.029l.143-1.16h1.875zM54.27 90.436l-1.133 9.178h-1.873l.116-.927h-.032c-.4.497-1.042 1.225-2.348 1.225-1.551 0-2.324-.827-2.678-1.455-.51-.975-.325-2.463-.232-3.224l.592-4.797h2.044l-.579 4.68c-.09.746-.343 2.779 1.441 2.779 1.29 0 1.882-1.307 2.062-2.762l.58-4.697h2.04zM60.202 92.388h-.997l.24-1.952h1l.376-3.06h2.043l-.378 3.06h1.229l-.241 1.952h-1.228l-.893 7.227h-2.041zM68.667 92.14c-1.675 0-2.727 1.555-2.897 2.928-.192 1.554.726 2.827 2.186 2.827 1.414 0 2.636-1.19 2.847-2.893.234-1.903-.92-2.862-2.136-2.862zm3.502 7.475h-1.876l.142-1.143c-.748.828-2.083 1.44-3.159 1.44-2.196 0-3.916-1.885-3.538-4.945.346-2.81 2.503-4.845 4.868-4.845 1.738 0 2.602 1.34 2.647 1.473h.032l.142-1.16h1.875l-1.133 9.18zM78.847 90.436h1.89l-.098.794c.381-.348 1.182-1.108 2.472-1.108.738 0 1.817.346 2.41 1.274.657 1.007.468 2.546.381 3.258l-.613 4.96h-2.043l.558-4.53c.095-.761.362-2.944-1.357-2.944-.369 0-1.053.198-1.498.81-.439.562-.558 1.52-.653 2.3l-.539 4.364h-2.042l1.132-9.178zM94.202 94.24c-.048-1.472-1.025-2.15-2.039-2.15-.753 0-2.083.446-2.678 2.15h4.717zm-4.874 1.77c.019.594.658 1.885 2.118 1.885.907 0 1.635-.413 2.11-1.174h2.153c-.695 1.654-2.514 3.19-4.51 3.19-2.537 0-4.234-2.183-3.903-4.86.321-2.597 2.472-4.98 5.099-4.98 2.705 0 4.1 2.515 3.816 4.832a5.725 5.725 0 01-.261 1.107h-6.622zM54.963 99.61h2.043l1.133-9.179h-2.043zM58.815 87.98c-.093.743-.771 1.344-1.516 1.344s-1.276-.601-1.184-1.345c.09-.742.77-1.343 1.514-1.343.746 0 1.277.601 1.186 1.343M73.822 99.61h2.045l1.131-9.179h-2.042zM54.623 60.904c.025.008.05.015.07.024l.001-.015-.07-.01"/><path d="M50.578 91.148l.003.004.004-.004h-.007M32.676 66.001c-.022-.032-.032-.066-.05-.098-.012-.002-.01.014.05.098"/><path d="M32.626 65.902c.018.033.028.066.05.099.03-.025-.032-.095-.05-.099"/></g><g transform="translate(40.021 16)"><mask id="b" fill="#fff"><use xlink:href="#a"/></mask><path d="M47.193 58.628c-.714-.046-1.396-.34-2.01-.79.606.484 1.288.784 2.01.79" fill="#FFF" mask="url(#b)"/></g><g transform="translate(40.021 16)"><mask id="d" fill="#fff"><use xlink:href="#c"/></mask><path d="M47.504 58.624c-.031.001-.062.005-.092.005.03-.003.061-.001.092-.005" fill="#FFF" mask="url(#d)"/></g><g transform="translate(40.021 16)"><mask id="f" fill="#fff"><use xlink:href="#e"/></mask><path d="M21.21 34.181c.052-.009.103-.03.157-.038-.051.008-.106.03-.158.038" fill="#FFF" mask="url(#f)"/></g><g transform="translate(40.021 16)"><mask id="h" fill="#fff"><use xlink:href="#g"/></mask><path d="M22.693 10.507c.052-.033.107-.067.152-.105-.045.035-.102.07-.152.105" fill="#FFF" mask="url(#h)"/></g><g transform="translate(40.021 16)"><mask id="j" fill="#fff"><use xlink:href="#i"/></mask><path d="M23.343 9.624c.048-.154.085-.318.115-.495a9.019 9.019 0 01-.115.495" fill="#FFF" mask="url(#j)"/></g><g transform="translate(40.021 16)"><mask id="l" fill="#fff"><use xlink:href="#k"/></mask><path d="M14.268 37.63c.096.002.213 0 .34 0h-.34" fill="#FFF" mask="url(#l)"/></g><g transform="translate(40.021 16)"><mask id="n" fill="#fff"><use xlink:href="#m"/></mask><path d="M42.823 49.317c.033.012.05.052.075.079a.17.17 0 00-.075-.08" fill="#FFF" mask="url(#n)"/></g><g transform="translate(40.021 16)"><mask id="p" fill="#fff"><use xlink:href="#o"/></mask><path d="M39.035 9.569" fill="#FFF" mask="url(#p)"/></g><g transform="translate(40.021 16)"><mask id="r" fill="#fff"><use xlink:href="#q"/></mask><path d="M14.977 37.634l-.1-.001h.1" fill="#FFF" mask="url(#r)"/></g><g transform="translate(40.021 16)"><mask id="t" fill="#fff"><use xlink:href="#s"/></mask><path d="M8.66 61.912c-.024.005-.047.008-.072.014.025-.006.048-.01.072-.014" fill="#FFF" mask="url(#t)"/></g><g transform="translate(40.021 16)"><mask id="v" fill="#fff"><use xlink:href="#u"/></mask><path d="M25.913 70.377c.014.012.026.025.041.036v-.011c-.015-.006-.027-.019-.041-.025" fill="#FFF" mask="url(#v)"/></g><g transform="translate(40.021 16)"><mask id="x" fill="#fff"><use xlink:href="#w"/></mask><path d="M23.568 20.13c-.671.123-.68 0-.951.162.08-.046-.04.282 0 0-.073.492-.275 1.57.635 1.454.105-.538.215-1.081.316-1.616" fill="#FFF" mask="url(#x)"/></g><g transform="translate(40.021 16)"><mask id="z" fill="#fff"><use xlink:href="#y"/></mask><path d="M25.415 26.447c.2.222.442.225.69.012-.15-.15-.324-.301-.49-.452-.074.15-.138.285-.2.44" fill="#FFF" mask="url(#z)"/></g><g transform="translate(40.021 16)"><mask id="B" fill="#fff"><use xlink:href="#A"/></mask><path d="M27.055 23.233c1.488-.58 5.016-.725 5.15-2.385-.03.185-.178-.02 0 0-3.524-.381-5.837 1.605-8.816 2.647-1.674.578-3.413 1.316-5.218.617-.826-.324-3.05-1.95-3.803-1.961.38 4.522 4.09 5.627 7.84 3.92 1.708-.786 3.062-2.149 4.847-2.838" fill="#FFF" mask="url(#B)"/></g><g transform="translate(40.021 16)"><mask id="D" fill="#fff"><use xlink:href="#C"/></mask><path d="M22.617 20.293c-.04.281.08-.048 0 0" fill="#FFF" mask="url(#D)"/></g><g transform="translate(40.021 16)"><mask id="F" fill="#fff"><use xlink:href="#E"/></mask><path d="M32.205 20.848c-.178-.02-.029.185 0 0" fill="#FFF" mask="url(#F)"/></g><g transform="translate(40.021 16)"><mask id="H" fill="#fff"><use xlink:href="#G"/></mask><path d="M29.822 11.805c-.612.55-3.18-.242-3.317-1.585-.082-.793 4.288.712 3.317 1.585M49.45 25.749c-.51-1.787.275-3.835-.347-5.619-.195-.55-1.223-1.097-1.198-1.672.016-.776 1.54-1.288 1.99-1.835-.5-.039-1.021-.025-1.511-.152-.465-.123-.816-.424-1.083-.813-.255-.37-.434-.796-.637-1.193-.19-.37-.376-.743-.548-1.122-.056-.12-.774-1.948-.598-1.967-.825.084-3.54 1.278-3.56-.202-.004-.672 3.244-.823 3.984-1.315 1.024-.678 1.28-1.553.025-2.144-1.225-.578-2.675-.671-3.981-.322-1.35.36-1.98 1.185-2.906 2.135a.451.451 0 01-.178.127c-.492.159-.594-.91-.539-1.189.103-.526.514-.877.94-1.171.449-.312.96-.522 1.476-.695.51-.17 1.064-.223 1.533-.493-1.013-1.436-3.247-2.152-4.963-2.152-1.95-.095-3.896.346-5.751.895-1.62.48-3.2 1.072-4.802 1.609-.814.273-2.035 1.22-2.925 1.102-.153-.025-.268.828-.414 1.567a3.67 3.67 0 01-.114.497c-.06.23-.127.42-.203.508a2.204 2.204 0 01-.296.27c-.045.037-.1.07-.15.104-1.75 1.212-6.197 2.234-3.795 5.023.833.958.38 1.768.816 2.778.584 1.35 3.174.938 4.218.574 1.503-.52 7.127-3.162 8.267-1.343 1.457 2.333 1.918 5.552.47 8.103-1.391 2.405-5.27 1.474-7.505 2.267.12 1.287.105 3.951 1.752 4.391 1.757.483 4.366-1.625 5.42-2.779.255-.296 2.44-3.34 2.85-1.988.469 1.596-2.124 4.465-3.107 5.52-1.19 1.24-3.329 1.93-5.025 1.898-2.089-.046-3.71-1.116-5.689-.808-.053.008-.105.03-.157.038a4.627 4.627 0 00-.724.187c-3.656 1.296-8.645.93-7.512-4.114-2.512.432-3.59 3.247-2.225 5.295.712 1.062 2.052 1.83 3.293 2.068.051.01.131.013.226.014l.343-.001c.084 0 .175 0 .267.002l.1.002c.753.018 1.632.143 1.518.871-.153 1.054-2.888 1.921-3.845 2.065-2.942.435-4.956.159-7.513-1.134-.214 2.734 2.957 7.05 6.247 6.582.914-.121 1.81-.367 2.721-.503.571-.084 1.216-.214 1.71.153.422.315.974 1.474.37 1.849-.155.098-.351.092-.536.083-1.909-.092-3.773-.233-5.624.352-2.033.641-3.196 1.946-4.496 3.503-1.198 1.45-2.06 2.322-3.925 2.893-1.064.322-1.894-.23-2.451-1.117-.138-.22-1.36-2.74-1.205-2.906-2.333 2.514-.139 5.902 2.09 7.622 1.115.86 2.542 1.646 3.997 1.704 2.105.086 4.225-1.047 6.03-1.978 1.211-.623 2.365-1.347 3.524-2.06.798-.491 2.242-1.745 3.216-1.697.421.02.836.327.881.735.037.327-.162.646-.428.847-.63.476-1.518.551-2.145 1.048-2.14 1.704-1.198 3.766-.873 6.052.582 4.215-6.329 6.142-6.635.958-4.556 2.469-2.843 5.184 1.424 6.468 3.12.959 7.925-1.538 9.612-4.087.671-.984 1.012-2.284 1.506-3.36.19-.416 1.87-4.184 2.563-2.975.754 1.318-1.208 3.09-.794 4.525.624 2.16 1.871 5.09 4.01 6.212-.45-.235.235-3.236.387-3.674.471-1.344 1.433-2.434 2.478-3.394 2.305-2.127 3.757-4.584 4.906-7.453.615-1.51 1.322.491.943 1.462-.603 1.41-.975 3.074-1.097 4.604-.234 3.25 2.03 6.606 5.69 6.162-.657-1.022-1.483-1.649-1.664-2.9-.304-2.208 1.413-3.095 2.56-4.653.93-1.263 1.83-2.872 1.744-4.477-.05-.87-.422-1.683-.492-2.54-.056-.699.087-4.592 1.442-4.159a.172.172 0 01.076.08c.467.496-.336 3.156-.237 3.96.221 1.494 1.188 3.416 2.522 4.481.854.682 3.352 1.337 3.915-.057-.448-.237-.97-.292-1.452-.458-1.893-.652-2.265-2.917-1.813-4.608.296-1.225.974-2.362 1.23-3.579.242-1.058-1.974-2.547-1.47-3.28.418-.61 3.176 2.21 4.452 1.628-.83-1.743-1.971-3.558-1.45-5.575.519-1.993.943-4.019 1.348-6.04.226-1.24 1.241-4.196-.55-4.873-.595-.227-2.076-.464-2.395-1.13-.183-.388.023-1.065.55-.828 1.448.673 3.349 1.332 4.708.032.466-.464-2.492-2.29-2.807-3.32" fill="#FFF" mask="url(#H)"/></g><g transform="translate(40.254 16.24)"><mask id="J" fill="#fff"><use xlink:href="#I"/></mask><path d="M4.773 39.123c.383 4.157 1.757 7.054 1.859 7.262l2.016-.938c-.022-.043-1.483-5.335-1.483-5.335-1.448-.446-2.392-.99-2.392-.99" fill="#FFF" mask="url(#J)"/></g><g><g transform="translate(39.454 19.385)"><mask id="L" fill="#fff"><use xlink:href="#K"/></mask><path d="M.258 14.312c.316 2.966 2.424 5.947 2.581 8.667.28 4.72-3.203 9.245-2.581 14.897.346 3.158 2.212 5.758 2.348 8.665C2.8 50.757.215 53.784.258 57.914.306 63.062 3.577 68.177 3.07 72.54a6.02 6.02 0 01-.14.783 58.185 58.185 0 002.67 1.826c.405-.917.71-1.884.758-2.881.243-4.783-2.897-9.341-2.81-14.623.054-3.443 2.216-6.342 2.347-9.746.168-4.558-2.028-6.659-2.348-10.837-.386-4.968 2.747-9.542 2.582-14.083-.118-3.125-2.293-5.928-2.582-9.21C3.063 8.347 6.19 4.959 6.23.38H2.888C3.031 4.788-.277 9.274.258 14.312" fill="#FFF" mask="url(#L)"/></g><g transform="translate(25.098 19.765)"><mask id="N" fill="#fff"><use xlink:href="#M"/></mask><path d="M5.714 48.868c.171-4.55-2.03-6.65-2.345-10.833-.387-4.969 2.746-9.54 2.576-14.083-.116-3.124-2.289-5.931-2.576-9.208C2.832 8.8 6.64 5.3 5.964 0H2.533c.054.22.097.44.124.66C3.21 5.292-.486 9.985.074 15.287c.32 2.967 2.427 5.942 2.583 8.665C2.94 28.67-.547 33.197.074 38.848c.35 3.159 2.215 5.758 2.35 8.67.117 2.514-.755 4.604-1.47 6.76.347.765.718 1.519 1.11 2.258.41.768.846 1.522 1.305 2.26v-.176c.05-3.442 2.215-6.347 2.345-9.752" fill="#FFF" mask="url(#N)"/></g><g transform="translate(32.517 19.385)"><mask id="P" fill="#fff"><use xlink:href="#O"/></mask><path d="M5.675 49.248c.442-5.458-2.169-7.742-2.346-12.186-.2-5.117 3.062-9.98 2.586-14.622-.325-3.156-2.494-6.046-2.586-8.94C3.215 9.815 6.209 5.201 6.031.38H2.804c.03.219.05.438.06.66C3.02 5.397-.044 8.347.046 13.5c.046 2.976 2.195 5.61 2.58 9.209.463 4.364-2.837 9.81-2.58 14.625.15 2.91 2.049 5.816 2.345 8.937.391 4.156-2.377 8.19-2.345 12.186.018 2.61 1.062 5.39 1.893 8.162a74.772 74.772 0 004.128 3.737c-.573-4.327-2.81-8.482-2.739-12.167.059-2.99 2.106-5.92 2.346-8.94" fill="#FFF" mask="url(#P)"/></g></g></g></svg>