<?xml version="1.0" encoding="utf-8"?>
<!-- Generator: Adobe Illustrator 24.0.1, SVG Export Plug-In . SVG Version: 6.00 Build 0)  -->
<svg version="1.1" id="Layer_1" xmlns="http://www.w3.org/2000/svg" xmlns:xlink="http://www.w3.org/1999/xlink" x="0px" y="0px"
	 viewBox="0 0 160 160" style="enable-background:new 0 0 160 160;" xml:space="preserve">
<style type="text/css">
	.st0{filter:url(#Adobe_OpacityMaskFilter);}
	.st1{fill-rule:evenodd;clip-rule:evenodd;fill:#FFFFFF;}
	.st2{mask:url(#mask-2_1_);fill-rule:evenodd;clip-rule:evenodd;fill:#1E436F;}
	.st3{filter:url(#Adobe_OpacityMaskFilter_1_);}
	.st4{mask:url(#mask-2_2_);fill-rule:evenodd;clip-rule:evenodd;fill:#FFFFFE;}
	.st5{filter:url(#Adobe_OpacityMaskFilter_2_);}
	.st6{mask:url(#mask-2_3_);fill-rule:evenodd;clip-rule:evenodd;fill:#FFFFFE;}
	.st7{filter:url(#Adobe_OpacityMaskFilter_3_);}
	.st8{mask:url(#mask-2_4_);fill-rule:evenodd;clip-rule:evenodd;fill:#FFFFFE;}
	.st9{filter:url(#Adobe_OpacityMaskFilter_4_);}
	.st10{mask:url(#mask-2_5_);fill-rule:evenodd;clip-rule:evenodd;fill:#FFFFFE;}
	.st11{filter:url(#Adobe_OpacityMaskFilter_5_);}
	.st12{mask:url(#mask-2_6_);fill-rule:evenodd;clip-rule:evenodd;fill:#FFFFFE;}
	.st13{filter:url(#Adobe_OpacityMaskFilter_6_);}
	.st14{mask:url(#mask-2_7_);fill-rule:evenodd;clip-rule:evenodd;fill:#FFFFFE;}
	.st15{filter:url(#Adobe_OpacityMaskFilter_7_);}
	.st16{mask:url(#mask-2_8_);fill-rule:evenodd;clip-rule:evenodd;fill:#FFFFFE;}
	.st17{filter:url(#Adobe_OpacityMaskFilter_8_);}
	.st18{mask:url(#mask-2_9_);fill-rule:evenodd;clip-rule:evenodd;fill:#FFFFFE;}
	.st19{filter:url(#Adobe_OpacityMaskFilter_9_);}
	.st20{mask:url(#mask-2_10_);fill-rule:evenodd;clip-rule:evenodd;fill:#FFFFFE;}
	.st21{filter:url(#Adobe_OpacityMaskFilter_10_);}
	.st22{mask:url(#mask-2_11_);fill-rule:evenodd;clip-rule:evenodd;fill:#FFFFFE;}
	.st23{filter:url(#Adobe_OpacityMaskFilter_11_);}
	.st24{mask:url(#mask-2_12_);fill-rule:evenodd;clip-rule:evenodd;fill:#FFFFFE;}
	.st25{filter:url(#Adobe_OpacityMaskFilter_12_);}
	.st26{mask:url(#mask-2_13_);fill-rule:evenodd;clip-rule:evenodd;fill:#FFFFFE;}
	.st27{filter:url(#Adobe_OpacityMaskFilter_13_);}
	.st28{mask:url(#mask-2_14_);fill-rule:evenodd;clip-rule:evenodd;fill:#FFFFFE;}
	.st29{filter:url(#Adobe_OpacityMaskFilter_14_);}
	.st30{mask:url(#mask-2_15_);fill-rule:evenodd;clip-rule:evenodd;fill:#FFFFFE;}
	.st31{filter:url(#Adobe_OpacityMaskFilter_15_);}
	.st32{mask:url(#mask-2_16_);fill-rule:evenodd;clip-rule:evenodd;fill:#FFFFFE;}
	.st33{filter:url(#Adobe_OpacityMaskFilter_16_);}
	.st34{mask:url(#mask-4_1_);fill-rule:evenodd;clip-rule:evenodd;fill:#FFFFFE;}
	.st35{filter:url(#Adobe_OpacityMaskFilter_17_);}
	.st36{mask:url(#mask-4_2_);fill-rule:evenodd;clip-rule:evenodd;fill:#FFFFFE;}
	.st37{filter:url(#Adobe_OpacityMaskFilter_18_);}
	.st38{mask:url(#mask-4_3_);fill-rule:evenodd;clip-rule:evenodd;fill:#FFFFFE;}
	.st39{filter:url(#Adobe_OpacityMaskFilter_19_);}
	.st40{mask:url(#mask-4_4_);fill-rule:evenodd;clip-rule:evenodd;fill:#FFFFFE;}
	.st41{filter:url(#Adobe_OpacityMaskFilter_20_);}
	.st42{mask:url(#mask-4_5_);fill-rule:evenodd;clip-rule:evenodd;fill:#FFFFFE;}
	.st43{filter:url(#Adobe_OpacityMaskFilter_21_);}
	.st44{mask:url(#mask-4_6_);fill-rule:evenodd;clip-rule:evenodd;fill:#FFFFFE;}
	.st45{filter:url(#Adobe_OpacityMaskFilter_22_);}
	.st46{mask:url(#mask-4_7_);fill-rule:evenodd;clip-rule:evenodd;fill:#FFFFFE;}
	.st47{filter:url(#Adobe_OpacityMaskFilter_23_);}
	.st48{mask:url(#mask-4_8_);fill-rule:evenodd;clip-rule:evenodd;fill:#FFFFFE;}
	.st49{filter:url(#Adobe_OpacityMaskFilter_24_);}
	.st50{mask:url(#mask-4_9_);fill-rule:evenodd;clip-rule:evenodd;fill:#FFFFFE;}
	.st51{filter:url(#Adobe_OpacityMaskFilter_25_);}
	.st52{mask:url(#mask-4_10_);fill-rule:evenodd;clip-rule:evenodd;fill:#FFFFFE;}
</style>
<defs>
	<filter id="Adobe_OpacityMaskFilter" filterUnits="userSpaceOnUse" x="0.1" y="0.1" width="159.6" height="159.6">
		<feColorMatrix  type="matrix" values="1 0 0 0 0  0 1 0 0 0  0 0 1 0 0  0 0 0 1 0"/>
	</filter>
</defs>
<mask maskUnits="userSpaceOnUse" x="0.1" y="0.1" width="159.6" height="159.6" id="mask-2_1_">
	<g class="st0">
		<polygon id="path-1_1_" class="st1" points="0.1,0.1 159.7,0.1 159.7,159.7 0.1,159.7 		"/>
	</g>
</mask>
<path id="Fill-952" class="st2" d="M79.9,159.7c-44.1,0-79.8-35.7-79.8-79.8c0-44.1,35.7-79.8,79.8-79.8c44.1,0,79.8,35.7,79.8,79.8
	C159.7,124,124,159.7,79.9,159.7z"/>
<defs>
	<filter id="Adobe_OpacityMaskFilter_1_" filterUnits="userSpaceOnUse" x="34.7" y="23.1" width="92.6" height="49">
		<feColorMatrix  type="matrix" values="1 0 0 0 0  0 1 0 0 0  0 0 1 0 0  0 0 0 1 0"/>
	</filter>
</defs>
<mask maskUnits="userSpaceOnUse" x="34.7" y="23.1" width="92.6" height="49" id="mask-2_2_">
	<g class="st3">
		<polygon id="path-1_2_" class="st1" points="0.1,0.1 159.7,0.1 159.7,159.7 0.1,159.7 		"/>
	</g>
</mask>
<path id="Fill-955" class="st4" d="M35.6,71.4c0.4-0.2,8-5.1,11.2-6.9c2.6-1.5,6-3,10.2-4.5c1.9-0.7,4.3-1,7-1
	c2.6,0,5.1,0.3,6.7,0.5c0.3,0,0.5,0.1,0.8,0.1c1.6,0.2,3.5,0.6,5.6,1c4.8,0.9,10.8,2.1,18,2.3c0.2,0,0.5,0,0.7,0
	c1.4,0,3.3-0.1,4.5-0.2l4.5,5.2l4.2-7.2c0.4-0.1,0.9-0.3,1.3-0.4c0,0,0.1,0,0.1,0c0.3-0.1,0.7-0.3,1-0.4c0.2-0.1,0.3-0.1,0.5-0.2
	c0.2-0.1,0.4-0.2,0.6-0.2c0.2-0.1,0.4-0.2,0.6-0.3c0.1-0.1,0.3-0.1,0.4-0.2c0.2-0.1,0.5-0.2,0.7-0.3c0.1,0,0.1-0.1,0.2-0.1
	c1.4-0.7,2.7-1.4,4-2.2c2.3-1.5,4-3,5.4-4.4c0,0,0.1-0.1,0.1-0.1c0,0,0,0,0.1-0.1c1-1.1,1.8-2.1,2.4-3c0.3-0.4,0.9-1.3,0.8-2.7
	c0-1.5-0.6-3-1.5-4.2c-0.8-1-2.2-2.2-4.5-2.2c-2.1,0-4.4,1-6.9,2.9c-0.4,0.3-0.9,0.7-1.3,1c-0.2,0.1-0.3,0.2-0.5,0.3
	c-0.3,0.2-0.6,0.4-0.9,0.6c-0.3,0.2-0.6,0.4-0.9,0.6c-0.2,0.1-0.3,0.2-0.5,0.3c-0.4,0.2-0.8,0.4-1.2,0.7c-0.1,0-0.2,0.1-0.2,0.1
	c-0.4,0.2-0.9,0.5-1.4,0.7c0,0-0.1,0-0.1,0c-0.5,0.2-1,0.4-1.5,0.7c0,0,0,0,0,0c-1,0.4-2.1,0.8-3.1,1.1c0,0,0,0,0,0L85.1,26.8
	L85,26.6l-0.9,1l-1.9-2.3l-1.6,1.3l-2.9-3.4L49.2,52.7c-0.7,0.4-1.5,0.8-2.1,1.2C47,53.9,47,54,46.9,54c-0.2,0.1-0.4,0.3-0.6,0.4
	c-0.2,0.1-0.3,0.2-0.5,0.3c-0.2,0.1-0.4,0.3-0.6,0.5c-0.2,0.1-0.4,0.3-0.6,0.4c-0.1,0.1-0.2,0.2-0.3,0.3c-0.3,0.2-0.5,0.4-0.8,0.6
	c0,0,0,0-0.1,0.1c-1.3,1.1-2.4,2.4-3.5,3.7c-1.7,2.2-3.1,4.6-4,6.8l0,0v0v0c-0.5,1.5-1,3.8-1,3.8l-0.2,1.2L35.6,71.4L35.6,71.4z
	 M90.2,50.8L90.2,50.8c-0.3,0-0.6,0-0.8,0c-0.5,0-1,0-1.5,0c-0.4,0-0.8,0-1.3,0c-1.1,0-4.1-0.3-7.6-0.6c-5.3-0.4-11.7-1-15.2-1.1h0
	L77,35.4L90.2,50.8z M43.8,56.9c6.1-5.3,12.7-6.8,17-7.2l0.4-0.4L75.9,34l0.9,1.1L63.2,49.2h0l-0.4,0.4c5.2,0,20.9,1.6,23.8,1.6
	c5.7,0.1,10.7-0.6,14.9-1.8l-0.3-0.3l-17-21.2l0.6-0.7l17.4,21.5l0.3,0.3c4.9-1.6,8.9-3.8,12-6.2c10.3-7.8,13.6,2.7,11.8,5
	c-3.6,4.8-13.7,7-24,7.4c-6.1,0.2-11.1-0.7-19.2-2c-5.1-0.8-16.2-2.3-23-1.1c-6.9,1.2-19,6.6-24,15.6c-0.1,0.2-0.2,0.5-0.4,0.7
	C36.9,65.1,39.8,60.3,43.8,56.9L43.8,56.9z"/>
<defs>
	<filter id="Adobe_OpacityMaskFilter_2_" filterUnits="userSpaceOnUse" x="31.3" y="72.9" width="10.9" height="15">
		<feColorMatrix  type="matrix" values="1 0 0 0 0  0 1 0 0 0  0 0 1 0 0  0 0 0 1 0"/>
	</filter>
</defs>
<mask maskUnits="userSpaceOnUse" x="31.3" y="72.9" width="10.9" height="15" id="mask-2_3_">
	<g class="st5">
		<polygon id="path-1_3_" class="st1" points="0.1,0.1 159.7,0.1 159.7,159.7 0.1,159.7 		"/>
	</g>
</mask>
<path id="Fill-957" class="st6" d="M33.9,82.2h3.2c3.1,0,5.1-1.6,5.1-4.7c0-3.1-2-4.7-5.1-4.7h-5.8v15h2.5V82.2z M33.9,75.1H37
	c1.8,0,2.7,1,2.7,2.5c0,1.4-0.9,2.5-2.7,2.5h-3.2V75.1z"/>
<defs>
	<filter id="Adobe_OpacityMaskFilter_3_" filterUnits="userSpaceOnUse" x="42.2" y="72.9" width="12.9" height="15">
		<feColorMatrix  type="matrix" values="1 0 0 0 0  0 1 0 0 0  0 0 1 0 0  0 0 0 1 0"/>
	</filter>
</defs>
<mask maskUnits="userSpaceOnUse" x="42.2" y="72.9" width="12.9" height="15" id="mask-2_4_">
	<g class="st7">
		<polygon id="path-1_4_" class="st1" points="0.1,0.1 159.7,0.1 159.7,159.7 0.1,159.7 		"/>
	</g>
</mask>
<polygon id="Fill-959" class="st8" points="49.9,81.9 55.1,72.9 52.6,72.9 48.7,79.6 44.9,72.9 42.2,72.9 47.5,81.9 47.5,87.8 
	49.9,87.8 "/>
<defs>
	<filter id="Adobe_OpacityMaskFilter_4_" filterUnits="userSpaceOnUse" x="56.5" y="72.9" width="10.9" height="15">
		<feColorMatrix  type="matrix" values="1 0 0 0 0  0 1 0 0 0  0 0 1 0 0  0 0 0 1 0"/>
	</filter>
</defs>
<mask maskUnits="userSpaceOnUse" x="56.5" y="72.9" width="10.9" height="15" id="mask-2_5_">
	<g class="st9">
		<polygon id="path-1_5_" class="st1" points="0.1,0.1 159.7,0.1 159.7,159.7 0.1,159.7 		"/>
	</g>
</mask>
<path id="Fill-961" class="st10" d="M63.3,81.7c2.3-0.4,3.7-1.8,3.7-4.3c0-2.9-1.9-4.5-4.9-4.5h-5.5v15h2.4v-6.1h1.7l4,6.1h2.7
	L63.3,81.7z M58.9,79.6V75H62c1.6,0,2.5,0.9,2.5,2.3c0,1.4-0.9,2.3-2.5,2.3H58.9z"/>
<defs>
	<filter id="Adobe_OpacityMaskFilter_5_" filterUnits="userSpaceOnUse" x="69.4" y="72.9" width="9.5" height="15">
		<feColorMatrix  type="matrix" values="1 0 0 0 0  0 1 0 0 0  0 0 1 0 0  0 0 0 1 0"/>
	</filter>
</defs>
<mask maskUnits="userSpaceOnUse" x="69.4" y="72.9" width="9.5" height="15" id="mask-2_6_">
	<g class="st11">
		<polygon id="path-1_6_" class="st1" points="0.1,0.1 159.7,0.1 159.7,159.7 0.1,159.7 		"/>
	</g>
</mask>
<polygon id="Fill-963" class="st12" points="79,75.1 79,72.9 69.4,72.9 69.4,87.8 79,87.8 79,85.6 71.9,85.6 71.9,81.3 78.3,81.3 
	78.3,79 71.9,79 71.9,75.1 "/>
<defs>
	<filter id="Adobe_OpacityMaskFilter_6_" filterUnits="userSpaceOnUse" x="81" y="72.9" width="11.6" height="15">
		<feColorMatrix  type="matrix" values="1 0 0 0 0  0 1 0 0 0  0 0 1 0 0  0 0 0 1 0"/>
	</filter>
</defs>
<mask maskUnits="userSpaceOnUse" x="81" y="72.9" width="11.6" height="15" id="mask-2_7_">
	<g class="st13">
		<polygon id="path-1_7_" class="st1" points="0.1,0.1 159.7,0.1 159.7,159.7 0.1,159.7 		"/>
	</g>
</mask>
<polygon id="Fill-965" class="st14" points="92.6,87.8 92.6,72.9 90.3,72.9 90.3,83.2 83.3,72.9 81,72.9 81,87.8 83.4,87.8 
	83.4,76.9 90.7,87.8 "/>
<defs>
	<filter id="Adobe_OpacityMaskFilter_7_" filterUnits="userSpaceOnUse" x="96" y="72.9" width="9.5" height="15">
		<feColorMatrix  type="matrix" values="1 0 0 0 0  0 1 0 0 0  0 0 1 0 0  0 0 0 1 0"/>
	</filter>
</defs>
<mask maskUnits="userSpaceOnUse" x="96" y="72.9" width="9.5" height="15" id="mask-2_8_">
	<g class="st15">
		<polygon id="path-1_8_" class="st1" points="0.1,0.1 159.7,0.1 159.7,159.7 0.1,159.7 		"/>
	</g>
</mask>
<polygon id="Fill-967" class="st16" points="105.5,85.6 98.4,85.6 98.4,81.3 104.9,81.3 104.9,79 98.4,79 98.4,75.1 105.5,75.1 
	105.5,72.9 96,72.9 96,87.8 105.5,87.8 "/>
<defs>
	<filter id="Adobe_OpacityMaskFilter_8_" filterUnits="userSpaceOnUse" x="107.6" y="72.9" width="9.5" height="15">
		<feColorMatrix  type="matrix" values="1 0 0 0 0  0 1 0 0 0  0 0 1 0 0  0 0 0 1 0"/>
	</filter>
</defs>
<mask maskUnits="userSpaceOnUse" x="107.6" y="72.9" width="9.5" height="15" id="mask-2_9_">
	<g class="st17">
		<polygon id="path-1_9_" class="st1" points="0.1,0.1 159.7,0.1 159.7,159.7 0.1,159.7 		"/>
	</g>
</mask>
<polygon id="Fill-969" class="st18" points="117.1,85.6 110,85.6 110,81.3 116.4,81.3 116.4,79 110,79 110,75.1 117.1,75.1 
	117.1,72.9 107.6,72.9 107.6,87.8 117.1,87.8 "/>
<defs>
	<filter id="Adobe_OpacityMaskFilter_9_" filterUnits="userSpaceOnUse" x="118.5" y="72.9" width="10.2" height="15.7">
		<feColorMatrix  type="matrix" values="1 0 0 0 0  0 1 0 0 0  0 0 1 0 0  0 0 0 1 0"/>
	</filter>
</defs>
<mask maskUnits="userSpaceOnUse" x="118.5" y="72.9" width="10.2" height="15.7" id="mask-2_10_">
	<g class="st19">
		<polygon id="path-1_10_" class="st1" points="0.1,0.1 159.7,0.1 159.7,159.7 0.1,159.7 		"/>
	</g>
</mask>
<path id="Fill-971" class="st20" d="M123.5,75.1c1.7,0,3.1,0.7,4.4,1.6v-2.6c-1.2-0.8-2.7-1.2-4.4-1.2c-2.7,0-5,1.5-5,4.1
	c0,2.5,1.5,3.6,3.5,4.3l2.2,0.8c1.3,0.5,2.1,1,2.1,2.2c0,1.4-1.2,2-2.9,2c-1.7,0-3.4-0.6-4.7-1.8v2.7c1,0.7,2.7,1.3,4.7,1.3
	c3,0,5.4-1.5,5.4-4.3c0-2.2-1.1-3.5-3.4-4.4l-2.4-0.9c-1.2-0.4-1.9-0.9-1.9-2C120.9,75.7,122,75.1,123.5,75.1"/>
<defs>
	<filter id="Adobe_OpacityMaskFilter_10_" filterUnits="userSpaceOnUse" x="31.3" y="90.6" width="9.5" height="10.2">
		<feColorMatrix  type="matrix" values="1 0 0 0 0  0 1 0 0 0  0 0 1 0 0  0 0 0 1 0"/>
	</filter>
</defs>
<mask maskUnits="userSpaceOnUse" x="31.3" y="90.6" width="9.5" height="10.2" id="mask-2_11_">
	<g class="st21">
		<polygon id="path-1_11_" class="st1" points="0.1,0.1 159.7,0.1 159.7,159.7 0.1,159.7 		"/>
	</g>
</mask>
<path id="Fill-973" class="st22" d="M34.1,97.9H38l1.1,2.8h1.8l-3.9-10.2h-1.7l-3.9,10.2h1.7L34.1,97.9z M36.1,92.7l1.4,3.8h-2.8
	L36.1,92.7z"/>
<defs>
	<filter id="Adobe_OpacityMaskFilter_11_" filterUnits="userSpaceOnUse" x="40.9" y="90.6" width="8.2" height="10.2">
		<feColorMatrix  type="matrix" values="1 0 0 0 0  0 1 0 0 0  0 0 1 0 0  0 0 0 1 0"/>
	</filter>
</defs>
<mask maskUnits="userSpaceOnUse" x="40.9" y="90.6" width="8.2" height="10.2" id="mask-2_12_">
	<g class="st23">
		<polygon id="path-1_12_" class="st1" points="0.1,0.1 159.7,0.1 159.7,159.7 0.1,159.7 		"/>
	</g>
</mask>
<polygon id="Fill-975" class="st24" points="45.8,100.8 45.8,92.1 49,92.1 49,90.6 40.9,90.6 40.9,92.1 44.1,92.1 44.1,100.8 "/>
<defs>
	<filter id="Adobe_OpacityMaskFilter_12_" filterUnits="userSpaceOnUse" x="50.4" y="90.6" width="6.8" height="10.2">
		<feColorMatrix  type="matrix" values="1 0 0 0 0  0 1 0 0 0  0 0 1 0 0  0 0 0 1 0"/>
	</filter>
</defs>
<mask maskUnits="userSpaceOnUse" x="50.4" y="90.6" width="6.8" height="10.2" id="mask-2_13_">
	<g class="st25">
		<polygon id="path-1_13_" class="st1" points="0.1,0.1 159.7,0.1 159.7,159.7 0.1,159.7 		"/>
	</g>
</mask>
<polygon id="Fill-977" class="st26" points="57.2,99.2 52.2,99.2 52.2,90.6 50.4,90.6 50.4,100.8 57.2,100.8 "/>
<defs>
	<filter id="Adobe_OpacityMaskFilter_13_" filterUnits="userSpaceOnUse" x="57.9" y="90.6" width="9.5" height="10.2">
		<feColorMatrix  type="matrix" values="1 0 0 0 0  0 1 0 0 0  0 0 1 0 0  0 0 0 1 0"/>
	</filter>
</defs>
<mask maskUnits="userSpaceOnUse" x="57.9" y="90.6" width="9.5" height="10.2" id="mask-2_14_">
	<g class="st27">
		<polygon id="path-1_14_" class="st1" points="0.1,0.1 159.7,0.1 159.7,159.7 0.1,159.7 		"/>
	</g>
</mask>
<path id="Fill-979" class="st28" d="M61.8,90.6l-3.9,10.2h1.7l1-2.8h3.9l1.1,2.8h1.8l-3.9-10.2H61.8z M61.2,96.4l1.4-3.8l1.4,3.8
	H61.2z"/>
<defs>
	<filter id="Adobe_OpacityMaskFilter_14_" filterUnits="userSpaceOnUse" x="69.4" y="90.6" width="8.2" height="10.2">
		<feColorMatrix  type="matrix" values="1 0 0 0 0  0 1 0 0 0  0 0 1 0 0  0 0 0 1 0"/>
	</filter>
</defs>
<mask maskUnits="userSpaceOnUse" x="69.4" y="90.6" width="8.2" height="10.2" id="mask-2_15_">
	<g class="st29">
		<polygon id="path-1_15_" class="st1" points="0.1,0.1 159.7,0.1 159.7,159.7 0.1,159.7 		"/>
	</g>
</mask>
<polygon id="Fill-981" class="st30" points="71.1,90.6 69.4,90.6 69.4,100.8 71.1,100.8 71.1,93.3 76.3,100.8 77.6,100.8 77.6,90.6 
	76,90.6 76,97.6 "/>
<defs>
	<filter id="Adobe_OpacityMaskFilter_15_" filterUnits="userSpaceOnUse" x="79" y="90.6" width="8.2" height="10.2">
		<feColorMatrix  type="matrix" values="1 0 0 0 0  0 1 0 0 0  0 0 1 0 0  0 0 0 1 0"/>
	</filter>
</defs>
<mask maskUnits="userSpaceOnUse" x="79" y="90.6" width="8.2" height="10.2" id="mask-2_16_">
	<g class="st31">
		<polygon id="path-1_16_" class="st1" points="0.1,0.1 159.7,0.1 159.7,159.7 0.1,159.7 		"/>
	</g>
</mask>
<polygon id="Fill-983" class="st32" points="83.9,100.8 83.9,92.1 87.1,92.1 87.1,90.6 79,90.6 79,92.1 82.2,92.1 82.2,100.8 "/>
<g id="Clip-986">
</g>
<defs>
	<filter id="Adobe_OpacityMaskFilter_16_" filterUnits="userSpaceOnUse" x="89.2" y="90.6" width="2" height="10.2">
		<feColorMatrix  type="matrix" values="1 0 0 0 0  0 1 0 0 0  0 0 1 0 0  0 0 0 1 0"/>
	</filter>
</defs>
<mask maskUnits="userSpaceOnUse" x="89.2" y="90.6" width="2" height="10.2" id="mask-4_1_">
	<g class="st33">
		<polygon id="path-3_1_" class="st1" points="0,159.3 159.3,159.3 159.3,0 0,0 		"/>
	</g>
</mask>
<polygon id="Fill-985" class="st34" points="89.2,100.8 91.2,100.8 91.2,90.6 89.2,90.6 "/>
<defs>
	<filter id="Adobe_OpacityMaskFilter_17_" filterUnits="userSpaceOnUse" x="92.6" y="89.9" width="9.5" height="11.6">
		<feColorMatrix  type="matrix" values="1 0 0 0 0  0 1 0 0 0  0 0 1 0 0  0 0 0 1 0"/>
	</filter>
</defs>
<mask maskUnits="userSpaceOnUse" x="92.6" y="89.9" width="9.5" height="11.6" id="mask-4_2_">
	<g class="st35">
		<polygon id="path-3_2_" class="st1" points="0,159.3 159.3,159.3 159.3,0 0,0 		"/>
	</g>
</mask>
<path id="Fill-987" class="st36" d="M97.4,89.9c-2.8,0-4.8,2.3-4.8,5.5c0,3.2,2,5.5,4.8,5.5c0.8,0,1.5-0.2,2.2-0.5l0.8,1.1l1.2-0.9
	l-0.9-1.1c0.9-1,1.4-2.4,1.4-4C102.1,92.2,100.1,89.9,97.4,89.9 M99.7,98.1l-0.8-1.1L97.7,98l0.9,1.1c-0.4,0.1-0.7,0.2-1.2,0.2
	c-1.8,0-3-1.6-3-3.9c0-2.3,1.2-3.9,3-3.9c1.8,0,3,1.6,3,3.9C100.4,96.6,100.1,97.5,99.7,98.1"/>
<defs>
	<filter id="Adobe_OpacityMaskFilter_18_" filterUnits="userSpaceOnUse" x="103.5" y="89.9" width="8.2" height="10.9">
		<feColorMatrix  type="matrix" values="1 0 0 0 0  0 1 0 0 0  0 0 1 0 0  0 0 0 1 0"/>
	</filter>
</defs>
<mask maskUnits="userSpaceOnUse" x="103.5" y="89.9" width="8.2" height="10.9" id="mask-4_3_">
	<g class="st37">
		<polygon id="path-3_3_" class="st1" points="0,159.3 159.3,159.3 159.3,0 0,0 		"/>
	</g>
</mask>
<path id="Fill-988" class="st38" d="M107.6,100.8c2.4,0,4.1-1.5,4.1-4.4v-6.5h-1.7v6.3c0,2.1-0.8,3-2.4,3c-1.5,0-2.4-1-2.4-3v-6.3
	h-1.7v6.4C103.5,99.3,105.2,100.8,107.6,100.8"/>
<defs>
	<filter id="Adobe_OpacityMaskFilter_19_" filterUnits="userSpaceOnUse" x="113.7" y="90.6" width="6.8" height="10.2">
		<feColorMatrix  type="matrix" values="1 0 0 0 0  0 1 0 0 0  0 0 1 0 0  0 0 0 1 0"/>
	</filter>
</defs>
<mask maskUnits="userSpaceOnUse" x="113.7" y="90.6" width="6.8" height="10.2" id="mask-4_4_">
	<g class="st39">
		<polygon id="path-3_4_" class="st1" points="0,159.3 159.3,159.3 159.3,0 0,0 		"/>
	</g>
</mask>
<polygon id="Fill-989" class="st40" points="120.5,92.1 120.5,90.6 113.7,90.6 113.7,100.8 120.5,100.8 120.5,99.2 115.4,99.2 
	115.4,96.3 120,96.3 120,94.8 115.4,94.8 115.4,92.1 "/>
<defs>
	<filter id="Adobe_OpacityMaskFilter_20_" filterUnits="userSpaceOnUse" x="121.9" y="89.9" width="6.8" height="10.9">
		<feColorMatrix  type="matrix" values="1 0 0 0 0  0 1 0 0 0  0 0 1 0 0  0 0 0 1 0"/>
	</filter>
</defs>
<mask maskUnits="userSpaceOnUse" x="121.9" y="89.9" width="6.8" height="10.9" id="mask-4_5_">
	<g class="st41">
		<polygon id="path-3_5_" class="st1" points="0,159.3 159.3,159.3 159.3,0 0,0 		"/>
	</g>
</mask>
<path id="Fill-990" class="st42" d="M126.4,94.7l-1.6-0.6c-0.8-0.3-1.3-0.6-1.3-1.4c0-0.9,0.7-1.3,1.8-1.3c1.2,0,2.1,0.5,2.9,1.1
	v-1.8c-0.8-0.6-1.8-0.9-2.9-0.9c-1.8,0-3.4,1-3.4,2.9c0,1.7,1,2.5,2.3,3l1.4,0.6c0.9,0.4,1.4,0.7,1.4,1.5c0,0.9-0.8,1.4-1.9,1.4
	c-1.2,0-2.3-0.4-3.2-1.2v1.9c0.7,0.5,1.8,0.9,3.2,0.9c2,0,3.6-1.1,3.6-3C128.7,96.2,128,95.3,126.4,94.7"/>
<defs>
	<filter id="Adobe_OpacityMaskFilter_21_" filterUnits="userSpaceOnUse" x="71.5" y="106.2" width="2" height="2.7">
		<feColorMatrix  type="matrix" values="1 0 0 0 0  0 1 0 0 0  0 0 1 0 0  0 0 0 1 0"/>
	</filter>
</defs>
<mask maskUnits="userSpaceOnUse" x="71.5" y="106.2" width="2" height="2.7" id="mask-4_6_">
	<g class="st43">
		<polygon id="path-3_6_" class="st1" points="0,159.3 159.3,159.3 159.3,0 0,0 		"/>
	</g>
</mask>
<polygon id="Fill-991" class="st44" points="71.5,108.9 73.5,108.9 72.5,106.2 "/>
<defs>
	<filter id="Adobe_OpacityMaskFilter_22_" filterUnits="userSpaceOnUse" x="79" y="105.5" width="2.7" height="2">
		<feColorMatrix  type="matrix" values="1 0 0 0 0  0 1 0 0 0  0 0 1 0 0  0 0 0 1 0"/>
	</filter>
</defs>
<mask maskUnits="userSpaceOnUse" x="79" y="105.5" width="2.7" height="2" id="mask-4_7_">
	<g class="st45">
		<polygon id="path-3_7_" class="st1" points="0,159.3 159.3,159.3 159.3,0 0,0 		"/>
	</g>
</mask>
<path id="Fill-992" class="st46" d="M81.7,106.6c0-0.6-0.4-1-1.2-1H79v2h1.5C81.3,107.6,81.7,107.2,81.7,106.6"/>
<defs>
	<filter id="Adobe_OpacityMaskFilter_23_" filterUnits="userSpaceOnUse" x="51.1" y="105.5" width="3.4" height="4.8">
		<feColorMatrix  type="matrix" values="1 0 0 0 0  0 1 0 0 0  0 0 1 0 0  0 0 0 1 0"/>
	</filter>
</defs>
<mask maskUnits="userSpaceOnUse" x="51.1" y="105.5" width="3.4" height="4.8" id="mask-4_8_">
	<g class="st47">
		<polygon id="path-3_8_" class="st1" points="0,159.3 159.3,159.3 159.3,0 0,0 		"/>
	</g>
</mask>
<path id="Fill-993" class="st48" d="M54.5,107.9c0-1.5-0.8-2.4-2.3-2.4h-1.1v4.8h1.1C53.7,110.3,54.5,109.4,54.5,107.9"/>
<defs>
	<filter id="Adobe_OpacityMaskFilter_24_" filterUnits="userSpaceOnUse" x="64.7" y="105.5" width="2.7" height="2">
		<feColorMatrix  type="matrix" values="1 0 0 0 0  0 1 0 0 0  0 0 1 0 0  0 0 0 1 0"/>
	</filter>
</defs>
<mask maskUnits="userSpaceOnUse" x="64.7" y="105.5" width="2.7" height="2" id="mask-4_9_">
	<g class="st49">
		<polygon id="path-3_9_" class="st1" points="0,159.3 159.3,159.3 159.3,0 0,0 		"/>
	</g>
</mask>
<path id="Fill-994" class="st50" d="M67.4,106.6c0-0.6-0.4-1-1.2-1h-1.5v2h1.5C67,107.6,67.4,107.1,67.4,106.6"/>
<defs>
	<filter id="Adobe_OpacityMaskFilter_25_" filterUnits="userSpaceOnUse" x="31.3" y="102.8" width="97.4" height="10.2">
		<feColorMatrix  type="matrix" values="1 0 0 0 0  0 1 0 0 0  0 0 1 0 0  0 0 0 1 0"/>
	</filter>
</defs>
<mask maskUnits="userSpaceOnUse" x="31.3" y="102.8" width="97.4" height="10.2" id="mask-4_10_">
	<g class="st51">
		<polygon id="path-3_10_" class="st1" points="0,159.3 159.3,159.3 159.3,0 0,0 		"/>
	</g>
</mask>
<path id="Fill-995" class="st52" d="M31.3,113h97.4v-10.2H31.3V113z M120.6,104.3h5.7v1.1h-2.3v6.1h-1.2v-6.1h-2.3V104.3z
	 M113.3,104.3h1.1l3.3,5v-5h1.1v7.2H118l-3.5-5.2v5.2h-1.1V104.3z M106.8,104.3h4.5v1.1H108v1.9h3v1.1h-3v2.1h3.4v1.1h-4.5V104.3z
	 M98,104.3h1.1l2.2,3.7l2.2-3.7h1v7.2h-1.1v-5l-2.1,3.5h0l-2.1-3.5v5H98V104.3z M91.6,104.3h4.5v1.1h-3.4v1.9h3v1.1h-3v2.1h3.4v1.1
	h-4.5V104.3z M84,104.3h5.7v1.1h-2.3v6.1h-1.2v-6.1H84V104.3z M77.7,104.3h2.7c1.4,0,2.3,0.7,2.3,2.2c0,1.2-0.7,1.9-1.8,2.1l2,3
	h-1.3l-1.9-2.9h-0.8v2.9h-1.2V104.3z M72.2,104.3h1.1l2.6,7.2h-1.2l-0.7-2h-2.6l-0.7,2h-1.2L72.2,104.3z M63.8,104.3h2.7
	c1.4,0,2.4,0.8,2.4,2.3c0,1.5-0.9,2.2-2.4,2.2H65v2.7h-1.2V104.3z M57.3,104.3h4.5v1.1h-3.3v1.9h3v1.1h-3v2.1h3.3v1.1h-4.5V104.3z
	 M49.8,104.3h2.3c2,0,3.3,1.4,3.3,3.6c0,2.2-1.3,3.6-3.3,3.6h-2.3V104.3z M40.2,104.3h4.5v1.1h-3.4v1.9h3v1.1h-3v2.1h3.4v1.1h-4.5
	V104.3z M33.8,104.3H35v6.1h3.3v1.1h-4.5V104.3z"/>
</svg>
