<svg width="50" height="50" viewBox="0 0 50 50" fill="none" xmlns="http://www.w3.org/2000/svg">
<path d="M17.5403 46.0632C17.7309 46.2699 17.8323 46.5435 17.8224 46.8246C17.8125 47.1056 17.6921 47.3714 17.4873 47.5641L15.1851 49.7169C14.9795 49.9079 14.7065 50.0094 14.4261 49.9993C14.1457 49.9892 13.8808 49.8681 13.6895 49.6628L0.282293 35.2137C0.0917675 35.0068 -0.00942971 34.7332 0.000692368 34.4521C0.0108144 34.1711 0.131438 33.9054 0.33635 33.7128L2.64173 31.5632C2.74345 31.4685 2.86284 31.3948 2.99307 31.3463C3.12331 31.2977 3.26183 31.2753 3.40072 31.2803C3.53961 31.2854 3.67615 31.3177 3.80254 31.3755C3.92893 31.4333 4.04268 31.5155 4.13731 31.6173L17.5403 46.0632ZM34.6478 18.8757C34.8383 19.0826 34.9395 19.3562 34.9294 19.6373C34.9193 19.9183 34.7986 20.184 34.5937 20.3766L20.1043 33.9121C19.8987 34.1031 19.6257 34.2046 19.3453 34.1945C19.0649 34.1844 18.8 34.0633 18.6087 33.858L15.1501 30.1259C14.9596 29.9191 14.8584 29.6454 14.8685 29.3644C14.8786 29.0834 14.9993 28.8177 15.2042 28.6251L29.6904 15.0896C29.7921 14.9949 29.9114 14.9212 30.0415 14.8727C30.1716 14.8242 30.3101 14.8018 30.4489 14.8068C30.5877 14.8118 30.7241 14.8442 30.8504 14.902C30.9767 14.9598 31.0904 15.0419 31.1849 15.1437L34.6478 18.8757ZM22.4701 41.4557C22.8665 41.8828 22.8421 42.558 22.416 42.9565L20.1106 45.1082C20.0089 45.2029 19.8895 45.2767 19.7593 45.3252C19.6291 45.3737 19.4906 45.3961 19.3517 45.3911C19.2128 45.3861 19.0762 45.3538 18.9498 45.2959C18.8234 45.2381 18.7097 45.156 18.6151 45.0542L5.21527 30.605C5.02461 30.3983 4.92323 30.1247 4.93315 29.8437C4.94307 29.5627 5.0635 29.2969 5.26827 29.1042L7.5694 26.9535C7.77498 26.7625 8.04796 26.661 8.32838 26.6711C8.6088 26.6812 8.87373 26.8023 9.06498 27.0076L22.4701 41.4557ZM44.7957 19.394C44.9861 19.601 45.0871 19.8748 45.0767 20.1558C45.0664 20.4368 44.9456 20.7024 44.7406 20.8949L42.4362 23.0466C42.2306 23.2378 41.9575 23.3396 41.6769 23.3296C41.3964 23.3197 41.1312 23.1988 40.9396 22.9936L27.5377 8.54764C27.3468 8.34106 27.2452 8.0674 27.2551 7.78628C27.265 7.50517 27.3857 7.23936 27.5907 7.04676L29.9013 4.88977C30.003 4.79511 30.1223 4.7214 30.2524 4.67288C30.3826 4.62435 30.521 4.60196 30.6598 4.60698C30.7986 4.612 30.9351 4.64434 31.0614 4.70214C31.1877 4.75994 31.3013 4.84207 31.3959 4.94383L44.7957 19.394ZM49.718 14.7939C49.9084 15.001 50.0094 15.2748 49.9993 15.5559C49.9892 15.8371 49.8687 16.1029 49.664 16.2958L47.3639 18.4464C47.2623 18.5412 47.1431 18.615 47.013 18.6636C46.8829 18.7122 46.7445 18.7347 46.6057 18.7297C46.4669 18.7248 46.3304 18.6926 46.204 18.6349C46.0777 18.5772 45.964 18.4951 45.8694 18.3934L32.4696 3.94113C32.2791 3.73412 32.1779 3.4604 32.1878 3.17928C32.1977 2.89815 32.318 2.63226 32.5226 2.43919L34.8248 0.284325C34.9262 0.189492 35.0453 0.115618 35.1754 0.0669403C35.3054 0.0182626 35.4438 -0.0042605 35.5825 0.000663446C35.7213 0.00558739 35.8577 0.0378614 35.9839 0.0956337C36.1102 0.153406 36.2238 0.23554 36.3182 0.337322L49.718 14.7939Z" fill="white"/>
</svg>
