<svg width="55" height="39" viewBox="0 0 55 39" fill="none" xmlns="http://www.w3.org/2000/svg">
<path d="M32.5 11.9375C32.5 11.5625 32.6358 11.1767 32.9075 10.78C33.1775 10.385 33.4792 10.125 33.8125 10C35.0208 9.58333 36.2292 9.27083 37.4375 9.0625C38.6458 8.85417 39.9167 8.75 41.25 8.75C42.0833 8.75 42.9067 8.80167 43.72 8.905C44.5317 9.01 45.3333 9.14583 46.125 9.3125C46.5 9.39583 46.8225 9.60417 47.0925 9.9375C47.3642 10.2708 47.5 10.6458 47.5 11.0625C47.5 11.7708 47.2708 12.2917 46.8125 12.625C46.3542 12.9583 45.7708 13.0417 45.0625 12.875C44.4792 12.75 43.865 12.6558 43.22 12.5925C42.5733 12.5308 41.9167 12.5 41.25 12.5C40.1667 12.5 39.1042 12.6042 38.0625 12.8125C37.0208 13.0208 36.0208 13.2917 35.0625 13.625C34.3125 13.9167 33.6983 13.8958 33.22 13.5625C32.74 13.2292 32.5 12.6875 32.5 11.9375ZM32.5 25.6875C32.5 25.3125 32.6358 24.9267 32.9075 24.53C33.1775 24.135 33.4792 23.875 33.8125 23.75C35.0208 23.3333 36.2292 23.0208 37.4375 22.8125C38.6458 22.6042 39.9167 22.5 41.25 22.5C42.0833 22.5 42.9067 22.5517 43.72 22.655C44.5317 22.76 45.3333 22.8958 46.125 23.0625C46.5 23.1458 46.8225 23.3542 47.0925 23.6875C47.3642 24.0208 47.5 24.3958 47.5 24.8125C47.5 25.5208 47.2708 26.0417 46.8125 26.375C46.3542 26.7083 45.7708 26.7917 45.0625 26.625C44.4792 26.5 43.865 26.4058 43.22 26.3425C42.5733 26.2808 41.9167 26.25 41.25 26.25C40.1667 26.25 39.1042 26.3442 38.0625 26.5325C37.0208 26.7192 36.0208 26.9792 35.0625 27.3125C34.3125 27.6042 33.6983 27.5933 33.22 27.28C32.74 26.9683 32.5 26.4375 32.5 25.6875ZM32.5 18.8125C32.5 18.4375 32.6358 18.0517 32.9075 17.655C33.1775 17.26 33.4792 17 33.8125 16.875C35.0208 16.4583 36.2292 16.1458 37.4375 15.9375C38.6458 15.7292 39.9167 15.625 41.25 15.625C42.0833 15.625 42.9067 15.6767 43.72 15.78C44.5317 15.885 45.3333 16.0208 46.125 16.1875C46.5 16.2708 46.8225 16.4792 47.0925 16.8125C47.3642 17.1458 47.5 17.5208 47.5 17.9375C47.5 18.6458 47.2708 19.1667 46.8125 19.5C46.3542 19.8333 45.7708 19.9167 45.0625 19.75C44.4792 19.625 43.865 19.5308 43.22 19.4675C42.5733 19.4058 41.9167 19.375 41.25 19.375C40.1667 19.375 39.1042 19.4792 38.0625 19.6875C37.0208 19.8958 36.0208 20.1667 35.0625 20.5C34.3125 20.7917 33.6983 20.7708 33.22 20.4375C32.74 20.1042 32.5 19.5625 32.5 18.8125ZM13.75 30C15.7083 30 17.615 30.2183 19.47 30.655C21.3233 31.0933 23.1667 31.75 25 32.625V8C23.2917 7 21.4792 6.25 19.5625 5.75C17.6458 5.25 15.7083 5 13.75 5C12.25 5 10.7608 5.14583 9.2825 5.4375C7.8025 5.72917 6.375 6.16667 5 6.75V31.5C6.45833 31 7.90667 30.625 9.345 30.375C10.7817 30.125 12.25 30 13.75 30ZM30 32.625C31.8333 31.75 33.6775 31.0933 35.5325 30.655C37.3858 30.2183 39.2917 30 41.25 30C42.75 30 44.2192 30.125 45.6575 30.375C47.0942 30.625 48.5417 31 50 31.5V6.75C48.625 6.16667 47.1983 5.72917 45.72 5.4375C44.24 5.14583 42.75 5 41.25 5C39.2917 5 37.3542 5.25 35.4375 5.75C33.5208 6.25 31.7083 7 30 8V32.625ZM27.5 38.6875C26.9167 38.6875 26.365 38.615 25.845 38.47C25.3233 38.3233 24.8333 38.125 24.375 37.875C22.75 36.9167 21.0417 36.1983 19.25 35.72C17.4583 35.24 15.625 35 13.75 35C12 35 10.2817 35.2292 8.595 35.6875C6.90667 36.1458 5.29167 36.7917 3.75 37.625C2.875 38.0833 2.03167 38.0625 1.22 37.5625C0.406667 37.0625 0 36.3333 0 35.375V5.25C0 4.79167 0.115 4.35417 0.345 3.9375C0.573333 3.52083 0.916667 3.20833 1.375 3C3.29167 2 5.29167 1.25 7.375 0.75C9.45833 0.25 11.5833 0 13.75 0C16.1667 0 18.5317 0.3125 20.845 0.9375C23.1567 1.5625 25.375 2.5 27.5 3.75C29.625 2.5 31.8442 1.5625 34.1575 0.9375C36.4692 0.3125 38.8333 0 41.25 0C43.4167 0 45.5417 0.25 47.625 0.75C49.7083 1.25 51.7083 2 53.625 3C54.0833 3.20833 54.4275 3.52083 54.6575 3.9375C54.8858 4.35417 55 4.79167 55 5.25V35.375C55 36.3333 54.5942 37.0625 53.7825 37.5625C52.9692 38.0625 52.125 38.0833 51.25 37.625C49.7083 36.7917 48.0933 36.1458 46.405 35.6875C44.7183 35.2292 43 35 41.25 35C39.375 35 37.5417 35.24 35.75 35.72C33.9583 36.1983 32.25 36.9167 30.625 37.875C30.1667 38.125 29.6775 38.3233 29.1575 38.47C28.6358 38.615 28.0833 38.6875 27.5 38.6875Z" fill="white"/>
</svg>
