<?xml version="1.0" standalone="no"?>
<!DOCTYPE svg PUBLIC "-//W3C//DTD SVG 20010904//EN"
 "http://www.w3.org/TR/2001/REC-SVG-20010904/DTD/svg10.dtd">
<svg version="1.0" xmlns="http://www.w3.org/2000/svg"
 width="3437.000000pt" height="2409.000000pt" viewBox="0 0 3437.000000 2409.000000"
 preserveAspectRatio="xMidYMid meet">

<g transform="translate(0.000000,2409.000000) scale(0.100000,-0.100000)"
fill="#000000" stroke="none">
<path d="M30398 22332 l-38 -3 0 -226 c0 -222 0 -225 21 -220 25 7 212 -17
269 -34 48 -14 82 -54 100 -114 13 -43 28 -1922 16 -1969 -10 -39 -55 -86
-110 -112 -80 -39 -249 -67 -356 -59 -95 6 -219 34 -267 58 -67 35 -103 112
-103 222 0 85 16 133 61 187 73 87 86 156 49 263 -43 124 -119 211 -235 268
-92 45 -150 58 -257 58 -101 0 -132 -8 -235 -58 -114 -55 -205 -175 -254 -333
-32 -102 -33 -296 -3 -380 48 -135 227 -348 379 -454 99 -69 385 -210 385
-190 0 4 6 2 13 -4 15 -12 137 -49 192 -58 22 -3 48 -10 58 -15 9 -6 22 -7 27
-4 5 3 27 2 47 -4 56 -14 249 -20 318 -10 33 5 78 11 100 14 140 20 431 120
560 195 33 19 96 70 140 115 152 151 235 338 301 675 14 71 18 173 21 628 3
409 1 547 -8 558 -6 8 -7 14 -2 14 6 0 13 68 16 168 8 243 35 323 119 353 57
20 142 32 225 30 70 -1 72 0 68 84 -1 28 -3 121 -3 208 l-2 158 -787 -3 c-434
-1 -805 -4 -825 -6z m1182 -1288 c0 -8 -4 -12 -10 -9 -5 3 -10 10 -10 16 0 5
5 9 10 9 6 0 10 -7 10 -16z"/>
<path d="M18550 22267 c-3 -3 -41 -8 -85 -11 -168 -11 -345 -61 -509 -143
-156 -77 -209 -115 -311 -218 -207 -209 -318 -443 -376 -795 -79 -482 -25
-1010 137 -1333 90 -178 262 -383 399 -475 92 -61 246 -138 350 -175 376 -133
871 -124 1202 22 321 141 509 361 603 703 23 87 41 237 30 257 -6 11 -42 13
-191 12 -100 -1 -186 -4 -190 -6 -4 -3 -10 -31 -14 -62 -18 -145 -95 -312
-186 -403 -32 -32 -68 -61 -81 -65 -13 -4 -30 -13 -38 -20 -8 -7 -44 -23 -80
-35 -36 -12 -72 -26 -80 -31 -45 -23 -379 -43 -409 -25 -5 3 -26 8 -47 11 -90
11 -229 65 -290 112 -54 41 -91 130 -104 248 -14 138 -15 1671 -1 1749 21 117
74 186 177 232 81 36 171 47 318 41 313 -13 492 -94 617 -280 87 -130 148
-309 149 -434 l0 -41 233 5 c127 2 234 7 237 11 3 4 3 261 0 571 l-5 563 -105
2 c-58 2 -154 0 -215 -3 l-109 -6 -63 -90 c-35 -49 -70 -93 -78 -98 -8 -4 -15
-15 -15 -22 0 -8 -7 -15 -16 -15 -10 0 -14 6 -10 15 3 8 1 15 -5 15 -6 0 -31
18 -55 39 -25 21 -59 46 -77 55 -17 9 -46 25 -64 36 -38 23 -112 46 -213 66
-73 15 -420 32 -430 21z"/>
<path d="M5380 22200 l-165 -5 0 -217 0 -218 108 -4 c115 -5 150 -17 167 -59
37 -89 178 -450 207 -527 19 -52 51 -138 70 -190 19 -52 44 -120 54 -150 11
-30 24 -64 29 -75 5 -11 45 -119 90 -240 45 -121 90 -240 100 -265 10 -25 75
-202 145 -395 122 -338 265 -727 304 -830 11 -27 22 -60 26 -73 l6 -22 342 4
342 5 73 168 c40 92 76 175 79 183 10 24 152 347 193 440 21 47 79 182 129
300 50 118 100 231 110 250 16 30 199 452 282 653 16 38 35 83 43 100 8 18 27
61 41 97 38 92 167 383 175 395 4 6 17 37 30 70 42 109 144 185 249 185 l51 0
-2 213 -3 212 -575 -2 -575 -2 -3 -210 c-1 -116 -1 -211 0 -211 2 0 37 -3 78
-6 113 -8 173 -28 209 -69 46 -52 43 -112 -9 -241 -23 -54 -65 -164 -95 -244
-50 -135 -73 -196 -94 -245 -5 -11 -19 -49 -31 -85 -12 -36 -30 -84 -40 -107
-11 -22 -30 -72 -44 -110 -14 -37 -50 -133 -81 -213 -30 -79 -55 -145 -55
-147 0 -5 202 4 255 12 28 4 64 13 82 21 17 8 42 14 56 14 14 0 37 4 51 10 16
6 28 6 31 0 3 -5 -7 -12 -22 -16 -15 -4 -34 -12 -41 -17 -21 -16 -184 -38
-307 -41 l-110 -3 -17 -34 c-10 -19 -29 -63 -42 -99 -118 -315 -152 -393 -166
-385 -6 3 -10 12 -10 20 0 8 -14 56 -30 107 -17 51 -39 125 -50 163 -11 39
-35 122 -55 185 -19 63 -61 203 -93 310 -299 986 -334 1111 -323 1139 20 46
65 65 169 69 l92 4 0 221 0 220 -147 -6 c-85 -3 -172 -13 -203 -21 -125 -36
-304 -54 -316 -34 -4 6 -2 8 4 4 6 -3 13 -2 17 4 3 5 17 7 29 4 21 -5 69 2
176 26 40 9 18 9 -495 13 -181 1 -404 0 -495 -3z m1080 -1129 c0 -13 -261
-103 -295 -101 -3 0 -21 -7 -41 -15 -40 -16 -214 -33 -201 -19 4 5 22 10 40
11 37 3 92 11 92 13 0 1 14 4 30 6 17 3 77 20 135 38 58 19 121 37 140 41 19
4 46 13 60 21 30 16 40 17 40 5z"/>
<path d="M30541 21154 c0 -11 3 -14 6 -6 3 7 2 16 -1 19 -3 4 -6 -2 -5 -13z"/>
<path d="M11236 18600 l-98 -5 1 -919 c1 -506 4 -924 7 -928 3 -5 89 -8 190
-7 l185 3 -1 398 c-1 219 1 402 4 406 3 5 141 9 308 9 380 2 458 16 586 107
124 90 192 232 192 404 -1 164 -48 291 -145 388 -67 67 -117 95 -226 125 -69
19 -104 21 -489 22 -228 1 -459 0 -514 -3z m789 -314 c84 -9 114 -19 148 -50
41 -38 57 -86 57 -176 0 -53 -5 -72 -25 -102 -56 -83 -119 -91 -626 -88 l-67
0 2 208 1 207 225 5 c124 3 230 4 235 3 6 -1 28 -4 50 -7z"/>
<path d="M26070 18063 c-30 -2 -206 -4 -390 -5 l-335 -3 1 -850 0 -850 55 1
c30 1 114 2 186 3 l133 1 2 358 3 357 295 2 295 2 3 151 3 150 -296 -2 c-162
-1 -297 1 -301 4 -6 6 -8 378 -2 384 2 1 235 4 518 6 l515 4 3 146 3 146 -318
-1 c-175 -1 -343 -3 -373 -4z"/>
<path d="M18515 16101 l-60 -6 0 -365 0 -365 80 0 80 0 3 128 c3 122 4 130 29
158 25 27 53 39 53 21 0 -4 17 -30 38 -58 20 -28 70 -97 110 -153 l74 -101 94
2 c52 1 94 3 94 5 0 7 -70 106 -108 152 -20 25 -53 69 -72 96 -18 28 -37 52
-40 55 -23 20 -80 112 -80 130 0 15 43 63 140 157 77 75 140 139 140 143 0 3
-43 5 -96 4 l-96 -3 -130 -136 c-72 -75 -135 -134 -141 -132 -6 2 -12 58 -14
132 -4 119 -11 150 -33 143 -3 -1 -32 -4 -65 -7z"/>
<path d="M22291 15268 c-18 -57 -68 -201 -105 -303 -56 -154 -119 -334 -123
-352 -5 -22 -3 -23 76 -23 l80 0 22 75 22 75 36 1 c20 0 82 2 139 4 117 3 107
10 137 -96 l16 -57 84 0 c47 0 85 3 85 8 0 6 -18 58 -41 117 -22 60 -76 209
-120 333 -44 124 -85 237 -91 253 -10 27 -11 27 -104 27 l-93 0 -20 -62z m162
-235 c20 -65 37 -129 37 -143 0 -25 0 -25 -82 -22 -46 2 -86 7 -90 11 -4 4 10
58 32 121 22 63 40 123 40 133 0 9 6 17 13 17 8 0 28 -48 50 -117z"/>
<path d="M15108 15290 c-103 -26 -182 -91 -226 -189 -22 -50 -25 -70 -25 -181
-1 -107 3 -133 22 -183 28 -71 61 -111 126 -152 67 -43 143 -64 210 -59 l53 5
24 -53 c53 -115 147 -166 284 -155 107 10 109 11 74 62 -28 41 -31 42 -82 42
-71 -1 -126 26 -151 76 -23 45 -17 76 20 100 40 27 94 110 110 170 21 79 18
224 -7 293 -39 113 -120 193 -223 221 -38 11 -171 12 -209 3z m178 -130 c45
-22 88 -76 105 -131 16 -53 13 -230 -5 -274 -14 -32 -18 -36 -31 -25 -13 11
-26 11 -71 0 -54 -13 -54 -13 -52 -49 3 -34 1 -36 -27 -37 -63 -3 -132 41
-165 106 -58 114 -38 311 38 382 53 50 138 61 208 28z"/>
<path d="M5570 13890 l-315 -5 -3 -207 c-2 -193 -1 -208 15 -209 243 -8 334
-78 363 -276 6 -40 10 -409 10 -908 0 -728 -2 -849 -15 -900 -33 -126 -83
-183 -181 -205 -27 -7 -58 -15 -69 -20 -11 -4 -42 -12 -70 -16 l-50 -9 -3
-239 -2 -238 992 6 c546 3 1016 9 1043 12 196 21 423 99 544 187 73 53 209
196 244 256 96 165 156 378 157 559 1 183 -96 389 -240 512 -29 25 -57 50 -64
55 -6 6 -28 23 -49 38 -20 16 -35 33 -32 38 4 5 32 26 63 45 224 144 362 396
362 663 0 127 -18 216 -62 319 -131 302 -421 501 -791 542 -93 11 -1184 11
-1847 0z m1624 -489 c42 -21 52 -32 79 -90 l32 -66 0 -290 0 -290 -28 -57
c-16 -31 -41 -68 -57 -81 -49 -41 -175 -88 -264 -97 -83 -9 -440 -9 -449 0
-10 11 -15 978 -4 989 6 6 121 9 326 8 311 -2 317 -2 365 -26z m-31 -1316 c62
-18 87 -41 119 -110 22 -48 23 -63 26 -323 4 -306 -2 -347 -61 -422 -36 -47
-130 -100 -212 -119 -57 -14 -428 -26 -492 -16 l-43 6 0 493 c0 271 2 495 5
498 3 3 140 6 305 7 246 1 309 -1 353 -14z m-885 -1247 c-6 -18 -28 -21 -28
-4 0 9 7 16 16 16 9 0 14 -5 12 -12z m-48 -18 c-20 -13 -43 -13 -35 0 3 6 16
10 28 10 18 0 19 -2 7 -10z m-54 -17 c-16 -16 -101 -42 -109 -34 -5 5 4 12 22
16 17 3 33 11 36 16 4 5 18 9 32 9 15 0 23 -3 19 -7z m-126 -37 c0 -3 -4 -8
-10 -11 -5 -3 -10 -1 -10 4 0 6 5 11 10 11 6 0 10 -2 10 -4z"/>
<path d="M30769 13713 c-8 -1 -61 -7 -119 -13 -213 -25 -416 -76 -571 -145
-312 -138 -505 -324 -579 -555 -35 -108 -43 -177 -37 -293 10 -191 53 -360
121 -473 45 -76 137 -180 201 -229 56 -42 246 -135 315 -154 25 -6 54 -16 65
-21 11 -4 40 -13 65 -20 196 -49 244 -59 308 -69 163 -25 336 -77 427 -128 95
-53 188 -158 221 -249 10 -30 18 -80 18 -129 1 -71 -2 -86 -29 -134 -26 -48
-112 -131 -135 -131 -4 0 -25 -7 -46 -17 -55 -23 -62 -24 -229 -28 -99 -2
-174 1 -220 10 -206 40 -262 58 -403 131 -234 121 -353 280 -406 545 l-6 26
-181 -2 c-115 -1 -183 -6 -187 -12 -4 -6 -5 -267 -2 -580 l5 -568 195 0 195 0
-3 26 c-5 42 17 121 44 156 14 18 41 41 62 52 l36 18 55 -37 c59 -40 270 -150
288 -150 6 0 31 -9 57 -21 145 -64 415 -101 587 -81 176 21 344 70 519 154
145 68 222 122 343 237 84 80 138 153 191 258 55 110 84 211 94 327 35 394
-145 730 -474 886 -143 68 -233 90 -540 134 -429 62 -583 115 -688 237 -67 78
-81 119 -81 244 0 102 2 114 27 156 88 150 286 218 601 206 217 -8 401 -51
481 -112 155 -118 302 -361 293 -484 l-2 -24 192 -1 c121 -1 194 3 195 9 2 6
1 233 -2 505 l-5 495 -130 1 c-211 1 -206 3 -257 -72 -46 -68 -65 -77 -99 -45
-18 17 -144 83 -194 102 -19 7 -68 19 -175 41 -40 8 -366 26 -401 21z"/>
<path d="M20039 13568 c-2 -18 -3 -185 -1 -370 l3 -338 74 0 75 0 2 168 3 167
85 -1 c47 -1 111 -2 143 -2 l57 -2 0 -165 0 -165 79 0 79 0 -4 348 c-3 191 -4
357 -4 370 0 21 -4 22 -75 22 l-75 0 0 -139 0 -138 -27 -5 c-24 -4 -97 -4
-235 1 l-27 1 -3 138 -3 137 -71 3 -72 3 -3 -33z"/>
<path d="M16929 13563 c-2 -10 -3 -177 -1 -371 l3 -353 72 3 72 3 -4 251 c-2
143 1 254 6 257 5 3 24 -20 41 -51 18 -31 37 -64 42 -72 5 -8 56 -96 112 -195
56 -99 105 -183 110 -186 4 -3 41 -5 81 -4 l72 1 0 350 c1 192 -1 357 -3 367
-3 14 -15 17 -73 17 l-69 0 0 -245 c0 -135 -3 -245 -7 -245 -11 1 -44 52 -88
134 -21 38 -64 114 -96 168 -32 54 -59 102 -59 106 0 4 -11 24 -25 45 l-26 37
-78 0 c-67 0 -79 -3 -82 -17z"/>
<path d="M11143 13152 l-23 -3 0 -922 0 -922 200 -1 c133 0 200 3 202 10 2 6
1 423 -2 926 l-5 915 -175 0 c-96 0 -185 -1 -197 -3z"/>
<path d="M26574 12799 c-32 -44 -68 -91 -79 -104 -11 -14 -38 -49 -60 -80
-109 -151 -183 -240 -198 -240 -9 0 -91 99 -202 248 l-186 247 -270 0 c-148
-1 -269 -3 -269 -6 0 -3 35 -45 78 -93 42 -48 120 -138 172 -201 52 -62 164
-194 248 -293 83 -99 152 -187 152 -196 0 -18 -20 -43 -155 -199 -49 -57 -102
-120 -118 -140 -15 -20 -56 -66 -90 -102 -54 -56 -82 -89 -157 -184 -23 -30
-131 -159 -152 -183 l-20 -21 269 4 268 4 23 28 c12 15 75 96 139 180 64 84
134 172 155 195 21 23 53 63 71 89 17 26 37 48 44 48 7 0 30 -26 52 -57 22
-32 52 -71 66 -88 15 -16 54 -68 88 -115 34 -47 86 -117 117 -157 30 -40 63
-83 72 -97 l18 -24 275 -1 c156 -1 275 3 275 8 0 5 -7 15 -17 22 -9 8 -83 93
-164 189 -81 96 -162 191 -181 210 -18 20 -53 61 -78 91 -25 31 -84 101 -131
155 -127 148 -135 159 -118 181 32 40 165 201 198 239 43 48 69 79 136 159 28
33 52 62 55 65 21 20 154 176 190 223 25 31 48 57 52 57 5 0 8 5 8 10 0 7 -85
10 -258 10 l-259 -2 -59 -79z"/>
<path d="M22287 12463 c-3 -4 -4 -170 -3 -367 2 -409 -6 -377 92 -371 l49 3 3
276 c1 173 6 276 12 276 6 0 10 -1 10 -3 0 -3 20 -97 69 -322 23 -104 44 -199
46 -210 4 -19 11 -21 80 -19 41 0 77 3 79 5 5 4 68 286 122 538 3 15 9 20 14
15 6 -6 11 -132 12 -283 l3 -273 70 -1 70 -2 0 370 0 370 -114 0 -115 0 -24
-105 c-60 -270 -105 -450 -113 -450 -4 0 -18 44 -30 98 -12 53 -40 178 -63
277 l-42 180 -111 3 c-61 1 -114 -1 -116 -5z"/>
<path d="M14527 12432 c-66 -3 -64 10 -19 -142 13 -47 33 -116 44 -155 10 -38
30 -108 43 -155 14 -47 37 -130 52 -185 l28 -100 75 0 75 0 6 40 c3 22 17 96
31 165 14 69 33 168 43 220 19 107 24 125 30 119 2 -3 18 -72 34 -154 60 -296
71 -350 76 -372 5 -20 10 -21 82 -20 77 2 77 2 84 32 13 52 79 296 104 385 41
143 85 310 85 320 0 13 -143 1 -151 -12 -4 -6 -12 -38 -19 -72 -7 -33 -16 -74
-21 -91 -12 -41 -60 -253 -66 -293 -10 -60 -26 -27 -53 109 -15 73 -30 145
-33 159 -3 14 -13 64 -23 112 -17 86 -18 88 -48 92 -17 3 -44 3 -61 2 -16 -2
-40 -4 -51 -5 -23 -1 -28 -19 -90 -353 -15 -82 -30 -148 -34 -148 -4 0 -14 35
-23 78 -9 42 -26 115 -37 162 -11 47 -27 118 -35 158 -8 40 -19 81 -24 90 -10
19 -14 19 -104 14z"/>
<path d="M18731 12252 c-68 -37 -91 -129 -48 -193 28 -42 60 -59 114 -59 60 0
88 14 117 57 82 120 -54 264 -183 195z"/>
<path d="M20243 11375 c-155 -43 -240 -162 -250 -350 -9 -149 34 -268 123
-343 60 -50 123 -71 215 -72 86 0 128 14 177 59 18 17 37 31 42 31 4 0 12 -17
17 -37 8 -37 9 -37 58 -37 l50 0 -2 193 c-1 107 -4 196 -7 198 -9 9 -287 6
-296 -3 -4 -5 -6 -31 -3 -59 l5 -50 78 0 c43 0 82 -3 86 -7 16 -17 -27 -95
-69 -126 -83 -59 -187 -52 -257 18 -48 48 -62 95 -63 216 0 81 3 98 27 148 34
69 82 104 154 113 80 9 155 -31 182 -97 11 -26 15 -28 87 -29 l75 -1 -7 32
c-10 48 -50 112 -91 146 -71 58 -230 86 -331 57z"/>
<path d="M16940 11090 c0 -321 4 -346 74 -415 68 -68 140 -91 256 -82 171 13
265 100 270 247 1 30 1 157 1 283 l-1 227 -80 0 -80 0 0 -270 c0 -287 -2 -302
-49 -344 -16 -15 -37 -20 -84 -20 -74 -1 -119 25 -136 77 -5 17 -12 147 -15
287 -3 140 -6 258 -6 263 0 4 -34 7 -75 7 l-75 0 0 -260z"/>
<path d="M22160 9332 l0 -368 285 0 285 1 0 62 0 63 -207 2 -208 3 0 95 0 95
183 3 183 2 -3 63 -3 62 -180 0 -180 0 -3 60 c-6 111 -21 103 202 101 l194 -1
4 53 c2 29 2 57 0 62 -2 6 -106 10 -278 10 l-274 0 0 -368z"/>
<path d="M15180 9675 c-73 -25 -100 -37 -100 -46 0 -5 -5 -9 -10 -9 -17 0 -73
-68 -103 -126 -24 -44 -30 -70 -34 -148 -10 -166 27 -276 117 -351 73 -61 121
-77 230 -79 84 -1 102 3 153 26 78 37 156 117 182 188 16 44 20 80 20 175 0
116 -1 123 -33 187 -31 64 -118 158 -146 158 -6 0 -24 7 -41 16 -38 21 -185
27 -235 9z m182 -130 c44 -18 92 -72 109 -122 7 -21 13 -78 13 -128 0 -170
-69 -255 -207 -255 -43 0 -92 18 -123 46 -83 74 -96 305 -22 404 46 62 153 88
230 55z"/>
<path d="M9036 9484 c-8 -20 0 -32 14 -18 5 5 5 15 1 22 -6 11 -10 10 -15 -4z"/>
<path d="M9077 9473 c6 -15 39 -27 53 -18 19 12 10 23 -24 27 -24 3 -32 0 -29
-9z"/>
<path d="M18568 8842 l-38 -3 0 -60 0 -59 180 2 c158 3 180 1 180 -13 0 -13
-246 -337 -338 -445 -28 -33 -32 -45 -32 -96 l0 -58 295 0 295 0 0 60 0 60
-190 0 c-177 0 -190 1 -190 18 0 10 15 36 33 58 18 21 82 101 143 177 60 76
128 161 151 190 39 48 42 57 43 112 l0 60 -247 0 c-137 0 -265 -1 -285 -3z"/>
<path d="M10900 7878 c0 -5 7 -16 15 -25 9 -10 32 -40 52 -68 79 -108 338
-450 353 -465 8 -9 40 -51 70 -94 30 -43 60 -83 65 -89 6 -7 53 -70 105 -142
82 -114 94 -136 96 -175 1 -25 3 -211 3 -415 l1 -370 210 -3 210 -2 0 417 0
418 71 85 c39 47 104 124 146 173 41 48 88 104 103 125 15 20 40 51 56 67 38
40 117 134 185 220 31 39 83 100 115 136 32 36 87 100 122 143 l63 76 -228 0
-228 0 -85 -107 c-47 -58 -107 -132 -135 -164 -27 -31 -86 -103 -130 -159 -44
-55 -91 -113 -105 -128 -15 -15 -39 -45 -56 -67 -16 -22 -35 -46 -41 -53 -7
-7 -13 -17 -13 -21 0 -4 -11 -14 -25 -21 -30 -16 -43 -7 -91 65 -18 27 -54 79
-80 115 -47 66 -205 297 -301 440 -28 43 -57 82 -65 86 -16 11 -458 12 -458 2z"/>
<path d="M25705 7590 l-190 -5 2 -455 c1 -250 2 -652 3 -893 l0 -438 445 6
c344 5 458 10 502 21 216 56 345 162 446 368 81 164 117 331 117 541 0 208
-29 351 -102 504 -51 108 -168 228 -268 278 -138 69 -184 76 -490 77 -151 1
-360 -1 -465 -4z m635 -303 c19 -2 56 -13 82 -25 153 -67 228 -249 228 -549 0
-229 -52 -396 -153 -497 -92 -92 -139 -105 -399 -106 l-208 -1 0 590 0 590
128 3 c136 3 265 1 322 -5z"/>
<path d="M29249 5135 c-1 -5 -1 -30 -1 -55 1 -25 1 -116 1 -202 l1 -158 53 0
c74 0 170 -25 217 -56 43 -29 81 -86 99 -149 16 -58 27 -1700 12 -1857 -21
-220 -44 -247 -219 -257 l-107 -6 0 -223 0 -223 710 1 c391 0 1012 3 1380 6
l670 5 0 532 0 531 -30 8 c-32 9 -91 11 -243 9 -106 -1 -96 9 -133 -130 -19
-74 -51 -179 -86 -291 -24 -73 -87 -137 -183 -187 l-75 -38 -387 -3 -388 -3 0
393 c0 216 -3 693 -7 1059 l-6 665 22 67 c20 58 28 70 59 86 59 30 140 43 240
39 50 -1 93 0 95 4 1 4 1 107 -1 229 l-3 221 -844 -3 c-553 -3 -845 -7 -846
-14z m2428 -2257 c-3 -8 -6 -5 -6 6 -1 11 2 17 5 13 3 -3 4 -12 1 -19z"/>
<path d="M8147 5083 c-1 0 -645 -3 -1432 -6 -786 -3 -1431 -6 -1432 -6 -1 -1
0 -79 2 -173 2 -95 4 -284 5 -420 l0 -248 88 1 c48 1 98 0 112 -2 30 -3 112 8
144 21 15 5 37 33 57 71 46 86 156 201 243 252 l71 42 237 3 238 3 1 -73 c1
-40 2 -104 4 -143 6 -187 6 -1895 0 -1930 -17 -88 -69 -162 -134 -186 -13 -6
-61 -17 -105 -25 -45 -8 -91 -17 -103 -20 -23 -4 -23 -5 -23 -199 l0 -195 814
1 815 1 3 87 c2 47 1 138 -2 201 l-5 115 -98 7 c-216 15 -318 116 -332 325 -2
43 -7 510 -10 1037 -3 528 -8 962 -10 966 -2 3 0 12 4 19 7 10 66 14 257 17
137 2 261 0 277 -4 42 -11 120 -86 192 -182 36 -48 65 -91 65 -95 0 -4 8 -19
18 -33 41 -61 59 -161 68 -379 l7 -151 154 -1 155 -1 -6 623 c-4 342 -6 634
-6 649 l0 27 -166 3 c-91 2 -166 2 -167 1z m-867 -2908 c-7 -8 -17 -12 -22 -9
-6 4 -5 10 3 15 22 14 33 10 19 -6z m40 5 c0 -5 -2 -10 -4 -10 -3 0 -8 5 -11
10 -3 6 -1 10 4 10 6 0 11 -4 11 -10z m-80 -25 c0 -8 -12 -17 -27 -21 -16 -3
-48 -12 -73 -20 -25 -7 -56 -15 -70 -18 -47 -8 -85 -18 -105 -26 -47 -21 -385
-102 -430 -103 -88 -3 -175 4 -175 13 0 12 129 13 149 1 12 -8 36 -3 96 19 11
4 47 15 80 23 185 48 306 78 350 88 28 7 54 16 60 20 5 5 26 9 47 9 21 0 38 4
38 9 0 8 10 12 53 20 4 0 7 -6 7 -14z"/>
<path d="M18106 5052 c-2 -1 -201 -2 -444 -2 l-442 0 -2 -130 c-1 -72 -2 -156
-3 -187 l0 -56 90 -29 c50 -15 98 -28 107 -28 9 0 20 -5 23 -10 4 -6 12 -10
18 -9 13 2 37 -6 75 -24 30 -14 58 -62 71 -117 6 -27 13 -415 17 -955 6 -828
5 -916 -10 -974 -23 -89 -61 -154 -111 -190 -42 -30 -46 -31 -154 -31 -108 0
-111 -1 -112 -22 0 -13 -1 -108 -1 -213 l0 -190 828 4 c456 2 832 5 836 7 3 3
7 96 7 208 0 149 -3 207 -12 214 -7 5 -69 9 -139 9 -106 0 -131 3 -155 18 -87
57 -93 89 -93 488 l1 329 227 -5 c340 -7 388 -28 421 -184 6 -28 22 -150 36
-270 30 -256 46 -344 85 -473 53 -173 138 -271 270 -310 64 -19 96 -20 547
-20 l478 -1 0 193 0 192 -30 8 c-16 4 -86 17 -155 28 -181 30 -226 46 -265 95
-18 22 -70 105 -115 185 -109 192 -229 373 -323 490 -80 98 -97 135 -97 208 0
51 19 72 106 117 249 129 378 329 403 625 46 554 -228 896 -799 996 -93 16
-168 18 -643 19 -296 0 -540 -1 -541 -3z m1029 -374 c67 -37 121 -115 155
-223 60 -197 61 -615 1 -738 -44 -90 -162 -176 -271 -197 -58 -11 -526 -18
-536 -8 -3 4 -8 270 -11 592 l-6 585 129 3 c345 8 508 4 539 -14z m-1195
-1059 c0 -5 -4 -9 -10 -9 -5 0 -10 7 -10 16 0 8 5 12 10 9 6 -3 10 -10 10 -16z
m1330 -379 c0 -5 -4 -10 -10 -10 -5 0 -10 5 -10 10 0 6 5 10 10 10 6 0 10 -4
10 -10z"/>
<path d="M5290 4012 l0 -210 145 1 c165 0 150 -10 160 107 8 94 33 254 46 287
9 25 9 25 -28 17 -41 -10 -298 -8 -313 1 -6 4 -10 -71 -10 -203z"/>
</g>
</svg>
