<svg width="30" height="30" viewBox="0 0 30 30" fill="none" xmlns="http://www.w3.org/2000/svg">
<path fill-rule="evenodd" clip-rule="evenodd" d="M21.9643 0C22.3905 0 22.7993 0.169324 23.1007 0.470721C23.4021 0.772119 23.5714 1.1809 23.5714 1.60714V4.28571H27.8571C28.4255 4.28571 28.9705 4.51148 29.3724 4.91334C29.7742 5.31521 30 5.86025 30 6.42857V27.8571C30 28.4255 29.7742 28.9705 29.3724 29.3724C28.9705 29.7742 28.4255 30 27.8571 30H2.14286C1.57454 30 1.02949 29.7742 0.627628 29.3724C0.225765 28.9705 0 28.4255 0 27.8571V6.42857C0 5.86025 0.225765 5.31521 0.627628 4.91334C1.02949 4.51148 1.57454 4.28571 2.14286 4.28571H6.42857V1.60714C6.42857 1.1809 6.59789 0.772119 6.89929 0.470721C7.20069 0.169324 7.60947 0 8.03571 0C8.46196 0 8.87074 0.169324 9.17214 0.470721C9.47353 0.772119 9.64286 1.1809 9.64286 1.60714V4.28571H20.3571V1.60714C20.3571 1.1809 20.5265 0.772119 20.8279 0.470721C21.1293 0.169324 21.538 0 21.9643 0ZM3.21429 13.9286V26.7857H26.7857V13.9286H3.21429ZM3.21429 10.7143H26.7857V7.5H3.21429V10.7143ZM19.8857 17.0786C20.1867 17.3799 20.3557 17.7884 20.3557 18.2143C20.3557 18.6402 20.1867 19.0487 19.8857 19.35L15.0643 24.1714C14.7629 24.4724 14.3545 24.6414 13.9286 24.6414C13.5027 24.6414 13.0942 24.4724 12.7929 24.1714L10.1143 21.4929C9.95638 21.3457 9.82974 21.1683 9.7419 20.9712C9.65406 20.774 9.60683 20.5612 9.60302 20.3454C9.59921 20.1296 9.63891 19.9153 9.71974 19.7151C9.80057 19.515 9.92088 19.3332 10.0735 19.1806C10.2261 19.028 10.4079 18.9077 10.608 18.8269C10.8081 18.746 11.0225 18.7064 11.2383 18.7102C11.4541 18.714 11.6669 18.7612 11.864 18.849C12.0612 18.9369 12.2386 19.0635 12.3857 19.2214L13.9286 20.7643L17.6143 17.0786C17.9156 16.7776 18.3241 16.6086 18.75 16.6086C19.1759 16.6086 19.5844 16.7776 19.8857 17.0786Z" fill="white"/>
</svg>
