<svg width="70" height="72" viewBox="0 0 70 72" fill="none" xmlns="http://www.w3.org/2000/svg">
<path fill-rule="evenodd" clip-rule="evenodd" d="M51.067 6.52556C51.1254 6.59556 51.1798 6.67139 51.2284 6.74722L51.2304 6.75111L51.2362 6.76083L51.2537 6.79L51.3159 6.89306C51.6723 7.4868 52.0165 8.08776 52.3484 8.69556C53.0095 9.905 53.8865 11.6122 54.7654 13.6306C56.5056 17.6167 58.3334 22.9969 58.3334 28.1225C58.3334 33.9228 54.4154 37.1389 50.9698 38.7994C49.2517 39.615 47.4384 40.2127 45.572 40.5786C42.6984 43.2458 38.9208 44.7251 35.0001 44.7183C32.6619 44.7209 30.3533 44.1954 28.2466 43.1809C26.14 42.1665 24.2896 40.6893 22.8337 38.8597L22.7442 38.8519C22.3215 38.8135 21.9005 38.7577 21.4823 38.6847C20.1595 38.461 18.8716 38.0648 17.6517 37.5064C16.2323 36.8453 14.7234 35.8303 13.5684 34.2728C12.3959 32.6919 11.6667 30.6581 11.6667 28.1206C11.6667 23.3236 14.004 17.8733 16.1506 13.825C17.4424 11.3979 18.8746 9.04829 20.4401 6.78806L20.5023 6.70056L20.5256 6.66361C20.7708 6.29202 21.039 5.93614 21.3287 5.59806C22.0872 4.72261 22.949 3.94238 23.8954 3.27444C26.2559 1.59639 29.892 0 35.107 0C40.3084 0 44.2692 1.58861 46.937 3.19472C48.269 3.99778 49.2781 4.80278 49.9645 5.41917C50.3393 5.7569 50.6962 6.11386 51.034 6.48861L51.0534 6.51194L51.0631 6.52167L51.0651 6.52556H51.067ZM23.7942 8.77333C23.7653 8.82265 23.7341 8.87066 23.7009 8.91722L23.697 8.92111L23.6815 8.94055L23.6173 9.03389C23.2103 9.61693 22.8142 10.2075 22.4292 10.8053C21.6515 12.0108 20.617 13.7025 19.5865 15.6469C17.4748 19.6292 15.5556 24.3503 15.5556 28.1225C15.5556 29.8706 16.0417 31.0819 16.6912 31.9589C17.3601 32.8572 18.2837 33.5144 19.2948 33.985C19.7751 34.2086 20.2612 34.3856 20.724 34.5236C20.3545 32.8548 20.0761 31.1671 19.8898 29.4681C19.6701 27.3797 19.6059 25.0639 19.9987 23.0164C20.3856 21.0097 21.2976 18.8533 23.3859 17.7314C26.1645 16.24 30.8662 14.245 35.0117 12.8703C37.0787 12.1839 39.0951 11.6219 40.707 11.3653C41.4984 11.2408 42.3112 11.1708 43.0267 11.2428C43.5867 11.3011 44.7476 11.5131 45.3892 12.565C50.6004 20.0881 50.6781 26.9811 49.3579 32.0153C48.9767 33.4697 48.4829 34.7608 47.9734 35.8575C48.4166 35.6892 48.8526 35.5024 49.2801 35.2975C52.0995 33.9364 54.4445 31.7703 54.4445 28.1225C54.4445 23.8019 52.8695 19.0108 51.2012 15.1842C50.3118 13.1516 49.3082 11.1709 48.1951 9.25167L48.0123 8.9425L47.9656 8.89389L47.9442 8.87056C47.7581 8.67735 47.5649 8.4912 47.3648 8.3125C46.6112 7.64235 45.7961 7.04471 44.9304 6.5275C42.7584 5.21695 39.482 3.88889 35.107 3.88889C30.7437 3.88889 27.8892 5.20917 26.1509 6.44583C25.4624 6.93038 24.8349 7.49644 24.2823 8.13167C24.1109 8.33092 23.9511 8.53998 23.804 8.75778L23.7942 8.77333ZM51.2284 6.74722L49.5795 7.77778L51.2284 6.74722ZM49.5795 7.77778L51.067 6.52556L49.5795 7.77778ZM24.7762 34.7939C24.311 32.9083 23.9707 30.994 23.7573 29.0636C23.5531 27.1328 23.5279 25.2525 23.8156 23.7494C24.1131 22.2094 24.6517 21.4647 25.2234 21.1575C27.7648 19.7925 32.2545 17.8811 36.2348 16.5608C38.2298 15.8997 40.0109 15.4136 41.3137 15.2075C41.8056 15.1297 42.1673 15.1006 42.4123 15.1025C46.6862 21.4569 46.6415 27.0356 45.5934 31.0294C45.1403 32.7476 44.4512 34.3946 43.5459 35.9236C43.2131 36.486 42.8462 37.0276 42.4473 37.5453L42.4337 37.5628L42.3929 37.6133L42.3851 37.6211L42.3831 37.6231C42.1594 37.8844 42.0091 38.2004 41.9476 38.5389C40.6107 39.531 39.077 40.2254 37.4495 40.5754C35.8219 40.9255 34.1383 40.923 32.5118 40.5682C30.8853 40.2135 29.3536 39.5146 28.0196 38.5186C26.6857 37.5226 25.5804 36.2526 24.7781 34.7939H24.7762ZM42.739 15.1278C42.7218 15.1257 42.7048 15.1218 42.6884 15.1161C42.7058 15.1174 42.7228 15.1214 42.739 15.1278Z" fill="black"/>
<path fill-rule="evenodd" clip-rule="evenodd" d="M23.1661 46.3846C22.7539 45.564 22.2464 44.551 21.3889 44.7474C10.8811 47.139 0 54.0457 0 61.386V71.9443H70V61.386C70 55.6032 63.2489 50.0927 55.2475 46.8415L55.2203 46.789L55.2106 46.7696L55.1464 46.8007C53.0211 45.9452 50.8083 45.2452 48.6111 44.7474C47.6331 44.5238 46.6219 45.8693 46.1806 46.7113H23.3333C23.2766 46.6029 23.2208 46.494 23.1661 46.3846ZM49.3947 48.9532C50.2444 49.1865 51.0903 49.4529 51.9244 49.7446C51.9478 50.4096 51.8972 51.1932 51.7883 51.9943C51.6775 52.8238 51.5006 53.643 51.2594 54.4443H48.6111C48.2501 54.4445 47.8963 54.5452 47.5893 54.7351C47.2822 54.925 47.0341 55.1967 46.8728 55.5196L44.9283 59.4085C44.793 59.6783 44.7225 59.9759 44.7222 60.2777V64.1665C44.7222 64.6822 44.9271 65.1768 45.2917 65.5415C45.6564 65.9061 46.151 66.111 46.6667 66.111H50.5556V62.2221H48.6111V60.7365L49.8128 58.3332H55.1872L56.3889 60.7365V62.2221H54.4444V66.111H58.3333C58.849 66.111 59.3436 65.9061 59.7083 65.5415C60.0729 65.1768 60.2778 64.6822 60.2778 64.1665V60.2777C60.2775 59.9759 60.207 59.6783 60.0717 59.4085L58.1272 55.5196C57.9659 55.1967 57.7178 54.925 57.4107 54.7351C57.1037 54.5452 56.7499 54.4445 56.3889 54.4443H55.2883C55.5285 53.4159 55.6897 52.3706 55.7706 51.3177C57.6664 52.2121 59.4281 53.2388 60.9544 54.351C64.6917 57.081 66.1111 59.6321 66.1111 61.386V68.0554H3.88889V61.386C3.88889 59.6302 5.30833 57.079 9.04556 54.3529C10.9239 52.9821 13.1658 51.7415 15.5692 50.7149C15.6359 52.2644 15.8846 53.8007 16.31 55.2921L16.3256 55.3465C15.1631 56.082 14.2979 57.2045 13.8828 58.5159C13.4677 59.8273 13.5294 61.2433 14.057 62.5136C14.5846 63.784 15.5442 64.827 16.7662 65.4585C17.9882 66.09 19.3941 66.2693 20.7355 65.9648C22.0769 65.6604 23.2676 64.8916 24.0972 63.7944C24.9268 62.6972 25.342 61.3421 25.2694 59.9685C25.1969 58.5948 24.6412 57.291 23.7006 56.2874C22.76 55.2837 21.4949 54.6447 20.1289 54.4832C19.8804 53.6697 19.6983 52.8373 19.5844 51.9943C19.4762 51.2404 19.4313 50.4788 19.4503 49.7174C19.4559 49.572 19.4656 49.4267 19.4794 49.2818C19.7128 49.2099 19.9461 49.1399 20.1794 49.0738L20.9864 50.6021H48.5275L49.3947 48.9532ZM19.4444 62.2513C20.4906 62.2513 21.3889 61.3957 21.3889 60.2777C21.3889 59.1615 20.4906 58.304 19.4444 58.304C18.3983 58.304 17.5 59.1596 17.5 60.2777C17.5 61.3938 18.3983 62.2513 19.4444 62.2513Z" fill="black"/>
</svg>
