<svg width="66" height="68" viewBox="0 0 66 68" fill="none" xmlns="http://www.w3.org/2000/svg">
<mask id="mask0_455_2418" style="mask-type:alpha" maskUnits="userSpaceOnUse" x="0" y="0" width="66" height="68">
<path d="M56.9448 9.13443C50.6834 3.25532 42.4139 -0.011876 33.825 3.24391e-05C15.1437 3.24391e-05 0 15.1437 0 33.825C0 52.5063 15.1437 67.65 33.825 67.65C42.7251 67.6617 51.2689 64.1541 57.5932 57.8919L33 33L56.9448 9.13443Z" fill="black"/>
<path d="M59.3998 39.5999C61.1502 39.5999 62.829 38.9045 64.0667 37.6668C65.3044 36.4291 65.9998 34.7503 65.9998 32.9999C65.9998 31.2495 65.3044 29.5707 64.0667 28.333C62.829 27.0953 61.1502 26.3999 59.3998 26.3999C57.6494 26.3999 55.9706 27.0953 54.7329 28.333C53.4952 29.5707 52.7998 31.2495 52.7998 32.9999C52.7998 34.7503 53.4952 36.4291 54.7329 37.6668C55.9706 38.9045 57.6494 39.5999 59.3998 39.5999Z" fill="black"/>
<path d="M21.4501 14.8499V28.0499V14.8499ZM14.8501 21.4499H28.0501H14.8501Z" fill="black"/>
</mask>
<g mask="url(#mask0_455_2418)">
<path d="M-6.6001 -6.6001H72.5999V72.5999H-6.6001V-6.6001Z" fill="black"/>
</g>
</svg>
