<svg width="30" height="31" viewBox="0 0 30 31" fill="none" xmlns="http://www.w3.org/2000/svg">
<path fill-rule="evenodd" clip-rule="evenodd" d="M21.8858 2.79667C21.9108 2.82667 21.9342 2.85917 21.955 2.89167L21.9558 2.89333L21.9583 2.8975L21.9658 2.91L21.9925 2.95417C22.1452 3.20863 22.2928 3.46618 22.435 3.72667C22.7183 4.245 23.0942 4.97667 23.4708 5.84167C24.2167 7.55 25 9.85583 25 12.0525C25 14.5383 23.3208 15.9167 21.8442 16.6283C21.1078 16.9779 20.3307 17.234 19.5308 17.3908C18.2993 18.5339 16.6803 19.1679 15 19.165C13.9979 19.1661 13.0085 18.9409 12.1057 18.5061C11.2028 18.0714 10.4098 17.4383 9.78583 16.6542L9.7475 16.6508C9.56632 16.6343 9.38589 16.6104 9.20667 16.5792C8.63973 16.4833 8.08781 16.3135 7.565 16.0742C6.95667 15.7908 6.31 15.3558 5.815 14.6883C5.3125 14.0108 5 13.1392 5 12.0517C5 9.99583 6.00167 7.66 6.92167 5.925C7.47528 4.88483 8.0891 3.87784 8.76 2.90917L8.78667 2.87167L8.79667 2.85583C8.90175 2.69658 9.01669 2.54406 9.14083 2.39917C9.46589 2.02398 9.83526 1.68959 10.2408 1.40333C11.2525 0.684167 12.8108 0 15.0458 0C17.275 0 18.9725 0.680833 20.1158 1.36917C20.6867 1.71333 21.1192 2.05833 21.4133 2.3225C21.5739 2.46724 21.7269 2.62022 21.8717 2.78083L21.88 2.79083L21.8842 2.795L21.885 2.79667H21.8858ZM10.1975 3.76C10.1851 3.78114 10.1717 3.80171 10.1575 3.82167L10.1558 3.82333L10.1492 3.83167L10.1217 3.87167C9.94725 4.12154 9.7775 4.37464 9.6125 4.63083C9.27917 5.1475 8.83583 5.8725 8.39417 6.70583C7.48917 8.4125 6.66667 10.4358 6.66667 12.0525C6.66667 12.8017 6.875 13.3208 7.15333 13.6967C7.44 14.0817 7.83583 14.3633 8.26917 14.565C8.475 14.6608 8.68333 14.7367 8.88167 14.7958C8.72333 14.0806 8.60399 13.3573 8.52417 12.6292C8.43 11.7342 8.4025 10.7417 8.57083 9.86417C8.73667 9.00417 9.1275 8.08 10.0225 7.59917C11.2133 6.96 13.2283 6.105 15.005 5.51583C15.8908 5.22167 16.755 4.98083 17.4458 4.87083C17.785 4.8175 18.1333 4.7875 18.44 4.81833C18.68 4.84333 19.1775 4.93417 19.4525 5.385C21.6858 8.60917 21.7192 11.5633 21.1533 13.7208C20.99 14.3442 20.7783 14.8975 20.56 15.3675C20.7499 15.2954 20.9368 15.2153 21.12 15.1275C22.3283 14.5442 23.3333 13.6158 23.3333 12.0525C23.3333 10.2008 22.6583 8.1475 21.9433 6.5075C21.5622 5.63639 21.132 4.78753 20.655 3.965L20.5767 3.8325L20.5567 3.81167L20.5475 3.80167C20.4677 3.71887 20.3849 3.63909 20.2992 3.5625C19.9762 3.27529 19.6269 3.01916 19.2558 2.7975C18.325 2.23583 16.9208 1.66667 15.0458 1.66667C13.1758 1.66667 11.9525 2.2325 11.2075 2.7625C10.9124 2.97016 10.6435 3.21276 10.4067 3.485C10.3332 3.5704 10.2647 3.65999 10.2017 3.75333L10.1975 3.76ZM21.955 2.89167L21.2483 3.33333L21.955 2.89167ZM21.2483 3.33333L21.8858 2.79667L21.2483 3.33333ZM10.6183 14.9117C10.419 14.1035 10.2731 13.2831 10.1817 12.4558C10.0942 11.6283 10.0833 10.8225 10.2067 10.1783C10.3342 9.51833 10.565 9.19917 10.81 9.0675C11.8992 8.4825 13.8233 7.66333 15.5292 7.0975C16.3842 6.81417 17.1475 6.60583 17.7058 6.5175C17.9167 6.48417 18.0717 6.47167 18.1767 6.4725C20.0083 9.19583 19.9892 11.5867 19.54 13.2983C19.3458 14.0347 19.0505 14.7406 18.6625 15.3958C18.5199 15.6369 18.3626 15.869 18.1917 16.0908L18.1858 16.0983L18.1683 16.12L18.165 16.1233L18.1642 16.1242C18.0683 16.2362 18.0039 16.3716 17.9775 16.5167C17.4046 16.9419 16.7472 17.2395 16.0497 17.3895C15.3522 17.5395 14.6307 17.5384 13.9336 17.3864C13.2365 17.2343 12.5801 16.9348 12.0084 16.508C11.4367 16.0811 10.963 15.5368 10.6192 14.9117H10.6183ZM18.3167 6.48333C18.3093 6.48243 18.302 6.48075 18.295 6.47833C18.3024 6.4789 18.3097 6.48059 18.3167 6.48333Z" fill="white"/>
<path fill-rule="evenodd" clip-rule="evenodd" d="M9.92833 19.8793C9.75167 19.5276 9.53417 19.0934 9.16667 19.1776C4.66333 20.2026 0 23.1626 0 26.3084V30.8334H30V26.3084C30 23.8301 27.1067 21.4684 23.6775 20.0751L23.6658 20.0526L23.6617 20.0443L23.6342 20.0576C22.7233 19.6909 21.775 19.3909 20.8333 19.1776C20.4142 19.0818 19.9808 19.6584 19.7917 20.0193H10C9.97567 19.9728 9.95178 19.9261 9.92833 19.8793ZM21.1692 20.9801C21.5333 21.0801 21.8958 21.1943 22.2533 21.3193C22.2633 21.6043 22.2417 21.9401 22.195 22.2834C22.1475 22.6389 22.0717 22.99 21.9683 23.3334H20.8333C20.6786 23.3335 20.527 23.3767 20.3954 23.458C20.2638 23.5394 20.1575 23.6559 20.0883 23.7943L19.255 25.4609C19.197 25.5765 19.1668 25.7041 19.1667 25.8334V27.5001C19.1667 27.7211 19.2545 27.9331 19.4107 28.0893C19.567 28.2456 19.779 28.3334 20 28.3334H21.6667V26.6668H20.8333V26.0301L21.3483 25.0001H23.6517L24.1667 26.0301V26.6668H23.3333V28.3334H25C25.221 28.3334 25.433 28.2456 25.5893 28.0893C25.7455 27.9331 25.8333 27.7211 25.8333 27.5001V25.8334C25.8332 25.7041 25.803 25.5765 25.745 25.4609L24.9117 23.7943C24.8425 23.6559 24.7362 23.5394 24.6046 23.458C24.473 23.3767 24.3214 23.3335 24.1667 23.3334H23.695C23.7979 22.8927 23.867 22.4447 23.9017 21.9934C24.7142 22.3768 25.4692 22.8168 26.1233 23.2934C27.725 24.4634 28.3333 25.5568 28.3333 26.3084V29.1668H1.66667V26.3084C1.66667 25.5559 2.275 24.4626 3.87667 23.2943C4.68167 22.7068 5.6425 22.1751 6.6725 21.7351C6.70111 22.3992 6.80767 23.0576 6.99 23.6968L6.99667 23.7201C6.49847 24.0353 6.12768 24.5164 5.94978 25.0784C5.77188 25.6404 5.79832 26.2473 6.02444 26.7917C6.25055 27.3361 6.66178 27.7831 7.1855 28.0538C7.70923 28.3244 8.31175 28.4013 8.88664 28.2708C9.46154 28.1403 9.97182 27.8108 10.3274 27.3406C10.6829 26.8704 10.8609 26.2896 10.8298 25.7009C10.7987 25.1122 10.5605 24.5534 10.1574 24.1233C9.75427 23.6931 9.21211 23.4193 8.62667 23.3501C8.52016 23.0014 8.44213 22.6447 8.39333 22.2834C8.34694 21.9603 8.32771 21.6339 8.33583 21.3076C8.33825 21.2453 8.34242 21.183 8.34833 21.1209C8.44833 21.0901 8.54833 21.0601 8.64833 21.0318L8.99417 21.6868H20.7975L21.1692 20.9801ZM8.33333 26.6793C8.78167 26.6793 9.16667 26.3126 9.16667 25.8334C9.16667 25.3551 8.78167 24.9876 8.33333 24.9876C7.885 24.9876 7.5 25.3543 7.5 25.8334C7.5 26.3118 7.885 26.6793 8.33333 26.6793Z" fill="white"/>
</svg>
