<?xml version="1.0" encoding="utf-8"?>
<!-- Generator: Adobe Illustrator 27.9.0, SVG Export Plug-In . SVG Version: 6.00 Build 0)  -->
<svg version="1.1" id="Calque_1" xmlns="http://www.w3.org/2000/svg" xmlns:xlink="http://www.w3.org/1999/xlink" x="0px" y="0px"
	 viewBox="0 0 20 20" style="enable-background:new 0 0 20 20;" xml:space="preserve">
<style type="text/css">
	.st0{fill:#FFFFFF;}
</style>
<path class="st0" d="M14.8,13.7c-0.6,0-1.2,0.2-1.7,0.5l-4.9-3.4c0.1-0.3,0.1-0.6,0.1-0.9c0-0.3,0-0.6-0.1-0.9L13,5.7
	c0.5,0.4,1.1,0.6,1.8,0.6c1.7,0,3.1-1.4,3.1-3.1S16.5,0,14.8,0s-3.1,1.4-3.1,3.1c0,0.2,0,0.5,0.1,0.7L6.8,7.2
	c-0.5-0.3-1-0.5-1.6-0.5C3.5,6.8,2,8.2,2,9.9s1.4,3.1,3.1,3.1c0.6,0,1.2-0.2,1.6-0.5l4.9,3.4c-0.1,0.3-0.1,0.5-0.1,0.8
	c0,1.7,1.4,3.1,3.1,3.1s3.1-1.4,3.1-3.1C18,15.1,16.5,13.7,14.8,13.7z"/>
</svg>
